<svg width="32" height="25" viewBox="0 0 32 25" fill="none" xmlns="http://www.w3.org/2000/svg">
<path d="M5.2 0C2.34245 0 0 2.28755 0 5.07812V19.9219C0 22.7125 2.34245 25 5.2 25H26.8C29.6576 25 32 22.7125 32 19.9219V5.07812C32 2.28755 29.6576 0 26.8 0H5.2ZM5.97813 2.34375H26.0219L16 7.63397L5.97813 2.34375ZM2.97656 3.42255L15.4297 9.99603C15.6049 10.0884 15.8009 10.1368 16 10.1368C16.1991 10.1368 16.3951 10.0884 16.5703 9.99603L29.0234 3.42255C29.3806 3.88147 29.6 4.44991 29.6 5.07812V19.9219C29.6 21.3114 28.5651 22.4303 27.2 22.6181V9.17358C27.1998 8.9708 27.1457 8.77154 27.043 8.59529C26.9403 8.41903 26.7925 8.27182 26.6141 8.16803C26.4357 8.06424 26.2328 8.00743 26.0252 8.00315C25.8176 7.99887 25.6124 8.04727 25.4297 8.14362L16 13.121L6.57031 8.14362C6.39382 8.05008 6.19612 8.00129 5.99531 8.00171C5.67788 8.00295 5.37387 8.12696 5.14985 8.34659C4.92582 8.56622 4.80003 8.86358 4.8 9.17358V22.6181C3.43489 22.4303 2.4 21.3114 2.4 19.9219V5.07812C2.4 4.44991 2.61939 3.88147 2.97656 3.42255ZM7.2 11.1404L15.4297 15.4846C15.6049 15.577 15.8009 15.6254 16 15.6254C16.1991 15.6254 16.3951 15.577 16.5703 15.4846L24.8 11.1404V22.6562H7.2V11.1404Z" fill="#D9D9D9"/>
</svg>
