<svg width="32" height="32" viewBox="0 0 32 32" fill="none" xmlns="http://www.w3.org/2000/svg">
<path d="M9.28846 0C4.17308 0 0 4.17308 0 9.28846V22.7115C0 27.8269 4.17308 32 9.28846 32H22.7115C27.8269 32 32 27.8269 32 22.7115V9.28846C32 4.17308 27.8269 0 22.7115 0H9.28846ZM9.28846 2.46154H22.7115C26.4952 2.46154 29.5385 5.5 29.5385 9.28846V22.7115C29.5385 26.4952 26.5 29.5385 22.7115 29.5385H9.28846C5.50481 29.5385 2.46154 26.5 2.46154 22.7115V9.28846C2.46154 5.50481 5.5 2.46154 9.28846 2.46154ZM25.2308 4.92308C24.2115 4.92308 23.3846 5.75 23.3846 6.76923C23.3846 7.78846 24.2115 8.61539 25.2308 8.61539C26.25 8.61539 27.0769 7.78846 27.0769 6.76923C27.0769 5.75 26.25 4.92308 25.2308 4.92308ZM16 7.38462C11.2548 7.38462 7.38462 11.2548 7.38462 16C7.38462 20.7452 11.2548 24.6154 16 24.6154C20.7452 24.6154 24.6154 20.7452 24.6154 16C24.6154 11.2548 20.7452 7.38462 16 7.38462ZM16 9.84615C19.4135 9.84615 22.1538 12.5865 22.1538 16C22.1538 19.4135 19.4135 22.1538 16 22.1538C12.5865 22.1538 9.84615 19.4135 9.84615 16C9.84615 12.5865 12.5865 9.84615 16 9.84615Z" fill="#D9D9D9"/>
</svg>
