<svg width="32" height="32" viewBox="0 0 32 32" fill="none" xmlns="http://www.w3.org/2000/svg">
<path fill-rule="evenodd" clip-rule="evenodd" d="M27.3385 4.65068C24.3281 1.65392 20.3281 0 16.0677 0C7.28646 0 0.135417 7.11342 0.135417 15.8548C0.130208 18.6494 0.864584 21.3765 2.26042 23.7822L0 32L8.44792 29.7913C10.7708 31.0564 13.3958 31.72 16.0625 31.7252H16.0677C24.849 31.7252 31.9948 24.6118 32 15.8652C32 11.6293 30.3438 7.64744 27.3385 4.65068ZM16.0677 29.0447H16.0625C13.6875 29.0447 11.3542 28.407 9.32292 27.2093L8.83854 26.9242L3.82292 28.2307L5.16146 23.3675L4.84896 22.8697C3.52083 20.7699 2.82292 18.3435 2.82292 15.8548C2.82292 8.59106 8.76562 2.68049 16.0729 2.68049C19.6094 2.68049 22.9323 4.05444 25.4323 6.5431C27.9323 9.03694 29.3073 12.3448 29.3073 15.8652C29.3073 23.1342 23.3646 29.0447 16.0677 29.0447ZM23.3281 19.173C22.9323 18.976 20.974 18.0168 20.6094 17.8872C20.2448 17.7524 19.9792 17.6902 19.7135 18.0843C19.4479 18.4835 18.6875 19.3752 18.4531 19.6397C18.224 19.8989 17.9896 19.9352 17.5938 19.7382C17.1927 19.5412 15.9115 19.1212 14.3906 17.768C13.2083 16.7207 12.4063 15.4193 12.1771 15.0253C11.9427 14.6261 12.151 14.4135 12.349 14.2165C12.5312 14.0402 12.75 13.755 12.9479 13.5217C13.1458 13.2936 13.2135 13.1277 13.349 12.8633C13.4792 12.5988 13.4115 12.3655 13.3125 12.1685C13.2135 11.9715 12.4167 10.0169 12.0833 9.22359C11.7604 8.45107 11.4323 8.55995 11.1875 8.54439C10.9583 8.53403 10.6927 8.53403 10.4271 8.53403C10.1615 8.53403 9.72917 8.63253 9.36458 9.03176C9 9.4258 7.97396 10.385 7.97396 12.3344C7.97396 14.2839 9.40104 16.1711 9.59896 16.4355C9.79687 16.6947 12.4063 20.6973 16.401 22.4135C17.349 22.8231 18.0885 23.0668 18.6667 23.2482C19.6198 23.5489 20.4896 23.5075 21.1771 23.4089C21.9427 23.2949 23.5312 22.4498 23.8646 21.5217C24.1927 20.5988 24.1927 19.8056 24.0938 19.6397C23.9948 19.4738 23.7292 19.3752 23.3281 19.173Z" fill="#D9D9D9"/>
</svg>
