<svg width="82" height="72" viewBox="0 0 82 72" fill="none" xmlns="http://www.w3.org/2000/svg">
<path d="M21.9082 27.5355C20.7366 26.3639 20.7366 24.4644 21.9082 23.2929C23.0798 22.1213 24.9793 22.1213 26.1509 23.2929L41.7072 38.8492C42.8788 40.0208 42.8788 41.9203 41.7072 43.0919C40.5356 44.2634 38.6361 44.2634 37.4646 43.0919L21.9082 27.5355Z" stroke="#3C3C3C" stroke-width="3" stroke-linecap="round" stroke-linejoin="round"/>
<path d="M31.1006 28.2426L45.2427 14.1005L50.8996 19.7573L36.7575 33.8995L31.1006 28.2426Z" stroke="#3C3C3C" stroke-width="3" stroke-linecap="round" stroke-linejoin="round"/>
<path d="M22.6153 36.7279C21.0532 35.1658 21.0532 32.6331 22.6153 31.071L24.0295 29.6568L35.3432 40.9705L33.929 42.3848C32.3669 43.9469 29.8343 43.9469 28.2722 42.3848L22.6153 36.7279Z" stroke="#3C3C3C" stroke-width="3" stroke-linecap="round" stroke-linejoin="round"/>
<path d="M44.5356 4.9081C43.3641 3.73653 41.4646 3.73653 40.293 4.9081C39.1214 6.07967 39.1214 7.97917 40.293 9.15074L55.8493 24.7071C57.0209 25.8787 58.9204 25.8787 60.092 24.7071C61.2636 23.5355 61.2636 21.636 60.092 20.4644L44.5356 4.9081Z" stroke="#3C3C3C" stroke-width="3" stroke-linecap="round" stroke-linejoin="round"/>
<path d="M53.728 5.61521C52.1659 4.05311 49.6333 4.05311 48.0712 5.61521L46.657 7.02942L57.9707 18.3431L59.3849 16.9289C60.947 15.3668 60.947 12.8342 59.3849 11.2721L53.728 5.61521Z" stroke="#3C3C3C" stroke-width="3" stroke-linecap="round" stroke-linejoin="round"/>
<path d="M14.1758 67C13.8047 67 13.4805 66.9512 13.2031 66.8535C12.9258 66.7559 12.6953 66.6055 12.5117 66.4023C12.3281 66.1992 12.1875 65.9395 12.0898 65.623C11.8594 65.8145 11.623 65.957 11.3809 66.0508C11.1387 66.1406 10.875 66.1855 10.5898 66.1855C9.95703 66.1855 9.42969 66.0137 9.00781 65.6699C8.58594 65.3262 8.375 64.8242 8.375 64.1641C8.375 63.8008 8.45508 63.4746 8.61523 63.1855C8.7793 62.8965 9 62.6387 9.27734 62.4121C9.55859 62.1855 9.88086 61.9883 10.2441 61.8203C10.6113 61.6484 10.998 61.5 11.4043 61.375L11.3633 61.0938L12.6875 60.8242L13.2383 64.5566C13.2734 64.8105 13.3691 65.0195 13.5254 65.1836C13.6816 65.3438 13.9062 65.4238 14.1992 65.4238H14.375V67H14.1758ZM11.791 63.8887C11.791 63.834 11.7871 63.7734 11.7793 63.707C11.7715 63.6406 11.7598 63.5723 11.7441 63.502L11.6328 62.8223C11.3945 62.9043 11.166 62.9941 10.9473 63.0918C10.7285 63.1855 10.5332 63.2871 10.3613 63.3965C10.1934 63.502 10.0605 63.6152 9.96289 63.7363C9.86523 63.8574 9.81641 63.9824 9.81641 64.1113C9.81641 64.2949 9.88477 64.4395 10.0215 64.5449C10.1621 64.6465 10.3457 64.6973 10.5723 64.6973C10.7637 64.6973 10.9531 64.668 11.1406 64.6094C11.3281 64.5508 11.4824 64.4609 11.6035 64.3398C11.7285 64.2188 11.791 64.0684 11.791 63.8887ZM15.084 67H14.1465V65.4238H15.084C15.4004 65.4238 15.6152 65.3281 15.7285 65.1367C15.8457 64.9453 15.9043 64.7012 15.9043 64.4043C15.9043 64.1426 15.873 63.8574 15.8105 63.5488C15.752 63.2363 15.6914 62.9297 15.6289 62.6289L17.0645 62.2598C17.1387 62.6152 17.1973 62.9688 17.2402 63.3203C17.2832 63.668 17.3047 64 17.3047 64.3164C17.3047 64.8281 17.2363 65.2871 17.0996 65.6934C16.9629 66.0957 16.7324 66.4141 16.4082 66.6484C16.084 66.8828 15.6426 67 15.084 67ZM15.7754 59.5L16.7891 60.5137L15.7754 61.5273L14.7617 60.5137L15.7754 59.5ZM18.6172 58.8145H20.0879V64.2168C20.0879 64.6582 20.1543 64.9707 20.2871 65.1543C20.4238 65.334 20.6855 65.4238 21.0723 65.4238H21.2188V67H21.0723C20.2246 67 19.6035 66.7793 19.209 66.3379C18.8145 65.8965 18.6172 65.2266 18.6172 64.3281V58.8145ZM24.6406 58.9551L25.6543 59.9688L24.6406 60.9824L23.627 59.9688L24.6406 58.9551ZM20.9902 65.4238H21.9863C22.3809 65.4238 22.748 65.3945 23.0879 65.3359C23.4316 65.2773 23.7715 65.1914 24.1074 65.0781C24.4473 64.9609 24.8027 64.8184 25.1738 64.6504C25.5449 64.4824 25.9551 64.291 26.4043 64.0762C26.1074 63.9668 25.832 63.8633 25.5781 63.7656C25.3281 63.6641 25.1016 63.5762 24.8984 63.502C24.6992 63.4238 24.5293 63.3633 24.3887 63.3203C24.248 63.2734 24.1426 63.25 24.0723 63.25C23.8535 63.25 23.6582 63.3164 23.4863 63.4492C23.3145 63.582 23.1699 63.7246 23.0527 63.877L22.7715 64.2285L21.541 63.6309L21.7695 63.2559C22.0391 62.8145 22.3633 62.4492 22.7422 62.1602C23.125 61.8672 23.5703 61.7207 24.0781 61.7207C24.293 61.7207 24.543 61.7715 24.8281 61.873C25.1133 61.9707 25.4219 62.0957 25.7539 62.248C26.0859 62.3965 26.4277 62.5469 26.7793 62.6992C27.1348 62.8516 27.4863 62.9805 27.834 63.0859C28.1855 63.1875 28.5195 63.2422 28.8359 63.25V64.6914C28.5664 64.7305 28.3066 64.7949 28.0566 64.8848C27.8105 64.9707 27.5469 65.084 27.2656 65.2246C26.9844 65.3652 26.6582 65.5352 26.2871 65.7344C25.7871 66 25.3164 66.2285 24.875 66.4199C24.4336 66.6074 23.9805 66.752 23.5156 66.8535C23.0547 66.9512 22.5391 67 21.9688 67H20.9902V65.4238ZM32.5684 70.1875L32.0176 68.7461C32.5957 68.6172 33.0859 68.4453 33.4883 68.2305C33.8945 68.0195 34.2031 67.7402 34.4141 67.3926C34.625 67.0449 34.7305 66.6113 34.7305 66.0918C34.7305 65.7402 34.6777 65.3496 34.5723 64.9199C34.4707 64.4902 34.3555 64.0859 34.2266 63.707L35.6855 63.2266C35.8379 63.6484 35.9531 64.0957 36.0312 64.5684C36.1094 65.041 36.1484 65.4941 36.1484 65.9277C36.1484 66.7168 36.0039 67.4023 35.7148 67.9844C35.4258 68.5703 35.0137 69.0469 34.4785 69.4141C33.9434 69.7812 33.3066 70.0391 32.5684 70.1875ZM38.6621 65.4473C39.0215 65.4473 39.3574 65.4199 39.6699 65.3652C39.9824 65.3105 40.2344 65.2168 40.4258 65.084C40.6172 64.9473 40.7129 64.7578 40.7129 64.5156C40.7129 64.2695 40.6016 64.0098 40.3789 63.7363C40.1562 63.4629 39.8535 63.1895 39.4707 62.916C39.0879 62.6387 38.6562 62.3828 38.1758 62.1484L38.8496 60.7422C39.2832 60.957 39.6953 61.1914 40.0859 61.4453C40.4766 61.6992 40.8242 61.9785 41.1289 62.2832C41.4336 62.5879 41.6738 62.9219 41.8496 63.2852C42.0254 63.6445 42.1133 64.0371 42.1133 64.4629C42.1133 65.0605 41.9766 65.5449 41.7031 65.916C41.4336 66.2871 41.0469 66.5586 40.543 66.7305C40.043 66.9023 39.4453 66.9883 38.75 66.9883C38.4492 66.9883 38.166 66.9785 37.9004 66.959C37.6387 66.9355 37.3828 66.8965 37.1328 66.8418V65.2715C37.3867 65.3223 37.6523 65.3652 37.9297 65.4004C38.2109 65.4316 38.4551 65.4473 38.6621 65.4473ZM49.7305 62.0254L50.7441 63.0391L49.7305 64.0527L48.7168 63.0391L49.7305 62.0254ZM49.8008 68.459C50.3789 68.459 50.834 68.3652 51.166 68.1777C51.498 67.9902 51.7324 67.7383 51.8691 67.4219C52.0098 67.1055 52.0801 66.752 52.0801 66.3613C52.0801 65.9316 52.0137 65.4941 51.8809 65.0488C51.748 64.5996 51.6035 64.1816 51.4473 63.7949L52.9004 63.2441L53.3691 64.6621C53.4395 64.873 53.5449 65.0527 53.6855 65.2012C53.8301 65.3496 54.0371 65.4238 54.3066 65.4238H54.541V67H54.3301C54.1465 67 53.9883 66.9844 53.8555 66.9531C53.7266 66.918 53.6055 66.8594 53.4922 66.7773C53.4258 67.4336 53.2422 68.0039 52.9414 68.4883C52.6445 68.9727 52.2344 69.3477 51.7109 69.6133C51.1875 69.8789 50.5508 70.0117 49.8008 70.0117C48.957 70.0117 48.2656 69.8516 47.7266 69.5312C47.1914 69.2148 46.7949 68.7832 46.5371 68.2363C46.2832 67.6934 46.1562 67.0801 46.1562 66.3965C46.1562 65.9395 46.2051 65.4688 46.3027 64.9844C46.4043 64.4961 46.5469 64.0137 46.7305 63.5371L48.0605 64.0527C47.9238 64.4551 47.8086 64.8535 47.7148 65.248C47.6211 65.6387 47.5742 66.0059 47.5742 66.3496C47.5742 66.7324 47.6406 67.084 47.7734 67.4043C47.9102 67.7246 48.1406 67.9805 48.4648 68.1719C48.7891 68.3633 49.2344 68.459 49.8008 68.459ZM54.3066 65.4238H55.1914V67H54.3066V65.4238ZM55.9707 67H55.0332V65.4238H55.9707C56.2871 65.4238 56.502 65.3281 56.6152 65.1367C56.7324 64.9453 56.791 64.7012 56.791 64.4043C56.791 64.1426 56.7598 63.8574 56.6973 63.5488C56.6387 63.2363 56.5781 62.9297 56.5156 62.6289L57.9512 62.2598C58.0254 62.6152 58.084 62.9688 58.127 63.3203C58.1699 63.668 58.1914 64 58.1914 64.3164C58.1914 64.8281 58.123 65.2871 57.9863 65.6934C57.8496 66.0957 57.6191 66.4141 57.2949 66.6484C56.9707 66.8828 56.5293 67 55.9707 67ZM56.8379 67.7852L57.8047 68.7461L56.8379 69.7188L55.8711 68.7461L56.8379 67.7852ZM54.8574 67.7852L55.8359 68.7461L54.8574 69.7188L53.9023 68.7461L54.8574 67.7852ZM63.4004 67C63.2129 67 63.0391 66.9785 62.8789 66.9355C62.7188 66.8926 62.5859 66.8379 62.4805 66.7715C62.3867 67.3535 62.1934 67.877 61.9004 68.3418C61.6074 68.8066 61.2148 69.1953 60.7227 69.5078C60.2344 69.8242 59.6465 70.0508 58.959 70.1875L58.4199 68.7461C58.998 68.6172 59.4883 68.4453 59.8906 68.2305C60.2969 68.0195 60.6055 67.7402 60.8164 67.3926C61.0273 67.0449 61.1328 66.6113 61.1328 66.0918C61.1328 65.7402 61.0801 65.3496 60.9746 64.9199C60.873 64.4902 60.7578 64.0859 60.6289 63.707L62.082 63.2266L62.4219 64.5332C62.4922 64.8027 62.5957 65.0195 62.7324 65.1836C62.873 65.3438 63.0742 65.4238 63.3359 65.4238H63.5645V67H63.4004ZM63.5879 67H63.3301L63.3359 65.4238H63.5586C63.7656 65.4238 63.9473 65.3496 64.1035 65.2012C64.2598 65.0527 64.4102 64.8613 64.5547 64.627C64.6992 64.3887 64.8477 64.1387 65 63.877C65.1562 63.6113 65.3301 63.3594 65.5215 63.1211C65.7129 62.8828 65.9375 62.6895 66.1953 62.541C66.4531 62.3926 66.7598 62.3184 67.1152 62.3184C67.5527 62.3184 67.9297 62.4102 68.2461 62.5938C68.5664 62.7734 68.8262 63.0195 69.0254 63.332C69.2285 63.6406 69.3633 63.9863 69.4297 64.3691C69.4766 64.627 69.543 64.834 69.6289 64.9902C69.7148 65.1465 69.8145 65.2578 69.9277 65.3242C70.0449 65.3906 70.166 65.4238 70.291 65.4238H70.4434V67H70.2852C70.0352 67 69.7891 66.9434 69.5469 66.8301C69.3047 66.7168 69.1113 66.5742 68.9668 66.4023C68.7754 66.6523 68.5586 66.8379 68.3164 66.959C68.0781 67.0762 67.7871 67.1348 67.4434 67.1348C67.1738 67.1348 66.918 67.0957 66.6758 67.0176C66.4336 66.9395 66.1973 66.8301 65.9668 66.6895C65.7402 66.5488 65.5117 66.3867 65.2812 66.2031C65.1367 66.3555 64.9902 66.4922 64.8418 66.6133C64.6934 66.7305 64.5215 66.8242 64.3262 66.8945C64.1309 66.9648 63.8848 67 63.5879 67ZM67.1621 63.8184C66.9941 63.8184 66.8418 63.875 66.7051 63.9883C66.5723 64.1016 66.4531 64.2402 66.3477 64.4043C66.2461 64.5645 66.1602 64.7207 66.0898 64.873C66.2109 64.9863 66.3281 65.0859 66.4414 65.1719C66.5547 65.2578 66.6621 65.3281 66.7637 65.3828C66.9004 65.457 67.0254 65.5098 67.1387 65.541C67.2559 65.5723 67.3594 65.5879 67.4492 65.5879C67.6719 65.5879 67.832 65.5137 67.9297 65.3652C68.0312 65.2168 68.082 65.0371 68.082 64.8262C68.082 64.5488 68 64.3125 67.8359 64.1172C67.6719 63.918 67.4473 63.8184 67.1621 63.8184ZM70.209 65.4238H70.625V67H70.209V65.4238ZM72.8047 59.5527L73.7715 60.5137L72.8047 61.4863L71.8379 60.5137L72.8047 59.5527ZM70.8242 59.5527L71.8027 60.5137L70.8242 61.4863L69.8691 60.5137L70.8242 59.5527ZM71.4043 67H70.4668V65.4238H71.4043C71.7207 65.4238 71.9355 65.3281 72.0488 65.1367C72.166 64.9453 72.2246 64.7012 72.2246 64.4043C72.2246 64.1426 72.1934 63.8574 72.1309 63.5488C72.0723 63.2363 72.0117 62.9297 71.9492 62.6289L73.3848 62.2598C73.459 62.6152 73.5176 62.9688 73.5605 63.3203C73.6035 63.668 73.625 64 73.625 64.3164C73.625 64.8281 73.5566 65.2871 73.4199 65.6934C73.2832 66.0957 73.0527 66.4141 72.7285 66.6484C72.4043 66.8828 71.9629 67 71.4043 67Z" fill="#3C3C3C"/>
</svg>
