<svg width="130" height="224" viewBox="0 0 130 224" fill="none" xmlns="http://www.w3.org/2000/svg">
<g clip-path="url(#clip0_154_4208)">
<path d="M110.269 63.7576H110.635C110.836 63.7576 111 63.9204 111 64.1212V90.7879C111 90.9887 110.836 91.1515 110.635 91.1515H110.269V63.7576Z" fill="#446087"/>
<path d="M8.73047 96.7273L8.36522 96.7273C8.1635 96.7273 7.99997 96.5645 7.99997 96.3637L7.99997 80.3637C7.99997 80.1628 8.1635 80 8.36522 80L8.73047 80L8.73047 96.7273Z" fill="#446087"/>
<path d="M8.73047 74.6667L8.36522 74.6667C8.1635 74.6667 7.99997 74.5039 7.99997 74.3031L7.99997 58.3031C7.99997 58.1023 8.1635 57.9395 8.36522 57.9395L8.73047 57.9395L8.73047 74.6667Z" fill="#446087"/>
<path d="M8.73047 49.2122L8.36522 49.2122C8.1635 49.2122 7.99997 49.0494 7.99997 48.8485L7.99997 41.3334C7.99997 41.1325 8.1635 40.9697 8.36522 40.9697L8.73047 40.9697L8.73047 49.2122Z" fill="#446087"/>
<path d="M8.73047 30.0606C8.73047 24.1948 8.73047 21.2618 9.50512 18.8882C11.0707 14.091 14.8485 10.3299 19.6669 8.77123C22.0511 8 24.997 8 30.8889 8H88.1111C94.0029 8 96.9489 8 99.333 8.77123C104.151 10.3299 107.929 14.091 109.495 18.8882C110.269 21.2618 110.269 24.1948 110.269 30.0606V193.939C110.269 199.805 110.269 202.738 109.495 205.112C107.929 209.909 104.151 213.67 99.333 215.229C96.9489 216 94.0029 216 88.1111 216H30.8889C24.997 216 22.0511 216 19.6669 215.229C14.8485 213.67 11.0707 209.909 9.50512 205.112C8.73047 202.738 8.73047 199.805 8.73047 193.939V30.0606Z" fill="#102948"/>
<path fill-rule="evenodd" clip-rule="evenodd" d="M88.2084 8.72728H30.7914C24.9523 8.72728 22.1482 8.73326 19.8926 9.46292C15.2965 10.9497 11.6931 14.5372 10.1998 19.113C9.46688 21.3586 9.46087 24.1503 9.46087 29.9636V194.036C9.46087 199.85 9.46688 202.641 10.1998 204.887C11.6931 209.463 15.2965 213.05 19.8926 214.537C22.1482 215.267 24.9523 215.273 30.7914 215.273H88.2084C94.0475 215.273 96.8516 215.267 99.1072 214.537C103.703 213.05 107.307 209.463 108.8 204.887C109.533 202.641 109.539 199.85 109.539 194.036V29.9636C109.539 24.1503 109.533 21.3586 108.8 19.113C107.307 14.5372 103.703 10.9497 99.1072 9.46292C96.8516 8.73326 94.0475 8.72728 88.2084 8.72728ZM9.73661 18.9631C8.97388 21.3002 8.97388 24.188 8.97388 29.9636V194.036C8.97388 199.812 8.97388 202.7 9.73661 205.037C11.2781 209.76 14.9978 213.463 19.7421 214.998C22.0896 215.758 24.9902 215.758 30.7914 215.758H88.2084C94.0096 215.758 96.9102 215.758 99.2577 214.998C104.002 213.463 107.722 209.76 109.263 205.037C110.026 202.7 110.026 199.812 110.026 194.036V29.9636C110.026 24.188 110.026 21.3002 109.263 18.9631C107.722 14.2397 104.002 10.5365 99.2577 9.0018C96.9102 8.24243 94.0096 8.24243 88.2084 8.24243H30.7914C24.9902 8.24243 22.0896 8.24243 19.7421 9.0018C14.9978 10.5365 11.2781 14.2397 9.73661 18.9631Z" fill="#446087"/>
<path d="M9.948 29.5758C9.948 24.1612 9.948 21.4538 10.6631 19.2628C12.1082 14.8346 15.5954 11.3629 20.0432 9.92406C22.2439 9.21216 24.9633 9.21216 30.4019 9.21216H88.5981C94.0368 9.21216 96.7561 9.21216 98.9568 9.92406C103.405 11.3629 106.892 14.8346 108.337 19.2628C109.052 21.4538 109.052 24.1612 109.052 29.5758V194.424C109.052 199.839 109.052 202.546 108.337 204.737C106.892 209.165 103.405 212.637 98.9568 214.076C96.7561 214.788 94.0368 214.788 88.5981 214.788H30.4019C24.9633 214.788 22.2439 214.788 20.0432 214.076C15.5954 212.637 12.1082 209.165 10.6631 204.737C9.948 202.546 9.948 199.839 9.948 194.424V29.5758Z" fill="#121515"/>
<path d="M88.1111 8H90.3026V9.21212H88.1111V8Z" fill="#48627E"/>
<path d="M109.052 28.8484H110.269V31.0302H109.052V28.8484Z" fill="#48627E"/>
<path d="M8.73047 28.8484H9.94796V31.0302H8.73047V28.8484Z" fill="#48627E"/>
<path d="M8.73047 192.97H9.94796V195.152H8.73047V192.97Z" fill="#48627E"/>
<path d="M109.052 192.97H110.269V195.152H109.052V192.97Z" fill="#48627E"/>
<path d="M28.6975 214.788H30.889V216H28.6975V214.788Z" fill="#48627E"/>
<mask id="mask0_154_4208" style="mask-type:alpha" maskUnits="userSpaceOnUse" x="13" y="12" width="93" height="200">
<path d="M37.4633 20.8484C34.4979 20.8484 32.1063 18.4606 32.1063 15.515V14.0605C32.1063 13.2572 31.4541 12.606 30.6453 12.606H30.1803C25.1699 12.606 22.6648 12.606 20.6721 13.3735C17.6666 14.5311 15.2906 16.8966 14.1278 19.8888C13.3569 21.8727 13.3569 24.3668 13.3569 29.3551V194.645C13.3569 199.633 13.3569 202.127 14.1278 204.111C15.2906 207.103 17.6666 209.469 20.6721 210.626C22.6648 211.394 25.1699 211.394 30.1803 211.394H88.8197C93.83 211.394 96.3351 211.394 98.3278 210.626C101.333 209.469 103.709 207.103 104.872 204.111C105.643 202.127 105.643 199.633 105.643 194.645V29.355C105.643 24.3668 105.643 21.8727 104.872 19.8888C103.709 16.8966 101.333 14.5311 98.3278 13.3735C96.3351 12.606 93.83 12.606 88.8197 12.606H88.3546C87.5458 12.606 86.8936 13.2572 86.8936 14.0605V15.515C86.8936 18.4606 84.502 20.8484 81.5366 20.8484H37.4633Z" fill="white"/>
</mask>
<g mask="url(#mask0_154_4208)">
<rect x="13.3569" y="12.606" width="92.286" height="198.788" fill="#6E6E6E"/>
</g>
<path fill-rule="evenodd" clip-rule="evenodd" d="M70.8227 18.6666C71.8986 18.6666 72.7707 17.7983 72.7707 16.7272C72.7707 15.6561 71.8986 14.7878 70.8227 14.7878C69.7469 14.7878 68.8748 15.6561 68.8748 16.7272C68.8748 17.7983 69.7469 18.6666 70.8227 18.6666Z" fill="#262C2D"/>
<path fill-rule="evenodd" clip-rule="evenodd" d="M70.8227 17.9394C71.4951 17.9394 72.0402 17.3967 72.0402 16.7273C72.0402 16.0578 71.4951 15.5151 70.8227 15.5151C70.1503 15.5151 69.6052 16.0578 69.6052 16.7273C69.6052 17.3967 70.1503 17.9394 70.8227 17.9394Z" fill="#121515"/>
<path opacity="0.4" fill-rule="evenodd" clip-rule="evenodd" d="M70.8228 16.4848C70.9573 16.4848 71.0663 16.3763 71.0663 16.2424C71.0663 16.1085 70.9573 16 70.8228 16C70.6884 16 70.5793 16.1085 70.5793 16.2424C70.5793 16.3763 70.6884 16.4848 70.8228 16.4848Z" fill="#636F73"/>
<path fill-rule="evenodd" clip-rule="evenodd" d="M53.0474 16.7273C53.0474 16.3256 53.373 16 53.7746 16H65.2255C65.6272 16 65.9528 16.3256 65.9528 16.7273C65.9528 17.1289 65.6272 17.4545 65.2255 17.4545H53.7746C53.373 17.4545 53.0474 17.1289 53.0474 16.7273Z" fill="#262C2D"/>
</g>
<path d="M72.8801 108.803C71.9321 108.803 71.1635 108.036 71.1635 107.089C71.1635 106.142 71.9321 105.375 72.8801 105.375C73.8281 105.375 74.5967 106.142 74.5967 107.089C74.5967 108.036 73.8281 108.803 72.8801 108.803Z" fill="#E6E6E6"/>
<path d="M65.8066 106.202C65.9246 106.2 66.0417 106.221 66.1513 106.265C66.2608 106.309 66.3605 106.374 66.4446 106.457C66.5287 106.539 66.5955 106.638 66.6411 106.746C66.6867 106.855 66.7102 106.972 66.7102 107.089C66.7102 107.207 66.6867 107.324 66.6411 107.433C66.5955 107.541 66.5287 107.64 66.4446 107.722C66.3605 107.805 66.2608 107.87 66.1513 107.914C66.0417 107.957 65.9246 107.979 65.8066 107.977H23.9048C23.788 107.979 23.6719 107.958 23.5632 107.915C23.4545 107.873 23.3553 107.809 23.2713 107.728C23.1873 107.647 23.1201 107.55 23.0736 107.443C23.0271 107.336 23.0022 107.221 23.0002 107.104C22.9983 106.987 23.0195 106.871 23.0624 106.763C23.1054 106.654 23.1693 106.555 23.2506 106.472C23.3319 106.388 23.429 106.321 23.5362 106.275C23.6434 106.228 23.7588 106.204 23.8756 106.202H65.8066Z" fill="#E6E6E6"/>
<path d="M72.8801 117.13C71.9321 117.13 71.1635 116.362 71.1635 115.415C71.1635 114.469 71.9321 113.701 72.8801 113.701C73.8281 113.701 74.5967 114.469 74.5967 115.415C74.5967 116.362 73.8281 117.13 72.8801 117.13Z" fill="#E6E6E6"/>
<path d="M65.8066 114.527C65.9246 114.525 66.0417 114.547 66.1513 114.59C66.2608 114.634 66.3605 114.699 66.4446 114.782C66.5287 114.864 66.5955 114.963 66.6411 115.072C66.6867 115.18 66.7102 115.297 66.7102 115.415C66.7102 115.532 66.6867 115.649 66.6411 115.758C66.5955 115.866 66.5287 115.965 66.4446 116.047C66.3605 116.13 66.2608 116.195 66.1513 116.239C66.0417 116.283 65.9246 116.304 65.8066 116.302H23.9048C23.788 116.304 23.6719 116.283 23.5632 116.241C23.4545 116.198 23.3553 116.134 23.2713 116.053C23.1873 115.972 23.1201 115.875 23.0736 115.768C23.0271 115.661 23.0022 115.546 23.0002 115.429C22.9983 115.313 23.0195 115.197 23.0624 115.088C23.1054 114.98 23.1693 114.881 23.2506 114.797C23.3319 114.713 23.429 114.646 23.5362 114.6C23.6434 114.553 23.7588 114.529 23.8756 114.527H65.8066Z" fill="#E6E6E6"/>
<path d="M72.8801 125.456C71.9321 125.456 71.1635 124.689 71.1635 123.742C71.1635 122.795 71.9321 122.028 72.8801 122.028C73.8281 122.028 74.5967 122.795 74.5967 123.742C74.5967 124.689 73.8281 125.456 72.8801 125.456Z" fill="#E6E6E6"/>
<path d="M65.8066 122.854C65.9246 122.852 66.0417 122.873 66.1513 122.917C66.2608 122.961 66.3605 123.026 66.4446 123.109C66.5287 123.191 66.5955 123.29 66.6411 123.398C66.6867 123.507 66.7102 123.624 66.7102 123.742C66.7102 123.859 66.6867 123.976 66.6411 124.085C66.5955 124.193 66.5287 124.292 66.4446 124.374C66.3605 124.457 66.2608 124.522 66.1513 124.566C66.0417 124.61 65.9246 124.631 65.8066 124.629H23.9048C23.788 124.631 23.6719 124.61 23.5632 124.567C23.4545 124.525 23.3553 124.461 23.2713 124.38C23.1873 124.299 23.1201 124.202 23.0736 124.095C23.0271 123.988 23.0022 123.873 23.0002 123.756C22.9983 123.639 23.0195 123.524 23.0624 123.415C23.1054 123.307 23.1693 123.208 23.2506 123.124C23.3319 123.04 23.429 122.973 23.5362 122.927C23.6434 122.88 23.7588 122.856 23.8756 122.854H65.8066Z" fill="#E6E6E6"/>
<path d="M72.8801 133.782C71.9321 133.782 71.1635 133.014 71.1635 132.068C71.1635 131.121 71.9321 130.353 72.8801 130.353C73.8281 130.353 74.5967 131.121 74.5967 132.068C74.5967 133.014 73.8281 133.782 72.8801 133.782Z" fill="#E6E6E6"/>
<path d="M65.8066 131.18C65.9246 131.178 66.0417 131.199 66.1513 131.243C66.2608 131.287 66.3605 131.352 66.4446 131.435C66.5287 131.517 66.5955 131.616 66.6411 131.724C66.6867 131.833 66.7102 131.95 66.7102 132.067C66.7102 132.185 66.6867 132.302 66.6411 132.411C66.5955 132.519 66.5287 132.618 66.4446 132.7C66.3605 132.783 66.2608 132.848 66.1513 132.892C66.0417 132.935 65.9246 132.957 65.8066 132.955H23.9048C23.6693 132.959 23.4419 132.869 23.2727 132.705C23.1036 132.541 23.0063 132.317 23.0025 132.082C22.9986 131.847 23.0884 131.62 23.2521 131.45C23.4158 131.281 23.64 131.184 23.8756 131.18H65.8066Z" fill="#E6E6E6"/>
<path d="M72.8801 142.108C71.9321 142.108 71.1635 141.34 71.1635 140.393C71.1635 139.447 71.9321 138.679 72.8801 138.679C73.8281 138.679 74.5967 139.447 74.5967 140.393C74.5967 141.34 73.8281 142.108 72.8801 142.108Z" fill="#E6E6E6"/>
<path d="M65.8066 139.506C65.9246 139.504 66.0417 139.526 66.1513 139.57C66.2608 139.613 66.3605 139.678 66.4446 139.761C66.5287 139.844 66.5955 139.942 66.6411 140.051C66.6867 140.159 66.7102 140.276 66.7102 140.394C66.7102 140.512 66.6867 140.628 66.6411 140.737C66.5955 140.846 66.5287 140.944 66.4446 141.027C66.3605 141.109 66.2608 141.174 66.1513 141.218C66.0417 141.262 65.9246 141.283 65.8066 141.282H23.9048C23.788 141.284 23.6719 141.263 23.5632 141.22C23.4545 141.177 23.3553 141.113 23.2713 141.032C23.1873 140.951 23.1201 140.854 23.0736 140.747C23.0271 140.64 23.0022 140.525 23.0002 140.408C22.9983 140.292 23.0195 140.176 23.0624 140.067C23.1054 139.959 23.1693 139.86 23.2506 139.776C23.3319 139.692 23.429 139.625 23.5362 139.579C23.6434 139.533 23.7588 139.508 23.8756 139.506H65.8066Z" fill="#E6E6E6"/>
<path d="M72.8801 150.434C71.9321 150.434 71.1635 149.666 71.1635 148.72C71.1635 147.773 71.9321 147.005 72.8801 147.005C73.8281 147.005 74.5967 147.773 74.5967 148.72C74.5967 149.666 73.8281 150.434 72.8801 150.434Z" fill="#E6E6E6"/>
<path d="M65.8066 147.832C65.9246 147.83 66.0417 147.851 66.1513 147.895C66.2608 147.939 66.3605 148.004 66.4446 148.087C66.5287 148.169 66.5955 148.268 66.6411 148.376C66.6867 148.485 66.7102 148.602 66.7102 148.72C66.7102 148.837 66.6867 148.954 66.6411 149.063C66.5955 149.171 66.5287 149.27 66.4446 149.352C66.3605 149.435 66.2608 149.5 66.1513 149.544C66.0417 149.588 65.9246 149.609 65.8066 149.607H23.9048C23.788 149.609 23.6719 149.588 23.5632 149.546C23.4545 149.503 23.3553 149.439 23.2713 149.358C23.1873 149.277 23.1201 149.18 23.0736 149.073C23.0271 148.966 23.0022 148.851 23.0002 148.734C22.9983 148.617 23.0195 148.502 23.0624 148.393C23.1054 148.285 23.1693 148.186 23.2506 148.102C23.3319 148.018 23.429 147.951 23.5362 147.905C23.6434 147.858 23.7588 147.834 23.8756 147.832H65.8066Z" fill="#E6E6E6"/>
<path d="M72.8801 158.761C71.9321 158.761 71.1635 157.993 71.1635 157.046C71.1635 156.1 71.9321 155.332 72.8801 155.332C73.8281 155.332 74.5967 156.1 74.5967 157.046C74.5967 157.993 73.8281 158.761 72.8801 158.761Z" fill="#E6E6E6"/>
<path d="M65.8066 156.158C65.9246 156.156 66.0417 156.178 66.1513 156.221C66.2608 156.265 66.3605 156.33 66.4446 156.413C66.5287 156.495 66.5955 156.594 66.6411 156.703C66.6867 156.811 66.7102 156.928 66.7102 157.046C66.7102 157.164 66.6867 157.28 66.6411 157.389C66.5955 157.497 66.5287 157.596 66.4446 157.679C66.3605 157.761 66.2608 157.826 66.1513 157.87C66.0417 157.914 65.9246 157.935 65.8066 157.933H23.9048C23.788 157.935 23.6719 157.914 23.5632 157.872C23.4545 157.829 23.3553 157.765 23.2713 157.684C23.1873 157.603 23.1201 157.506 23.0736 157.399C23.0271 157.292 23.0022 157.177 23.0002 157.06C22.9983 156.944 23.0195 156.828 23.0624 156.719C23.1054 156.611 23.1693 156.512 23.2506 156.428C23.3319 156.344 23.429 156.277 23.5362 156.231C23.6434 156.185 23.7588 156.16 23.8756 156.158H65.8066Z" fill="#E6E6E6"/>
<path d="M118.938 140.389C112.829 140.389 107.876 140.012 107.876 139.546C107.876 139.081 112.829 138.704 118.938 138.704C125.047 138.704 130 139.081 130 139.546C130 140.012 125.047 140.389 118.938 140.389Z" fill="#E6E6E6"/>
<path d="M95.0763 141.967C88.967 141.967 84.0145 141.59 84.0145 141.125C84.0145 140.659 88.967 140.282 95.0763 140.282C101.186 140.282 106.138 140.659 106.138 141.125C106.138 141.59 101.186 141.967 95.0763 141.967Z" fill="#E6E6E6"/>
<path d="M37.4817 68.4702H81.2486C81.9049 68.4702 82.437 69.0016 82.437 69.6571V87.7992C82.437 88.4547 81.9049 88.9861 81.2486 88.9861H37.4817C36.8254 88.9861 36.2933 88.4547 36.2933 87.7992V69.6571C36.2933 69.0016 36.8254 68.4702 37.4817 68.4702Z" fill="#ECFB6D"/>
<path d="M69.739 83.3442C67.1974 83.3442 65.1371 81.2866 65.1371 78.7485C65.1371 76.2104 67.1974 74.1528 69.739 74.1528C72.2805 74.1528 74.3408 76.2104 74.3408 78.7485C74.3408 81.2866 72.2805 83.3442 69.739 83.3442Z" fill="#D0DE59"/>
<path d="M59.3521 78.1377C59.4948 78.1377 59.6316 78.1943 59.7325 78.2951C59.8334 78.3959 59.8901 78.5325 59.8901 78.675C59.8901 78.8176 59.8334 78.9542 59.7325 79.055C59.6316 79.1558 59.4948 79.2124 59.3521 79.2124H44.8232C44.6805 79.2147 44.5427 79.1604 44.4401 79.0613C44.3376 78.9621 44.2786 78.8264 44.2763 78.6839C44.2739 78.5414 44.3284 78.4038 44.4276 78.3013C44.5269 78.1989 44.6628 78.14 44.8055 78.1377H59.3521Z" fill="#D0DE59"/>
<path d="M59.3521 75.0239C59.4948 75.0239 59.6316 75.0805 59.7325 75.1813C59.8334 75.2821 59.8901 75.4188 59.8901 75.5613C59.8901 75.7038 59.8334 75.8405 59.7325 75.9412C59.6316 76.042 59.4948 76.0986 59.3521 76.0986H52.0962C51.9535 76.101 51.8157 76.0466 51.7132 75.9475C51.6106 75.8484 51.5517 75.7126 51.5493 75.5701C51.547 75.4276 51.6014 75.29 51.7007 75.1876C51.7999 75.0851 51.9359 75.0263 52.0786 75.0239H59.3521Z" fill="#D0DE59"/>
<path d="M59.3521 81.3987C59.4948 81.3987 59.6316 81.4553 59.7325 81.5561C59.8334 81.6568 59.8901 81.7935 59.8901 81.936C59.8901 82.0786 59.8334 82.2152 59.7325 82.316C59.6316 82.4168 59.4948 82.4734 59.3521 82.4734H44.8232C44.6805 82.4757 44.5427 82.4214 44.4401 82.3222C44.3376 82.2231 44.2786 82.0874 44.2763 81.9449C44.2739 81.8023 44.3284 81.6647 44.4276 81.5623C44.5269 81.4599 44.6628 81.401 44.8055 81.3987H59.3521Z" fill="#D0DE59"/>
<path d="M105.07 113.944C105.011 115.41 105.948 116.709 106.825 117.877C107.226 118.424 110.946 122.13 112.069 123.75C112.342 124.143 119.022 131.843 119.364 132.556C119.444 132.725 119.51 132.9 119.562 133.08C119.762 133.764 119.771 134.5 119.753 135.23V135.74C119.718 136.853 119.667 137.972 119.402 139.05C119.364 139.208 119.32 139.367 119.297 139.527C119.368 139.48 119.435 139.428 119.497 139.371L123.128 136.68L123.354 136.512C123.586 135.842 123.806 135.166 124.053 134.505C124.2 134.112 124.042 133.663 123.782 133.335C123.501 133.025 123.19 132.742 122.855 132.49C122.598 132.224 122.369 131.932 122.171 131.62C119.666 127.979 112.61 114.913 112.096 112.283C111.418 112.156 110.723 112.148 110.042 112.256L106.42 112.737C106.029 112.789 105.6 112.861 105.346 113.161C105.172 113.386 105.075 113.66 105.07 113.944Z" fill="#ED9DA0"/>
<path d="M89.6107 116.932C89.6878 117.478 89.8812 118.002 90.1777 118.468C90.5498 119.034 94.8247 130.014 96.1536 134.548C96.3976 135.381 96.2694 136.186 96.2957 136.464C96.3168 136.696 96.3361 136.927 96.3537 137.157C96.3782 137.443 96.3982 137.729 96.4186 138.012C96.473 138.765 96.5203 139.555 96.2026 140.239C96.0779 140.509 95.8906 140.742 95.8076 141.012C95.9315 140.949 96.0462 140.868 96.1485 140.774L99.7789 138.083C100.075 137.245 100.304 136.385 100.462 135.511C100.554 135.015 100.597 134.445 100.287 134.064C100.269 134.041 100.249 134.019 100.229 133.998C100.127 133.903 100.014 133.821 99.8917 133.756C99.7794 133.694 99.6715 133.625 99.5687 133.549C99.4916 133.488 99.4221 133.419 99.3616 133.342C99.0632 132.974 98.9561 132.457 98.8665 131.971C98.5155 129.983 95.5415 117.784 95.5982 117.483C95.6598 117.186 97.3485 114.344 98.5071 113.713C97.3046 112.707 95.933 111.923 94.456 111.396C94.1958 111.274 93.9078 111.225 93.6221 111.254C93.4693 111.287 93.3233 111.346 93.1903 111.429C92.3951 111.874 91.7858 112.576 91.203 113.277C90.334 114.332 89.4649 115.573 89.6107 116.932Z" fill="#ED9DA0"/>
<path d="M97.7112 126.749C98.1546 126.975 95.2276 117.782 95.8764 117.883C96.8505 118.033 101.43 109.553 102.473 109.652C103.728 109.772 104.265 116.456 105.506 116.489C106.008 116.502 110.719 123.573 111.313 123.797C115.408 125.338 116.5 124.542 117.277 123.441C117.755 123.325 112.472 113.297 112.474 113.024C112.474 112.547 112.13 106.955 111.313 104.477C111.11 103.862 110.962 103.231 110.732 102.623C109.738 99.8808 109.312 97.777 107.497 95.4943C107.219 95.1739 106.99 94.8139 106.819 94.4262C106.663 93.9609 106.582 93.4739 106.578 92.9832L106.478 91.2669C103.787 91.1406 101.173 91.1915 98.5397 91.7596C98.469 91.7575 98.3985 91.7693 98.3323 91.7944C98.2661 91.8195 98.2056 91.8574 98.1541 91.9059C98.1026 91.9544 98.0611 92.0125 98.0321 92.077C98.0031 92.1414 97.9871 92.211 97.985 92.2817V92.2855C97.8832 92.9132 97.8118 93.5437 97.7708 94.1772C97.7696 94.3172 97.7496 94.4564 97.7113 94.591C97.6423 94.7612 97.5463 94.9192 97.427 95.0591C95.9033 97.0542 94.9693 99.442 94.2318 101.833C93.4944 104.225 92.9082 106.683 91.9812 109.021C91.6617 109.828 89.5584 115.625 89.4742 116.49C89.3962 116.548 91.4561 125.929 91.9812 126.749C93.6119 129.296 95.8935 125.821 97.7112 126.749Z" fill="#090814"/>
<path d="M88.6371 83.9591C88.1736 83.5682 87.7101 83.1755 87.2853 82.7442C86.6858 82.1097 86.132 81.4336 85.628 80.7211C85.0908 79.9899 84.557 79.2413 84.2235 78.3963C83.846 77.4285 83.7301 76.3276 83.0737 75.5245C82.9993 75.4201 82.8961 75.3397 82.7766 75.2931C82.4026 75.1756 82.1229 75.6437 82.0515 76.0312C81.7003 77.9281 82.5377 79.8216 83.3524 81.5713C83.621 82.1481 83.902 82.7407 84.367 83.1773C84.6223 83.3952 84.8889 83.5994 85.1658 83.7891C85.5771 84.123 85.9556 84.4952 86.2963 84.9006C86.8815 85.5645 87.438 86.2523 87.9658 86.9641C88.6206 87.8408 89.2351 88.7592 90.011 89.5326C90.7869 90.306 91.7577 90.9352 92.8444 91.0877C92.5336 91.0456 92.6355 89.2241 92.6688 88.9944C92.7162 88.6613 92.9444 88.2686 92.9511 87.9425C92.9598 87.5429 92.7966 87.485 92.4665 87.2045L88.6371 83.9591Z" fill="#ED9DA0"/>
<path d="M101.667 72.4858C101.667 72.4858 102.72 77.7454 103.949 78.6221C105.178 79.4987 97.2779 80.5507 97.2779 80.5507C97.2779 80.5507 97.1023 76.343 94.9956 74.4145C92.8889 72.486 101.667 72.4858 101.667 72.4858Z" fill="#ED9DA0"/>
<path d="M94.5886 93.3717C94.3281 93.4532 94.0555 93.4888 93.7828 93.4769C92.8611 93.4669 91.9527 93.2556 91.1214 92.858C91.0435 92.8278 90.9747 92.7784 90.9213 92.7142C90.8902 92.647 90.8733 92.5741 90.8718 92.5C90.8703 92.426 90.8842 92.3524 90.9125 92.284C91.4077 90.2853 90.452 88.0184 91.4006 86.1916C92.4311 86.5265 93.5616 86.8929 94.5922 87.219C94.7502 87.2831 94.9204 87.3118 95.0907 87.3031C95.2948 87.2608 95.4818 87.1589 95.6279 87.0104C96.7444 86.0461 97.4485 84.7032 98.0856 83.3757C98.7228 82.0481 99.3484 80.6793 100.352 79.5992C101.356 78.5192 102.295 77.9477 103.763 78.1038C104.284 78.1749 104.762 78.4298 105.111 78.8225C105.94 79.7127 106.105 81.0684 105.814 82.2496C105.522 83.4308 104.853 84.478 104.158 85.4755C103.252 86.7763 102.278 88.058 101.019 89.0239C100.338 89.5165 99.6315 89.9724 98.9019 90.3897" fill="#E6E6E6"/>
<path d="M97.5417 76.4306C94.633 76.4306 92.2751 74.0758 92.2751 71.171C92.2751 68.2662 94.633 65.9114 97.5417 65.9114C100.45 65.9114 102.808 68.2662 102.808 71.171C102.808 74.0758 100.45 76.4306 97.5417 76.4306Z" fill="#ED9DA0"/>
<path d="M95.4348 86.3083C97.0181 88.1727 97.3527 90.5548 97.6767 92.9056C99.2673 92.3674 101.03 93.2703 102.677 92.9406C103.504 92.6657 104.378 92.5643 105.247 92.6427C105.856 92.5847 106.46 92.2026 107.041 92.3972C108.006 93.0083 107.066 89.2223 107.123 88.1229C107.63 69.5649 92.5573 78.5928 95.4348 86.3083Z" fill="#E6E6E6"/>
<path d="M86.5302 84.66C86.0667 84.2691 85.6032 83.8764 85.1783 83.4451C84.5788 82.8106 84.025 82.1345 83.521 81.422C82.9839 80.6909 82.4501 79.9423 82.1166 79.0972C81.7391 78.1295 81.6232 77.0285 80.9667 76.2254C80.8924 76.121 80.7891 76.0406 80.6696 75.994C80.2957 75.8765 80.016 76.3446 79.9445 76.7321C79.5933 78.629 80.4308 80.5225 81.2454 82.2722C81.514 82.849 81.7951 83.4416 82.2601 83.8782C82.5153 84.0961 82.782 84.3003 83.0589 84.49C83.4701 84.8239 83.8487 85.1961 84.1894 85.6015C84.7746 86.2654 85.3311 86.9532 85.8589 87.665C86.5137 88.5417 87.1281 89.4602 87.9041 90.2334C88.68 91.0067 89.6508 91.636 90.7375 91.7885C90.4267 91.7464 90.5286 89.9248 90.5619 89.6952C90.6093 89.3621 90.8375 88.9694 90.8441 88.6433C90.8529 88.2436 90.6896 88.1858 90.3596 87.9052L86.5302 84.66Z" fill="#ED9DA0"/>
<path d="M101.656 78.8063C102.177 78.8774 102.656 79.1323 103.005 79.525C103.833 80.4152 103.998 81.7709 103.707 82.9521C103.415 84.1333 102.747 85.1805 102.051 86.178C101.145 87.4788 100.171 88.7605 98.9123 89.7264C98.2314 90.219 97.5246 90.6749 96.7951 91.0922C95.5829 91.8379 94.4182 91.6057 93.3068 92.4948C93.0633 92.7151 92.7843 92.8928 92.4817 93.0207C92.2213 93.1022 91.9486 93.1378 91.676 93.1259C90.7549 93.116 89.8459 92.554 89.0146 92.1564C88.9367 92.1263 88.8678 92.0768 88.8145 92.0126C88.7834 91.9454 88.7665 91.8725 88.765 91.7984C88.7635 91.7244 88.7774 91.6508 88.8057 91.5824C89.3007 89.5837 88.3452 88.7191 89.2937 86.8925C90.3243 87.2274 91.4548 87.5938 92.4853 87.9199C92.6434 87.984 92.8135 88.0127 92.9839 88.004C93.188 87.9617 93.3749 87.8598 93.5211 87.7113C94.6376 86.747 95.3416 85.404 95.9788 84.0765C96.6159 82.749 97.2415 81.3801 98.2452 80.3001C99.2488 79.22 100.189 78.6509 101.656 78.8063Z" fill="#E6E6E6"/>
<path d="M94.3225 141.075C94.5572 141.314 94.8624 141.47 95.1931 141.522C95.5238 141.574 95.8623 141.518 96.1588 141.363C96.2826 141.299 96.3972 141.219 96.4993 141.124L100.13 138.433L101.569 137.365C101.721 137.224 101.842 137.054 101.925 136.866C102.009 136.677 102.053 136.473 102.055 136.266C102.057 136.06 102.018 135.855 101.938 135.664C101.858 135.474 101.741 135.301 101.592 135.158L100.637 134.414L100.242 134.106L99.7118 133.692L99.2483 133.331L96.2744 134.996L96.2234 135.095L93.9728 139.428C93.8675 139.708 93.8445 140.011 93.9064 140.303C93.9684 140.595 94.1126 140.863 94.3222 141.075H94.3225Z" fill="#090814"/>
<path d="M117.672 139.673C117.906 139.911 118.212 140.068 118.542 140.12C118.873 140.171 119.211 140.115 119.508 139.96C119.556 139.935 119.603 139.908 119.648 139.878C119.719 139.832 119.786 139.779 119.848 139.722L123.479 137.031L123.705 136.862L124.918 135.963C125.07 135.822 125.191 135.653 125.275 135.464C125.358 135.275 125.402 135.071 125.404 134.864C125.407 134.658 125.367 134.453 125.287 134.263C125.207 134.072 125.09 133.9 124.941 133.756L123.986 133.012L123.591 132.704L123.061 132.29L122.597 131.929L122.522 131.971L119.913 133.432L119.623 133.595L119.573 133.693L117.322 138.027C117.217 138.306 117.194 138.609 117.256 138.901C117.318 139.192 117.462 139.46 117.672 139.673Z" fill="#090814"/>
<path d="M92.3489 70.4079C92.6584 68.8959 93.3376 68.555 94.4625 67.4853C94.7299 67.523 94.3921 68.9055 95.8637 70.8314C98.0029 73.6309 97.7897 71.0641 98.4223 71.9264C98.5595 72.1136 98.5892 72.7891 98.5441 73.0214C98.3658 73.9396 97.311 73.0431 98.4223 76.185C98.5876 76.4294 98.7827 76.37 99.0313 76.3675C99.0506 76.3675 98.9244 76.3433 99.3968 76.2458C99.6223 76.1994 99.9378 76.1444 100.316 76.0807C104.712 75.3412 106.264 69.8025 102.866 66.9209C102.094 66.2653 101.335 65.7685 100.676 65.5382C98.6925 64.8448 94.1726 65.2955 93.3048 67.546C92.8909 68.6195 92.2219 69.2858 92.3488 70.4077L92.3489 70.4079Z" fill="#090814"/>
<path d="M101.933 79.7323C100.201 79.7323 98.7979 78.3306 98.7979 76.6016C98.7979 74.8726 100.201 73.4709 101.933 73.4709C103.664 73.4709 105.068 74.8726 105.068 76.6016C105.068 78.3306 103.664 79.7323 101.933 79.7323Z" fill="#090814"/>
<defs>
<clipPath id="clip0_154_4208">
<rect width="103" height="208" fill="white" transform="translate(8 8)"/>
</clipPath>
</defs>
</svg>
