<svg width="80" height="80" viewBox="0 0 80 80" fill="none" xmlns="http://www.w3.org/2000/svg">
<path d="M50.0001 75.8332H30.0001C11.9001 75.8332 4.16675 68.0998 4.16675 49.9998V29.9998C4.16675 11.8998 11.9001 4.1665 30.0001 4.1665H50.0001C68.1001 4.1665 75.8334 11.8998 75.8334 29.9998V49.9998C75.8334 68.0998 68.1001 75.8332 50.0001 75.8332ZM30.0001 9.1665C14.6334 9.1665 9.16675 14.6332 9.16675 29.9998V49.9998C9.16675 65.3665 14.6334 70.8332 30.0001 70.8332H50.0001C65.3667 70.8332 70.8334 65.3665 70.8334 49.9998V29.9998C70.8334 14.6332 65.3667 9.1665 50.0001 9.1665H30.0001Z" fill="white"/>
<path d="M46.5002 75.8331C45.3669 75.8331 44.3667 75.0665 44.0667 73.9331L27.5669 7.26645C27.2336 5.93311 28.0669 4.56649 29.4002 4.23315C30.7335 3.89982 32.1001 4.69983 32.4334 6.0665L48.9335 72.7332C49.2668 74.0665 48.4335 75.4331 47.1002 75.7665C46.9002 75.7998 46.7002 75.8331 46.5002 75.8331Z" fill="white"/>
<path d="M6.66617 52.5003C5.56617 52.5003 4.5996 51.8003 4.26627 50.7003C3.86627 49.367 4.63277 48.0003 5.9661 47.6003L37.7329 38.3336C39.0662 37.9336 40.4328 38.7003 40.8328 40.0336C41.2328 41.367 40.4661 42.7336 39.1328 43.1336L7.36625 52.4003C7.13291 52.467 6.89951 52.5003 6.66617 52.5003Z" fill="white"/>
</svg>
