<svg width="32" height="29" viewBox="0 0 32 29" fill="none" xmlns="http://www.w3.org/2000/svg">
<path d="M29.6313 0.00270129C29.2178 0.0221084 28.8283 0.143403 28.482 0.279252H28.4772C28.1262 0.419954 26.4576 1.12831 23.9233 2.20056C21.3891 3.27765 18.0999 4.67497 14.8348 6.06257C8.31408 8.83294 1.90399 11.5596 1.90399 11.5596L1.98093 11.5305C1.98093 11.5305 1.53852 11.6761 1.07688 11.9963C0.841254 12.1516 0.58158 12.365 0.355569 12.6998C0.129556 13.0346 -0.0531772 13.5489 0.0141461 14.0777C0.124748 14.9753 0.7018 15.5138 1.11535 15.8098C1.53372 16.1106 1.93284 16.2513 1.93284 16.2513H1.94246L7.95342 18.2939C8.22271 19.1672 9.78556 24.3489 10.1606 25.5425C10.3818 26.2557 10.5982 26.702 10.8675 27.0417C10.9974 27.2163 11.1512 27.3619 11.334 27.4783C11.4061 27.522 11.4831 27.556 11.56 27.5851C11.584 27.5996 11.6081 27.6045 11.6369 27.6093L11.5744 27.5948C11.5937 27.5996 11.6081 27.6142 11.6225 27.619C11.6706 27.6336 11.7043 27.6384 11.7668 27.6481C12.7189 27.9393 13.4835 27.3425 13.4835 27.3425L13.5268 27.3085L17.0756 24.0481L23.0241 28.6525L23.1587 28.7107C24.3994 29.2589 25.6545 28.9533 26.3181 28.4147C26.9865 27.8713 27.2462 27.1775 27.2462 27.1775L27.2895 27.0659L31.8867 3.30676C32.0165 2.7197 32.0501 2.17145 31.9059 1.63775C31.7616 1.10406 31.3913 0.604322 30.9441 0.337474C30.4921 0.0657741 30.0449 -0.0167058 29.6313 0.00270129ZM29.5063 2.54989C29.5015 2.62751 29.5159 2.61781 29.4823 2.76822V2.78277L24.9284 26.2945C24.9091 26.3285 24.8755 26.4012 24.7841 26.474C24.6879 26.5516 24.611 26.6002 24.2119 26.4401L16.9362 20.812L12.541 24.8535L13.4643 18.9052C13.4643 18.9052 24.861 8.18765 25.3515 7.72674C25.842 7.26582 25.6785 7.16878 25.6785 7.16878C25.7122 6.60597 24.938 7.00382 24.938 7.00382L9.94906 16.3726L9.94425 16.3483L2.75995 13.9079V13.9031C2.75514 13.9031 2.74553 13.8982 2.74072 13.8982C2.74553 13.8982 2.77919 13.8836 2.77919 13.8836L2.81766 13.8642L2.85613 13.8497C2.85613 13.8497 9.27102 11.123 15.7917 8.35261C19.0569 6.96501 22.3461 5.56769 24.8755 4.4906C27.4049 3.41835 29.2755 2.63237 29.3813 2.5887C29.4823 2.54989 29.4342 2.54989 29.5063 2.54989Z" fill="#D9D9D9"/>
</svg>
