<svg width="114" height="221" viewBox="0 0 114 221" fill="none" xmlns="http://www.w3.org/2000/svg">
<g clip-path="url(#clip0_633_3880)">
<path d="M0.848433 146.984C0.680403 146.984 0.544434 146.848 0.544434 146.68V61.1554C0.544434 39.6336 18.0823 22.1245 39.6395 22.1245H105.649C105.817 22.1245 105.953 22.2603 105.953 22.428C105.953 22.5958 105.817 30.926 105.649 30.926L39.6395 22.7315C18.4178 22.7315 1.15243 39.9685 1.15243 61.1554V146.68C1.15243 146.848 1.01646 146.984 0.848433 146.984Z" fill="#3F3D56"/>
<path d="M105.88 0C106.048 0 106.184 0.135747 106.184 0.3035V85.8283C106.184 107.35 88.6463 124.859 67.0891 124.859H1.07939C0.91136 124.859 0.775391 124.723 0.775391 124.556C0.775391 124.388 0.91136 124.252 1.07939 124.252H67.0891C88.3109 124.252 105.576 107.015 105.576 85.8283V0.3035C105.576 0.135747 105.712 0 105.88 0Z" fill="#3F3D56"/>
<path d="M75.2632 81.1262C75.2632 79.8147 75.786 78.5313 76.768 77.5761L90.6154 64.1091C90.9767 62.7366 91.6673 61.4529 92.6137 60.3945C93.7576 59.0809 95.1612 58.1281 96.5663 57.7119C97.9957 57.2881 99.2589 57.468 100.123 58.2182C101.887 59.7484 101.387 63.2161 99.0096 65.947C98.0934 67.0291 96.9169 67.8904 95.6065 68.4385L83.0362 81.3749L89.9564 91.8444C91.2965 93.4043 91.5934 95.5638 90.7202 97.4642C89.8768 99.3003 88.1134 100.444 86.1178 100.449C83.9833 100.454 82.0934 99.1788 81.3025 97.1995L75.6191 82.9703C75.3796 82.3704 75.2632 81.7451 75.2632 81.1262Z" fill="#FFB6B6"/>
<path d="M86.88 68.8632C92.9242 68.8632 97.824 63.9715 97.824 57.9372C97.824 51.903 92.9242 47.0112 86.88 47.0112C80.8358 47.0112 75.936 51.903 75.936 57.9372C75.936 63.9715 80.8358 68.8632 86.88 68.8632Z" fill="#3F3D56"/>
<path d="M92.58 87.1782L84.4341 93.3774L94.7686 100.464L99.9544 89.3662L92.58 87.1782Z" fill="#FFB6B6"/>
<path d="M97.023 92.5118C101.786 92.5118 105.647 88.6572 105.647 83.9024C105.647 79.1475 101.786 75.293 97.023 75.293C92.2603 75.293 88.3994 79.1475 88.3994 83.9024C88.3994 88.6572 92.2603 92.5118 97.023 92.5118Z" fill="#FFB6B6"/>
<path d="M97.6938 93.5501C97.6938 93.5501 99.6369 87.3396 98.3812 86.1658C97.1255 84.9919 97.1655 86.2057 97.1655 86.2057L98.7581 80.2211C98.7581 80.2211 97.9993 76.7439 92.9722 76.2657C92.9722 76.2657 94.7579 72.8835 97.3536 73.4416C99.9492 73.9996 100.113 74.6375 101.216 74.4226C102.319 74.2077 104.604 76.2054 104.604 76.2054C104.604 76.2054 105.774 75.2519 105.641 76.4285C105.509 77.6051 106.753 79.5284 106.753 79.5284C106.753 79.5284 107.461 79.0876 107.266 80.322C107.071 81.5563 107.987 82.2053 107.987 82.2053C107.987 82.2053 106.774 82.9871 107.163 83.6039C107.552 84.2208 109.108 84.7058 108.52 85.3326C107.932 85.9594 108.373 87.4101 106.383 88.9406C104.393 90.4712 97.6938 93.5501 97.6938 93.5501Z" fill="#2F2E41"/>
<path d="M102.803 205.771L102.731 205.696L82.3739 184.58C80.4036 182.537 79.4497 179.747 79.7567 176.927L80.8186 167.171L91.1282 169.042L91.5224 175.193L108.839 203.233L102.803 205.771Z" fill="#FFB6B6"/>
<path d="M105.277 221C104.948 221 104.624 220.917 104.328 220.753C103.611 220.355 103.215 219.544 103.343 218.736L104.051 214.262L100.397 206.358L101.361 203.472L106.878 203.166L108.717 201.33L110.776 201.688C112.008 201.902 113.034 202.666 113.59 203.784C114.146 204.902 114.136 206.179 113.563 207.288L107.023 219.939C106.777 220.414 106.36 220.761 105.847 220.915C105.659 220.972 105.467 221 105.277 221Z" fill="#2F2E41"/>
<path d="M94.9359 146.711L90.9839 171.598L71.832 180.703L68.792 156.423L94.9359 146.711Z" fill="#2F2E41"/>
<path d="M83.9549 198.486L83.8825 198.411L63.5258 177.296C61.5554 175.253 60.6016 172.463 60.9086 169.643L61.9705 159.887L72.28 161.758L72.6743 167.909L89.9904 195.949L83.9549 198.486Z" fill="#FFB6B6"/>
<path d="M86.4286 213.716C86.1002 213.716 85.7757 213.632 85.4797 213.468C84.7631 213.071 84.3674 212.26 84.495 211.452L85.2028 206.978L81.5488 199.074L82.5125 196.188L88.0296 195.882L89.8684 194.046L91.9279 194.404C93.1599 194.617 94.1856 195.381 94.7419 196.499C95.298 197.618 95.2882 198.895 94.7146 200.004L88.1745 212.655C87.929 213.13 87.5116 213.476 86.9991 213.631C86.8109 213.688 86.6191 213.716 86.4286 213.716Z" fill="#2F2E41"/>
<path d="M73.1509 138.375L71.0116 144.184L61.4047 159.848C61.1224 160.308 61.077 160.859 61.28 161.359C61.4831 161.858 61.8996 162.222 62.4227 162.356L83.6249 167.784L93.4401 154.023C96.24 150.097 97.6884 145.292 97.5251 140.477L73.1509 138.375Z" fill="#2F2E41"/>
<path d="M95.0334 144.283H70.7036L70.7173 144.119L73.789 106.948C74.1916 102.076 76.715 97.6633 80.7121 94.8407L80.7543 94.811L97.3846 95.4259L93.774 128.929L98.5754 138.579C99.1884 139.811 99.121 141.246 98.3946 142.415C97.6684 143.585 96.4117 144.283 95.0334 144.283Z" fill="#949494"/>
<path d="M88.3797 102.289C86.9912 102.289 85.6372 101.727 84.6364 100.671L74.0879 89.5465C72.7006 88.0836 72.336 85.9499 73.159 84.1105L81.0404 66.4873C80.8676 65.0789 81.0341 63.6314 81.5225 62.2985C82.0987 60.6562 83.0502 59.2528 84.2015 58.3477C85.3733 57.4262 86.6133 57.1268 87.6942 57.5056C89.8997 58.2768 90.7191 61.6829 89.5206 65.0982C89.0699 66.4411 88.2954 67.6758 87.2807 68.669L80.3893 85.3275L90.6953 92.5027C92.5175 93.4574 93.5931 95.3539 93.4854 97.4426C93.3814 99.4601 92.166 101.173 90.3135 101.914C89.6833 102.166 89.0278 102.289 88.3797 102.289Z" fill="#FFB6B6"/>
<path d="M12.1782 69.4053C14.8421 72.5895 15.876 76.802 16.5867 80.8897C16.8464 82.3839 17.0738 83.8838 17.2684 85.3879C17.9951 91.0022 18.2394 96.8623 16.2755 102.173C15.7781 103.518 15.274 105.33 16.461 106.137C17.4039 106.778 18.7833 106.112 19.2967 105.095C19.8101 104.078 19.708 102.873 19.5936 101.74C18.3441 103.08 18.734 105.561 20.3345 106.454C21.9351 107.348 24.2564 106.38 24.7455 104.616C25.0003 106.499 26.8508 108.023 28.7506 107.916C30.6504 107.809 32.3169 106.085 32.3574 104.186C31.3723 105.231 31.8595 107.123 33.0822 107.877C34.3049 108.631 35.9347 108.419 37.1888 107.719C38.4429 107.018 39.4031 105.903 40.3356 104.811C39.1062 105.57 38.8183 107.489 39.7713 108.573C40.7243 109.658 42.6677 109.622 43.5807 108.504C44.3331 107.583 44.3292 106.237 43.962 105.106C43.5948 103.976 42.9189 102.974 42.41 101.899C40.0791 96.9764 41.452 91.1385 43.3777 86.0445C45.3033 80.9506 47.7874 75.8278 47.5794 70.3871" fill="white"/>
<path d="M12.0174 69.5661C13.9708 71.9232 15.0348 74.8418 15.7313 77.7862C16.486 80.9766 16.9567 84.2613 17.289 87.5203C17.6254 90.8184 17.7369 94.1758 17.2359 97.4636C16.9942 99.0494 16.6038 100.604 16.056 102.112C15.6783 103.152 15.2228 104.46 15.6894 105.544C16.2395 106.822 17.78 106.841 18.7676 106.073C20.0841 105.049 19.9706 103.225 19.822 101.74C19.804 101.56 19.5767 101.419 19.4328 101.579C18.4053 102.722 18.3764 104.538 19.261 105.777C20.1986 107.09 21.9384 107.327 23.3286 106.609C24.1086 106.206 24.7148 105.52 24.9657 104.676H24.526C24.8306 106.683 26.8061 108.319 28.8563 108.136C30.8632 107.957 32.5114 106.186 32.5857 104.186C32.5929 103.994 32.3277 103.879 32.1965 104.025C31.5334 104.765 31.4617 105.804 31.8316 106.703C32.2404 107.696 33.1232 108.344 34.1764 108.521C36.8856 108.978 38.9089 106.831 40.4971 104.972C40.6553 104.787 40.4518 104.465 40.2208 104.615C39.2057 105.272 38.7581 106.582 39.0769 107.74C39.4121 108.956 40.6013 109.671 41.835 109.586C43.2224 109.49 44.2077 108.473 44.3937 107.116C44.6192 105.47 43.7756 104.004 43.0284 102.608C39.4753 95.9717 42.6096 88.6472 45.1086 82.2422C46.5869 78.4533 47.9484 74.5092 47.8078 70.3869C47.7978 70.0947 47.3418 70.0934 47.3518 70.3869C47.5853 77.2336 43.7404 83.228 41.9465 89.6287C41.0954 92.6656 40.6201 95.9064 41.2352 99.0343C41.5412 100.59 41.598 102.226 42.3444 103.614C43.0487 104.924 44.3733 106.267 43.7597 107.762C43.1897 109.15 41.2818 109.597 40.1361 108.614C39.0434 107.676 39.2772 105.768 40.451 105.008L40.1747 104.65C38.7892 106.272 37.6783 106.06 35.3524 106.042C34.3517 106.034 32.8651 107.687 32.374 106.788C31.9571 106.025 31.9135 105.023 32.519 104.347L32.1297 104.186C32.0637 105.963 30.5479 107.581 28.7509 107.688C26.9184 107.797 25.2364 106.338 24.9657 104.555C24.9301 104.321 24.5848 104.357 24.526 104.555C24.0418 106.184 21.9065 107.106 20.4098 106.234C18.9501 105.384 18.6386 103.143 19.7552 101.901L19.366 101.74C19.503 103.109 19.6768 104.913 18.372 105.802C17.8771 106.139 17.2087 106.307 16.6607 105.993C16.1266 105.687 16.8016 104.8 16.8084 104.221C16.8238 102.918 16.6337 101.96 16.99 100.73C17.4156 99.2606 17.6893 97.7509 17.85 96.2307C18.1777 93.1281 18.0221 89.9934 17.6789 86.8993C17.3383 83.8278 16.8922 80.7377 16.1856 77.727C15.4703 74.6791 14.3595 71.6812 12.3398 69.2442C12.1526 69.0182 11.8316 69.3418 12.0174 69.5661Z" fill="#3F3D56"/>
<path d="M29.8805 73.2888C20.596 73.2888 10.7285 71.7464 10.7285 68.8881C10.7285 66.0297 20.596 64.4873 29.8805 64.4873C39.1649 64.4873 49.0324 66.0297 49.0324 68.8881C49.0324 71.7464 39.1649 73.2888 29.8805 73.2888ZM29.8805 65.0943C18.9522 65.0943 11.3365 67.0937 11.3365 68.8881C11.3365 70.6824 18.9522 72.6818 29.8805 72.6818C40.8087 72.6818 48.4244 70.6824 48.4244 68.8881C48.4244 67.0937 40.8087 65.0943 29.8805 65.0943Z" fill="#3F3D56"/>
<path d="M8.62403 77.5523C8.52873 77.5523 8.43314 77.5469 8.33784 77.536L2.43212 76.8561C1.18436 76.7123 0.220701 75.6587 0.19042 74.4046L0.000718362 66.5551C-0.0165002 65.834 0.276516 65.1384 0.804356 64.6461C1.33249 64.1538 2.04856 63.9102 2.76729 63.9766L11.6275 64.7993C12.6271 64.8924 13.4782 65.5667 13.7959 66.5175L15.2194 70.7813C15.5483 71.7671 15.2295 72.8729 14.4261 73.533L10.2378 76.9758C9.78392 77.3489 9.20828 77.5523 8.62403 77.5523Z" fill="#3F3D56"/>
</g>
<defs>
<clipPath id="clip0_633_3880">
<rect width="114" height="221" fill="white"/>
</clipPath>
</defs>
</svg>
