<svg width="343" height="164" viewBox="0 0 343 164" fill="none" xmlns="http://www.w3.org/2000/svg">
<path d="M295.838 86.6158C287.924 69.5131 272.435 54.9231 253.725 52.5451C248.778 51.9162 243.612 52.1686 239.022 54.1162C232.997 56.673 228.556 61.8337 224.068 66.595C214.567 76.6716 203.933 85.6203 192.38 93.2641C186.677 97.0359 180.56 100.554 173.79 101.519C160.215 103.454 146.787 94.2067 140.596 81.9841C136.729 74.3492 134.941 65.3849 131.815 57.4432C128.216 57.4362 123.925 57.4376 119.31 57.4587C106.553 57.5176 96.1697 57.7055 96.1697 57.7055C96.1697 57.7055 108.512 41.3738 119.264 47.4246C122.7 49.3581 126.298 51.0836 129.605 52.5359C127.727 48.9255 125.357 45.6772 122.096 43.0654C115.667 37.9153 106.96 36.4707 98.7284 36.8542C90.0829 37.2568 81.3611 39.5686 74.3373 44.6175C61.8249 53.6118 56.658 69.4433 52.2354 84.1947L62.9248 89.5479C67.5098 85.5882 74.2149 81.6711 80.3949 85.149C91.1447 91.2005 103.496 95.2191 103.496 95.2191C103.496 95.2191 93.1963 95.126 80.4393 95.1838C78.2966 95.1937 76.2238 95.2074 74.253 95.223L192.933 154.656C232.077 155.207 261.592 153.092 298.787 154.656C300.728 154.737 305.091 144.579 305.104 141.906C305.208 123.065 303.752 103.718 295.838 86.6158ZM257.829 91.7419C245.072 91.8008 234.688 91.9887 234.688 91.9887C234.688 91.9887 247.031 75.657 257.782 81.7078C268.534 87.7586 280.885 91.7761 280.885 91.7761C280.885 91.7761 270.586 91.6831 257.829 91.7409L257.829 91.7419Z" fill="#FBFFD9"/>
<path d="M343 164H0V163.295H342.656L343 164Z" fill="#CCCCCC"/>
<path d="M119.364 57.7061C119.364 57.7061 121.501 42.0548 125.062 46.3222C128.624 50.5897 125.062 56.9944 125.062 56.9944L122.212 60.5519L119.363 58.4175L119.364 57.7061Z" fill="#FFB9B9"/>
<path d="M110.817 62.686C110.817 62.686 117.939 54.8603 119.364 56.2827C120.788 57.705 125.062 58.4171 124.349 61.2629C123.637 64.1087 108.68 73.3589 108.68 73.3589L110.817 62.686Z" fill="#6E6E6E"/>
<path d="M70.2203 61.9746V67.6666C70.2203 67.6666 69.5082 80.4732 73.7816 79.7618C78.0549 79.0505 75.9182 68.3779 75.9182 68.3779L75.2061 61.9746H70.2203Z" fill="#FFB9B9"/>
<path d="M72.3568 103.241C72.3568 103.241 65.9467 113.202 63.81 113.913C61.6733 114.624 50.2774 121.028 48.8532 127.431L38.8818 140.238L43.8673 146.641C43.8673 146.641 66.6588 122.451 73.0689 120.317C79.479 118.184 85.8891 107.511 85.8891 107.511L72.3568 103.241Z" fill="#FFB9B9"/>
<path d="M122.925 86.8765C122.925 86.8765 136.457 89.0109 134.321 97.5486C132.184 106.086 111.529 123.874 111.529 123.874L110.817 128.143L102.983 129.566L99.4219 126.008L100.134 123.874C100.134 123.874 108.681 116.048 109.393 113.201C110.105 110.355 117.94 98.9717 121.501 98.2604L116.515 95.4146L122.925 86.8765Z" fill="#FFB9B9"/>
<path d="M41.0184 140.238C41.0184 140.238 43.8673 135.969 39.5939 136.68C35.3205 137.391 32.4717 138.103 32.4717 140.949C32.4717 143.795 36.033 163.716 40.3056 162.293C44.5783 160.87 41.0177 154.468 41.0177 154.468C41.0177 154.468 43.1544 148.776 44.579 148.064C46.0036 147.353 46.0036 143.795 44.579 143.795C43.1544 143.795 40.3063 141.661 41.0184 140.238Z" fill="#090814"/>
<path d="M101.559 124.585C101.559 124.585 101.559 121.028 98.7098 124.585C95.861 128.143 94.4364 130.988 97.2852 133.123C100.134 135.257 110.105 140.237 110.105 140.237C110.105 140.237 120.789 142.372 119.364 137.392C119.364 137.392 112.242 133.834 112.242 130.988C112.242 128.143 112.242 123.163 110.105 124.585C107.969 126.007 101.559 126.721 101.559 124.585Z" fill="#090814"/>
<path d="M88.0256 71.2236C88.0256 71.2236 78.0542 72.6467 78.7667 86.875C78.7667 86.875 65.9465 99.6816 69.5078 103.951C73.0691 108.219 80.9037 116.046 83.7525 113.911C86.6013 111.777 95.1478 95.4145 95.1478 95.4145C95.1478 95.4145 115.09 102.529 118.651 98.972C122.212 95.4149 125.774 86.8768 125.774 86.8768L107.968 77.627L88.0256 71.2236Z" fill="#090814"/>
<path d="M115.803 30.6693C120.523 30.6693 124.349 26.8468 124.349 22.1315C124.349 17.4162 120.523 13.5938 115.803 13.5938C111.082 13.5938 107.256 17.4162 107.256 22.1315C107.256 26.8468 111.082 30.6693 115.803 30.6693Z" fill="#FFB9B9"/>
<path d="M110.753 23.1807C110.753 23.1807 105.768 31.0064 104.343 31.7184C102.918 32.4305 114.314 39.5441 114.314 39.5441C114.314 39.5441 114.314 30.295 117.876 28.1602L110.753 23.1807Z" fill="#FFB9B9"/>
<path d="M108.681 30.6693C108.681 30.6693 97.285 27.1118 95.1484 32.8037C93.0117 38.4957 88.0262 49.1679 88.7383 56.2826C89.4504 63.3973 90.875 61.9745 88.7383 64.1083C86.6016 66.242 85.177 64.8196 85.8895 67.6658C86.6019 70.5119 87.314 70.5116 86.6016 71.9347C85.8891 73.3577 95.1484 78.338 102.983 79.0493L110.817 79.7607C110.817 79.7607 110.817 66.9541 112.242 64.1093C113.666 61.2646 116.515 55.5716 116.515 53.4371V47.7896C116.515 44.0307 115.533 40.3369 113.666 37.0733C113.666 37.0733 109.393 30.6693 108.681 30.6693Z" fill="#949494"/>
<path d="M100.134 33.5156C100.134 33.5156 73.7812 35.6501 70.9324 42.7647C68.0836 49.8794 66.6591 64.1091 69.5079 64.1091C72.3567 64.1091 75.9179 65.5322 76.6301 64.1091C77.3422 62.6861 80.1913 48.4578 80.9034 48.4578C81.6155 48.4578 102.983 46.3233 102.983 46.3233C102.983 46.3233 112.241 34.9383 100.134 33.5156Z" fill="#6E6E6E"/>
<path d="M116.149 20.0147C116.149 20.0147 118.416 16.0775 121.252 19.4972C124.087 22.9169 128.697 16.6323 127.992 15.2914C127.286 13.9505 124.783 15.3517 120.498 13.9519C116.214 12.5521 107.96 9.70203 106.577 19.0005C105.195 28.299 108.487 27.3243 108.487 27.3243C108.487 27.3243 109.996 19.0848 111.36 21.4515L112.724 23.8182L113.907 24.1091L116.149 20.0147Z" fill="#090814"/>
<path d="M248.634 37.2905C253.779 37.2905 257.949 33.1244 257.949 27.9853C257.949 22.8462 253.779 18.6802 248.634 18.6802C243.49 18.6802 239.319 22.8462 239.319 27.9853C239.319 33.1244 243.49 37.2905 248.634 37.2905Z" fill="#090814"/>
<path d="M244.017 34.5522C244.017 34.5522 244.577 44.6241 243.457 44.6241C242.337 44.6241 250.458 49.3801 250.458 49.3801L255.5 46.5823V43.225C255.5 43.225 248.781 42.3857 251.58 35.1116C254.379 27.8376 244.017 34.5522 244.017 34.5522Z" fill="#FFB9B9"/>
<path d="M220.493 145.063L219.652 153.457L222.453 154.296L224.694 152.058L225.534 145.063H220.493Z" fill="#FFB9B9"/>
<path d="M260.822 149.819L262.222 155.135L266.143 157.653L270.345 155.415L265.583 147.581L260.822 149.819Z" fill="#FFB9B9"/>
<path d="M247.947 38.6044C251.807 38.6044 254.936 35.4784 254.936 31.6223C254.936 27.7661 251.807 24.6401 247.947 24.6401C244.086 24.6401 240.957 27.7661 240.957 31.6223C240.957 35.4784 244.086 38.6044 247.947 38.6044Z" fill="#FFB9B9"/>
<path d="M241.778 61.1305L239.817 60.2912C239.817 60.2912 236.456 58.3327 236.176 54.416C235.896 50.4992 238.977 45.4622 238.977 45.4622L243.459 44.0635L248.724 48.344L248.78 55.2532L241.778 61.1305Z" fill="#FFB9B9"/>
<path d="M239.818 46.023L238.697 45.4636C238.697 45.4636 233.096 45.1837 232.536 51.8983C231.975 58.6128 230.015 69.8039 230.015 69.8039C230.015 69.8039 225.534 77.6377 225.814 86.031L223.574 93.305C223.574 93.305 220.493 103.936 224.134 103.936C227.774 103.936 227.494 92.4656 227.494 92.4656C227.494 92.4656 234.216 76.2386 234.776 73.4411C235.336 70.6436 240.098 57.494 238.697 53.8568C237.296 50.2196 239.818 46.023 239.818 46.023Z" fill="#FFB9B9"/>
<path d="M244.017 63.6484L244 66C244 66 245.5 68.5 245.137 70.363C244.297 71.7621 243.457 74.5579 243.457 74.5579L247.379 80.7134L260.542 81.8326L263 65.5L244.017 63.6484Z" fill="#6E6E6E"/>
<path d="M256.342 44.064L258.582 42.9448C258.582 42.9448 263.343 39.5875 267.263 39.0281L279.306 30.9148L287.148 12.1698C287.148 12.1698 286.868 2.0979 289.109 3.21605C291.35 4.33421 291.069 13.008 291.069 13.008C291.069 13.008 286.868 30.3539 283.227 35.1103C279.586 39.8667 266.425 47.7012 266.425 47.7012C266.425 47.7012 262.784 51.8961 263.065 53.8564C263.345 55.8167 256.342 44.064 256.342 44.064Z" fill="#FFB9B9"/>
<path d="M245.978 74.5596C245.978 74.5596 242.898 72.6011 240.937 75.9583C238.977 79.3156 235.336 80.1532 233.095 90.2268C230.854 100.3 225.533 116.246 224.132 117.365C222.731 118.484 216.85 130.235 220.211 146.741H225.812L230.573 122.96C230.573 122.96 245.977 103.936 247.097 96.1021L252.139 125.478C252.139 125.478 252.419 136.669 256.62 141.985L261.102 152.616L266.983 149.818L260.262 122.96C260.262 122.96 263.622 95.8218 261.382 88.2679L261.06 78.3646C261.06 78.3646 251.86 78.7562 245.978 74.5596Z" fill="#090814"/>
<path d="M222.453 152.058H219.092C218.532 152.058 214.051 155.695 216.012 157.653C217.972 159.611 221.053 163.248 221.053 163.248C221.053 163.248 231.976 164.636 232.256 162.678C232.536 160.719 227.495 156.534 227.495 156.534L226.095 152.057C226.095 152.057 223.293 148.98 222.453 152.058Z" fill="#090814"/>
<path d="M266.984 154.855C266.984 154.855 262.223 154.575 261.383 154.296C260.543 154.016 258.862 161.57 261.383 162.13C263.904 162.689 274.266 163.528 274.266 163.528C274.266 163.528 282.388 163.249 281.828 161.01C281.268 158.772 270.346 154.296 270.346 154.296C270.346 154.296 268.945 151.497 266.984 154.855Z" fill="#090814"/>
<path d="M245.041 43.6786L243.641 42.8393L241.96 44.2381C241.96 44.2381 247.002 47.5954 245.881 50.6728C244.761 53.7502 240 60.1852 240 60.1852C240 60.1852 244 64.3214 244 66C244 66 254.378 65.0833 262.5 69C262.5 69 263.244 61.0249 264.364 59.9057C265.485 58.7864 266.045 54.8697 263.244 51.5124C261.271 49.042 259.492 46.423 257.922 43.6786L255.122 42L253.679 42.4583C253.679 42.4583 256.522 45.6382 253.721 45.9181C250.921 46.198 246.441 45.3566 245.041 43.6786Z" fill="#6E6E6E"/>
<path d="M255.443 12.1206C254.624 13.0337 253.503 13.6205 252.285 13.7732C250.179 14.0735 251.834 17.3786 251.834 17.3786C251.669 16.9898 251.638 16.5572 251.747 16.149C251.855 15.7409 252.097 15.3806 252.433 15.125C253.638 14.0735 255.443 13.4728 255.443 12.1206Z" fill="#090814"/>
<path d="M251.383 20.6639C252.817 20.6639 253.979 19.5028 253.979 18.0705C253.979 16.6382 252.817 15.4771 251.383 15.4771C249.949 15.4771 248.787 16.6382 248.787 18.0705C248.787 19.5028 249.949 20.6639 251.383 20.6639Z" fill="#090814"/>
<path d="M254.414 20.6235C252.408 19.5769 248.958 18.7552 247.125 18.813L247.589 17.042C249.212 18.1432 252.643 18.9808 254.877 18.8525L254.414 20.6235Z" fill="#ECFB6D"/>
<path d="M250.271 20.7793C250.271 20.7793 247.111 24.8367 240.79 25.7401C234.468 26.6436 239.435 36.5643 239.435 36.5643C239.435 36.5643 237.629 32.9564 241.241 29.7993C244.853 26.6422 250.271 24.8367 250.271 20.7793Z" fill="#090814"/>
<path d="M250.512 20.54C250.512 20.54 252.318 26.8542 255.027 27.7559C257.735 28.6576 256.381 38.1288 251.866 39.0309C251.866 39.0309 255.704 33.8444 253.446 29.7853C251.189 25.7261 249.835 22.568 250.512 20.54Z" fill="#090814"/>
<path d="M299.052 5.59521H279.728V7.83329H299.052V5.59521Z" fill="#090814"/>
<path d="M299.052 13.4292C299.98 13.4292 300.732 10.4229 300.732 6.71458C300.732 3.00622 299.98 0 299.052 0C298.124 0 297.372 3.00622 297.372 6.71458C297.372 10.4229 298.124 13.4292 299.052 13.4292Z" fill="#090814"/>
<path d="M279.727 13.4292C280.655 13.4292 281.408 10.4229 281.408 6.71458C281.408 3.00622 280.655 0 279.727 0C278.799 0 278.047 3.00622 278.047 6.71458C278.047 10.4229 278.799 13.4292 279.727 13.4292Z" fill="#090814"/>
<path d="M308.855 156.12H289.53V158.358H308.855V156.12Z" fill="#090814"/>
<path d="M308.855 163.954C309.783 163.954 310.535 160.947 310.535 157.239C310.535 153.531 309.783 150.524 308.855 150.524C307.927 150.524 307.174 153.531 307.174 157.239C307.174 160.947 307.927 163.954 308.855 163.954Z" fill="#090814"/>
<path d="M289.53 163.954C290.458 163.954 291.21 160.947 291.21 157.239C291.21 153.531 290.458 150.524 289.53 150.524C288.601 150.524 287.849 153.531 287.849 157.239C287.849 160.947 288.601 163.954 289.53 163.954Z" fill="#090814"/>
</svg>
