<svg width="24" height="24" viewBox="0 0 24 24" fill="none" xmlns="http://www.w3.org/2000/svg">
<g clip-path="url(#clip0_215_1173)">
<path d="M13.4999 6.75H10.4799C9.25993 6.75 8.24993 5.75998 8.22993 4.53998L8.19993 3.01001C8.18993 2.60001 8.51991 2.24999 8.92991 2.23999C8.93991 2.23999 8.93993 2.23999 8.94993 2.23999C9.35993 2.23999 9.68993 2.56997 9.69993 2.96997L9.72993 4.5C9.73993 4.9 10.0799 5.23999 10.4799 5.23999H13.4999C13.9199 5.23999 14.2499 4.89999 14.2499 4.48999V3C14.2499 2.59 14.5899 2.25 14.9999 2.25C15.4099 2.25 15.7499 2.59 15.7499 3V4.5C15.7499 5.74 14.7399 6.75 13.4999 6.75Z" fill="#212121"/>
<path d="M13 23.75H8C4.35 23.75 2.25 21.65 2.25 18V8C2.25 4.35 4.35 2.25 8 2.25H16C19.65 2.25 21.75 4.35 21.75 8V15C21.75 15.41 21.41 15.75 21 15.75C20.59 15.75 20.25 15.41 20.25 15V8C20.25 5.14 18.86 3.75 16 3.75H8C5.14 3.75 3.75 5.14 3.75 8V18C3.75 20.86 5.14 22.25 8 22.25H13C13.41 22.25 13.75 22.59 13.75 23C13.75 23.41 13.41 23.75 13 23.75Z" fill="#212121"/>
<g clip-path="url(#clip1_215_1173)">
<path d="M16.2001 14.7922C16.4678 14.4761 16.941 14.4368 17.2571 14.7045C17.5733 14.9721 17.6126 15.4454 17.3449 15.7615L13.7909 19.959C13.5232 20.2751 13.05 20.3144 12.7339 20.0468C12.4177 19.7791 12.3784 19.3058 12.6461 18.9897L16.2001 14.7922Z" stroke="#212121" stroke-linecap="round" stroke-linejoin="round"/>
<path d="M16.2141 17.0971L20.03 20.328L18.7376 21.8544L14.9217 18.6234L16.2141 17.0971Z" stroke="#212121" stroke-linecap="round" stroke-linejoin="round"/>
<path d="M13.9245 15.1585C14.2814 14.737 14.9124 14.6846 15.3339 15.0415L15.7155 15.3646L13.1307 18.4173L12.7492 18.0943C12.3277 17.7374 12.2753 17.1064 12.6322 16.6849L13.9245 15.1585Z" stroke="#212121" stroke-linecap="round" stroke-linejoin="round"/>
<path d="M22.3056 19.9617C22.5732 19.6456 22.5339 19.1723 22.2178 18.9047C21.9017 18.637 21.4285 18.6763 21.1608 18.9924L17.6068 23.1899C17.3391 23.506 17.3784 23.9793 17.6945 24.247C18.0107 24.5146 18.4839 24.4753 18.7516 24.1592L22.3056 19.9617Z" stroke="#212121" stroke-linecap="round" stroke-linejoin="round"/>
<path d="M22.3195 22.2666C22.6764 21.8451 22.624 21.2141 22.2025 20.8572L21.8209 20.5341L19.2362 23.5868L19.6178 23.9099C20.0393 24.2668 20.6703 24.2144 21.0272 23.7929L22.3195 22.2666Z" stroke="#212121" stroke-linecap="round" stroke-linejoin="round"/>
</g>
</g>
<defs>
<clipPath id="clip0_215_1173">
<rect width="24" height="24" fill="white"/>
</clipPath>
<clipPath id="clip1_215_1173">
<rect width="12" height="12" fill="white" transform="translate(22.959 13) rotate(85.2546)"/>
</clipPath>
</defs>
</svg>
