<svg width="46" height="120" viewBox="0 0 46 120" fill="none" xmlns="http://www.w3.org/2000/svg">
<path d="M2.52777 13.9331C6.89075 9.61659 14.3129 -0.374394 22.0344 1.81C25.9193 2.90905 25.1764 9.46856 24.7366 12.2875C23.9583 17.2753 22.4868 22.9767 22.892 28.0265C23.325 33.424 27.8537 30.9065 31.3968 29.716C43.5469 25.6336 46.6676 30.5345 43.0517 42.2212C37.0792 61.5251 24.5767 78.753 15.4248 96.6041C12.2126 102.87 8.22653 108.594 5.35786 115.022C4.35303 117.273 2.99664 117.567 2.88909 114.82C2.81227 112.858 2.99767 99.4217 3.1072 106.994C3.15354 110.198 0.899686 115.016 1.65491 117.979C2.14977 119.922 13.8145 111.611 17.4705 111.508" stroke="#6E6E6E" stroke-width="3" stroke-linecap="round"/>
</svg>
