<svg width="98" height="53" viewBox="0 0 98 53" fill="none" xmlns="http://www.w3.org/2000/svg">
<path d="M112.748 2.56705C104.222 0.720604 98.3817 1.0525 90.7438 5.29692C83.8463 9.12989 77.8447 16.3083 72.5021 22.0228C65.8875 29.0979 51.1216 39.4154 41.6015 32.1493C34.2094 26.5073 35.2452 14.8334 45.1028 12.9516C48.9031 12.2261 52.8451 15.8159 52.9089 19.639C52.9779 23.7682 49.0134 27.7535 46.1009 30.1673C38.2788 36.6498 28.2434 31.2998 19.5061 33.8401C11.3432 36.2135 7.45829 42.3388 4.05322 49.7004C3.76155 50.331 2.72094 47.623 2.3985 46.9767C1.21644 44.6076 1.2674 45.8954 2.16115 47.6867C2.73596 48.8387 3.35122 51.591 4.57889 50.1612C5.46461 49.1296 7.7682 47.8469 9.02645 47.2191" stroke="#6E6E6E" stroke-width="3" stroke-linecap="round"/>
</svg>
