<svg width="66" height="111" viewBox="0 0 66 111" fill="none" xmlns="http://www.w3.org/2000/svg">
<path d="M34.5639 30.2466H13.5121C12.2883 30.2466 11.2961 31.2405 11.2961 32.4666V35.5191C11.2961 36.7451 12.2883 37.739 13.5121 37.739H34.5639C35.7877 37.739 36.7799 36.7451 36.7799 35.5191V32.4666C36.7799 31.2405 35.7877 30.2466 34.5639 30.2466Z" fill="#2ABA6D"/>
<path d="M56.642 106.244C56.6476 106.246 56.653 106.249 56.6579 106.252C56.464 105.831 56.2821 105.406 56.1168 104.973C56.0973 104.922 56.0793 104.87 56.0596 104.819C56.0611 104.832 56.0611 104.845 56.0629 104.861C56.0679 104.943 56.0744 105.024 56.081 105.108C56.0908 105.237 56.099 105.368 56.1005 105.499C56.102 105.541 56.102 105.579 56.102 105.621C56.1015 105.78 56.0851 105.939 56.053 106.095H56.0595C56.101 106.099 56.138 106.1 56.1772 106.107C56.3312 106.128 56.4813 106.171 56.6229 106.234C56.6292 106.237 56.6353 106.24 56.6409 106.244L56.642 106.244Z" fill="url(#paint0_linear_222_1229)"/>
<path d="M53.5476 41.9165C53.5301 42.6004 53.2983 43.2624 53.2626 43.9455C55.2729 44.0456 57.2559 43.0684 59.2469 43.3681C58.6899 43.0074 58.3931 42.3573 58.218 41.717C57.995 40.8913 57.9285 40.031 58.0218 39.1807C58.0271 39.1334 58.0354 39.0866 58.0467 39.0404C58.1205 38.7056 58.3117 38.2325 58.2604 37.9695C58.193 37.6213 57.8654 37.6902 57.5703 37.7102C56.6705 37.7788 55.775 37.8946 54.8873 38.0571C54.656 38.097 52.4032 38.6608 52.3694 38.6019C52.7643 39.2366 53.0911 39.9112 53.3446 40.6146C53.4849 41.0339 53.5535 41.4739 53.5475 41.9161L53.5476 41.9165Z" fill="#9F616A"/>
<path d="M33.6683 39.8059C33.8411 40.0419 34.0479 40.2509 34.2822 40.4258C34.4345 40.5507 34.5909 40.6789 34.7547 40.7939C35.0464 41.0194 35.3938 41.161 35.7598 41.2035C36.2387 41.2354 37.2556 40.9537 37.5525 40.5433C37.678 40.3368 37.7377 40.097 37.7239 39.8557C37.7188 39.5284 37.6631 39.2039 37.5588 38.8937C37.3721 38.3889 37.1107 37.9152 36.7832 37.4885C36.4369 37.0063 36.0511 36.5311 35.5367 36.2397C35.365 36.1476 35.188 36.0661 35.0065 35.9954C34.6939 35.8679 34.3833 35.7387 34.07 35.6108C34.0168 35.5847 33.9591 35.5694 33.9 35.5657C33.6487 35.5682 33.6024 35.9526 33.7451 36.1606C34.0301 36.579 34.6715 36.6954 34.8515 37.1702C34.6998 37.1748 34.5535 37.2275 34.4335 37.3207C34.3136 37.4138 34.2262 37.5427 34.1838 37.6887C34.1768 37.7662 34.1452 37.8395 34.0938 37.8979C34.0107 37.9642 33.8825 37.9268 33.7891 37.9769C33.6229 38.0658 33.6953 38.3137 33.6783 38.5016C33.6374 38.6643 33.58 38.8224 33.507 38.9734C33.4717 39.1154 33.4678 39.2634 33.4957 39.4071C33.5235 39.5507 33.5824 39.6866 33.6682 39.805L33.6683 39.8059Z" fill="#9F616A"/>
<path d="M61.3783 108.37C61.2236 108.215 60.9707 108.242 60.7551 108.276C59.5951 108.46 58.4228 108.555 57.2484 108.56C57.1013 107.841 57.5282 107.141 57.6657 106.421C57.6854 106.235 57.7321 106.052 57.8042 105.88C57.9696 105.562 58.3427 105.416 58.6928 105.342C59.3247 105.209 60.3133 104.973 60.6655 105.613C61.0889 106.382 61.2243 107.516 61.3783 108.37Z" fill="#9F616A"/>
<path d="M48.5289 105.657C49.0054 105.983 49.5966 106.084 50.1693 106.158C50.742 106.232 51.332 106.287 51.8508 106.543C52.2984 106.765 52.6758 107.127 53.1499 107.287C53.5906 107.408 54.0547 107.415 54.499 107.308C55.0316 107.208 55.5993 107.014 55.8868 106.553C56.143 106.143 56.1156 105.623 56.0807 105.141C56.0394 104.596 55.999 104.05 55.9594 103.504C55.9613 103.365 55.9264 103.229 55.8581 103.108C55.4731 102.546 54.5371 103.344 54.0352 103.342C53.2413 103.341 52.3887 102.91 51.816 102.383C51.7659 102.33 51.7076 102.286 51.6435 102.253C51.4172 102.151 51.1909 102.339 50.9896 102.503C50.9672 102.522 50.9446 102.541 50.9222 102.558C50.4583 102.927 49.8358 103.002 49.2631 103.151C48.6904 103.299 48.0755 103.601 47.8978 104.167C47.8862 104.202 47.8769 104.239 47.8701 104.276C47.7658 104.797 48.0821 105.351 48.5289 105.657Z" fill="#090814"/>
<path d="M61.1611 70.1555C61.5322 71.9797 61.1804 73.877 60.1803 75.4461C59.9074 75.8695 59.5881 76.2668 59.3829 76.7269C59.2485 77.0551 59.1444 77.3949 59.0717 77.742L58.1881 81.4061C57.9493 82.3947 57.7093 83.4041 57.7809 84.4188C57.8309 85.1264 58.0089 85.9214 57.574 86.4806C57.469 86.5872 57.3803 86.7088 57.3109 86.8414C57.2675 86.9969 57.266 87.1612 57.3066 87.3175C57.7536 89.9778 58.0852 92.7589 57.2776 95.3324C56.5455 97.665 56.504 100.25 55.8816 102.614C55.8046 102.907 55.7163 103.215 55.495 103.421C55.3287 103.562 55.1291 103.657 54.9155 103.697C53.9984 103.916 53.03 103.66 52.1748 103.263C51.5737 102.984 50.9266 102.494 50.978 101.833C51.0025 101.518 51.1858 101.243 51.3104 100.952C51.5547 100.383 51.5743 99.7478 51.6403 99.132C51.8065 97.5854 52.2816 96.0934 52.6413 94.5811C53.0009 93.0687 53.2451 91.4878 52.941 89.9631C52.3189 86.8092 51.3233 83.741 49.9753 80.8235C49.9166 80.6683 49.8237 80.5284 49.7036 80.4142C49.5683 80.3371 49.4397 80.249 49.3191 80.1506C49.2257 80.0059 49.1657 79.8423 49.1432 79.6715C49.0095 79.1888 48.6121 78.8327 48.3459 78.4089C47.6735 77.3387 47.8865 75.9669 47.9114 74.7023C47.9356 73.4729 47.759 72.2319 47.9601 71.0191C48.1612 69.8063 48.8551 68.5658 50.0225 68.1857C50.6009 67.9974 51.2261 68.0401 51.8312 68.1001C55.0369 68.4182 58.1531 69.0017 61.1611 70.1555Z" fill="#090814"/>
<path d="M48.1053 77.8653C48.1148 78.3431 48.1687 78.8191 48.2665 79.2869C48.8317 82.4619 49.4339 85.6303 50.0731 88.792C50.1293 89.0663 50.1839 89.3407 50.2581 89.6098C50.4963 90.4896 50.913 91.3108 51.482 92.0221C54.1463 95.3486 54.3767 100.18 55.8218 104.191C55.9187 104.463 56.0168 104.735 56.1205 105.003C56.3816 105.683 56.6791 106.348 57.0117 106.996C57.0506 107.09 57.1141 107.173 57.1955 107.234C57.2852 107.279 57.3855 107.299 57.4855 107.291C58.786 107.298 60.0707 107.005 61.24 106.435C61.4069 106.373 61.5477 106.256 61.6388 106.103C61.6838 105.981 61.6984 105.85 61.6814 105.72C61.6415 104.925 61.5926 104.101 61.2138 103.402C60.9624 102.984 60.6507 102.605 60.2886 102.278C60.1762 99.782 59.9298 97.2807 59.3814 94.8435C59.1002 93.5972 58.7527 92.3372 58.03 91.284C57.4975 90.5062 56.7335 89.7385 56.8273 88.8004C56.8688 88.3884 57.041 87.8756 56.7059 87.6331C56.5597 87.5265 56.3433 87.5129 56.2443 87.362C56.2045 87.2906 56.1822 87.2107 56.1792 87.129C56.1103 86.4852 56.1505 85.8343 56.2979 85.2039C56.4198 84.792 56.5155 84.3728 56.5845 83.9489C56.627 83.5204 56.5544 83.0571 56.2694 82.737C56.2519 81.8803 56.2756 80.991 56.258 80.1356C56.2243 79.648 56.2648 79.1582 56.378 78.6828C56.4429 78.4586 56.5418 78.2445 56.5917 78.0151C56.7705 77.1922 56.3241 76.2065 56.8548 75.554C57.0764 75.2829 57.4174 75.1481 57.7074 74.9526C58.2863 74.5657 58.6664 73.9321 58.8777 73.2668C59.0653 72.5935 59.1764 71.9011 59.2092 71.2028C59.2265 71.0546 59.2281 70.9049 59.2141 70.7563C59.2048 70.6794 59.1846 70.6043 59.1542 70.5331C58.9891 70.1611 58.5448 70.0171 58.1502 69.9226C55.6394 69.3193 53.0658 69.0179 50.4838 69.0246C49.5281 68.3733 48.991 68.6061 48.5863 69.2957C48.3626 69.7169 48.1817 70.1596 48.0462 70.617C47.8611 71.1769 47.8499 74.3106 47.6699 74.873C47.4378 75.6046 48.114 77.0976 48.1053 77.8653Z" fill="#090814"/>
<path d="M54.4514 40.6221C57.0155 40.6221 59.0941 38.5398 59.0941 35.9711C59.0941 33.4024 57.0155 31.3201 54.4514 31.3201C51.8874 31.3201 49.8088 33.4024 49.8088 35.9711C49.8088 38.5398 51.8874 40.6221 54.4514 40.6221Z" fill="#9F616A"/>
<path d="M51.7505 43.5893C51.953 43.8238 52.2244 44.0824 52.5247 44.0069C52.6332 43.9698 52.7349 43.9153 52.8259 43.8454C53.3612 43.4999 54.018 43.4188 54.6477 43.3237C55.9168 43.1321 57.1705 42.8497 58.3992 42.4786C58.7559 42.3485 59.1299 42.2723 59.5089 42.2524C60.2958 42.2566 60.993 42.7805 61.4862 43.3949C61.9794 44.0093 62.3287 44.728 62.8125 45.3497C63.1572 45.7926 63.5679 46.1831 63.8897 46.6427C64.7026 47.8035 61.4106 61.6081 61.4545 61.8408C61.7628 64.0374 61.9254 70.1519 61.7887 71.2785C60.3362 70.7165 58.8143 70.3543 57.2647 70.2018C56.2675 70.1037 55.2506 70.0908 54.2883 69.8108C53.6872 69.6355 53.117 69.3581 52.5068 69.2185C52.0119 69.1212 51.509 69.0697 51.0047 69.0648C49.8921 69.0198 48.7718 68.9753 47.6706 69.1396C47.5814 69.1535 47.4728 69.16 47.4195 69.0873C47.3957 69.0477 47.3841 69.0019 47.3861 68.9557C47.3693 68.5423 47.468 68.1323 47.671 67.7719C47.8114 67.5237 48.0066 67.2809 48.0011 66.9958C47.9908 66.8628 48.278 49.4814 48.6898 48.7402C49.1691 47.8778 49.6553 46.9974 49.8488 46.0296C49.976 45.389 49.9724 44.7291 50.0641 44.0821C50.0738 43.9179 50.1308 43.7599 50.2282 43.6274C50.3854 43.4489 50.6516 43.4233 50.889 43.4308C51.1824 43.4404 51.4728 43.4941 51.7502 43.5903L51.7505 43.5893Z" fill="#6E6E6E"/>
<path d="M50.2 50.8493C49.9175 51.2023 49.6229 51.5652 49.2221 51.774C48.7605 52.0132 48.2176 52.0192 47.6986 52.0083C45.5594 51.9623 43.4284 51.7275 41.3303 51.3067C41.0916 51.2651 38.5291 49.6713 38.0039 49.0007C37.379 48.191 35.8074 42.9944 35.752 42.6983C35.6556 42.1878 35.3972 41.7222 35.0152 41.3708C34.9343 41.3129 34.8732 41.2315 34.8402 41.1375C34.8298 41.0592 34.8444 40.9797 34.8817 40.9101C35.0954 40.4331 35.5843 40.1255 36.0913 40.0013C36.6047 39.9021 37.1301 39.8812 37.6497 39.9393C37.8229 39.9721 37.9935 40.0175 38.1601 40.0751C38.572 41.193 41.4425 46.3692 41.592 46.3614C42.0023 46.3868 42.8882 46.5368 43.26 46.3614C43.6824 46.163 45.0673 46.1551 45.1411 46.1146C45.3086 46.0175 46.8142 45.3634 47.0108 45.3845C46.8872 45.2735 49.7384 44.5553 49.935 44.2125C50.0042 44.0909 50.0181 43.9254 50.1368 43.8517C50.2171 43.8122 50.3085 43.8016 50.3957 43.8216C50.668 43.8579 50.9326 43.9384 51.1791 44.0599C51.5807 45.6352 51.3701 47.2712 51.0639 48.8681C50.952 49.5923 50.6546 50.2751 50.2009 50.85L50.2 50.8493Z" fill="#949494"/>
<path d="M52.5353 42.417C53.0339 42.1064 53.6196 41.9747 54.1973 41.8691C54.5438 41.7901 54.9003 41.7645 55.2545 41.7929C55.5812 41.8337 55.8949 41.9603 56.224 41.9786C56.6856 42.0044 57.1279 41.8168 57.5739 41.6946C58.0199 41.5723 58.5348 41.5256 58.9108 41.7959C58.9907 41.8747 59.0918 41.9285 59.2017 41.9507C59.3157 41.9369 59.4216 41.8848 59.5024 41.8031C59.8182 41.5766 60.2016 41.4643 60.5895 41.4848C60.9774 41.5053 61.3468 41.6572 61.6372 41.9157C62.4884 42.7154 62.3921 44.2777 63.3897 44.8841C63.6648 45.0506 64.0162 45.1393 64.1768 45.4189C64.2157 45.5079 64.2611 45.5938 64.3125 45.6761C64.3794 45.7497 64.4612 45.8081 64.5524 45.8473C64.8419 45.9768 65.1174 46.1354 65.3747 46.3209C65.503 46.4145 65.6112 46.5332 65.6925 46.6698C65.7738 46.8064 65.8267 46.958 65.8479 47.1156C65.8516 47.3467 65.8019 47.5754 65.7027 47.784C65.2144 48.9835 64.3674 50.0021 63.278 50.6999C62.1886 51.3977 60.9102 51.7404 59.6186 51.6809C59.3893 51.6927 59.1633 51.622 58.9815 51.4817C58.8857 51.3732 58.8102 51.2483 58.7586 51.113C58.2897 50.1279 57.4088 49.4007 56.8494 48.4642C56.5162 47.9061 56.3021 47.2817 55.9551 46.7319C55.4288 45.8984 54.6292 45.2828 53.8461 44.6853C53.4046 44.3484 52.9129 43.9949 52.3582 44.0185C51.8639 44.0396 51.5041 44.0664 51.6854 43.4586C51.8363 43.0211 52.138 42.6517 52.5363 42.417H52.5353Z" fill="#E6E6E6"/>
<path opacity="0.5" d="M52.5353 42.417C53.0339 42.1064 53.6196 41.9747 54.1973 41.8691C54.5438 41.7901 54.9003 41.7645 55.2545 41.7929C55.5812 41.8337 55.8949 41.9603 56.224 41.9786C56.6856 42.0044 57.1279 41.8168 57.5739 41.6946C58.0199 41.5723 58.5348 41.5256 58.9108 41.7959C58.9907 41.8747 59.0918 41.9285 59.2017 41.9507C59.3157 41.9369 59.4216 41.8848 59.5024 41.8031C59.8182 41.5766 60.2016 41.4643 60.5895 41.4848C60.9774 41.5053 61.3468 41.6572 61.6372 41.9157C62.4884 42.7154 62.3921 44.2777 63.3897 44.8841C63.6648 45.0506 64.0162 45.1393 64.1768 45.4189C64.2157 45.5079 64.2611 45.5938 64.3125 45.6761C64.3794 45.7497 64.4612 45.8081 64.5524 45.8473C64.8419 45.9768 65.1174 46.1354 65.3747 46.3209C65.503 46.4145 65.6112 46.5332 65.6925 46.6698C65.7738 46.8064 65.8267 46.958 65.8479 47.1156C65.8516 47.3467 65.8019 47.5754 65.7027 47.784C65.2144 48.9835 64.3674 50.0021 63.278 50.6999C62.1886 51.3977 60.9102 51.7404 59.6186 51.6809C59.3893 51.6927 59.1633 51.622 58.9815 51.4817C58.8857 51.3732 58.8102 51.2483 58.7586 51.113C58.2897 50.1279 57.4088 49.4007 56.8494 48.4641C56.5162 47.9061 56.3021 47.2817 55.9551 46.7319C55.4288 45.8984 54.6292 45.2828 53.8461 44.6853C53.4046 44.3484 52.9129 43.9949 52.3582 44.0185C51.8639 44.0396 51.5041 44.0664 51.6854 43.4586C51.8363 43.0211 52.137 42.6517 52.5353 42.417Z" fill="#949494"/>
<path d="M50.1187 109.831C50.455 110.145 50.9176 110.283 51.3663 110.38C52.3913 110.581 53.429 110.709 54.4719 110.765C54.8094 110.79 55.1483 110.816 55.4858 110.843C56.4759 110.918 57.4676 110.994 58.4622 110.998C59.689 111.002 60.9137 110.896 62.1216 110.681C62.1699 110.686 62.2187 110.679 62.264 110.661C62.3093 110.644 62.3498 110.616 62.3823 110.579C62.4149 110.543 62.4384 110.5 62.4512 110.453C62.4639 110.406 62.4655 110.357 62.4558 110.309C62.4343 109.07 61.6079 108.107 61.3302 106.9C61.2151 106.404 61.0029 107.245 60.963 107.291C60.7168 107.572 60.5304 107.701 60.1565 107.722C59.1351 107.778 57.9911 107.155 57.1802 106.602C57.0065 106.472 56.822 106.358 56.6288 106.26C56.4871 106.196 56.337 106.153 56.1832 106.132C55.6576 106.084 55.1294 106.191 54.6641 106.44C54.0547 106.743 53.5182 107.179 52.9152 107.491C52.4242 107.744 51.8942 107.912 51.3475 107.988C50.7949 108.065 50.1347 108.101 49.8517 108.581C49.8512 108.581 49.8508 108.582 49.8506 108.583C49.8504 108.583 49.8504 108.584 49.8505 108.585C49.6149 108.981 49.7837 109.517 50.1187 109.831Z" fill="#090814"/>
<path opacity="0.1" d="M59.7181 36.619C59.6202 36.68 59.5112 36.7207 59.3973 36.7386C59.2537 36.7805 59.1027 36.7908 58.9547 36.7686C58.8068 36.7464 58.6654 36.6923 58.5403 36.6101L59.7181 36.619Z" fill="black"/>
<path d="M49.8908 31.2033C50.4154 30.7821 51.0597 30.5384 51.7312 30.5071C52.3891 30.4482 53.0979 30.4914 53.6601 30.1518C54.3 29.7584 54.6647 28.9061 55.4038 28.7976C55.7226 28.7732 56.0417 28.8385 56.3254 28.986C57.4252 29.4718 58.3561 30.2739 59.0002 31.2905C59.1466 31.5773 59.3464 31.8333 59.589 32.0446C59.7388 32.1311 59.884 32.2254 60.0238 32.3273C60.1725 32.4777 60.2813 32.6628 60.3404 32.866C60.7282 33.9721 60.7005 35.1818 60.2625 36.2689C60.0025 36.9107 59.6046 37.4859 59.3324 38.1304C59.0601 38.7749 58.0243 39.9364 57.8568 39.5957C57.6892 39.2549 57.4612 38.9286 57.3931 38.5506C57.2609 37.8074 57.5478 37.1116 57.0497 36.5455C56.7415 36.1955 56.1413 35.9122 55.8576 36.2803C55.7455 36.4227 55.7276 36.6177 55.6282 36.7678C55.432 37.0599 54.9704 37.0661 54.6912 36.8502C54.4256 36.6138 54.2588 36.2856 54.2241 35.9314C53.9595 34.342 53.3069 33.2818 51.5882 33.7363C50.948 33.9065 50.209 33.9835 49.6738 33.491C48.9681 32.8421 49.2598 31.7657 49.8908 31.2033Z" fill="#090814"/>
<path d="M23.9845 22.4513C28.2428 22.4513 31.6949 18.993 31.6949 14.727C31.6949 10.461 28.2428 7.00269 23.9845 7.00269C19.7262 7.00269 16.2742 10.461 16.2742 14.727C16.2742 18.993 19.7262 22.4513 23.9845 22.4513Z" fill="white"/>
<path d="M23.9861 22.5251C22.4459 22.5251 20.9403 22.0675 19.6597 21.2103C18.379 20.353 17.3809 19.1346 16.7915 17.7091C16.2021 16.2835 16.0479 14.7149 16.3484 13.2016C16.6488 11.6883 17.3905 10.2982 18.4796 9.20712C19.5687 8.11606 20.9563 7.37305 22.4669 7.07203C23.9775 6.771 25.5432 6.9255 26.9662 7.51597C28.3891 8.10645 29.6053 9.10638 30.461 10.3893C31.3167 11.6723 31.7734 13.1806 31.7734 14.7236C31.7711 16.792 30.9499 18.7749 29.49 20.2375C28.0301 21.7001 26.0507 22.5227 23.9861 22.5251ZM23.9861 7.07641C22.4764 7.07641 21.0005 7.52491 19.7452 8.36519C18.4899 9.20548 17.5115 10.3998 16.9338 11.7971C16.356 13.1945 16.2049 14.7321 16.4994 16.2155C16.794 17.6989 17.521 19.0615 18.5885 20.131C19.656 21.2004 21.0162 21.9288 22.4969 22.2238C23.9776 22.5189 25.5124 22.3675 26.9072 21.7887C28.3021 21.2099 29.4942 20.2297 30.333 18.9721C31.1717 17.7146 31.6194 16.2361 31.6194 14.7236C31.6171 12.6961 30.8122 10.7524 29.3811 9.31877C27.9501 7.88515 26.0099 7.07873 23.9861 7.07641Z" fill="#090814"/>
<path d="M22.9353 18.7434C22.8021 18.7434 22.6708 18.7123 22.5517 18.6526C22.4326 18.593 22.329 18.5063 22.2492 18.3996L20.1457 15.5897C20.0092 15.4074 19.9506 15.1783 19.9827 14.9527C20.0149 14.7271 20.1352 14.5236 20.3172 14.3869C20.4992 14.2501 20.7279 14.1914 20.9531 14.2237C21.1782 14.2559 21.3814 14.3764 21.5179 14.5587L22.894 16.3969L26.4286 11.0855C26.4904 10.9901 26.5705 10.908 26.6643 10.8438C26.758 10.7797 26.8635 10.7348 26.9747 10.7118C27.0859 10.6888 27.2005 10.6882 27.312 10.7099C27.4234 10.7316 27.5294 10.7753 27.6239 10.8384C27.7183 10.9015 27.7993 10.9827 27.8622 11.0774C27.9251 11.1721 27.9686 11.2784 27.9902 11.39C28.0117 11.5017 28.011 11.6165 27.9879 11.7279C27.9649 11.8392 27.92 11.9449 27.8559 12.0387L23.6488 18.3607C23.5727 18.475 23.4703 18.5694 23.3503 18.6359C23.2303 18.7024 23.0961 18.7392 22.959 18.7431L22.9353 18.7434Z" fill="#2ABA6D"/>
<path d="M25.137 29.2823C24.4862 28.9084 23.9717 28.336 23.6684 27.6485C23.4436 27.1262 23.35 26.5566 23.3959 25.9896C23.4418 25.4226 23.6258 24.8755 23.9318 24.3963C23.9843 24.3146 24.1221 24.3804 24.069 24.464C23.6941 25.0487 23.5087 25.7353 23.5383 26.4297C23.5668 26.9859 23.7343 27.526 24.0252 28.0005C24.3162 28.475 24.7215 28.8687 25.2038 29.1456C25.2891 29.1932 25.2226 29.3311 25.137 29.2823Z" fill="#090814"/>
<path d="M22.9565 24.6882L24.0607 23.7582C24.0713 23.7508 24.0834 23.746 24.0962 23.744C24.109 23.742 24.122 23.743 24.1343 23.7468C24.1466 23.7507 24.1579 23.7573 24.1673 23.7662C24.1766 23.7751 24.1838 23.786 24.1883 23.7981L24.6234 25.3288C24.6528 25.4324 24.4951 25.4908 24.4654 25.3863L24.0301 23.8555L24.1577 23.8953L23.0538 24.8255C22.9714 24.8954 22.8741 24.7575 22.9565 24.6882Z" fill="#090814"/>
<path d="M39.9511 12.727C39.8846 12.2687 39.2975 11.9749 38.6399 12.0707C37.9823 12.1665 37.5032 12.6157 37.5697 13.074C37.6362 13.5323 38.2233 13.8261 38.8809 13.7303C39.5385 13.6345 40.0176 13.1853 39.9511 12.727Z" fill="#D6D6E3"/>
<path d="M46.0087 7.13541C45.737 6.76091 45.0811 6.77451 44.5438 7.1658C44.0064 7.55708 43.791 8.17788 44.0627 8.55238C44.3344 8.92688 44.9903 8.91327 45.5277 8.52198C46.0651 8.1307 46.2804 7.50991 46.0087 7.13541Z" fill="#2ABA6D"/>
<path d="M47.9483 1.63315C47.9451 1.21262 47.7058 0.873504 47.4138 0.875715C47.1217 0.877926 46.8876 1.22062 46.8907 1.64115C46.8939 2.06168 47.1332 2.4008 47.4253 2.39858C47.7173 2.39637 47.9515 2.05367 47.9483 1.63315Z" fill="#2ABA6D"/>
<path d="M47.9673 10.4576C47.9642 10.0371 47.7248 9.69797 47.4328 9.70018C47.1408 9.70239 46.9066 10.0451 46.9098 10.4656C46.913 10.8861 47.1523 11.2253 47.4443 11.223C47.7363 11.2208 47.9705 10.8781 47.9673 10.4576Z" fill="#D6D6E3"/>
<path d="M42.7 13.9542C42.6968 13.5337 42.4575 13.1945 42.1655 13.1968C41.8734 13.199 41.6393 13.5417 41.6424 13.9622C41.6456 14.3827 41.8849 14.7218 42.177 14.7196C42.469 14.7174 42.7032 14.3747 42.7 13.9542Z" fill="#2ABA6D"/>
<path d="M43.6039 2.2287C43.5374 1.77041 42.9504 1.47658 42.2928 1.57241C41.6352 1.66823 41.156 2.11743 41.2225 2.57572C41.2891 3.034 41.8761 3.32784 42.5337 3.23201C43.1913 3.13618 43.6705 2.68699 43.6039 2.2287Z" fill="#F2F2F2"/>
<path d="M42.1675 7.07431C42.1644 6.65378 41.925 6.31467 41.633 6.31688C41.341 6.31909 41.1068 6.66179 41.11 7.08232C41.1132 7.50284 41.3525 7.84196 41.6445 7.83975C41.9365 7.83754 42.1707 7.49484 42.1675 7.07431Z" fill="#F2F2F2"/>
<path d="M0.120446 1.64417C0.0539071 2.10246 0.533058 2.55165 1.19066 2.64748C1.84826 2.7433 2.43529 2.44947 2.50183 1.99118C2.56837 1.53289 2.08922 1.0837 1.43162 0.987871C0.774019 0.892047 0.186986 1.18588 0.120446 1.64417Z" fill="#D6D6E3"/>
<path d="M6.6177 6.15664C6.346 6.53114 6.56137 7.15193 7.09874 7.54321C7.63611 7.93449 8.292 7.9481 8.5637 7.5736C8.83541 7.1991 8.62004 6.57831 8.08266 6.18703C7.54529 5.79574 6.8894 5.78214 6.6177 6.15664Z" fill="#2ABA6D"/>
<path d="M9.44135 13.0733C9.43818 13.4938 9.67235 13.8365 9.96438 13.8387C10.2564 13.8409 10.4957 13.5018 10.4989 13.0813C10.5021 12.6607 10.2679 12.318 9.97587 12.3158C9.68383 12.3136 9.44452 12.6527 9.44135 13.0733Z" fill="#2ABA6D"/>
<path d="M9.46332 4.25807C9.46015 4.6786 9.69432 5.02129 9.98635 5.0235C10.2784 5.02572 10.5177 4.6866 10.5209 4.26607C10.524 3.84554 10.2899 3.50285 9.99784 3.50064C9.70581 3.49842 9.4665 3.83754 9.46332 4.25807Z" fill="#F2F2F2"/>
<path d="M4.19916 0.761241C4.19599 1.18177 4.43016 1.52447 4.72219 1.52668C5.01422 1.52889 5.25353 1.18978 5.25671 0.769247C5.25988 0.348718 5.02571 0.00602012 4.73368 0.00380911C4.44165 0.0015981 4.20234 0.340712 4.19916 0.761241Z" fill="#2ABA6D"/>
<path d="M3.77303 12.1432C3.70649 12.6015 4.18565 13.0507 4.84325 13.1465C5.50085 13.2423 6.08788 12.9485 6.15442 12.4902C6.22096 12.0319 5.74181 11.5827 5.08421 11.4869C4.42661 11.3911 3.83957 11.6849 3.77303 12.1432Z" fill="#D6D6E3"/>
<path d="M3.66718 7.63282C3.66401 8.05335 3.89818 8.39605 4.19021 8.39826C4.48224 8.40047 4.72155 8.06136 4.72472 7.64083C4.7279 7.2203 4.49373 6.8776 4.2017 6.87539C3.90966 6.87318 3.67035 7.21229 3.66718 7.63282Z" fill="#F2F2F2"/>
<defs>
<linearGradient id="paint0_linear_222_1229" x1="-32.0248" y1="106.252" x2="-32.0248" y2="104.819" gradientUnits="userSpaceOnUse">
<stop stop-color="#808080" stop-opacity="0.251"/>
<stop offset="0.535" stop-color="#808080" stop-opacity="0.122"/>
<stop offset="1" stop-color="#808080" stop-opacity="0.102"/>
</linearGradient>
</defs>
</svg>
