<svg width="106" height="89" viewBox="0 0 106 89" fill="none" xmlns="http://www.w3.org/2000/svg">
<path d="M63.1048 82.6188C62.8194 81.9647 62.5488 81.2123 62.8343 80.5582C63.0206 80.1729 63.3406 79.8698 63.7338 79.7063C64.1229 79.5464 64.5331 79.4445 64.9513 79.4037C66.264 79.2302 67.5924 79.2119 68.9093 79.3492C69.0056 80.1152 68.8025 80.8921 68.628 81.6321C68.4697 82.3136 68.3791 82.4144 67.6811 82.4496C67.2292 82.4743 63.2118 82.8601 63.1048 82.6188Z" fill="#ED9DA0"/>
<path d="M75.151 78.2056C85.8341 78.2056 94.4946 75.7648 94.4946 72.7539C94.4946 69.743 85.8341 67.3022 75.151 67.3022C64.4678 67.3022 55.8074 69.743 55.8074 72.7539C55.8074 75.7648 64.4678 78.2056 75.151 78.2056Z" fill="#090814"/>
<path d="M78.6215 43.9743C77.9585 45.2653 76.8573 46.2733 75.5185 46.8148C74.7302 47.1041 73.9006 47.2632 73.0619 47.2859C72.1434 47.3275 71.2054 47.2682 70.343 46.952C69.185 46.5295 68.2233 45.6655 67.5023 44.6583C66.7813 43.6511 66.2848 42.5007 65.8534 41.341C65.6262 40.7373 65.4098 40.0939 65.5166 39.4566C66.2133 39.2971 66.9762 39.0626 67.336 38.4398C67.6431 37.9055 67.5579 37.2649 67.3807 36.6545C67.3307 36.4814 67.2725 36.3096 67.2143 36.1447C67.079 35.7495 66.6124 34.9985 66.9371 34.6604C67.1434 34.4465 68.0111 34.3374 68.3101 34.1983C69.2315 33.7703 70.0809 33.1516 71.0926 32.9485C71.9678 32.7727 72.8715 32.9376 73.7453 33.1202C73.8612 33.1372 73.9725 33.1775 74.0726 33.2388C74.1867 33.3357 74.2711 33.4634 74.316 33.6068C74.5649 34.2174 74.711 34.8921 74.9112 35.5285C75.1195 36.195 75.3873 36.8206 75.8892 37.2935C76.2802 37.6629 76.7779 37.8946 77.2645 38.1195L78.463 38.6727C78.6761 38.7532 78.8695 38.8792 79.0297 39.0421C79.1864 39.2592 79.2801 39.5159 79.3002 39.7836C79.5149 41.2177 79.2774 42.6836 78.6211 43.9745L78.6215 43.9743Z" fill="#ED9DA0"/>
<path d="M70.8349 38.0731C74.47 38.0731 77.4168 35.104 77.4168 31.4415C77.4168 27.7789 74.47 24.8098 70.8349 24.8098C67.1998 24.8098 64.2529 27.7789 64.2529 31.4415C64.2529 35.104 67.1998 38.0731 70.8349 38.0731Z" fill="#ED9DA0"/>
<path d="M89.3756 51.2574L88.8643 48.1363C88.6059 46.5706 88.3395 44.9744 87.6171 43.5638C87.1422 42.6397 80.4911 38.9953 79.8553 38.5946C79.2196 38.1939 78.4283 37.9132 77.7248 38.1694C77.6112 39.3887 77.491 40.6357 76.9767 41.747C76.6422 42.4701 76.1515 43.1088 75.5405 43.6163C74.9294 44.1238 74.2136 44.4873 73.4452 44.6801C72.6768 44.873 71.8754 44.8904 71.0995 44.7311C70.3236 44.5717 69.5928 44.2397 68.9607 43.7592C67.7554 42.8447 66.9831 41.434 66.6228 39.958C66.5349 39.5978 66.4348 39.1853 66.1061 39.0204C65.7504 38.8403 65.3223 39.0585 65.024 39.323C64.4761 39.8123 64.0405 40.5128 63.329 40.6777C63.072 40.7377 58.1956 42.9906 57.9196 43.3817C57.6436 43.7729 57.5137 44.2567 57.3784 44.7258C58.8569 48.043 60.2096 51.3645 61.6881 54.6818C61.7574 54.8068 61.7941 54.9475 61.795 55.0907C61.7653 55.2393 61.7024 55.3791 61.6109 55.4995C60.8859 56.673 60.9089 58.1491 60.9887 59.5283C61.0684 60.9076 61.1659 62.3645 60.5545 63.6008C60.3881 63.9401 59.5093 67.8176 59.7252 68.6435H90.2964C89.7135 67.0285 89.9353 63.7875 90.057 62.073C90.1423 60.8736 89.9217 59.6759 89.8271 58.4762C89.6286 56.0262 89.7774 53.7024 89.3756 51.2574Z" fill="#949494"/>
<path d="M90.9392 67.6901C91.3895 67.517 91.886 67.5792 92.3694 67.6451C93.9234 67.859 95.5009 68.0785 96.9415 68.7041C97.6178 68.9951 98.2617 69.3855 98.7189 69.9593C99.1248 70.4759 99.3614 71.1082 99.5853 71.7311L100.105 73.1607C100.302 73.7058 100.502 74.262 100.559 74.8412C100.721 76.5571 99.5562 78.1748 98.0913 79.0662C96.6264 79.9575 94.9016 80.2751 93.2216 80.6077C91.5416 80.9402 89.8548 81.3082 88.1814 81.698C87.401 81.9021 86.6091 82.059 85.8101 82.1681C84.0192 82.3725 82.1471 82.0711 80.4454 82.6683C79.7691 82.9068 79.1048 83.2612 78.4028 83.4261C77.9371 83.529 77.4661 83.6055 76.9919 83.655L73.7712 84.0257C73.1162 84.1139 72.4568 84.1647 71.7962 84.1781C70.3893 84.1781 69.0056 83.8428 67.6393 83.5076C67.4941 83.4819 67.3558 83.4258 67.2335 83.3427C67.017 83.171 66.9697 82.867 66.9386 82.5917C66.8011 81.3733 66.6803 80.1535 66.5761 78.9323C66.5437 78.5358 66.5193 78.1064 66.7344 77.7724C67.0049 77.3636 67.532 77.2355 68.0141 77.1564C70.056 76.8198 72.1247 76.6752 74.1932 76.7244C74.9792 75.9325 76.275 75.9285 77.3044 75.4977C77.6831 75.3225 78.0496 75.1216 78.4014 74.8966C80.242 73.8146 82.2988 73.1594 84.4223 72.9789C84.8383 72.9661 85.2516 72.9067 85.6546 72.8017C86.4514 72.5523 87.1778 71.8734 87.996 72.0396C88.0975 71.7575 88.1678 71.38 88.4019 71.1864C88.5182 71.0869 88.6617 71.0201 88.7685 70.9138C88.9945 70.6836 89.0147 70.3209 88.9808 69.9993C88.947 69.6777 88.8708 69.3481 88.9533 69.0344C88.9877 68.9157 89.0382 68.8024 89.1035 68.6977C89.5107 67.9818 90.1241 67.6221 90.9392 67.6901Z" fill="#090814"/>
<path d="M64.349 83.4582C63.5116 84.4355 62.7745 84.7844 61.4636 84.7529C60.6574 84.7338 59.8521 84.6916 59.0478 84.6262C58.4982 84.5662 57.9454 84.5401 57.3927 84.5482C55.7234 84.6136 54.1124 85.3837 52.4472 85.2487C52.201 85.2292 51.9575 85.1835 51.7208 85.1124C51.3452 85.007 51.0058 84.7989 50.7402 84.5113C50.421 84.1474 50.2681 83.665 50.1802 83.1879C49.7352 80.7429 50.9553 78.0797 53.0913 76.8353C53.3699 76.654 53.6867 76.5406 54.0165 76.5042C54.3399 76.503 54.6596 76.574 54.9526 76.712L54.973 76.7202C55.8407 77.08 56.6288 77.61 57.2915 78.2794C57.392 78.3954 57.5119 78.4927 57.6459 78.5669C57.7795 78.6178 57.9209 78.6446 58.0638 78.646L59.8413 78.7591C60.1424 78.7684 60.4417 78.8102 60.7341 78.8838C61.0563 78.9972 61.37 79.1338 61.6728 79.2927C62.6291 79.7233 63.6897 79.8378 64.7232 80.0041C64.8227 80.0096 64.9178 80.0479 64.9937 80.1131C65.0349 80.1648 65.0637 80.2255 65.0776 80.2903C65.2218 80.8383 65.231 81.4134 65.1041 81.9657C64.9773 82.518 64.7183 83.0307 64.3498 83.4591L64.349 83.4582Z" fill="#323144"/>
<path d="M89.3929 80.1109C90.3871 80.0832 91.503 80.0331 92.2335 80.7078C92.9302 81.3452 93.0221 82.3982 93.0681 83.345L93.1209 84.4449C93.1372 84.7802 93.1506 85.1264 93.0168 85.4372C92.7788 85.9824 92.1254 86.2454 91.5288 86.2141C90.9323 86.1827 90.3845 85.9196 89.8394 85.6825C88.3594 85.0401 86.8184 84.551 85.2402 84.2228C85.2917 83.4623 85.3773 82.7054 85.4973 81.9522C85.5798 81.4303 85.5935 80.5566 85.9395 80.1232C86.3062 79.666 86.7836 79.9133 87.2813 79.9985C87.9798 80.1059 88.687 80.1437 89.3929 80.1116V80.1109Z" fill="#ED9DA0"/>
<path d="M63.1199 69.06C63.1199 69.1964 62.9075 69.06 62.8885 68.9143C62.7397 67.8116 61.8709 66.9027 60.8595 66.4611C59.8482 66.0195 58.6952 65.9963 57.5996 66.1008C55.9426 66.2589 54.0893 66.8981 53.4765 68.4587C53.3331 68.8239 53.2682 69.2192 53.0923 69.5695C52.8975 69.9539 52.5796 70.2605 52.3686 70.6339C52.0047 71.2799 51.9899 72.0718 52.1211 72.8023C52.4741 74.7513 53.7971 76.4187 55.4 77.5725C57.003 78.7263 58.8765 79.4165 60.7446 80.038C65.6841 81.6795 70.7521 82.8991 75.8947 83.684C76.728 83.8108 77.5693 83.928 78.3675 84.1978C79.0818 84.439 79.75 84.8002 80.4479 85.0837C82.0707 85.7407 83.8172 85.9751 85.5475 86.2061C85.8424 86.2442 86.1801 86.2715 86.3984 86.0697C86.6797 85.8065 86.5864 85.3492 86.5066 84.9712C86.2129 83.537 86.4583 82.044 87.1952 80.7817C87.484 80.2911 87.8607 79.7881 87.8066 79.2199C87.7417 78.5575 87.087 78.0886 86.435 77.9824C85.783 77.8761 85.1201 78.0328 84.4654 78.1187C84.2387 78.1703 84.0015 78.1469 83.789 78.0519C83.6917 77.9857 83.6035 77.9069 83.5266 77.8175C83.0756 77.3791 82.4984 77.0959 81.8777 77.0084C81.2571 76.921 80.6249 77.0339 80.0718 77.3309C79.8296 77.4672 79.4631 77.1632 79.2115 77.0487L76.3694 75.7499C73.1013 74.2602 69.8169 72.7638 66.3595 71.8206C66.0836 71.766 65.8214 71.6561 65.5884 71.4976C65.4166 71.3613 65.2935 71.176 65.1345 71.0247C64.7896 70.6962 64.3094 70.5654 63.8955 70.3319C63.4815 70.0984 63.0225 69.5275 63.1199 69.06Z" fill="#090814"/>
<path d="M104.999 87.0762C104.546 87.9253 103.663 88.4541 102.717 88.6721C102.479 88.7262 102.237 88.7609 101.994 88.7758C100.797 88.8508 99.6151 88.5168 98.461 88.1871L96.8946 87.7401C96.6253 87.6546 96.3493 87.5926 96.0695 87.5547C95.6886 87.529 95.3062 87.5423 94.928 87.5942C93.0767 87.7676 91.1591 86.8082 89.3309 86.4683C89.1779 86.4517 89.1049 84.7279 89.3309 84.2741C89.5568 83.8203 89.7069 79.7098 90.1764 79.7724C90.6459 79.835 91.1056 79.9686 91.5777 80.0055C92.9656 80.1173 94.3845 79.3958 95.7171 79.8023C96.0106 79.8923 96.288 80.0354 96.5856 80.1144C97.1658 80.2451 97.7718 80.1923 98.3211 79.9631C98.5158 79.8895 98.7062 79.8008 98.896 79.7137C99.2612 79.5221 99.6501 79.3805 100.053 79.2926C101.353 79.0677 102.558 79.974 103.538 80.8583C103.875 81.1398 104.173 81.4652 104.424 81.826C104.677 82.264 104.859 82.7391 104.966 83.2339C105.322 84.4976 105.618 85.9178 104.999 87.0762Z" fill="#323144"/>
<path d="M62.6654 57.2821C62.5018 59.9889 60.5308 62.2254 59.7801 64.8285C59.5934 65.4798 59.4811 66.156 59.2133 66.7762C58.6723 68.0232 57.5589 68.9281 56.3727 69.5661C55.9398 69.8182 55.4664 69.9918 54.9739 70.0787C54.4326 70.1424 53.8849 70.0383 53.4038 69.7805C52.9226 69.5226 52.5309 69.1232 52.2807 68.6354C51.9709 68.0016 51.9277 67.2725 51.7395 66.591C51.5298 65.8047 51.1376 65.0796 50.882 64.3069C50.4112 62.8854 50.4207 61.3289 50.7466 59.8679C51.0555 58.5974 51.5443 57.3782 52.198 56.248C52.2928 56.0804 52.3888 55.9141 52.4868 55.7492C52.7659 55.2725 53.0791 54.817 53.4242 54.3864C54.2356 53.4009 55.2787 52.6431 56.3108 51.8963C56.3896 51.8308 56.4821 51.7842 56.5813 51.7599H56.5975C56.7139 51.7558 56.8293 51.7831 56.9317 51.8389C58.3631 52.4624 59.7369 53.2122 61.0371 54.0796C61.5025 54.3916 62.237 54.7407 62.4811 55.2722C62.7252 55.8037 62.7006 56.7043 62.6654 57.2821Z" fill="#ED9DA0"/>
<path d="M57.2952 44.8285C57.1634 44.9675 57.0612 45.1321 56.9948 45.3124C55.9014 47.7952 55.2555 50.4544 55.0875 53.1654C55.0905 53.2976 55.0603 53.4284 54.9997 53.5456C54.9399 53.6237 54.8734 53.6962 54.8009 53.7625C54.7351 53.8411 54.686 53.9325 54.6566 54.0311C54.6272 54.1296 54.6182 54.2332 54.6301 54.3354C54.642 54.4376 54.6746 54.5362 54.7259 54.6252C54.7772 54.7142 54.846 54.7917 54.9281 54.8528C55.1513 54.4289 55.6856 54.2914 56.1605 54.2545C58.4344 54.0733 60.6555 55.1391 62.9361 55.0581C62.7752 54.4979 62.5439 53.9596 62.4125 53.3926C61.8322 50.8754 63.2789 48.1346 62.3922 45.7099C62.2149 45.2249 61.9187 44.7477 61.4521 44.535C61.2588 44.4564 61.0566 44.4023 60.8501 44.3742C60.2739 44.2693 59.1268 43.8209 58.5695 44C58.3632 44.0668 58.2827 44.2618 58.1122 44.3789C57.8592 44.5478 57.5156 44.6061 57.2952 44.8285Z" fill="#949494"/>
<path opacity="0.046" d="M57.9766 67.3638C57.6528 67.9513 57.1819 68.443 56.6107 68.79C56.0396 69.1369 55.3881 69.3271 54.7213 69.3414C54.3638 69.351 54.0085 69.2827 53.6796 69.141C52.8475 68.7566 52.3774 67.8054 52.203 66.8704C52.0286 65.9354 52.0832 64.9705 51.9595 64.026C51.8605 63.2736 51.6495 62.5434 51.5402 61.7922C51.2719 59.9345 51.8006 58.1001 52.1769 56.2506C52.2681 56.0829 52.3605 55.9166 52.4555 55.7518C52.7234 55.2762 53.025 54.8207 53.3579 54.3889C54.1392 53.4034 55.1431 52.6458 56.1367 51.8988H55.095C55.1199 51.8796 55.1494 51.8675 55.1806 51.8639C55.2118 51.8603 55.2433 51.8653 55.2718 51.8784C55.3008 51.8921 55.3257 51.913 55.3442 51.9393C55.3628 51.9655 55.3742 51.9962 55.3775 52.0282C55.4803 52.9822 56.7656 53.9363 57.0455 54.863C57.2186 55.4326 57.4269 55.9915 57.5663 56.5722C57.6761 57.067 57.7596 57.5675 57.8163 58.0714C58.0012 59.4825 58.1852 60.8908 58.3684 62.2964C58.599 64.012 58.7971 65.8674 57.9766 67.3638Z" fill="black"/>
<path d="M56.4375 49.4659L57.7429 45.3404C57.9376 44.723 58.1351 44.0961 58.1582 43.4473C58.1813 42.7984 58.0122 42.1185 57.5617 41.655C57.1964 41.2809 56.6906 41.0869 56.2577 40.7937C55.1755 40.0593 54.6349 38.7725 54.0704 37.5881C53.5058 36.4037 53.0654 35.3515 51.8344 34.9126C51.5503 34.8118 51.1581 34.8036 51.0309 35.0775C50.9869 35.1914 50.9797 35.3164 51.0105 35.4346C51.0886 35.9702 51.3156 36.4725 51.6652 36.8835C52.3186 37.7354 52.8651 38.7779 52.7082 39.8437C52.5216 41.1057 51.3961 42.0844 51.2608 43.3532C51.2012 43.912 51.3433 44.4722 51.3419 45.035C51.3419 45.3839 51.2851 45.7396 51.3623 46.0803C51.4423 46.3438 51.5376 46.6023 51.6476 46.8545C51.7682 47.262 51.831 47.6845 51.8344 48.1097L52.1198 53.4741C52.2739 56.3757 50.7117 59.1983 51.1417 62.0604C51.2553 62.8114 51.4745 63.5419 51.5772 64.2943C51.7125 65.2388 51.6489 66.2024 51.8301 67.1386C52.0114 68.0749 52.5065 69.0248 53.3641 69.4092C53.707 69.5511 54.0756 69.6194 54.4462 69.6096C55.131 69.6001 55.8017 69.4132 56.394 69.0669C56.9863 68.7205 57.4801 68.2264 57.8279 67.632C58.6805 66.1328 58.4742 64.2807 58.2418 62.5715L57.6684 58.3477C57.6095 57.8434 57.5228 57.3429 57.4087 56.8484C57.2653 56.2679 57.049 55.709 56.8676 55.1393C56.2875 53.2763 55.8531 51.3172 56.4375 49.4659Z" fill="#ED9DA0"/>
<path d="M91.1655 49.7891H63.1925C62.5872 49.7891 62.0964 50.2835 62.0964 50.8934V68.038C62.0964 68.6479 62.5872 69.1424 63.1925 69.1424H91.1655C91.7708 69.1424 92.2615 68.6479 92.2615 68.038V50.8934C92.2615 50.2835 91.7708 49.7891 91.1655 49.7891Z" fill="#3F3D56"/>
<path opacity="0.2" d="M91.1655 49.7891H63.1925C62.5872 49.7891 62.0964 50.2835 62.0964 50.8934V68.038C62.0964 68.6479 62.5872 69.1424 63.1925 69.1424H91.1655C91.7708 69.1424 92.2615 68.6479 92.2615 68.038V50.8934C92.2615 50.2835 91.7708 49.7891 91.1655 49.7891Z" fill="black"/>
<path d="M77.1122 60.2808C77.5605 60.2808 77.9238 59.9147 77.9238 59.463C77.9238 59.0114 77.5605 58.6453 77.1122 58.6453C76.6639 58.6453 76.3005 59.0114 76.3005 59.463C76.3005 59.9147 76.6639 60.2808 77.1122 60.2808Z" fill="white"/>
<path d="M74.2896 32.8208L73.2668 32.3612C73.2668 32.3612 73.2661 27.637 71.2992 27.8434C69.3324 28.0499 64.423 27.7333 64.8003 25.5773C65.1777 23.4213 69.9985 22.9552 72.6832 23.0871C75.368 23.2189 79.7171 25.4482 78.7421 29.4436C78.2493 31.4612 76.6471 35.0307 76.6471 35.0307L74.7016 36.7181L75.6327 34.6432L74.2896 32.8208Z" fill="#090814"/>
<path d="M47.8373 0.198486H0.934486C0.715021 0.19889 0.504678 0.287003 0.349622 0.44349C0.194566 0.599976 0.107458 0.812053 0.107422 1.03317V32.6603C0.107749 32.8812 0.194992 33.093 0.350025 33.2492C0.505057 33.4054 0.715237 33.4933 0.934486 33.4936H47.8373C48.0565 33.4933 48.2667 33.4054 48.4217 33.2492C48.5768 33.093 48.664 32.8812 48.6643 32.6603V1.03331C48.6643 0.812262 48.5773 0.60025 48.4223 0.443775C48.2673 0.2873 48.0567 0.199 47.8373 0.198486Z" fill="#CCCCCC" fill-opacity="0.6"/>
<path d="M4.36846 2.62941C4.74913 2.62941 5.05772 2.31849 5.05772 1.93494C5.05772 1.5514 4.74913 1.24048 4.36846 1.24048C3.98779 1.24048 3.6792 1.5514 3.6792 1.93494C3.6792 2.31849 3.98779 2.62941 4.36846 2.62941Z" fill="#3F3D56"/>
<path d="M6.75005 2.62941C7.13072 2.62941 7.43931 2.31849 7.43931 1.93494C7.43931 1.5514 7.13072 1.24048 6.75005 1.24048C6.36938 1.24048 6.06079 1.5514 6.06079 1.93494C6.06079 2.31849 6.36938 2.62941 6.75005 2.62941Z" fill="#3F3D56"/>
<path d="M9.12871 2.62941C9.50938 2.62941 9.81798 2.31849 9.81798 1.93494C9.81798 1.5514 9.50938 1.24048 9.12871 1.24048C8.74805 1.24048 8.43945 1.5514 8.43945 1.93494C8.43945 2.31849 8.74805 2.62941 9.12871 2.62941Z" fill="#3F3D56"/>
<path d="M44.9866 3.51284H3.78729C3.72761 3.51284 3.6792 3.48513 3.6792 3.44966C3.6792 3.41419 3.72761 3.38647 3.78729 3.38647H44.9866C45.0463 3.38647 45.0947 3.41419 45.0947 3.44966C45.0947 3.48513 45.0463 3.51284 44.9866 3.51284Z" fill="#CACACA"/>
<path d="M9.76297 6.81226H4.12455C3.82075 6.81226 3.57446 7.0604 3.57446 7.3665V28.9819C3.57446 29.288 3.82075 29.5362 4.12455 29.5362H9.76297C10.0668 29.5362 10.3131 29.288 10.3131 28.9819V7.3665C10.3131 7.0604 10.0668 6.81226 9.76297 6.81226Z" fill="#949494"/>
<path d="M6.19661 7.86816H7.44133C7.54035 7.86816 7.63532 7.9078 7.70534 7.97835C7.77536 8.0489 7.8147 8.14458 7.8147 8.24436V8.49515C7.8147 8.54455 7.80504 8.59347 7.78628 8.63911C7.76752 8.68475 7.74001 8.72623 7.70534 8.76116C7.67067 8.79609 7.62951 8.8238 7.58421 8.84271C7.53891 8.86161 7.49036 8.87134 7.44133 8.87134H6.19661C6.09761 8.87134 6.00267 8.83173 5.93265 8.76121C5.86263 8.69069 5.82328 8.59504 5.82324 8.49529V8.24436C5.82324 8.14458 5.86258 8.0489 5.9326 7.97835C6.00262 7.9078 6.09759 7.86816 6.19661 7.86816Z" fill="#CCCCCC" fill-opacity="0.6"/>
<path d="M4.57655 27.4958H9.05772C9.12373 27.4958 9.18705 27.5223 9.23373 27.5693C9.28041 27.6163 9.30663 27.6801 9.30663 27.7466V28.2484C9.30663 28.3149 9.28041 28.3787 9.23373 28.4257C9.18705 28.4727 9.12373 28.4992 9.05772 28.4992H4.57655C4.51054 28.4992 4.44722 28.4727 4.40054 28.4257C4.35386 28.3787 4.32764 28.3149 4.32764 28.2484V27.7466C4.32764 27.6801 4.35386 27.6163 4.40054 27.5693C4.44722 27.5223 4.51054 27.4958 4.57655 27.4958Z" fill="#CCCCCC" fill-opacity="0.6"/>
<path d="M12.4799 6.92773H16.961C17.0271 6.92773 17.0904 6.95416 17.137 7.00119C17.1837 7.04822 17.21 7.11201 17.21 7.17853V7.68026C17.21 7.74677 17.1837 7.81056 17.137 7.8576C17.0904 7.90463 17.0271 7.93105 16.961 7.93105H12.4799C12.4139 7.93105 12.3505 7.90463 12.3039 7.8576C12.2572 7.81056 12.231 7.74677 12.231 7.68026V7.17853C12.231 7.11201 12.2572 7.04822 12.3039 7.00119C12.3505 6.95416 12.4139 6.92773 12.4799 6.92773Z" fill="#E6E6E6"/>
<path d="M20.9039 9.16528H13.3402C12.7326 9.16528 12.24 9.66157 12.24 10.2738V13.7378C12.24 14.35 12.7326 14.8463 13.3402 14.8463H20.9039C21.5115 14.8463 22.0041 14.35 22.0041 13.7378V10.2738C22.0041 9.66157 21.5115 9.16528 20.9039 9.16528Z" fill="#949494"/>
<path d="M8.87035 9.8584H4.88221C4.61638 9.8584 4.40088 10.0755 4.40088 10.3434C4.40088 10.6112 4.61638 10.8283 4.88221 10.8283H8.87035C9.13618 10.8283 9.35168 10.6112 9.35168 10.3434C9.35168 10.0755 9.13618 9.8584 8.87035 9.8584Z" fill="#CCCCCC" fill-opacity="0.6"/>
<path d="M42.9762 24.1296H14.3716C13.1943 24.1296 12.24 25.0912 12.24 26.2773C12.24 27.4635 13.1943 28.425 14.3716 28.425H42.9762C44.1535 28.425 45.1078 27.4635 45.1078 26.2773C45.1078 25.0912 44.1535 24.1296 42.9762 24.1296Z" fill="#F2F2F2"/>
<path d="M40.3622 6.92773H44.8434C44.9094 6.92773 44.9727 6.95416 45.0194 7.00119C45.0661 7.04822 45.0923 7.11201 45.0923 7.17853V7.68026C45.0923 7.74677 45.0661 7.81056 45.0194 7.8576C44.9727 7.90463 44.9094 7.93105 44.8434 7.93105H40.3622C40.2962 7.93105 40.2329 7.90463 40.1862 7.8576C40.1395 7.81056 40.1133 7.74677 40.1133 7.68026V7.17853C40.1133 7.11201 40.1395 7.04822 40.1862 7.00119C40.2329 6.95416 40.2962 6.92773 40.3622 6.92773Z" fill="#E6E6E6"/>
<path opacity="0.459" d="M8.87035 11.3838H4.88221C4.61638 11.3838 4.40088 11.6009 4.40088 11.8688C4.40088 12.1366 4.61638 12.3537 4.88221 12.3537H8.87035C9.13618 12.3537 9.35168 12.1366 9.35168 11.8688C9.35168 11.6009 9.13618 11.3838 8.87035 11.3838Z" fill="#CCCCCC" fill-opacity="0.6"/>
<path opacity="0.459" d="M8.87035 12.9084H4.88221C4.61638 12.9084 4.40088 13.1256 4.40088 13.3934C4.40088 13.6612 4.61638 13.8784 4.88221 13.8784H8.87035C9.13618 13.8784 9.35168 13.6612 9.35168 13.3934C9.35168 13.1256 9.13618 12.9084 8.87035 12.9084Z" fill="#D5D5D5"/>
<path opacity="0.459" d="M8.93911 14.4307H4.81345C4.58559 14.4307 4.40088 14.6168 4.40088 14.8463C4.40088 15.0759 4.58559 15.262 4.81345 15.262H8.93911C9.16697 15.262 9.35168 15.0759 9.35168 14.8463C9.35168 14.6168 9.16697 14.4307 8.93911 14.4307Z" fill="#E0E0E0"/>
<path opacity="0.359" d="M8.87035 15.8181H4.88221C4.61638 15.8181 4.40088 16.0352 4.40088 16.3031C4.40088 16.5709 4.61638 16.788 4.88221 16.788H8.87035C9.13618 16.788 9.35168 16.5709 9.35168 16.3031C9.35168 16.0352 9.13618 15.8181 8.87035 15.8181Z" fill="#E0E0E0"/>
<path d="M44.0078 9.16528H36.169C35.5614 9.16528 35.0688 9.66157 35.0688 10.2738V13.7378C35.0688 14.35 35.5614 14.8463 36.169 14.8463H44.0078C44.6154 14.8463 45.108 14.35 45.108 13.7378V10.2738C45.108 9.66157 44.6154 9.16528 44.0078 9.16528Z" fill="#949494"/>
<path d="M32.456 9.16528H24.7547C24.1471 9.16528 23.6545 9.66157 23.6545 10.2738V13.7378C23.6545 14.35 24.1471 14.8463 24.7547 14.8463H32.456C33.0636 14.8463 33.5561 14.35 33.5561 13.7378V10.2738C33.5561 9.66157 33.0636 9.16528 32.456 9.16528Z" fill="#949494"/>
<path d="M42.9762 16.925H14.3716C13.1943 16.925 12.24 17.8866 12.24 19.0727C12.24 20.2589 13.1943 21.2204 14.3716 21.2204H42.9762C44.1535 21.2204 45.1078 20.2589 45.1078 19.0727C45.1078 17.8866 44.1535 16.925 42.9762 16.925Z" fill="#F2F2F2"/>
</svg>
