<svg width="59" height="105" viewBox="0 0 59 105" fill="none" xmlns="http://www.w3.org/2000/svg">
<path d="M58.0725 78.5017L53.9419 70.0568C53.9419 70.0568 53.2534 62.9908 50.4997 59.7164L47.9179 54.8907L43.7873 50.7546C43.7873 50.7546 39.4846 43.1716 36.5588 42.8268C33.633 42.482 13.1513 51.2716 13.1513 51.2716C13.1513 51.2716 6.439 52.1331 6.78332 54.8907C7.12763 57.6484 8.59045 58.1688 8.59045 58.1688L11.7745 59.0269L12.8072 58.8545L21.9291 59.0269L13.668 61.612L10.9142 62.4736C10.9142 62.4736 7.98827 63.7374 8.59074 66.2077C9.19322 68.678 10.9142 68.678 10.9142 68.678L14.3564 68.5056L17.9707 67.9886L23.6503 70.7461L19.1754 73.6761L19.5195 75.3995C19.5195 75.3995 18.4869 77.2954 19.5195 78.8464L20.5522 81.0869C20.5522 81.0869 22.2733 82.2933 23.6501 80.5699C23.6501 80.5699 24.5106 80.2252 24.5106 79.5358C24.5188 79.0714 24.5765 78.6092 24.6828 78.157C25.011 78.0272 25.3629 77.9684 25.7154 77.9846H26.5759L28.8133 78.157C28.8133 78.157 28.6412 79.0187 29.846 79.1911C29.846 79.1911 30.1902 81.2591 31.223 81.2591C31.223 81.2591 31.5544 82.5295 32.4213 83.101C32.4213 83.101 37.0747 89.0146 40.6891 90.3934C40.6891 90.3934 44.9918 93.3232 46.3686 93.3232L58.0722 78.5017H58.0725Z" fill="#ED9DA0"/>
<path opacity="0.1" d="M35.6882 71.5317C35.6882 71.5317 31.3953 78.8465 31.2231 81.2594L35.6882 71.5317Z" fill="#090814" fill-opacity="0.7"/>
<path opacity="0.1" d="M38.1987 71.5317C38.1987 71.5317 36.0425 78.6741 36.903 82.4656L38.1987 71.5317Z" fill="#090814" fill-opacity="0.7"/>
<path d="M40.5621 75.3513L15.9297 78.9245C14.3862 79.1466 12.8178 78.7465 11.5685 77.8121C10.3192 76.8777 9.49102 75.4852 9.26571 73.9402L0.059967 10.3061C-0.161979 8.76047 0.237439 7.18979 1.17059 5.93868C2.10374 4.68758 3.4944 3.85822 5.03747 3.63258L29.6699 0.059981C31.2134 -0.162133 32.7819 0.237907 34.0312 1.17233C35.2805 2.10676 36.1086 3.49926 36.3339 5.04434L45.5392 68.6784C45.761 70.224 45.3615 71.7945 44.4283 73.0455C43.4952 74.2965 42.1045 75.1258 40.5615 75.3513H40.5621Z" fill="#090814" fill-opacity="0.7"/>
<path d="M40.2885 73.785L15.6059 77.3654C14.4476 77.5323 13.2706 77.2322 12.333 76.531C11.3954 75.8299 10.774 74.7849 10.6049 73.6255L1.38219 9.86953C1.21558 8.70972 1.51526 7.53109 2.21547 6.59227C2.91568 5.65345 3.95922 5.03112 5.11712 4.86184L29.7997 1.28215C30.958 1.11532 32.135 1.4154 33.0726 2.11656C34.0101 2.81771 34.6316 3.86266 34.8007 5.02212L44.024 68.7779C44.1906 69.9377 43.8909 71.1163 43.1907 72.0552C42.4905 72.994 41.4469 73.6163 40.2891 73.7856L40.2885 73.785Z" fill="#B5B5B5" fill-opacity="0.5"/>
<path d="M21.9854 6.64965L14.1308 7.78901C13.6952 7.85219 13.2524 7.73951 12.8998 7.47576C12.5472 7.21202 12.3136 6.81881 12.2505 6.38265C12.1875 5.94648 12.3 5.50309 12.5634 5.15C12.8268 4.79691 13.2194 4.56306 13.655 4.49989L21.5099 3.36067C21.9455 3.2975 22.3883 3.41018 22.7409 3.67392C23.0935 3.93767 23.3271 4.33087 23.3901 4.76704C23.4532 5.2032 23.3407 5.6466 23.0773 5.99969C22.8139 6.35277 22.4212 6.58662 21.9857 6.6498L21.9854 6.64965Z" fill="#090814" fill-opacity="0.7"/>
<path d="M58.9977 77.7907C58.9977 77.7907 57.4701 74.2794 50.7577 83.7586C44.0454 93.2377 41.4639 97.029 43.1849 98.4078C44.9059 99.7866 49.93 104.752 49.93 104.752H58.9977V77.7907Z" fill="#ECFB6D"/>
<path d="M45.8526 85.7401C45.8526 85.7401 40.0008 83.3273 39.4845 68.5059C39.4845 68.5059 38.1075 66.7824 37.4192 66.7824C36.7308 66.7824 36.5587 66.093 36.5587 66.093C36.5587 66.093 34.8375 67.127 33.8049 66.61C33.8049 66.61 28.2974 66.9547 27.0927 64.0249C25.888 61.0952 30.1906 60.4058 30.1906 60.4058L31.3954 60.2334L35.6982 57.4759C35.6982 57.4759 37.5915 56.7865 38.9683 58.3376L44.3037 61.2674L48.7786 63.3355L51.016 65.576" fill="#ED9DA0"/>
<path opacity="0.1" d="M49.1225 59.3716C49.1225 59.3716 46.3602 60.3355 45.1597 61.6632L49.1225 59.3716Z" fill="#090814" fill-opacity="0.7"/>
<path d="M10.8058 21.1461L7.94521 21.6002C7.87509 21.6125 7.80322 21.6107 7.7338 21.595C7.66438 21.5792 7.5988 21.5498 7.54087 21.5084C7.48294 21.467 7.43382 21.4145 7.39639 21.3539C7.35895 21.2933 7.33394 21.2259 7.32282 21.1555C7.3117 21.0851 7.31468 21.0132 7.3316 20.944C7.34852 20.8748 7.37904 20.8096 7.42137 20.7523C7.4637 20.695 7.517 20.6467 7.57816 20.6102C7.63933 20.5738 7.70713 20.5498 7.77762 20.5398L10.6382 20.0858C10.7084 20.0735 10.7802 20.0752 10.8497 20.091C10.9191 20.1068 10.9847 20.1362 11.0426 20.1776C11.1005 20.219 11.1496 20.2715 11.1871 20.3321C11.2245 20.3927 11.2495 20.4601 11.2606 20.5305C11.2718 20.6009 11.2688 20.6728 11.2519 20.742C11.2349 20.8112 11.2044 20.8763 11.1621 20.9336C11.1198 20.991 11.0665 21.0393 11.0053 21.0757C10.9441 21.1122 10.8763 21.1362 10.8058 21.1461Z" fill="#E6E6E6"/>
<path d="M29.5503 18.1194C29.8136 18.0776 29.9933 17.83 29.9517 17.5664C29.91 17.3028 29.6628 17.123 29.3994 17.1648C29.1361 17.2066 28.9564 17.4542 28.998 17.7178C29.0397 17.9814 29.2869 18.1612 29.5503 18.1194Z" fill="#E6E6E6"/>
<path d="M31.0334 17.884C31.2968 17.8422 31.4765 17.5947 31.4348 17.331C31.3932 17.0674 31.1459 16.8876 30.8826 16.9294C30.6192 16.9712 30.4395 17.2188 30.4812 17.4824C30.5228 17.746 30.7701 17.9258 31.0334 17.884Z" fill="#E6E6E6"/>
<path d="M32.5166 17.6489C32.7799 17.6071 32.9597 17.3595 32.918 17.0959C32.8763 16.8323 32.6291 16.6525 32.3657 16.6943C32.1024 16.7361 31.9227 16.9837 31.9643 17.2473C32.006 17.5109 32.2533 17.6907 32.5166 17.6489Z" fill="#E6E6E6"/>
<path d="M16.0399 34.6696L10.9534 35.477C10.6022 35.5324 10.2435 35.446 9.95587 35.2368C9.66828 35.0277 9.47534 34.7129 9.41937 34.3614L8.61479 29.27C8.55967 28.9184 8.6461 28.5592 8.85513 28.2712C9.06416 27.9833 9.37872 27.79 9.72981 27.7338L14.8158 26.9265C15.167 26.8711 15.5258 26.9575 15.8134 27.1667C16.1009 27.3758 16.2939 27.6906 16.3499 28.042L17.1544 33.1331C17.2095 33.4847 17.1231 33.8438 16.914 34.1318C16.705 34.4198 16.3904 34.6131 16.0393 34.6692L16.0399 34.6696Z" fill="#F2F2F2"/>
<path d="M33.9451 31.83L28.8587 32.6374C28.5075 32.6928 28.1487 32.6064 27.8611 32.3972C27.5736 32.1881 27.3806 31.8733 27.3246 31.5218L26.5201 26.4304C26.4649 26.0788 26.5514 25.7196 26.7604 25.4316C26.9694 25.1437 27.284 24.9504 27.6351 24.8942L32.7211 24.0869C33.0723 24.0315 33.431 24.1179 33.7186 24.3271C34.0062 24.5362 34.1992 24.851 34.2551 25.2024L35.0596 30.2935C35.1148 30.6451 35.0283 31.0042 34.8193 31.2922C34.6103 31.5802 34.2957 31.7735 33.9446 31.8296L33.9451 31.83Z" fill="#F2F2F2"/>
<path d="M24.9395 33.2582L19.8531 34.0657C19.5019 34.121 19.1431 34.0346 18.8555 33.8255C18.5679 33.6163 18.375 33.3015 18.319 32.9501L17.5144 27.8586C17.4593 27.507 17.5458 27.1478 17.7548 26.8599C17.9638 26.5719 18.2784 26.3786 18.6295 26.3225L23.7155 25.5151C24.0667 25.4598 24.4254 25.5461 24.713 25.7553C25.0006 25.9644 25.1935 26.2792 25.2495 26.6307L26.054 31.7217C26.1091 32.0733 26.0227 32.4325 25.8137 32.7204C25.6047 33.0084 25.2901 33.2017 24.939 33.2578L24.9395 33.2582Z" fill="#F2F2F2"/>
<path d="M11.5086 38.9792C11.1856 39.0308 10.8962 39.2086 10.7039 39.4735C10.5115 39.7385 10.432 40.069 10.4828 40.3924L11.2873 45.4835C11.3388 45.8068 11.5163 46.0964 11.7809 46.2889C12.0455 46.4813 12.3755 46.5607 12.6987 46.5098L17.7846 45.7025C18.1077 45.6508 18.3971 45.473 18.5894 45.208C18.7817 44.9431 18.8612 44.6127 18.8105 44.2892L18.006 39.1981C17.9545 38.8749 17.7771 38.5853 17.5126 38.3928C17.2481 38.2004 16.9181 38.1209 16.5951 38.1717L11.5086 38.9792Z" fill="#F2F2F2"/>
<path d="M35.7071 42.9692L30.6207 43.7766C30.2694 43.8319 29.9107 43.7455 29.6231 43.5364C29.3355 43.3273 29.1426 43.0124 29.0866 42.661L28.282 37.5695C28.2269 37.2179 28.3133 36.8588 28.5224 36.5708C28.7314 36.2828 29.046 36.0896 29.3971 36.0334L34.483 35.226C34.8343 35.1707 35.193 35.2571 35.4806 35.4662C35.7682 35.6753 35.9611 35.9902 36.0171 36.3416L36.8216 41.4327C36.8768 41.7842 36.7905 42.1434 36.5816 42.4315C36.3727 42.7195 36.0582 42.9129 35.7071 42.9692Z" fill="#F2F2F2"/>
<path d="M26.7015 44.3974L21.6151 45.2048C21.2638 45.2601 20.9051 45.1738 20.6175 44.9646C20.3299 44.7555 20.137 44.4407 20.081 44.0892L19.2764 38.9977C19.2213 38.6462 19.3077 38.287 19.5168 37.999C19.7258 37.711 20.0403 37.5178 20.3914 37.4616L25.4774 36.6542C25.8286 36.5989 26.1874 36.6853 26.475 36.8944C26.7626 37.1036 26.9555 37.4184 27.0115 37.7698L27.816 42.8609C27.8712 43.2124 27.7849 43.5716 27.576 43.8597C27.367 44.1477 27.0525 44.3411 26.7015 44.3974Z" fill="#F2F2F2"/>
<path d="M19.5638 56.9484L14.4774 57.7558C14.1261 57.8112 13.7674 57.7248 13.4798 57.5156C13.1922 57.3065 12.9993 56.9917 12.9433 56.6403L12.1387 51.5488C12.0836 51.1972 12.17 50.838 12.3791 50.55C12.5881 50.2621 12.9026 50.0688 13.2537 50.0126L18.3397 49.2053C18.6909 49.1499 19.0497 49.2363 19.3373 49.4455C19.6249 49.6546 19.8178 49.9694 19.8738 50.3209L20.6783 55.4119C20.7334 55.7635 20.647 56.1226 20.438 56.4106C20.2289 56.6986 19.9144 56.8919 19.5633 56.948L19.5638 56.9484Z" fill="#F2F2F2"/>
<path d="M37.469 54.1086L32.3826 54.916C32.0314 54.9713 31.6727 54.8849 31.3851 54.6758C31.0975 54.4667 30.9045 54.1518 30.8486 53.8004L30.044 48.7089C29.9889 48.3573 30.0753 47.9982 30.2843 47.7102C30.4934 47.4222 30.8079 47.229 31.159 47.1728L36.245 46.3654C36.5962 46.3101 36.955 46.3965 37.2426 46.6056C37.5301 46.8148 37.7231 47.1296 37.7791 47.481L38.5836 52.5721C38.6387 52.9236 38.5523 53.2828 38.3432 53.5708C38.1342 53.8588 37.8196 54.052 37.4685 54.1082L37.469 54.1086Z" fill="#F2F2F2"/>
<path d="M28.4632 55.537L23.3768 56.3445C23.0255 56.3998 22.6668 56.3134 22.3792 56.1043C22.0916 55.8951 21.8987 55.5803 21.8427 55.2289L21.0381 50.1374C20.983 49.7858 21.0694 49.4266 21.2785 49.1387C21.4875 48.8507 21.8021 48.6574 22.1532 48.6013L27.2391 47.7939C27.5904 47.7386 27.9491 47.8249 28.2367 48.0341C28.5243 48.2432 28.7172 48.558 28.7732 48.9095L29.5777 54.0005C29.6328 54.3521 29.5464 54.7113 29.3374 54.9992C29.1283 55.2872 28.8138 55.4805 28.4627 55.5367L28.4632 55.537Z" fill="#F2F2F2"/>
<path d="M36.7542 41.4377L10.6098 45.5901C10.1003 45.6704 9.57979 45.5453 9.16261 45.242C8.74543 44.9387 8.46561 44.4821 8.38455 43.9724L6.74779 33.6096C6.66781 33.0997 6.79324 32.5788 7.09654 32.1611C7.39985 31.7434 7.85626 31.463 8.36564 31.3816L34.5101 27.2292C35.0196 27.1488 35.5401 27.274 35.9572 27.5773C36.3744 27.8805 36.6542 28.3371 36.7353 28.8468L38.3721 39.2097C38.452 39.7195 38.3266 40.2405 38.0233 40.6582C37.72 41.0759 37.2636 41.3562 36.7542 41.4377Z" fill="#F1F1F1"/>
<path d="M36.7542 41.4377L10.6098 45.5901C10.1003 45.6704 9.57979 45.5453 9.16261 45.242C8.74543 44.9387 8.46561 44.4821 8.38455 43.9724L6.74779 33.6096C6.66781 33.0997 6.79324 32.5788 7.09654 32.1611C7.39985 31.7434 7.85626 31.463 8.36564 31.3816L34.5101 27.2292C35.0196 27.1488 35.5401 27.274 35.9572 27.5773C36.3744 27.8805 36.6542 28.3371 36.7353 28.8468L38.3721 39.2097C38.452 39.7195 38.3266 40.2405 38.0233 40.6582C37.72 41.0759 37.2636 41.3562 36.7542 41.4377ZM13.4519 30.7911C11.6586 31.0759 10.0513 32.0619 8.98366 33.5323C7.91602 35.0026 7.47545 36.8367 7.75889 38.6313L8.59716 43.9387C8.66877 44.3923 8.9175 44.7988 9.28865 45.0687C9.65979 45.3386 10.123 45.4499 10.5763 45.378L36.7207 41.2257C36.9452 41.19 37.1606 41.1104 37.3544 40.9915C37.5482 40.8726 37.7168 40.7166 37.8504 40.5326C37.9841 40.3485 38.0802 40.1399 38.1333 39.9187C38.1865 39.6975 38.1955 39.468 38.16 39.2433L36.5233 28.8805C36.4878 28.6558 36.4085 28.4404 36.2898 28.2465C36.1711 28.0526 36.0154 27.884 35.8315 27.7503C35.6477 27.6167 35.4393 27.5206 35.2184 27.4675C34.9974 27.4145 34.7681 27.4056 34.5435 27.4412L13.4519 30.7911Z" fill="#090814" fill-opacity="0.7"/>
<path d="M20.4527 34.6017L10.9115 36.0015C10.8838 36.0058 10.8556 35.9989 10.833 35.9824C10.8104 35.9659 10.7954 35.9411 10.7911 35.9134C10.7868 35.8858 10.7937 35.8575 10.8102 35.835C10.8268 35.8124 10.8516 35.7973 10.8793 35.793L20.4205 34.3931C20.4342 34.391 20.4482 34.3916 20.4616 34.3949C20.4751 34.3982 20.4877 34.4041 20.4989 34.4122C20.5101 34.4204 20.5196 34.4307 20.5267 34.4425C20.5339 34.4544 20.5387 34.4675 20.5408 34.4812C20.543 34.4949 20.5423 34.5088 20.5391 34.5223C20.5358 34.5357 20.5299 34.5484 20.5217 34.5596C20.5135 34.5708 20.5032 34.5802 20.4914 34.5874C20.4795 34.5946 20.4664 34.5996 20.4527 34.6017Z" fill="#CCCCCC"/>
<path d="M25.5947 35.5262L11.18 37.6989C11.1523 37.7032 11.1241 37.6963 11.1015 37.6798C11.079 37.6633 11.0639 37.6385 11.0596 37.6108C11.0554 37.5832 11.0622 37.555 11.0788 37.5324C11.0953 37.5099 11.1201 37.4948 11.1478 37.4905L25.5625 35.3177C25.5762 35.3156 25.5902 35.3162 25.6036 35.3194C25.6171 35.3227 25.6298 35.3286 25.6409 35.3368C25.6521 35.3449 25.6616 35.3552 25.6688 35.3671C25.6759 35.3789 25.6807 35.392 25.6828 35.4057C25.685 35.4194 25.6844 35.4334 25.6811 35.4468C25.6778 35.4603 25.6719 35.4729 25.6637 35.4841C25.6555 35.4953 25.6452 35.5047 25.6334 35.5119C25.6215 35.5191 25.6084 35.5241 25.5947 35.5262Z" fill="#CCCCCC"/>
<path d="M31.6207 35.9235C32.8498 35.7283 33.6888 34.5728 33.4945 33.3428C33.3002 32.1127 32.1463 31.2738 30.9172 31.469C29.6881 31.6642 28.8491 32.8197 29.0434 34.0498C29.2377 35.2799 30.3916 36.1188 31.6207 35.9235Z" fill="#ECFB6D"/>
<path d="M32.1396 34.1121L31.0604 32.3746L30.5695 34.3615L31.2029 33.965L31.3809 35.0921L31.5929 35.0585L31.4149 33.9313L32.1396 34.1121Z" fill="white"/>
<path d="M34.1735 37.6401L11.9246 41.1696C11.8543 41.1808 11.7913 41.2194 11.7495 41.2769C11.7077 41.3344 11.6904 41.4062 11.7015 41.4764C11.7126 41.5466 11.7512 41.6096 11.8087 41.6513C11.8663 41.6931 11.938 41.7103 12.0083 41.6992L34.2576 38.1696C34.3278 38.1584 34.3908 38.1198 34.4326 38.0623C34.4744 38.0048 34.4917 37.933 34.4806 37.8628C34.4695 37.7926 34.4309 37.7296 34.3734 37.6879C34.3159 37.6461 34.2441 37.6289 34.1738 37.64L34.1735 37.6401Z" fill="#F2F2F2"/>
<path d="M24.6383 39.1524L24.7221 39.682L12.0083 41.6992C11.938 41.7104 11.8663 41.6932 11.8087 41.6514C11.7512 41.6096 11.7126 41.5467 11.7015 41.4765C11.6904 41.4062 11.7077 41.3345 11.7495 41.2769C11.7913 41.2194 11.8543 41.1808 11.9246 41.1696L24.6383 39.1524Z" fill="#ECFB6D"/>
</svg>
