<svg width="237" height="203" viewBox="0 0 237 203" fill="none" xmlns="http://www.w3.org/2000/svg">
<g clip-path="url(#clip0_583_3904)">
<path d="M168.171 47.5022H167.075V17.4142C167.075 15.1273 166.626 12.8628 165.753 10.7501C164.88 8.63728 163.601 6.71755 161.988 5.1005C160.375 3.48344 158.461 2.20073 156.353 1.32558C154.246 0.450435 151.988 1.80351e-06 149.707 0H86.1275C83.8466 -5.41035e-06 81.588 0.450421 79.4808 1.32556C77.3735 2.2007 75.4588 3.48341 73.846 5.10046C72.2331 6.71751 70.9538 8.63723 70.0809 10.75C69.2081 12.8628 68.7588 15.1273 68.7588 17.4141V182.48C68.7588 187.098 70.5887 191.528 73.8459 194.793C77.1032 198.059 81.521 199.894 86.1274 199.894H149.707C154.313 199.894 158.731 198.059 161.988 194.793C165.245 191.528 167.075 187.098 167.075 182.48V68.9195H168.171L168.171 47.5022Z" fill="#3F3D56"/>
<path d="M150.407 4.53056H142.108C142.49 5.46871 142.635 6.48657 142.532 7.49448C142.429 8.50238 142.08 9.46939 141.517 10.3103C140.953 11.1512 140.192 11.8403 139.3 12.3167C138.408 12.7932 137.413 13.0424 136.403 13.0425H99.979C98.9684 13.0425 97.9734 12.7932 97.0816 12.3168C96.1897 11.8403 95.4284 11.1513 94.8648 10.3103C94.3011 9.46939 93.9523 8.50238 93.8492 7.49447C93.7461 6.48657 93.8918 5.4687 94.2735 4.53055H86.522C83.082 4.53055 79.7828 5.90068 77.3503 8.33953C74.9178 10.7784 73.5513 14.0862 73.5513 17.5352V182.359C73.5513 184.066 73.8868 185.757 74.5386 187.335C75.1904 188.913 76.1459 190.347 77.3503 191.554C78.5547 192.762 79.9846 193.72 81.5583 194.373C83.132 195.027 84.8187 195.363 86.522 195.363H150.407C152.111 195.363 153.797 195.027 155.371 194.373C156.945 193.72 158.375 192.762 159.579 191.554C160.783 190.347 161.739 188.913 162.391 187.335C163.043 185.757 163.378 184.066 163.378 182.359V17.5352C163.378 15.8274 163.043 14.1364 162.391 12.5586C161.739 10.9808 160.783 9.54713 159.579 8.33954C158.375 7.13194 156.945 6.17402 155.371 5.52048C153.797 4.86693 152.111 4.53056 150.407 4.53056Z" fill="white"/>
<path d="M229.215 84.8806C227.872 88.8668 225.813 92.4988 221.617 92.4988C217.421 92.4988 214.255 89.0813 214.019 84.8806C213.717 79.5129 217.324 77.2402 221.617 77.2624C226.689 77.2887 230.809 80.15 229.215 84.8806Z" fill="#2F2E41"/>
<path d="M229.015 84.7093H214.019V103.755H229.015V84.7093Z" fill="#2F2E41"/>
<path d="M229.456 98.8982H230.731C231.674 100.245 232.314 101.781 232.608 103.4C232.901 105.02 232.841 106.683 232.432 108.277C231.015 113.677 232.148 114.671 232.148 114.671C232.148 114.671 233.994 120.519 232.009 129.329C230.025 138.139 233.849 140.533 233.849 140.533L230.306 133.428L228.322 114.671L229.456 98.8982Z" fill="#E6E6E6"/>
<path d="M224.991 92.0064C224.991 92.0064 223.858 96.5536 224.424 96.5536C224.991 96.5536 226.976 98.9693 226.976 98.9693L228.251 103.659L227.259 107.069L223.858 106.358L219.606 101.669L218.33 100.39L217.196 96.2694C217.196 96.2694 218.614 94.5642 217.621 93.1432C216.629 91.7222 224.991 92.0064 224.991 92.0064Z" fill="#FBBEBE"/>
<path d="M190.693 104.653L187.575 99.5377C187.575 99.5377 184.209 92.0712 181.8 94.7711C179.39 97.471 185.449 102.948 185.449 102.948L188.567 107.069L190.693 104.653Z" fill="#FBBEBE"/>
<path d="M232.078 149.13L229.81 165.756C229.81 165.756 230.094 167.035 227.259 171.724C224.424 176.413 216.771 186.645 216.771 186.645L214.503 182.382C214.503 182.382 217.196 168.882 221.873 166.04L221.306 145.578L232.078 149.13Z" fill="#FBBEBE"/>
<path d="M214.503 180.676L217.621 186.645C217.621 186.645 215.07 190.236 216.062 190.946C217.054 191.657 218.33 198.051 215.637 197.341C212.944 196.63 210.818 193.788 210.818 193.362C210.818 192.936 212.377 190.623 211.527 189.202C210.677 187.781 210.11 187.355 210.11 187.355L208.413 189.617L207.704 189.191L210.818 184.513C210.818 184.513 211.244 183.376 212.944 182.666L214.503 180.676Z" fill="#2F2E41"/>
<path d="M221.339 146.772C221.339 146.772 222.44 162.488 220.031 166.609V187.071L216.771 187.497C216.771 187.497 210.188 176.664 212.598 166.007C215.007 155.349 210.11 145.578 210.11 145.578L221.339 146.772Z" fill="#FBBEBE"/>
<path d="M220.527 95.4878C223.814 95.4878 226.479 92.8158 226.479 89.5197C226.479 86.2235 223.814 83.5515 220.527 83.5515C217.239 83.5515 214.574 86.2235 214.574 89.5197C214.574 92.8158 217.239 95.4878 220.527 95.4878Z" fill="#FBBEBE"/>
<path d="M226.55 105.222L220.597 97.6904L217.196 95.4168L215.779 97.2641L211.81 98.4009C211.81 98.4009 209.259 98.9693 206.566 102.096C203.873 105.222 199.055 107.069 199.055 107.069C199.055 107.069 190.409 104.227 190.409 103.659C190.409 103.09 186.299 107.495 187.291 109.2C188.283 110.906 193.012 116.115 199.957 115.121C206.901 114.126 209.543 113.179 209.543 113.179C209.543 113.179 210.818 119.716 214.503 120.995C218.188 122.274 230.235 123.126 230.235 123.126L232.786 114.6C232.786 114.6 235.621 110.906 231.794 105.506C231.794 105.506 231.72 102.486 231.309 100.476C231.149 99.6947 230.938 99.066 230.66 98.8272C229.668 97.9746 224.424 96.5536 224.424 96.5536C224.424 96.5536 225.274 99.3956 225.7 99.5377C226.125 99.6798 227.117 104.511 226.55 105.222Z" fill="#E6E6E6"/>
<path d="M208.346 164.198C215.483 163.701 219.638 164.873 221.492 165.767C221.837 165.923 223.123 166.251 223.123 166.305C223.123 166.731 232.449 167.803 235.993 166.95C239.536 166.098 232.715 131.297 231.156 129.734C229.597 128.171 230.438 122.45 230.438 122.45C230.438 122.45 216.133 120.497 214.857 120.213C214.288 120.087 214 120.3 213.857 120.575C213.634 120.989 213.298 121.33 212.887 121.557C209.879 123.295 207.463 135.311 205.645 141.954C203.661 149.201 208.346 164.198 208.346 164.198Z" fill="#2F2E41"/>
<path d="M220.598 185.792C220.598 185.792 222.265 191.898 223.29 196.734C223.29 196.734 223.999 198.412 226.55 199.691C229.101 200.97 226.117 203.094 223.708 202.952C221.299 202.81 219.031 203.094 218.748 202.383C218.464 201.673 217.621 198.581 217.621 198.581L217.156 202.858L215.739 203L216.204 197.444C216.204 197.444 215.07 195.313 216.629 191.76L216.236 186.307C216.236 186.307 220.172 187.213 220.598 185.792Z" fill="#2F2E41"/>
<path opacity="0.1" d="M220.634 149.207C220.979 149.364 221.303 149.561 221.601 149.795C221.676 148.453 222.11 140.332 221.59 140.462L220.634 149.207Z" fill="black"/>
<path d="M218.063 81.3012C218.063 81.3012 217.997 80.9332 215.418 81.9026C212.84 82.872 211.295 90.0255 212.584 94.2261C213.103 95.9189 212.681 97.1395 211.991 97.9935C209.403 101.198 210.421 106.011 214.192 107.659C214.298 107.706 214.407 107.752 214.517 107.797L216.129 108.767C216.129 108.767 214.075 106.057 215.103 102.59C215.995 99.6366 216.106 96.5008 215.423 93.4915C215.305 92.9838 215.171 92.4605 215.018 91.9265C213.729 87.4028 214.356 87.9252 218.868 83.4015C218.868 83.4015 221.446 85.3402 223.702 86.3096C225.958 87.279 227.892 88.2483 226.281 91.4796C224.669 94.7108 220.802 97.6189 223.38 101.82C225.958 106.02 226.281 104.405 225.958 106.02L225.636 107.636L227.57 105.697L226.281 108.282C226.281 108.282 230.47 108.282 231.759 105.051L232.404 105.697C232.404 105.697 234.982 101.173 230.148 96.9727C230.148 96.9727 228.537 96.0033 230.793 92.7721C233.049 89.5408 231.316 82.5937 228.415 81.3012C225.515 80.0087 218.063 81.3012 218.063 81.3012Z" fill="#2F2E41"/>
<path d="M17.5746 89.3375L17.3369 95.483L22.1043 95.6684L22.342 89.5228L17.5746 89.3375Z" fill="#ECFB6D"/>
<path d="M39.0803 110.861C39.0803 110.861 45.6824 107.698 45.5768 110.429C45.4711 113.161 38.9219 114.958 38.9219 114.958L39.0803 110.861Z" fill="#FFB9B9"/>
<path d="M35.4582 133.971C35.4582 133.971 38.573 141.615 39.7238 147.13C40.8746 152.646 42.6273 160.237 40.3728 165.62C38.1184 171.003 31.7088 186.825 31.6428 188.532C31.5768 190.239 32.1918 191.973 30.8297 191.92C29.4676 191.867 22.0552 189.527 21.7543 188.49C21.4534 187.452 24.2832 184.827 24.2832 184.827L31.271 162.873L23.9803 148.57L18.7215 169.907L17.6915 196.538C17.6915 196.538 12.6365 194.974 11.9026 196.313C11.9026 196.313 9.63774 193.147 9.35003 191.769C9.06232 190.39 10.4196 164.114 10.4196 164.114C10.4196 164.114 5.7795 134.185 9.52531 134.331C13.2711 134.476 27.943 125.473 35.4582 133.971Z" fill="#2F2E41"/>
<path d="M30.8825 190.554C30.8825 190.554 34.3378 198.211 34.6651 198.566C34.9924 198.92 37.244 202.427 35.5414 202.361C33.8388 202.295 29.8185 200.429 26.8593 197.578C23.9002 194.728 19.9988 189.789 20.3525 189.461C20.7063 189.133 23.1296 188.201 23.1296 188.201L30.8825 190.554Z" fill="#2F2E41"/>
<path d="M17.0764 194.804C17.0764 194.804 17.2849 198.232 17.9131 199.624C18.5414 201.016 18.4621 203.065 16.7595 202.998C15.0568 202.932 10.6564 202.938 10.6564 202.938C10.6564 202.938 10.3951 200.876 10.7488 200.548C11.1026 200.219 12.6099 195.656 11.9685 194.606C11.3271 193.555 17.0764 194.804 17.0764 194.804Z" fill="#2F2E41"/>
<path d="M14.5578 83.5783C14.5578 83.5783 10.9281 89.25 9.51315 90.5627C8.09822 91.8754 12.0789 94.7657 12.0789 94.7657L19.2036 95.7265C19.2036 95.7265 19.1139 89.2263 19.4809 88.5567C19.8478 87.8871 14.5578 83.5783 14.5578 83.5783Z" fill="#FFB9B9"/>
<path d="M20.7504 90.9996C20.7504 90.9996 19.2827 93.678 17.9206 93.625C16.5584 93.5721 9.51301 90.5627 9.21209 89.5252C8.91118 88.4877 6.87842 96.957 6.87842 96.957L24.1181 127.375L28.3233 124.462L26.2857 106.602L24.6123 96.9626L20.7504 90.9996Z" fill="white"/>
<path d="M8.57598 118.223C9.28804 119.609 9.65113 121.15 9.63362 122.709C9.63098 122.777 9.62833 122.846 9.62229 122.914C9.45915 126.074 8.29809 129.728 7.88155 132.386C7.5793 134.293 7.66532 135.684 8.77809 136.011C11.4759 136.8 8.38474 137.364 18.8223 140.847C29.2598 144.33 31.0812 141.324 31.1077 140.641C31.1341 139.958 29.6295 134.77 29.9832 134.442C30.337 134.114 34.9327 138.738 36.3212 138.108C37.7097 137.478 36.4797 134.011 36.4797 134.011C36.4797 134.011 33.3517 126.709 33.4177 125.002C33.4837 123.294 28.6796 115.243 28.6796 115.243L25.4119 93.9163C25.4119 93.9163 24.1555 91.132 22.466 90.7244C21.4017 90.5027 20.2931 90.7048 19.3749 91.2881L22.2019 97.5528L25.1846 108.611L24.6857 112.694C24.6857 112.694 21.2172 105.379 18.9391 102.555C16.661 99.7309 11.804 93.0454 11.804 93.0454C11.804 93.0454 10.6701 89.2092 11.5261 88.0628C12.3823 86.913 7.9554 86.7409 6.06789 91.4546C5.06751 93.9528 3.44332 97.6783 2.42586 101.147C1.51921 104.22 1.09093 107.093 1.98917 108.735C3.36201 111.243 6.81541 114.54 8.57598 118.223Z" fill="#3F3D56"/>
<path opacity="0.1" d="M1.98916 108.735C3.36202 111.243 6.81541 114.54 8.57599 118.223C9.03583 116.562 9.59681 114.843 9.59681 114.843C9.59681 114.843 11.7484 103.301 5.38404 100.318C4.3295 100.216 3.27481 100.511 2.42586 101.147C1.5192 104.22 1.09093 107.093 1.98916 108.735Z" fill="black"/>
<path d="M27.2546 108.007L32.6502 109.585L40.1418 109.876L40.9125 116.403L28.6007 117.292C28.6007 117.292 25.5255 108.624 27.2546 108.007Z" fill="#3F3D56"/>
<path d="M18.4561 129.952C18.4561 129.952 25.6744 131.153 24.0269 133.331C22.3794 135.508 15.9849 133.219 15.9849 133.219L18.4561 129.952Z" fill="#FFB9B9"/>
<path opacity="0.1" d="M9.62258 122.914C9.45943 126.074 8.29838 129.728 7.88184 132.386C10.1813 134.568 12.368 136.493 13.192 136.525C14.8947 136.591 17.6321 136.355 18.6405 136.737C19.6489 137.118 20.2403 130.644 20.2403 130.644C20.2403 130.644 19.6384 128.569 16.9538 127.439C15.1418 126.674 11.6684 124.6 9.62258 122.914Z" fill="black"/>
<path d="M5.46342 98.2697C5.46342 98.2697 -0.29914 97.3618 0.0121743 106.948C0.323489 116.534 -0.595257 122.653 1.72242 124.453C4.04009 126.253 11.5685 134.41 13.2711 134.476C14.9738 134.542 17.7112 134.307 18.7196 134.688C19.728 135.069 20.3194 128.596 20.3194 128.596C20.3194 128.596 19.7176 126.521 17.033 125.39C14.3484 124.26 8.02359 120.253 8.0764 118.887C8.12921 117.522 9.67619 112.795 9.67619 112.795C9.67619 112.795 11.8278 101.253 5.46342 98.2697Z" fill="#3F3D56"/>
<path d="M19.6393 91.9766C23.7799 91.9766 27.1366 88.6112 27.1366 84.4597C27.1366 80.3083 23.7799 76.9428 19.6393 76.9428C15.4987 76.9428 12.1421 80.3083 12.1421 84.4597C12.1421 88.6112 15.4987 91.9766 19.6393 91.9766Z" fill="#FFB9B9"/>
<path d="M24.6873 73.6858C24.8681 73.842 25.0847 73.951 25.3176 74.003C25.4346 74.0239 25.5551 73.9976 25.6527 73.9297C25.7504 73.8619 25.8173 73.7581 25.8389 73.641C25.9737 74.016 26.2243 74.3382 26.5542 74.5607C26.9044 74.7438 27.446 74.5903 27.4964 74.1976C27.5476 74.4958 27.6791 74.7742 27.8769 75.0028C27.98 75.1121 28.1219 75.1762 28.2719 75.1812C28.4219 75.1863 28.5678 75.1318 28.6779 75.0296C28.5245 75.87 28.6192 76.7342 28.571 77.5871C28.5229 78.44 28.296 79.3442 27.6533 79.9051C26.716 80.723 25.3064 80.5212 24.0735 80.3662C23.887 80.327 23.6935 80.3376 23.5125 80.397C23.0508 80.5942 23.0717 81.2385 23.0655 81.7416C23.0278 82.6244 22.6794 83.4652 22.082 84.1147C21.4846 84.7643 20.677 85.1805 19.8025 85.2896C19.3131 85.3653 18.8137 85.2432 18.4142 84.9499C18.0641 84.6524 17.8853 84.1675 17.4841 83.944C16.8316 83.5805 16.0402 84.1106 15.5631 84.6863C15.086 85.2619 14.6159 85.9701 13.8768 86.0754C12.8993 86.2148 12.1549 85.2161 11.7896 84.2964C11.2857 83.0075 11.0442 81.6304 11.0796 80.2464C11.1149 78.8624 11.4262 77.4996 11.9952 76.2381C14.0361 71.7775 21.0081 71.072 24.6873 73.6858Z" fill="#2F2E41"/>
<path d="M46.5104 106.699C48.9658 103.927 53.0809 104.134 56.2583 105.377C60.1905 106.915 63.0356 110.337 66.2108 112.978C67.8442 114.385 69.678 115.54 71.6515 116.404C73.6196 117.223 75.7097 117.71 77.8368 117.844C81.9768 118.124 86.0916 117.012 89.5315 114.686C92.7557 112.482 95.2417 109.355 96.6644 105.712C96.8362 105.268 96.9888 104.816 97.1255 104.36C97.2779 103.851 96.485 103.633 96.333 104.141C95.2048 107.845 92.9399 111.099 89.8607 113.438C86.5833 115.918 82.5555 117.193 78.452 117.05C76.339 116.981 74.2533 116.55 72.2846 115.778C70.3026 114.96 68.4633 113.831 66.8361 112.433C63.6483 109.788 60.8139 106.425 56.9328 104.77C53.7855 103.427 49.726 103.018 46.8626 105.241C46.525 105.503 46.2125 105.797 45.9293 106.117C45.5792 106.512 46.1583 107.097 46.5104 106.699Z" fill="#2F2E41"/>
<path d="M179.543 91.9544C179.028 88.5347 176.029 86.2916 172.927 85.2966C168.81 83.9763 164.537 84.9767 160.392 85.6134C158.161 85.9561 155.898 86.1821 153.645 85.9222C150.695 85.565 147.876 84.4928 145.432 82.7984C142.988 81.104 140.992 78.8383 139.617 76.1971C137.765 72.5206 137.189 68.3292 137.982 64.2875C138.084 63.7805 138.21 63.279 138.354 62.7826C138.379 62.6786 138.363 62.5691 138.308 62.4771C138.254 62.3851 138.166 62.3177 138.064 62.2893C137.961 62.2609 137.851 62.2736 137.757 62.3248C137.664 62.3759 137.594 62.4615 137.562 62.5635C136.42 66.555 136.596 70.8095 138.063 74.6925C139.501 78.4814 142.126 81.7006 145.543 83.8672C149.01 86.0624 153.084 87.0939 157.175 86.812C159.554 86.655 161.895 86.1757 164.25 85.8256C166.341 85.5146 168.513 85.2708 170.618 85.5979C173.756 86.0856 177.334 87.7531 178.457 90.9691C178.592 91.3605 178.691 91.7637 178.751 92.1735C178.829 92.696 179.621 92.474 179.543 91.9544Z" fill="#2F2E41"/>
<path d="M118.465 145.47C117.625 144.628 116.629 143.96 115.532 143.505C114.435 143.049 113.26 142.815 112.072 142.815C110.885 142.815 109.71 143.049 108.613 143.505C107.516 143.96 106.52 144.628 105.68 145.47C104.841 146.311 104.175 147.31 103.721 148.41C103.267 149.51 103.033 150.688 103.033 151.878C103.033 153.069 103.267 154.247 103.721 155.347C104.175 156.446 104.841 157.446 105.68 158.287L118.465 171.105L131.249 158.287C132.089 157.446 132.755 156.447 133.209 155.347C133.664 154.247 133.898 153.068 133.898 151.878C133.899 150.687 133.665 149.508 133.211 148.409C132.756 147.309 132.09 146.309 131.251 145.467C130.411 144.626 129.414 143.958 128.317 143.502C127.22 143.047 126.045 142.813 124.857 142.813C123.67 142.813 122.494 143.048 121.397 143.504C120.3 143.959 119.304 144.628 118.465 145.47Z" fill="#F28D90"/>
<path d="M187.127 41.6011H108.37V57.1914H187.127V41.6011Z" fill="#E6E6E6"/>
<path d="M110.049 55.508H185.448V43.2845H110.049V55.508Z" fill="white"/>
<path d="M116.65 53.9518C119.215 53.9518 121.294 51.8669 121.294 49.295C121.294 46.7231 119.215 44.6382 116.65 44.6382C114.084 44.6382 112.005 46.7231 112.005 49.295C112.005 51.8669 114.084 53.9518 116.65 53.9518Z" fill="#ECFB6D"/>
<path d="M173.597 47.4728H127.756V48.4851H173.597V47.4728Z" fill="#E6E6E6"/>
<path d="M173.597 50.1049H127.756V51.1173H173.597V50.1049Z" fill="#E6E6E6"/>
<path d="M137.269 82.2513H58.5117V97.8415H137.269V82.2513Z" fill="#E6E6E6"/>
<path d="M60.1904 96.1581H135.59V83.9347H60.1904V96.1581Z" fill="white"/>
<path d="M66.7911 94.602C69.3563 94.602 71.4358 92.5171 71.4358 89.9452C71.4358 87.3733 69.3563 85.2883 66.7911 85.2883C64.226 85.2883 62.1465 87.3733 62.1465 89.9452C62.1465 92.5171 64.226 94.602 66.7911 94.602Z" fill="#ECFB6D"/>
<path d="M123.739 88.1229H77.8979V89.1353H123.739V88.1229Z" fill="#E6E6E6"/>
<path d="M123.739 90.755H77.8979V91.7674H123.739V90.755Z" fill="#E6E6E6"/>
</g>
<defs>
<clipPath id="clip0_583_3904">
<rect width="237" height="203" fill="white"/>
</clipPath>
</defs>
</svg>
