<svg width="20" height="20" viewBox="0 0 20 20" fill="none" xmlns="http://www.w3.org/2000/svg">
<path d="M9.54992 12.0666C7.91658 12.0666 6.58325 10.7333 6.58325 9.09998C6.58325 7.46665 7.91658 6.13332 9.54992 6.13332C11.1832 6.13332 12.5166 7.46665 12.5166 9.09998C12.5166 10.7333 11.1832 12.0666 9.54992 12.0666ZM9.54992 7.39166C8.60825 7.39166 7.83325 8.15832 7.83325 9.10832C7.83325 10.0583 8.59992 10.825 9.54992 10.825C10.4999 10.825 11.2666 10.0583 11.2666 9.10832C11.2666 8.15832 10.4999 7.39166 9.54992 7.39166Z" fill="white"/>
<path d="M13.875 17.4583C13.5333 17.4583 13.25 17.175 13.25 16.8333C13.25 15.2333 11.5916 13.9333 9.54997 13.9333C7.50831 13.9333 5.84998 15.2333 5.84998 16.8333C5.84998 17.175 5.56664 17.4583 5.22498 17.4583C4.88331 17.4583 4.59998 17.175 4.59998 16.8333C4.59998 14.55 6.81664 12.6833 9.54997 12.6833C12.2833 12.6833 14.5 14.5417 14.5 16.8333C14.5 17.175 14.2166 17.4583 13.875 17.4583Z" fill="white"/>
<path d="M9.58329 18.9583C4.87496 18.9583 1.04163 15.125 1.04163 10.4167C1.04163 5.70833 4.87496 1.875 9.58329 1.875C10.7416 1.875 11.8583 2.09999 12.9083 2.54166C13.2083 2.66666 13.3583 2.99998 13.2583 3.30831C13.1666 3.58331 13.125 3.875 13.125 4.16667C13.125 4.65833 13.2583 5.14165 13.5166 5.55832C13.65 5.79165 13.825 5.99998 14.025 6.17498C14.75 6.83331 15.825 7.04169 16.6666 6.74169C16.975 6.62502 17.325 6.78334 17.45 7.09168C17.9 8.15001 18.125 9.27501 18.125 10.425C18.125 15.125 14.2916 18.9583 9.58329 18.9583ZM9.58329 3.125C5.56663 3.125 2.29163 6.39167 2.29163 10.4167C2.29163 14.4417 5.56663 17.7083 9.58329 17.7083C13.6 17.7083 16.875 14.4417 16.875 10.4167C16.875 9.61667 16.7416 8.82499 16.4916 8.06666C15.3416 8.26666 14.0833 7.90835 13.2 7.10002C12.9083 6.85002 12.65 6.54167 12.45 6.2C12.0833 5.6 11.8833 4.89167 11.8833 4.16667C11.8833 3.94167 11.9 3.72502 11.9416 3.50835C11.1833 3.25002 10.3916 3.125 9.58329 3.125Z" fill="white"/>
<path d="M15.8333 8.12499C14.85 8.12499 13.9167 7.75834 13.1917 7.10001C12.9 6.85001 12.6417 6.54166 12.4417 6.2C12.075 5.6 11.875 4.89166 11.875 4.16666C11.875 3.74166 11.9417 3.325 12.075 2.925C12.2583 2.35834 12.575 1.83333 13 1.40833C13.75 0.641664 14.7583 0.208328 15.8417 0.208328C16.975 0.208328 18.05 0.691676 18.7833 1.52501C19.4333 2.25001 19.8 3.18333 19.8 4.16666C19.8 4.48333 19.7583 4.79999 19.675 5.09999C19.5917 5.47499 19.4333 5.86667 19.2167 6.20834C18.7333 7.025 17.9667 7.63333 17.0667 7.91666C16.6917 8.05833 16.275 8.12499 15.8333 8.12499ZM15.8333 1.45833C15.0917 1.45833 14.4 1.74998 13.8917 2.27498C13.6 2.57498 13.3917 2.91664 13.2667 3.3083C13.175 3.5833 13.1333 3.87499 13.1333 4.16666C13.1333 4.65833 13.2667 5.14165 13.525 5.55831C13.6583 5.79165 13.8333 5.99997 14.0333 6.17497C14.7583 6.83331 15.8333 7.04168 16.675 6.74168C17.3083 6.54168 17.825 6.12499 18.1583 5.56666C18.3083 5.32499 18.4083 5.06668 18.4667 4.80834C18.525 4.59168 18.55 4.38333 18.55 4.16666C18.55 3.49999 18.3 2.85834 17.85 2.35834C17.3417 1.78334 16.6083 1.45833 15.8333 1.45833Z" fill="white"/>
<path d="M17.075 4.77498H14.5834C14.2417 4.77498 13.9584 4.49165 13.9584 4.14998C13.9584 3.80831 14.2417 3.52498 14.5834 3.52498H17.075C17.4167 3.52498 17.7 3.80831 17.7 4.14998C17.7 4.49165 17.425 4.77498 17.075 4.77498Z" fill="white"/>
<path d="M15.8334 6.05001C15.4917 6.05001 15.2084 5.76667 15.2084 5.42501V2.93335C15.2084 2.59168 15.4917 2.30835 15.8334 2.30835C16.175 2.30835 16.4584 2.59168 16.4584 2.93335V5.42501C16.4584 5.77501 16.175 6.05001 15.8334 6.05001Z" fill="white"/>
</svg>
