<svg width="20" height="20" viewBox="0 0 20 20" fill="none" xmlns="http://www.w3.org/2000/svg">
<path d="M18.0958 9.30266C17.0454 9.30266 16.1917 10.3927 16.1917 11.7339C16.1917 12.1715 16.2837 12.5807 16.4424 12.9353C14.8096 15.0201 12.1818 18.3751 12.093 18.4886C11.7836 18.8837 11.2805 18.8837 10.9727 18.4886C10.6633 18.0935 10.6633 17.4533 10.9727 17.0582L11.6852 16.1486C11.8708 15.9115 11.8708 15.5266 11.6852 15.2895C11.4995 15.0525 11.198 15.0525 11.0124 15.2895L9.63345 17.0501C9.48112 17.2446 9.27959 17.35 9.06538 17.35C8.85116 17.35 8.64964 17.2426 8.4973 17.0501C8.19105 16.6591 8.19105 16.025 8.50365 15.6258L8.50524 15.6238L9.43827 14.4325C9.62393 14.1955 9.62393 13.8105 9.43827 13.5735C9.25262 13.3364 8.95113 13.3364 8.76547 13.5735L7.82926 14.7688L7.3802 15.3422C7.23104 15.5326 7.0311 15.638 6.81847 15.638C6.60743 15.638 6.40749 15.5326 6.25674 15.3422C5.94732 14.9471 5.94732 14.3049 6.25674 13.9098L6.59314 13.4803L6.59473 13.4783L7.86576 11.8554C8.05141 11.6184 8.05141 11.2334 7.86576 10.9964C7.6801 10.7594 7.37861 10.7594 7.19296 10.9964L6.03301 12.4774C5.88385 12.6679 5.6855 12.7732 5.47287 12.7732C5.47287 12.7732 5.47287 12.7732 5.47128 12.7732C5.25865 12.7732 5.05871 12.6658 4.90638 12.4734C4.75722 12.2829 4.67471 12.0297 4.67471 11.7622C4.67471 11.4928 4.75722 11.2416 4.90638 11.0511L7.18661 8.13973C7.37226 7.90269 7.37226 7.51775 7.18661 7.2807C7.00095 7.04366 6.69946 7.04366 6.5138 7.2807L4.23675 10.1819C3.90828 10.6013 3.72739 11.1605 3.72739 11.7541C3.72739 12.3478 3.90828 12.9049 4.23675 13.3263C4.49222 13.6525 4.80958 13.8652 5.15551 13.9463C5.10156 14.161 5.07458 14.3879 5.07458 14.6209C5.07458 15.2166 5.25547 15.7758 5.58553 16.1972C5.91558 16.6186 6.35354 16.8496 6.82006 16.8496C7.00095 16.8496 7.17709 16.8151 7.34529 16.7483C7.40717 17.1737 7.56585 17.5809 7.82291 17.9092C8.15455 18.3326 8.59568 18.5656 9.06379 18.5656C9.33831 18.5656 9.60489 18.4845 9.84291 18.3326C9.91749 18.7054 10.0698 19.0579 10.2983 19.3496C10.6379 19.7832 11.0854 20 11.5313 20C11.9771 20 12.4246 19.7832 12.7642 19.3496C12.8531 19.2362 15.4713 15.8933 17.1041 13.8085C17.3929 14.0334 17.7309 14.1671 18.0943 14.1671C19.1447 14.1671 19.9984 13.0771 19.9984 11.7359C19.9984 10.3947 19.1463 9.30266 18.0958 9.30266ZM18.0958 12.9495C17.5706 12.9495 17.1438 12.4045 17.1438 11.7339C17.1438 11.0633 17.5706 10.5183 18.0958 10.5183C18.6211 10.5183 19.0479 11.0633 19.0479 11.7339C19.0479 12.4045 18.6211 12.9495 18.0958 12.9495ZM19.524 3.02203H16.1377C15.8743 3.02203 15.6617 3.29351 15.6617 3.62983C15.6617 3.96615 15.8743 4.23763 16.1377 4.23763H19.524C19.7874 4.23763 20 3.96615 20 3.62983C20 3.29351 19.7874 3.02203 19.524 3.02203ZM1.9105 6.06104C2.79594 6.06104 3.54015 5.28508 3.75278 4.23763H6.45192C6.57886 4.23763 6.69946 4.1728 6.78832 4.05934L8.32434 2.09817C9.23358 0.937262 10.7283 0.917002 11.6566 2.05562L13.5862 4.41997C13.9019 4.80694 13.9115 5.44919 13.6084 5.85236C13.4624 6.04686 13.264 6.15829 13.053 6.16437C12.834 6.16842 12.6404 6.06915 12.4865 5.88275L10.7807 3.78989C10.5919 3.55689 10.2904 3.565 10.1079 3.80812C9.92542 4.05124 9.93177 4.43416 10.1222 4.66715L11.828 6.75799C12.1549 7.15914 12.5833 7.37795 13.0355 7.37795C13.0482 7.37795 13.0593 7.37795 13.072 7.37795C13.5386 7.36579 13.9733 7.12267 14.2955 6.69316C14.9619 5.80577 14.9397 4.39364 14.2447 3.54271L12.3151 1.17633C11.0171 -0.416114 8.92415 -0.38775 7.65154 1.23711L6.25357 3.02203H3.75278C3.54015 1.97458 2.79594 1.19862 1.9105 1.19862C0.860044 1.19862 0.00634719 2.28861 0.00634719 3.62983C0.00634719 4.97105 0.860044 6.06104 1.9105 6.06104ZM1.9105 2.41422C2.43573 2.41422 2.86258 2.95922 2.86258 3.62983C2.86258 4.30044 2.43573 4.84544 1.9105 4.84544C1.38527 4.84544 0.958426 4.30044 0.958426 3.62983C0.958426 2.95922 1.38527 2.41422 1.9105 2.41422ZM0.476039 12.3417H2.06284C2.32625 12.3417 2.53888 12.0702 2.53888 11.7339C2.53888 11.3976 2.32625 11.1261 2.06284 11.1261H0.476039C0.212631 11.1261 0 11.3976 0 11.7339C0 12.0702 0.212631 12.3417 0.476039 12.3417Z" fill="white"/>
</svg>
