<svg width="20" height="20" viewBox="0 0 20 20" fill="none" xmlns="http://www.w3.org/2000/svg">
<path d="M11.6276 6.61699C11.6275 7.53746 10.8813 8.28367 9.96086 8.28369C9.04039 8.28371 8.29421 7.53753 8.29423 6.61706C8.29425 5.69658 9.04046 4.95038 9.96093 4.95036C10.8814 4.95034 11.6276 5.69652 11.6276 6.61699Z" fill="white"/>
<path d="M2.08329 2.91667C2.08329 2.91667 4.58329 2.5 9.99996 2.5C15.4166 2.5 17.9166 2.91667 17.9166 2.91667M1.66663 1.25L2.08329 4.58333M17.9166 4.58333L18.3333 1.25M15.8333 3.33333C15.8333 6.25 13.3333 10.4167 9.99996 10.4167C6.66663 10.4167 4.16663 6.25 4.16663 3.33333M8.74996 10.4167V14.1667C6.24996 12.0833 3.24694 11.2996 7.08329 18.3333H5.41663M11.25 10.4167V14.1667C13.75 12.0833 16.753 11.2996 12.9166 18.3333H14.5833M11.6276 6.61699C11.6275 7.53746 10.8813 8.28367 9.96086 8.28369C9.04039 8.28371 8.29421 7.53753 8.29423 6.61706C8.29425 5.69658 9.04046 4.95038 9.96093 4.95036C10.8814 4.95034 11.6276 5.69652 11.6276 6.61699Z" stroke="white" stroke-linecap="round" stroke-linejoin="round"/>
</svg>
