<svg width="24" height="24" viewBox="0 0 24 24" fill="none" xmlns="http://www.w3.org/2000/svg">
<path d="M12.5 21.75C18.15 21.75 22.75 17.15 22.75 11.5C22.75 5.85 18.15 1.25 12.5 1.25C6.85 1.25 2.25 5.85 2.25 11.5C2.25 17.15 6.85 21.75 12.5 21.75ZM12.5 2.75C17.33 2.75 21.25 6.68 21.25 11.5C21.25 16.32 17.33 20.25 12.5 20.25C7.67 20.25 3.75 16.32 3.75 11.5C3.75 6.68 7.67 2.75 12.5 2.75Z" fill="white"/>
<path d="M2.00006 22.75C2.19006 22.75 2.38006 22.68 2.53006 22.53L4.53006 20.53C4.82006 20.24 4.82006 19.76 4.53006 19.47C4.24006 19.18 3.76006 19.18 3.47006 19.47L1.47006 21.47C1.18006 21.76 1.18006 22.24 1.47006 22.53C1.62006 22.68 1.81006 22.75 2.00006 22.75Z" fill="white"/>
</svg>
