<svg width="20" height="20" viewBox="0 0 20 20" fill="none" xmlns="http://www.w3.org/2000/svg">
<path d="M10 10.625C7.35837 10.625 5.20837 8.47501 5.20837 5.83334C5.20837 3.19167 7.35837 1.04167 10 1.04167C12.6417 1.04167 14.7917 3.19167 14.7917 5.83334C14.7917 8.47501 12.6417 10.625 10 10.625ZM10 2.29167C8.05004 2.29167 6.45837 3.88334 6.45837 5.83334C6.45837 7.78334 8.05004 9.375 10 9.375C11.95 9.375 13.5417 7.78334 13.5417 5.83334C13.5417 3.88334 11.95 2.29167 10 2.29167Z" fill="white"/>
<path d="M2.8418 18.9583C2.50013 18.9583 2.2168 18.675 2.2168 18.3333C2.2168 14.775 5.70849 11.875 10.0002 11.875C10.3418 11.875 10.6252 12.1583 10.6252 12.5C10.6252 12.8417 10.3418 13.125 10.0002 13.125C6.40015 13.125 3.4668 15.4583 3.4668 18.3333C3.4668 18.675 3.18346 18.9583 2.8418 18.9583Z" fill="white"/>
<path d="M15.1667 18.4584C13.35 18.4584 11.875 16.9833 11.875 15.1667C11.875 13.35 13.35 11.875 15.1667 11.875C16.9833 11.875 18.4584 13.35 18.4584 15.1667C18.4584 16.9833 16.9833 18.4584 15.1667 18.4584ZM15.1667 13.125C14.0417 13.125 13.125 14.0417 13.125 15.1667C13.125 16.2917 14.0417 17.2084 15.1667 17.2084C16.2917 17.2084 17.2084 16.2917 17.2084 15.1667C17.2084 14.0417 16.2917 13.125 15.1667 13.125Z" fill="white"/>
<path d="M18.3333 18.9583C18.175 18.9583 18.0167 18.9 17.8917 18.775L17.0583 17.9417C16.8167 17.7 16.8167 17.2999 17.0583 17.0583C17.3 16.8166 17.7 16.8166 17.9417 17.0583L18.775 17.8916C19.0167 18.1333 19.0167 18.5333 18.775 18.775C18.65 18.9 18.4917 18.9583 18.3333 18.9583Z" fill="white"/>
</svg>
