<svg width="23" height="22" viewBox="0 0 23 22" fill="none" xmlns="http://www.w3.org/2000/svg">
<path d="M0.75 1.75V1M0.75 1.75V2.5M0.75 1.75L3.25 1.74998M5.75 1.75V1M5.75 1.75V2.5M5.75 1.75L3.25 1.74998M16.75 1.75V1M16.75 1.75V2.5M16.75 1.75L19.25 1.75M21.75 1.75V1M21.75 1.75V2.5M21.75 1.75L19.25 1.75M3.25 1.74998C4.25 7.75 5.74999 7.21787 11.25 7.23393C16.75 7.25 18.25 7.75 19.25 1.75M9.75 7.25C9.75 10.7363 9.75 15.7502 8.75 20.7503H6.75M12.75 7.25C12.75 10.7363 12.75 15.7502 13.75 20.7503H15.75M13.25 2.74996C13.25 3.85453 12.3545 4.74998 11.25 4.75C10.1454 4.75002 9.24998 3.85461 9.25 2.75004C9.25002 1.64547 10.1455 0.750023 11.25 0.75C12.3546 0.749977 13.25 1.64539 13.25 2.74996Z" stroke="#212121" stroke-width="1.5" stroke-linecap="round" stroke-linejoin="round"/>
</svg>
