<svg width="325" height="247" viewBox="0 0 325 247" fill="none" xmlns="http://www.w3.org/2000/svg">
<path d="M211.235 53.1272C207.771 47.3981 203.667 41.2808 197.238 39.41C189.794 37.2436 182.146 41.5474 175.66 45.7943C156.261 58.4949 137.579 72.2589 119.701 87.023L119.72 87.2455L161.478 84.3657C171.534 83.6722 181.936 82.8829 190.824 78.1255C194.196 76.3209 197.483 73.9088 201.305 73.7408C206.053 73.532 210.192 76.848 213.446 80.3124C232.691 100.806 238.259 132.145 259.85 150.15C246.236 116.575 229.98 84.132 211.235 53.1272Z" fill="#F2F2F2"/>
<path d="M324.971 219.136H323.065C306.475 197.582 290.865 175.321 276.236 152.352C266.019 136.327 256.309 119.992 247.107 103.346C246.565 102.366 246.025 101.384 245.486 100.401C241.678 93.4543 237.959 86.461 234.329 79.421C231.114 73.1879 227.972 66.9188 224.902 60.6135C224.026 58.8115 223.172 57.0044 222.323 55.189C220.322 50.9266 218.362 46.639 216.253 42.4329C214.125 38.1826 211.586 33.7562 207.974 30.5628C207.509 30.1466 207.024 29.7546 206.519 29.3883C205.947 28.969 205.347 28.5901 204.722 28.2546C204.66 28.2185 204.595 28.1868 204.532 28.1507C203.006 27.3365 201.325 26.8518 199.6 26.7279C196.009 26.493 192.698 27.9789 189.581 29.5959C184.324 32.3375 179.146 35.2372 174.049 38.2949C157.111 48.4737 141.128 60.1628 126.295 73.2194L126.182 73.3186C106.841 90.3033 89.5538 109.493 74.6729 130.495C74.2168 131.146 73.1419 130.522 73.6027 129.873C75.4093 127.312 77.2536 124.779 79.1357 122.276C93.1716 103.598 109.146 86.4596 126.791 71.1463C128.765 69.43 130.761 67.7377 132.78 66.0697C142.692 57.864 153.072 50.2419 163.869 43.2421C167.175 41.0968 170.519 39.0161 173.9 37C176.141 35.6587 178.396 34.3442 180.667 33.0568C183.539 31.4309 186.425 29.823 189.361 28.3187C192.238 26.8371 195.292 25.5092 198.58 25.4598C200.949 25.4165 203.289 25.9859 205.373 27.1128C205.435 27.1489 205.504 27.1806 205.567 27.221C206.841 27.934 208.024 28.7985 209.09 29.7956C213.864 34.2173 217.058 41.1551 219.542 46.4803C220.793 49.1678 222.059 51.8435 223.34 54.5073C228.178 64.6293 233.203 74.6609 238.417 84.6022C241.204 89.9094 244.043 95.1939 246.936 100.456C247.378 101.274 247.83 102.091 248.282 102.904C258.733 121.788 269.841 140.292 281.606 158.414C295.576 179.931 309.452 199.2 324.971 219.136Z" fill="#E4E4E4"/>
<path d="M149.465 146.984C149.465 146.984 147.273 152.075 147.789 152.802C148.305 153.529 141.473 150.377 141.473 150.377C141.473 150.377 143.664 145.287 143.664 144.68C143.664 144.074 149.465 146.984 149.465 146.984Z" fill="#FFB9B9"/>
<path d="M224.712 217.754C224.712 217.754 224.905 213.701 228.87 214.172L224.712 217.754Z" fill="#090814"/>
<path d="M223.593 213.897C224.689 213.897 225.578 213.008 225.578 211.912C225.578 210.816 224.689 209.927 223.593 209.927C222.497 209.927 221.608 210.816 221.608 211.912C221.608 213.008 222.497 213.897 223.593 213.897Z" fill="#ECFB6D"/>
<path d="M223.83 215.254H223.27V219.175H223.83V215.254Z" fill="#090814"/>
<path d="M89.9836 98.6019C89.9836 99.5944 89.9515 100.579 89.8872 101.554C89.5265 107.183 88.1046 112.692 85.6963 117.792C85.6777 117.836 85.6559 117.876 85.6372 117.917C85.5252 118.153 85.4101 118.389 85.2919 118.623C84.5756 120.065 83.7811 121.467 82.9118 122.823C78.9409 129.046 73.4982 134.196 67.0648 137.816C60.6313 141.437 53.4051 143.417 46.0247 143.581L46.4696 169.168L52.2721 166.113L53.3082 168.082L46.5132 171.66L47.3439 219.182L47.3532 219.816L42.8668 220.815L42.8761 220.177L44.2887 143.584C38.3482 143.499 32.4838 142.235 27.036 139.864C21.5882 137.494 16.6656 134.065 12.5539 129.777C12.2707 129.484 11.9907 129.182 11.7169 128.884C11.7045 128.871 11.6952 128.859 11.6858 128.85C8.26003 125.114 5.48943 120.826 3.49079 116.168C3.53435 116.218 3.58101 116.264 3.62457 116.314C-0.892406 105.752 -1.19874 93.8612 2.76833 83.0799C6.73541 72.2985 14.6755 63.4426 24.9616 58.3267C25.1171 58.2489 25.2758 58.1743 25.4313 58.0965C35.6061 53.1956 47.2508 52.2963 58.0574 55.5769C68.864 58.8576 78.0436 66.0786 83.7767 75.8088C84.0505 76.2693 84.3149 76.7391 84.5701 77.212C88.1313 83.7785 89.9924 91.1319 89.9836 98.6019Z" fill="#E5E5E5"/>
<path d="M83.9269 117.941C116.495 117.941 142.897 91.5388 142.897 58.9704C142.897 26.4019 116.495 0 83.9269 0C51.3585 0 24.9565 26.4019 24.9565 58.9704C24.9565 91.5388 51.3585 117.941 83.9269 117.941Z" fill="#ECFB6D"/>
<path opacity="0.2" d="M40.3854 19.5829C27.5829 49.5318 41.4815 84.1896 71.4307 96.993C82.7933 101.851 95.3947 103.017 107.456 100.326C119.517 97.6349 130.427 91.2235 138.648 81.9968C125.846 111.947 91.1887 125.848 61.2398 113.047C31.2909 100.246 17.3885 65.5881 30.1895 35.6391C32.6973 29.7714 36.1408 24.3496 40.3857 19.5851L40.3854 19.5829Z" fill="black"/>
<path d="M87.1181 223.251L81.0947 221.562L81.1072 220.915L82.9117 122.823L83.0019 117.932L83.005 117.789L83.3193 100.652L83.7766 75.8119V75.8088L84.0878 58.9707H84.2526L84.57 77.212L84.9838 100.954L85.2794 117.801V117.926L85.2918 118.62V118.623L85.8643 151.462L85.9234 154.726L87.1057 222.598L87.1181 223.251Z" fill="#090814"/>
<path d="M93.4681 147.458L83.7202 152.591L85.0788 155.171L94.8266 150.039L93.4681 147.458Z" fill="#090814"/>
<path d="M82.7722 235.122H54.9663V235.745H82.7722V235.122Z" fill="#C9F3DD"/>
<path d="M133.796 245.701H105.99V246.323H133.796V245.701Z" fill="#71DEA4"/>
<path d="M213.134 237.611H185.328V238.234H213.134V237.611Z" fill="#ABECC9"/>
<path d="M283.457 211.162V193.063C283.457 193.063 290.511 205.895 283.457 211.162Z" fill="#F1F1F1"/>
<path d="M200.869 212.29L187.536 200.05C187.536 200.05 201.758 203.532 200.869 212.29Z" fill="#71DEA4"/>
<path d="M62.6045 216.649V198.55C62.6045 198.55 69.658 211.381 62.6045 216.649Z" fill="#C9F3DD"/>
<path d="M63.04 216.646L49.707 204.406C49.707 204.406 63.9298 207.887 63.04 216.646Z" fill="#ABECC9"/>
<path d="M110.518 229.716V207.21C110.518 207.21 119.289 223.166 110.518 229.716Z" fill="#C9F3DD"/>
<path d="M111.059 229.712L94.4795 214.492C94.4795 214.492 112.166 218.821 111.059 229.712Z" fill="#ABECC9"/>
<path d="M253.042 226.963L252.87 227.563L200.654 212.692L161.319 221.363L111.013 229.956L110.944 229.937L87.1184 223.251L81.095 221.562L62.6982 216.397L47.3535 219.816L42.8671 220.815L33.1133 222.99L32.9795 222.383L42.8764 220.177L47.3441 219.182L62.7169 215.756L62.7915 215.775L81.1075 220.915L87.106 222.598L111.044 229.318L161.197 220.753L200.673 212.051L200.751 212.069L253.042 226.963Z" fill="#71DEA4"/>
<path d="M159.624 37.7822L163.605 34.5984C160.513 34.2562 159.242 35.9437 158.72 37.2788C156.305 36.2757 153.674 37.5899 153.674 37.5899L161.639 40.4815C161.237 39.4082 160.538 38.4717 159.623 37.7818L159.624 37.7822Z" fill="#090814"/>
<path d="M260.834 59.2352L264.815 56.0514C261.723 55.7092 260.452 57.3967 259.931 58.7318C257.515 57.7287 254.885 59.0429 254.885 59.0429L262.849 61.9345C262.448 60.8612 261.748 59.9247 260.833 59.2349L260.834 59.2352Z" fill="#090814"/>
<path d="M150.913 97.2071L154.894 94.0233C151.801 93.6811 150.53 95.3686 150.009 96.7037C147.593 95.7006 144.963 97.0148 144.963 97.0148L152.928 99.9064C152.526 98.8331 151.826 97.8966 150.911 97.2068L150.913 97.2071Z" fill="#090814"/>
<path d="M122.034 234.021L125.853 235.275L133.143 222.853L127.506 221.002L122.034 234.021Z" fill="#FFB9B9"/>
<path d="M154.114 237.306H158.325L159.092 224.787L152.883 224.977L154.114 237.306Z" fill="#FFB9B9"/>
<path d="M138.958 150.48L140.016 148.362L149.017 152.863L148.752 154.716L150.473 156.966C150.473 156.966 153.385 158.555 152.855 163.85L152.326 168.879L151.665 175.366L156.298 191.383L158.68 212.562L160.401 229.638L152.063 229.241L144.385 201.443L130.883 231.359L121.617 228.975L134.325 199.325L135.913 186.882C135.913 186.882 134.856 180.264 139.885 175.763L139.09 173.38V170.444L136.443 156.437L138.958 150.48Z" fill="#090814"/>
<path opacity="0.2" d="M138.711 180.751L138.411 180.835L144.235 201.485L144.535 201.401L138.711 180.751Z" fill="black"/>
<path d="M139.222 176.689H152.195V175.366H139.222V176.689Z" fill="#D6D6E3"/>
<path d="M152.195 177.484C152.488 177.484 152.725 176.891 152.725 176.16C152.725 175.429 152.488 174.836 152.195 174.836C151.903 174.836 151.666 175.429 151.666 176.16C151.666 176.891 151.903 177.484 152.195 177.484Z" fill="#D6D6E3"/>
<path d="M152.537 144.249C154.406 140.83 153.149 136.542 149.73 134.672C146.31 132.803 142.022 134.06 140.152 137.48C138.283 140.899 139.54 145.187 142.96 147.057C146.38 148.926 150.667 147.669 152.537 144.249Z" fill="#FFB9B9"/>
<path d="M135.547 138.345C138.995 138.345 141.79 135.55 141.79 132.102C141.79 128.654 138.995 125.859 135.547 125.859C132.099 125.859 129.304 128.654 129.304 132.102C129.304 135.55 132.099 138.345 135.547 138.345Z" fill="#090814"/>
<path d="M127.624 131.433C127.378 132.26 127.305 133.13 127.412 133.986C127.519 134.842 127.802 135.668 128.243 136.409C128.685 137.151 129.276 137.793 129.978 138.294C130.68 138.796 131.479 139.147 132.323 139.324C133.168 139.502 134.04 139.502 134.885 139.326C135.73 139.149 136.529 138.8 137.231 138.299C137.934 137.798 138.526 137.156 138.968 136.415C139.411 135.674 139.695 134.85 139.802 133.993C139.355 135.495 138.359 136.774 137.013 137.576C135.666 138.378 134.068 138.644 132.534 138.322C131 137.999 129.644 137.112 128.734 135.836C127.825 134.56 127.428 132.988 127.624 131.433Z" fill="#090814"/>
<path d="M152.287 138.904C152.471 140.518 152.116 142.147 151.28 143.539C150.443 144.931 149.171 146.008 147.66 146.604C146.149 147.199 144.484 147.28 142.922 146.833C141.361 146.386 139.991 145.437 139.024 144.132C138.056 142.827 137.547 141.24 137.573 139.616C137.6 137.992 138.161 136.423 139.17 135.15C140.18 133.878 141.58 132.974 143.155 132.578C144.731 132.182 146.392 132.317 147.883 132.962C149.116 131.966 150.644 132.276 151.887 133.325C153.292 134.512 153.709 135.326 154.799 137.276C153.727 137.429 153.359 138.754 152.287 138.904Z" fill="#090814"/>
<path d="M126.348 160.127C126.427 162.218 126.583 166.335 126.583 166.545C126.583 166.766 129.704 173.228 131.052 176.009C131.148 176.205 131.234 176.382 131.31 176.538C131.415 176.753 131.578 176.935 131.782 177.06C131.986 177.186 132.222 177.25 132.462 177.246L138.353 177.14C138.677 177.135 138.986 177.005 139.216 176.777C139.446 176.55 139.579 176.242 139.588 175.919L140.245 149.997C140.247 149.912 140.232 149.827 140.201 149.747C140.17 149.668 140.123 149.595 140.063 149.534C140.004 149.473 139.932 149.424 139.854 149.391C139.775 149.357 139.69 149.34 139.605 149.34H132.007C131.686 149.34 131.372 149.431 131.1 149.601C130.828 149.772 130.61 150.016 130.47 150.305L126.823 157.849C126.481 158.558 126.318 159.34 126.348 160.127Z" fill="#ECFB6D"/>
<path d="M139.691 174.14C141.203 173.224 142.561 172.076 143.717 170.738C146.401 167.718 148.034 163.909 148.37 159.883C148.669 156.438 147.986 153.878 146.338 152.272C144.244 150.231 141.393 150.528 141.273 150.541L141.145 150.556L139.215 152.19L139.761 152.835L141.49 151.373C142.019 151.347 144.178 151.342 145.756 152.884C147.208 154.304 147.804 156.634 147.529 159.809C147.21 163.643 145.659 167.27 143.109 170.15C142.009 171.422 140.719 172.518 139.285 173.398L139.691 174.14Z" fill="#ECFB6D"/>
<path d="M128.726 164.292L128.669 164.568L138.969 166.68L139.025 166.404L128.726 164.292Z" fill="#090814"/>
<path d="M135.515 149.336L134.843 165.714L135.125 165.726L135.797 149.347L135.515 149.336Z" fill="#090814"/>
<path d="M126.348 160.127C126.427 162.218 126.583 166.335 126.583 166.545C126.583 166.766 129.704 173.228 131.052 176.009L128.539 161.417C128.442 160.856 128.197 160.33 127.83 159.894C127.463 159.458 126.987 159.128 126.451 158.937C126.366 159.327 126.331 159.727 126.348 160.127Z" fill="#090814"/>
<path d="M141.788 190.707C141.565 190.42 141.409 190.088 141.328 189.734C141.248 189.38 141.247 189.013 141.324 188.658C141.401 188.303 141.555 187.97 141.775 187.681C141.995 187.393 142.275 187.156 142.597 186.987L142.086 181.337L145.444 180.189L146.053 188.178C146.299 188.736 146.333 189.366 146.147 189.947C145.961 190.529 145.568 191.022 145.043 191.333C144.518 191.645 143.897 191.753 143.298 191.637C142.698 191.522 142.162 191.191 141.79 190.707H141.788Z" fill="#FFB7B7"/>
<path d="M139.59 156.607C139.524 155.749 139.746 154.894 140.221 154.176C140.695 153.458 141.395 152.919 142.21 152.643C142.929 152.406 143.705 152.406 144.423 152.645C145.192 152.907 145.859 153.404 146.329 154.065C146.8 154.727 147.051 155.52 147.047 156.331L147.299 185.024L141.349 185.24L139.59 156.607Z" fill="#F2F2F2"/>
<path d="M157.738 236.028C157.738 236.028 154.544 236.069 153.969 235.926C153.395 235.783 152.618 240.793 154.328 241.04C156.038 241.287 163.002 241.349 163.002 241.349C163.002 241.349 168.417 240.785 167.941 239.351C167.464 237.916 159.959 235.506 159.959 235.506C159.959 235.506 158.895 233.745 157.738 236.028Z" fill="#090814"/>
<path d="M125.414 234.683C125.414 234.683 122.334 233.841 121.822 233.545C121.309 233.249 119.181 237.848 120.756 238.557C122.331 239.265 129.003 241.246 129.003 241.246C129.003 241.246 134.361 242.198 134.298 240.688C134.236 239.178 127.691 234.794 127.691 234.794C127.691 234.794 127.155 232.809 125.414 234.683Z" fill="#090814"/>
</svg>
