<svg width="106" height="79" viewBox="0 0 106 79" fill="none" xmlns="http://www.w3.org/2000/svg">
<path d="M20.1787 29.9793C20.1787 29.9793 22.7911 34.1228 21.8583 35.2448C20.9255 36.3668 28.8582 36.3947 28.8582 36.3947C28.8582 36.3947 27.6664 30.3671 28.0173 28.98L20.1787 29.9793Z" fill="#FFB9B9"/>
<path d="M24.3546 31.4813C28.879 31.4813 32.5467 27.8136 32.5467 23.2892C32.5467 18.7649 28.879 15.0972 24.3546 15.0972C19.8303 15.0972 16.1626 18.7649 16.1626 23.2892C16.1626 27.8136 19.8303 31.4813 24.3546 31.4813Z" fill="#090814"/>
<path d="M43.6216 67.6914V72.5478L48.4777 71.536L48.0731 68.0963L43.6216 67.6914Z" fill="#FFB9B9"/>
<path d="M60.821 68.501L74.3782 70.7267L70.9383 75.7861C70.9383 75.7861 61.428 72.5479 58.9999 72.5479C56.5718 72.5479 60.821 68.501 60.821 68.501Z" fill="#FFB9B9"/>
<path d="M30.0646 58.7881C30.0646 58.7881 40.1821 47.052 43.4195 47.659C46.6568 48.2659 48.0736 51.9082 48.0736 51.9082L49.8947 69.9172C49.8947 69.9172 43.4195 70.5242 43.4195 69.9172C43.4195 69.3103 42.2053 56.36 42.2053 56.36C42.2053 56.36 32.695 77.4055 27.6362 63.4422L30.0646 58.7881Z" fill="#D6D6E3"/>
<path d="M13.6743 66.6796C13.6743 66.6796 13.8778 77.2806 19.947 77.8875C26.0162 78.4945 32.6949 73.3569 32.6949 73.3569L43.6217 68.1223C43.6217 68.1223 56.572 74.9757 60.4165 73.1546C60.4165 73.1546 64.4634 68.9054 61.833 67.6912C59.2026 66.477 61.6296 67.6912 61.6296 67.6912L46.0489 59.5974C46.0489 59.5974 43.0136 58.7882 37.7528 61.0139C32.492 63.2397 25.4095 64.2516 25.4095 64.2516L13.6743 66.6796Z" fill="#D6D6E3"/>
<path d="M23.7915 32.0779C27.1441 32.0779 29.8619 29.3602 29.8619 26.0076C29.8619 22.655 27.1441 19.9373 23.7915 19.9373C20.439 19.9373 17.7212 22.655 17.7212 26.0076C17.7212 29.3602 20.439 32.0779 23.7915 32.0779Z" fill="#FFB9B9"/>
<path d="M32.4927 43.0047L32.0881 51.5034C32.0881 51.5034 32.2916 62.6325 30.4693 63.4418C29.5487 63.8505 27.6991 64.672 25.9893 65.5705C24.7065 66.2423 23.5025 66.9544 22.8307 67.5678C22.6526 67.7193 22.4991 67.8974 22.3755 68.0959C21.5662 69.5124 16.3051 69.3101 15.0909 68.2994C13.8768 67.2887 14.6863 69.5136 13.6744 69.9182C12.6951 70.3107 11.3373 67.1015 12.169 62.3099C12.1954 62.15 12.2257 61.9881 12.2579 61.8242C13.1881 57.1802 11.7277 46.0572 11.9524 41.7594C11.9655 41.4311 12 41.104 12.0556 40.7801C12.6626 37.5425 20.4084 30.955 21.8575 33.7607C23.6423 37.2248 27.7418 34.0601 28.4458 32.484C32.4927 32.2805 33.9092 37.1378 33.9092 37.1378L32.4927 43.0047Z" fill="#ECFB6D"/>
<path d="M48.8825 70.7268C48.8825 70.7268 45.6449 71.941 44.6333 71.7384C43.6217 71.5358 42.6099 72.3453 42.6099 73.5595C42.6099 74.7737 41.3957 77.6064 43.2168 77.8087C45.038 78.0111 52.5248 77.6053 54.1436 78.2134C54.1436 78.2134 61.4282 78.4168 60.8212 75.3807C60.2143 72.3445 57.1789 72.5477 57.1789 72.5477C57.1789 72.5477 48.8825 72.1433 48.8825 70.7268Z" fill="#090814"/>
<path d="M72.5574 71.3337C72.5574 71.3337 72.962 70.1195 73.5693 70.1195C74.1765 70.1195 79.0327 70.9288 79.6396 70.7265C80.2466 70.5241 87.3288 70.1195 86.1149 73.5592C84.901 76.9988 80.8535 77.4038 80.8535 77.4038C80.8535 77.4038 73.569 76.5945 72.5571 76.7968C71.5453 76.9991 67.903 76.7968 68.5102 75.7849C69.1175 74.7731 72.962 72.9525 72.5574 71.3337Z" fill="#090814"/>
<path d="M54.1396 42.2694L55.2497 46.8485C55.2621 46.8996 55.2602 46.9531 55.2442 47.0032L50.2078 62.7393C50.1879 62.8017 50.1472 62.8553 50.0925 62.8912C50.0378 62.9272 49.9724 62.9433 49.9073 62.9369C49.8421 62.9304 49.7812 62.9019 49.7346 62.8559C49.6879 62.81 49.6585 62.7494 49.6511 62.6844L48.9535 56.5542C48.9489 56.5135 48.953 56.4722 48.9657 56.4332L53.5876 42.2479C53.6069 42.1887 53.6449 42.1374 53.696 42.1018C53.7471 42.0662 53.8084 42.0482 53.8706 42.0506C53.9328 42.053 53.9925 42.0757 54.0407 42.1151C54.0889 42.1545 54.1229 42.2086 54.1376 42.2691L54.1396 42.2694Z" fill="#080712"/>
<path d="M53.7302 42.6561L54.7552 46.585L50.3135 60.934L49.2886 56.4927L53.7302 42.6561Z" fill="white"/>
<path d="M31.3523 64.0088C31.5232 64.5212 49.118 63.8378 49.2875 63.6672C49.4364 63.4532 49.5624 63.2242 49.6633 62.9838C49.8238 62.6423 49.9709 62.3004 49.9709 62.3004L49.2875 56.7693L31.8636 56.151C31.8636 56.151 31.4276 60.8383 31.3404 62.9838C31.3101 63.325 31.3141 63.6684 31.3523 64.0088Z" fill="#090814"/>
<path opacity="0.1" d="M47.0679 57.5175L47.4095 62.3007H39.7227V57.5175H47.0679Z" fill="black"/>
<path opacity="0.1" d="M37.1607 59.0552L37.2066 59.0459L36.9898 61.1048H32.7188V59.0552H37.1607Z" fill="black"/>
<path opacity="0.1" d="M31.352 64.0088C31.5229 64.5213 49.1177 63.8379 49.2872 63.6673C49.4361 63.4533 49.5621 63.2243 49.663 62.9839H31.3389C31.309 63.3251 31.3134 63.6685 31.352 64.0088Z" fill="black"/>
<path d="M25.7117 16.6166C26.9726 16.6166 27.9948 15.5944 27.9948 14.3336C27.9948 13.0727 26.9726 12.0505 25.7117 12.0505C24.4509 12.0505 23.4287 13.0727 23.4287 14.3336C23.4287 15.5944 24.4509 16.6166 25.7117 16.6166Z" fill="#090814"/>
<path d="M25.0246 16.8188C25.0246 16.8188 22.6922 20.6986 17.2683 22.1511C11.8444 23.6037 17.2241 31.7542 17.2241 31.7542C17.2241 31.7542 15.2678 28.7892 18.0895 25.6516C20.9111 22.5139 25.4513 20.3666 25.0246 16.8188Z" fill="#090814"/>
<path opacity="0.1" d="M25.9895 65.5709C25.4898 66.5159 24.9029 67.4973 24.8038 67.8938C24.7369 68.1629 23.9966 68.0071 22.8309 67.5679C20.4938 66.6836 16.4429 64.6582 12.6628 62.6327C12.4884 62.5402 12.323 62.4318 12.1686 62.3089C12.1951 62.149 12.2253 61.9871 12.2576 61.8231C13.1878 57.1792 11.7274 46.0562 11.9521 41.7584L13.6741 41.1837L17.1143 44.4214V58.1809C17.1143 58.1809 26.0177 63.0373 26.6246 63.4422C26.9345 63.6486 26.5075 64.5896 25.9895 65.5709Z" fill="black"/>
<path d="M33.5041 54.5389L38.9675 57.3719C38.9675 57.3719 42.2051 53.9319 44.2288 56.5626C46.2526 59.1933 38.3608 60.0026 38.3608 60.0026C38.3608 60.0026 31.4809 58.3838 31.2786 56.158C31.0763 53.9322 33.5041 54.5389 33.5041 54.5389Z" fill="#FFB9B9"/>
<path d="M24.3985 62.0246L27.6361 62.8339C27.6361 62.8339 31.2784 58.3823 35.123 60.0012C38.9675 61.62 30.2656 64.8588 30.2656 64.8588C30.2656 64.8588 25.6115 67.2869 23.7904 65.2634C21.9692 63.24 24.3985 62.0246 24.3985 62.0246Z" fill="#FFB9B9"/>
<path d="M31.4806 35.3159C31.6841 35.5194 33.9087 37.1371 33.9087 37.1371C33.9087 37.1371 34.5156 44.8262 33.7052 46.445C32.8948 48.0639 32.2887 48.0638 32.896 48.8731C33.5032 49.6824 34.3125 49.0766 33.5029 50.4919C32.6933 51.9073 31.8841 51.7061 32.491 52.3131C33.098 52.92 32.8957 53.1223 32.8957 53.1223L35.3237 55.1458C35.3237 55.1458 33.834 57.5186 31.9483 57.3439C30.0627 57.1692 28.4438 48.0636 28.4438 48.0636L31.4806 35.3159Z" fill="#ECFB6D"/>
<path d="M13.6739 40.1721L11.8528 40.7791C11.8528 40.7791 6.99631 58.5858 12.662 61.6211C18.3277 64.6564 24.6004 67.6914 24.803 66.8825C25.0056 66.0735 27.2311 62.8356 26.6241 62.4309C26.0172 62.0263 17.1138 57.1696 17.1138 57.1696V43.4098L13.6739 40.1721Z" fill="#ECFB6D"/>
<path opacity="0.1" d="M16.4061 47.5577L16.0015 57.2709L26.7259 62.3288L16.8107 57.2709L16.4061 47.5577Z" fill="black"/>
<path d="M77.3485 9.20392V13.7226C77.3485 13.7644 77.3318 13.8044 77.3023 13.8339C77.2728 13.8634 77.2327 13.8801 77.191 13.8801H77.0799V37.4194C77.0799 38.0708 76.8211 38.6954 76.3605 39.156C75.9 39.6165 75.2753 39.8753 74.624 39.8754H59.9154C59.5929 39.8754 59.2736 39.8118 58.9756 39.6884C58.6777 39.5649 58.407 39.384 58.179 39.1559C57.951 38.9279 57.7702 38.6571 57.6468 38.3592C57.5234 38.0612 57.4599 37.7419 57.46 37.4194V14.7045H57.3789C57.3494 14.7045 57.3212 14.6929 57.3003 14.6721C57.2795 14.6514 57.2677 14.6232 57.2675 14.5938V12.0235C57.2675 11.994 57.2793 11.9657 57.3001 11.9448C57.321 11.9239 57.3493 11.9122 57.3789 11.9122H57.46V10.9437H57.378C57.3472 10.9437 57.3176 10.9314 57.2958 10.9096C57.274 10.8878 57.2617 10.8582 57.2617 10.8274V8.29088C57.2617 8.26004 57.274 8.23047 57.2958 8.20866C57.3176 8.18686 57.3472 8.17461 57.378 8.17461H57.46V6.84938H57.3768C57.3495 6.84938 57.3232 6.83851 57.3039 6.81916C57.2845 6.7998 57.2736 6.77356 57.2736 6.74619V5.36195C57.2736 5.33453 57.2845 5.30822 57.3038 5.28878C57.3232 5.26933 57.3494 5.25833 57.3768 5.25818H57.46V2.45541C57.46 1.80419 57.7187 1.17965 58.1791 0.719173C58.6396 0.258696 59.2642 0 59.9154 0H74.624C75.2752 -1.82464e-08 75.8998 0.258677 76.3604 0.719138C76.821 1.1796 77.0798 1.80414 77.0799 2.45541V9.04492H77.1922C77.2339 9.04499 77.2739 9.06161 77.3035 9.09114C77.333 9.12067 77.3496 9.1607 77.3497 9.20246L77.3485 9.20392Z" fill="#090814"/>
<path d="M67.8741 1.12244H65.6908C65.5371 1.12244 65.4126 1.24698 65.4126 1.40062C65.4126 1.55426 65.5371 1.6788 65.6908 1.6788H67.8741C68.0277 1.6788 68.1523 1.55426 68.1523 1.40062C68.1523 1.24698 68.0277 1.12244 67.8741 1.12244Z" fill="#E6E8EC"/>
<path d="M68.8821 1.7162C69.0564 1.7162 69.1978 1.57487 69.1978 1.40052C69.1978 1.22617 69.0564 1.08484 68.8821 1.08484C68.7077 1.08484 68.5664 1.22617 68.5664 1.40052C68.5664 1.57487 68.7077 1.7162 68.8821 1.7162Z" fill="#E6E8EC"/>
<path d="M76.4179 2.32201V37.5982C76.4086 38.0272 76.2295 38.435 75.9198 38.7321C75.6101 39.0291 75.1952 39.1911 74.7662 39.1824H59.8431C59.4084 39.1845 58.9898 39.0186 58.6745 38.7194C58.5223 38.5749 58.401 38.4011 58.318 38.2083C58.2349 38.0156 58.1919 37.8081 58.1914 37.5982V2.32201C58.2004 1.89284 58.3794 1.48481 58.6892 1.18759C58.9989 0.890363 59.4139 0.728266 59.8431 0.736913H62.0764V1.0119C62.0838 1.36525 62.2312 1.7012 62.4862 1.94593C62.7411 2.19067 63.0829 2.32416 63.4362 2.31707H71.026C71.3794 2.32423 71.7212 2.19078 71.9762 1.94604C72.2312 1.7013 72.3787 1.3653 72.3861 1.0119V0.736913H74.7662C75.1954 0.728111 75.6105 0.890158 75.9203 1.18742C76.23 1.48467 76.409 1.89279 76.4179 2.32201Z" fill="white"/>
<path d="M60.729 24.2145H73.9382C74.0105 24.2145 74.082 24.2287 74.1488 24.2564C74.2156 24.284 74.2762 24.3245 74.3273 24.3756C74.3784 24.4267 74.4189 24.4874 74.4466 24.5542C74.4743 24.6209 74.4885 24.6925 74.4885 24.7647V25.5226C74.4883 25.6683 74.4302 25.8081 74.327 25.9111C74.2238 26.0141 74.084 26.0719 73.9382 26.0719H60.729C60.5832 26.0719 60.4434 26.0141 60.3402 25.9111C60.237 25.8081 60.1789 25.6683 60.1787 25.5226V24.7668C60.1784 24.6943 60.1925 24.6226 60.22 24.5556C60.2475 24.4886 60.288 24.4277 60.3392 24.3764C60.3903 24.3251 60.451 24.2843 60.5179 24.2566C60.5848 24.2288 60.6565 24.2145 60.729 24.2145Z" fill="#E6E6E6"/>
<path d="M60.729 27.5167H73.9382C74.0105 27.5167 74.082 27.531 74.1488 27.5586C74.2156 27.5863 74.2762 27.6268 74.3273 27.6779C74.3784 27.729 74.4189 27.7896 74.4466 27.8564C74.4743 27.9232 74.4885 27.9947 74.4885 28.067V28.8248C74.4883 28.9706 74.4302 29.1103 74.327 29.2133C74.2238 29.3163 74.084 29.3742 73.9382 29.3742H60.729C60.5832 29.3742 60.4434 29.3163 60.3402 29.2133C60.237 29.1103 60.1789 28.9706 60.1787 28.8248V28.069C60.1784 27.9966 60.1925 27.9248 60.22 27.8578C60.2475 27.7908 60.288 27.7299 60.3392 27.6786C60.3903 27.6273 60.451 27.5866 60.5179 27.5588C60.5848 27.531 60.6565 27.5167 60.729 27.5167Z" fill="#E6E6E6"/>
<path d="M60.729 30.8191H73.9382C74.0105 30.8191 74.082 30.8333 74.1488 30.861C74.2156 30.8886 74.2762 30.9292 74.3273 30.9803C74.3784 31.0314 74.4189 31.092 74.4466 31.1588C74.4743 31.2255 74.4885 31.2971 74.4885 31.3694V32.1272C74.4883 32.273 74.4302 32.4127 74.327 32.5157C74.2238 32.6187 74.084 32.6766 73.9382 32.6766H60.729C60.5832 32.6766 60.4434 32.6187 60.3402 32.5157C60.237 32.4127 60.1789 32.273 60.1787 32.1272V31.3714C60.1784 31.299 60.1925 31.2272 60.22 31.1602C60.2475 31.0932 60.288 31.0323 60.3392 30.981C60.3903 30.9297 60.451 30.889 60.5179 30.8612C60.5848 30.8334 60.6565 30.8191 60.729 30.8191Z" fill="#E6E6E6"/>
<path d="M72.9064 7.63452C73.6664 7.63452 74.2825 7.01842 74.2825 6.25842C74.2825 5.49842 73.6664 4.88232 72.9064 4.88232C72.1464 4.88232 71.5303 5.49842 71.5303 6.25842C71.5303 7.01842 72.1464 7.63452 72.9064 7.63452Z" fill="#ECFB6D"/>
<path d="M60.7002 10.8678H73.9094C73.9817 10.8678 74.0532 10.882 74.12 10.9097C74.1867 10.9373 74.2474 10.9779 74.2985 11.029C74.3496 11.0801 74.3901 11.1407 74.4178 11.2075C74.4454 11.2742 74.4597 11.3458 74.4597 11.4181V19.8116C74.4597 19.8838 74.4454 19.9554 74.4178 20.0221C74.3901 20.0889 74.3496 20.1496 74.2985 20.2006C74.2474 20.2517 74.1867 20.2923 74.12 20.3199C74.0532 20.3476 73.9817 20.3618 73.9094 20.3618H60.7002C60.5542 20.3618 60.4143 20.3038 60.3111 20.2006C60.2079 20.0975 60.1499 19.9575 60.1499 19.8116V11.4181C60.1499 11.2721 60.2079 11.1322 60.3111 11.029C60.4143 10.9258 60.5542 10.8678 60.7002 10.8678Z" fill="#E6E6E6"/>
<path d="M65.4042 16.2056C65.8219 17.75 67.2532 18.7055 67.2532 18.7055C67.2532 18.7055 68.007 17.1579 67.5893 15.6135C67.1716 14.0691 65.7402 13.1136 65.7402 13.1136C65.7402 13.1136 64.9871 14.6612 65.4042 16.2056Z" fill="#090814"/>
<path d="M66.0181 15.8739C67.1646 16.9898 67.3047 18.7057 67.3047 18.7057C67.3047 18.7057 65.5859 18.6118 64.4394 17.4959C63.2929 16.38 63.1528 14.6641 63.1528 14.6641C63.1528 14.6641 64.8716 14.7579 66.0181 15.8739Z" fill="#ECFB6D"/>
<path d="M69.2052 16.2056C68.7875 17.75 67.3562 18.7055 67.3562 18.7055C67.3562 18.7055 66.6024 17.1579 67.0202 15.6135C67.4379 14.0691 68.8692 13.1136 68.8692 13.1136C68.8692 13.1136 69.6232 14.6612 69.2052 16.2056Z" fill="#090814"/>
<path d="M68.5913 15.8739C67.4448 16.9898 67.3047 18.7057 67.3047 18.7057C67.3047 18.7057 69.0235 18.6118 70.17 17.4959C71.3164 16.38 71.4565 14.6641 71.4565 14.6641C71.4565 14.6641 69.7377 14.7579 68.5913 15.8739Z" fill="#ECFB6D"/>
<path d="M105.809 77.8973H0V78.5488H105.809V77.8973Z" fill="#CCCCCC"/>
</svg>
