<svg width="15" height="24" viewBox="0 0 15 24" fill="none" xmlns="http://www.w3.org/2000/svg">
<path d="M7.48518 0C5.04379 0 4.5828 3.61839 6.03489 5.1004V5.83813L4.05396 6.23133H3.8604C2.93164 6.23133 2.16839 6.98811 2.16839 7.90899V7.93334L0.898442 13.104C0.662817 13.2697 0.441416 13.427 0.301708 13.5889C0.123121 13.7959 0.0144234 14.0542 0.0023968 14.2864C-0.0216563 14.7508 0.143005 14.9651 0.153469 15.3742C0.166772 15.8933 0.607117 16.2973 1.11844 16.2973H1.68402H2.16745C2.38194 16.2973 2.4749 16.2005 2.52907 16.1494C2.58325 16.0983 2.61052 16.059 2.63577 16.0211C2.68626 15.9453 2.72223 15.8735 2.76229 15.788C2.84241 15.6172 2.92869 15.3996 3.02478 15.1402C3.21697 14.6213 3.44345 13.943 3.66117 13.265C3.96095 12.3314 4.18943 11.5784 4.33533 11.093L4.5846 12.0442V13.3876C4.5846 13.4191 4.54908 13.6621 4.48923 13.911C4.42939 14.1598 4.35048 14.4413 4.28151 14.6758C4.22858 14.856 4.05562 15.2911 3.96898 15.8994C3.8851 16.4883 3.88881 17.2679 4.10117 18.2353V21.6262C3.82456 21.6429 3.56172 21.6402 3.23061 21.7329C2.98228 21.8024 2.72397 21.9135 2.51208 22.128C2.30019 22.3424 2.16745 22.6649 2.16745 23.008C2.16745 23.2336 2.20347 23.449 2.33457 23.639C2.46567 23.8289 2.68738 23.9378 2.85954 23.9713C3.20386 24.0385 3.44209 23.9667 3.61774 23.9667H6.00845C6.28564 23.9667 6.54779 23.8358 6.71188 23.6502C6.87577 23.4649 6.95771 23.2364 6.97248 23.0024V23.0014C7.00318 22.5147 7.00175 21.57 7.00175 21.57V19.8446V18.4365C7.05186 18.3005 7.10603 18.1659 7.12072 18.0106L7.11033 18.0742L7.48518 16.4855L7.86002 18.0742L7.84964 18.0106C7.86432 18.1659 7.9185 18.3005 7.96861 18.4365V19.8446V21.57V23.008C7.96861 23.5461 8.44954 23.9667 8.96191 23.9667H11.3526C11.5283 23.9667 11.7665 24.0385 12.1108 23.9713C12.283 23.9378 12.5047 23.8289 12.6358 23.639C12.7669 23.449 12.8029 23.2336 12.8029 23.008C12.8029 22.6884 12.7136 22.3877 12.5348 22.1598C12.3559 21.9318 12.1106 21.7943 11.8682 21.7142C11.5414 21.6062 11.2041 21.6236 10.8692 21.6168V18.2362C11.3715 16.2703 10.8041 15.0839 10.6662 14.6178C10.5329 14.1673 10.3858 13.5086 10.3858 13.3539V12.0442L10.6076 11.196C10.6414 11.3029 10.6679 11.3866 10.7106 11.5208C10.8682 12.0174 11.08 12.6786 11.3007 13.3399C11.5214 14.0011 11.7503 14.6614 11.9446 15.1673C12.0418 15.4203 12.1288 15.6331 12.21 15.8002C12.2505 15.8838 12.287 15.954 12.3384 16.0286C12.364 16.066 12.3914 16.105 12.446 16.155C12.5006 16.205 12.5939 16.2973 12.8029 16.2973H13.2863H13.8699C14.3742 16.2973 14.8002 15.9293 14.8329 15.4126V15.4117C14.8608 14.9832 15.033 14.7484 14.9944 14.277C14.9751 14.0411 14.8582 13.789 14.6762 13.5852C14.5332 13.425 14.3092 13.2677 14.071 13.1011L12.8029 7.93334V7.90899C12.8029 6.98811 12.0397 6.23133 11.1109 6.23133H10.9173L8.93547 5.83813V5.1004C10.3875 3.61839 9.92656 0 7.48518 0ZM7.48518 0.958666C8.97932 0.958666 9.19824 3.6612 8.1735 4.51715H8.17255C8.12833 4.54829 8.08971 4.58659 8.05831 4.63043C7.89373 4.7325 7.70357 4.79333 7.48518 4.79333C7.26688 4.79333 7.07658 4.73336 6.91205 4.63137C6.88044 4.58711 6.84149 4.54849 6.79686 4.51715C5.77211 3.6612 5.99104 0.958666 7.48518 0.958666ZM7.00175 5.6331C7.16375 5.67222 7.30102 5.752 7.48518 5.752C7.66934 5.752 7.8066 5.67222 7.96861 5.6331V6.17797C7.95951 6.25989 7.97187 6.34276 8.00449 6.41857C8.00803 6.42678 8.01181 6.4349 8.01582 6.44291C8.02025 6.45211 8.02497 6.46116 8.02998 6.47006C8.07016 6.54181 8.12825 6.60212 8.19868 6.64523C8.2691 6.68835 8.34951 6.71281 8.43221 6.71628L10.7748 7.18063C10.8059 7.18682 10.8375 7.18995 10.8692 7.18999H11.1109C11.5174 7.18999 11.836 7.50597 11.836 7.90899V7.99044C11.8362 8.02863 11.841 8.06666 11.8502 8.10372L13.1693 13.4822C13.1981 13.5996 13.2706 13.702 13.3723 13.7687C13.6833 13.9728 13.8672 14.1259 13.952 14.2208C14.0368 14.3158 14.0277 14.3225 14.0304 14.3547C14.0356 14.4183 13.9098 14.761 13.8699 15.3387H13.2863H13.0626C13.0054 15.2168 12.9328 15.0468 12.8482 14.8266C12.664 14.3468 12.4369 13.6929 12.2184 13.0384C12 12.3839 11.7899 11.7273 11.633 11.2334C11.5546 10.9865 11.4889 10.7805 11.4433 10.6352C11.4204 10.5626 11.403 10.5048 11.3904 10.4648C11.3854 10.4491 11.3815 10.4379 11.3781 10.4274L11.1326 9.02494C11.1137 8.91775 11.0585 8.82014 10.9761 8.74817C10.8938 8.6762 10.7892 8.63414 10.6796 8.62891C10.57 8.62368 10.4618 8.65559 10.3729 8.7194C10.2839 8.78321 10.2196 8.87511 10.1903 8.98C10.0881 9.33873 9.75922 9.58666 9.38019 9.58666H8.56817C8.38562 9.58666 8.22013 9.48553 8.13762 9.32359L7.91668 8.89107C7.8764 8.81208 7.81485 8.74569 7.73886 8.69926C7.66286 8.65283 7.57539 8.62816 7.48612 8.62799C7.39654 8.62781 7.30866 8.65232 7.2323 8.69877C7.15594 8.74522 7.0941 8.8118 7.05368 8.89107L6.83274 9.32359C6.75005 9.48587 6.58545 9.58666 6.40218 9.58666H5.59017C5.21726 9.58666 4.8953 9.34529 4.7876 8.99592C4.76345 8.88817 4.70253 8.79198 4.61514 8.7236C4.52775 8.65522 4.41924 8.61884 4.30793 8.6206C4.19661 8.62236 4.08933 8.66216 4.00418 8.73326C3.91903 8.80437 3.86124 8.90244 3.84057 9.0109L3.58469 10.2457C3.58423 10.248 3.57415 10.2724 3.57525 10.2691C3.57326 10.2744 3.57138 10.2797 3.56958 10.2851C3.56958 10.2851 3.17074 11.6313 2.73963 12.9738C2.52408 13.6451 2.30003 14.3166 2.1174 14.8097C2.03323 15.037 1.96111 15.2128 1.90401 15.3387H1.68402H1.11844C1.10073 14.7578 0.96485 14.4019 0.968313 14.3351C0.970053 14.3012 0.958301 14.3019 1.0363 14.2115C1.11429 14.1211 1.29063 13.9704 1.59809 13.7687C1.69977 13.702 1.77228 13.5996 1.8011 13.4822L3.12109 8.10372C3.13034 8.06666 3.1351 8.02863 3.13525 7.99044V7.90899C3.13525 7.50597 3.45392 7.18999 3.8604 7.18999H4.10211C4.13382 7.18995 4.16544 7.18682 4.19653 7.18063L6.53626 6.71628C6.66146 6.71159 6.77994 6.6589 6.86673 6.5693C6.87256 6.5632 6.87822 6.55696 6.88372 6.55057C6.8899 6.54388 6.89588 6.53701 6.90166 6.52998C6.94409 6.47756 6.97492 6.41688 6.99216 6.35188C7.00941 6.28689 7.01267 6.21902 7.00175 6.15269V5.6331ZM7.48518 9.98267C7.75715 10.3107 8.13006 10.5453 8.56817 10.5453H9.38019C9.54233 10.5453 9.66698 10.44 9.81829 10.3993L9.434 11.8626C9.42381 11.902 9.41874 11.9426 9.4189 11.9833V13.3539C9.4189 13.8339 9.59765 14.4128 9.73804 14.8874C9.94839 15.5982 10.4103 16.2894 9.91932 18.0892C9.90809 18.1301 9.90238 18.1723 9.90233 18.2147V22.0493C9.90234 22.1764 9.95328 22.2984 10.0439 22.3882C10.1346 22.4781 10.2575 22.5286 10.3858 22.5287C10.8692 22.5287 11.322 22.5447 11.5622 22.6241C11.6824 22.6639 11.7392 22.706 11.7718 22.7477C11.8045 22.7894 11.836 22.8482 11.836 23.008C11.836 23.0316 11.8375 23.0113 11.836 23.0267C11.7648 23.0231 11.6131 23.008 11.3526 23.008H8.96191C8.91059 23.008 8.93547 23.0287 8.93547 23.008V21.57V19.8446V18.3972C8.9354 18.3273 8.91994 18.2583 8.89015 18.195C8.84695 18.1028 8.82146 18.0131 8.81272 17.9207C8.81075 17.8989 8.80728 17.8774 8.80234 17.8561L7.95633 14.2705C7.9318 14.1648 7.87184 14.0705 7.78627 14.0029C7.70069 13.9354 7.59455 13.8986 7.48518 13.8986C7.3758 13.8986 7.26966 13.9354 7.18409 14.0029C7.09851 14.0705 7.03856 14.1648 7.01402 14.2705L6.16802 17.8561C6.16308 17.8774 6.15961 17.8989 6.15763 17.9207C6.1489 18.0131 6.1234 18.1028 6.08021 18.195C6.05042 18.2583 6.03495 18.3273 6.03489 18.3972V19.8446V21.57C6.03489 21.57 6.03281 22.5421 6.00751 22.9424C6.00509 22.9811 5.9927 22.9999 5.98768 23.008H3.61774C3.35727 23.008 3.20555 23.0231 3.13431 23.0267C3.13286 23.0113 3.13431 23.0316 3.13431 23.008C3.13431 22.8718 3.15811 22.843 3.20229 22.7983C3.24647 22.7536 3.34321 22.6979 3.4931 22.656C3.79289 22.5721 4.24721 22.5638 4.63275 22.5258C4.75195 22.514 4.86248 22.4587 4.9429 22.3707C5.02332 22.2826 5.06791 22.1681 5.06803 22.0493V18.2147C5.06805 18.1784 5.06393 18.1423 5.05575 18.107C4.84637 17.2024 4.85532 16.5333 4.9264 16.0343C4.99742 15.5356 5.12768 15.2267 5.2106 14.9445V14.9436C5.28226 14.6999 5.36376 14.4069 5.42966 14.1328C5.49562 13.8585 5.55146 13.6293 5.55146 13.3876V11.9833C5.55162 11.9426 5.54654 11.902 5.53635 11.8626L5.15206 10.3993C5.30348 10.44 5.4279 10.5453 5.59017 10.5453H6.40218C6.84048 10.5453 7.21332 10.3106 7.48518 9.98267Z" fill="#212121"/>
</svg>
