<svg width="81" height="111" viewBox="0 0 81 111" fill="none" xmlns="http://www.w3.org/2000/svg">
<path d="M54.3527 104.363H0.142179C0.0636762 104.363 0 104.267 0 104.148C0 104.029 0.0636762 103.933 0.142179 103.933H54.3527C54.4312 103.933 54.4948 104.029 54.4948 104.148C54.4948 104.267 54.4314 104.363 54.3527 104.363Z" fill="#F2F2F2"/>
<path d="M15.1997 31.2583C15.2766 31.2817 15.3593 31.2778 15.4336 31.2471C15.5079 31.2164 15.5693 31.1609 15.6072 31.09C15.9343 30.5738 15.3316 29.9081 15.4622 29.3108C15.5669 28.8324 16.1105 28.5476 16.2217 28.0711C16.3308 27.6075 15.9969 27.085 16.2217 26.6657C16.3979 26.3371 16.8382 26.2514 17.2067 26.3083C17.5753 26.3652 17.9248 26.5279 18.297 26.5506C18.7929 26.5809 19.2657 26.3624 19.7507 26.2542C20.2356 26.1461 20.8272 26.1888 21.1125 26.5953C21.4788 27.1186 21.1072 27.845 21.2348 28.4706C21.336 28.9669 21.7516 29.378 21.7605 29.8845C21.7638 30.0647 21.2904 29.9196 21.3157 30.0978C21.341 30.276 21.1173 30.1196 21.2959 30.0978C21.3689 30.0799 21.4343 30.0392 21.4827 29.9817C21.5311 29.9241 21.5599 29.8527 21.5649 29.7777C21.5868 29.6292 21.8652 29.5797 21.8622 29.4288C21.8545 29.0773 22.4902 29.3143 22.5948 28.9787C22.8355 28.1962 22.7861 27.3532 22.4557 26.6042C22.2855 26.2983 22.1495 25.9744 22.0503 25.6386C21.957 25.1726 22.1038 24.6722 21.9498 24.2225C21.7422 23.6165 21.0558 23.3067 20.4181 23.2447C19.7805 23.1828 19.1329 23.2942 18.4992 23.2011C17.9322 23.1183 17.3816 22.8721 16.809 22.9078C16.1216 22.9514 15.5237 23.3934 15.0475 23.8906C14.5712 24.3878 14.1669 24.9591 13.6259 25.3855C13.4603 25.4995 13.3075 25.6311 13.1702 25.778C13.0463 25.9569 12.962 26.1602 12.9229 26.3743C12.8838 26.5884 12.8907 26.8084 12.9434 27.0196C13.0201 27.4472 13.1867 27.855 13.2572 28.2844C13.3226 28.6871 13.303 29.0988 13.3315 29.5055C13.3382 29.9163 13.4625 30.3165 13.6898 30.6587C13.788 30.792 13.9154 30.9011 14.0621 30.9778C14.2089 31.0545 14.3712 31.0966 14.5368 31.1011C14.6515 31.1037 14.7483 31.0008 14.8639 31.0276C15.0082 31.0621 15.0712 31.1995 15.1997 31.2583Z" fill="#2F2E41"/>
<path d="M10.2944 60.8529L10.7194 63.4639L11.5699 62.3102L11.084 60.5493L10.2944 60.8529Z" fill="#9F616A"/>
<path d="M10.8412 41.1183L10.172 42.882C10.172 42.882 9.50537 51.8662 9.50537 52.5339C9.50537 53.2016 9.99121 61.7636 10.1733 62.1287C10.1733 62.1287 10.9627 60.9749 11.995 61.1572C13.0273 61.3395 12.6023 58.1211 12.6023 58.1211L13.5738 50.1666L13.3917 46.159L10.8412 41.1183Z" fill="#ECFB6D"/>
<path opacity="0.1" d="M10.8412 41.1183L10.172 42.882C10.172 42.882 9.50537 51.8662 9.50537 52.5339C9.50537 53.2016 9.99121 61.7636 10.1733 62.1287C10.1733 62.1287 10.9627 60.9749 11.995 61.1572C13.0273 61.3395 12.6023 58.1211 12.6023 58.1211L13.5738 50.1666L13.3917 46.159L10.8412 41.1183Z" fill="#090814"/>
<path d="M14.9697 31.4031C14.9697 31.4031 16.9735 36.5038 15.8202 37.4753C14.6668 38.4468 22.2567 35.8359 22.2567 35.8359L22.0747 35.168C22.0747 35.168 19.585 34.1965 20.7994 31.4033C22.0138 28.6102 14.9697 31.4031 14.9697 31.4031Z" fill="#9F616A"/>
<path opacity="0.1" d="M14.9697 31.4031C14.9697 31.4031 16.9735 36.5038 15.8202 37.4753C14.6668 38.4468 22.2567 35.8359 22.2567 35.8359L22.0747 35.168C22.0747 35.168 19.585 34.1965 20.7994 31.4033C22.0138 28.6102 14.9697 31.4031 14.9697 31.4031Z" fill="black"/>
<path d="M11.8128 99.5325C11.8128 99.5325 10.9624 99.2896 10.477 99.8969C9.99159 100.504 8.16967 102.022 8.16967 102.022C8.16967 102.022 4.64773 101.658 4.16211 103.418C3.67648 105.178 9.68783 105.179 11.1451 104.754C12.6025 104.329 12.906 104.754 12.906 104.754C12.906 104.754 17.3994 105.118 17.3994 104.389C17.3994 103.66 16.9744 101.171 16.9744 101.171L11.8128 99.5325Z" fill="#090814"/>
<path d="M26.0827 103.601L25.2933 106.03C25.2933 106.03 22.9252 109.309 24.261 109.977C25.5969 110.644 30.3332 111.312 30.3332 109.552V106.212C30.3332 106.212 29.8474 103.844 29.3617 103.601C28.8761 103.358 26.0827 103.601 26.0827 103.601Z" fill="#090814"/>
<path d="M12.6729 59.9642C12.6729 59.9642 10.1128 62.1885 10.1734 62.4922C10.234 62.796 11.4486 82.2876 11.4486 82.2876L12.1166 94.9176C12.1166 94.9176 11.2661 97.8928 11.6916 98.5607C12.117 99.2287 11.0843 99.4112 11.0843 99.4112C11.0843 99.4112 15.4562 103.358 17.2773 101.657L18.9781 79.6152L23.6541 95.6463C23.6541 95.6463 24.4435 104.147 25.355 104.147C26.2665 104.147 29.9698 104.329 29.909 103.844C29.8482 103.358 30.0911 99.6539 29.6661 97.468C29.2411 95.2822 26.3871 77.9765 26.3871 77.9765C26.3871 77.9765 26.1417 63.1405 26.7796 61.7539C27.4174 60.3672 26.4468 58.9099 26.4468 58.9099L22.1963 57.2705L17.0956 57.8778L12.6729 59.9642Z" fill="#090814"/>
<path d="M17.8242 24.9664C18.6649 24.9664 19.4867 25.2157 20.1857 25.6828C20.8846 26.1498 21.4294 26.8137 21.7512 27.5903C22.0729 28.367 22.157 29.2216 21.993 30.0461C21.829 30.8707 21.4242 31.628 20.8298 32.2225C20.2353 32.8169 19.478 33.2217 18.6534 33.3857C17.8289 33.5497 16.9743 33.4656 16.1976 33.1439C15.421 32.8221 14.7571 32.2773 14.2901 31.5784C13.823 30.8794 13.5737 30.0576 13.5737 29.2169C13.5737 28.0896 14.0215 27.0085 14.8187 26.2114C15.6158 25.4142 16.6969 24.9664 17.8242 24.9664Z" fill="#9F616A"/>
<path d="M28.1468 38.3859C27.9368 37.7918 27.5829 37.259 27.1167 36.8352C26.6504 36.4113 26.0864 36.1096 25.4751 35.9571C24.2503 35.649 23.0522 35.2429 21.8925 34.7427C21.8925 34.7427 17.5812 36.8073 16.7312 36.8073C15.8812 36.8073 15.8807 36.2608 15.8807 36.2608C15.8807 36.2608 13.6949 38.5682 12.5411 38.8122C11.3873 39.0562 9.6871 41.9087 10.2951 43.4877C10.7075 44.4998 11.3046 45.4265 12.0559 46.2202C12.0559 46.2202 11.813 54.7212 12.6024 56.2999C12.6024 56.2999 10.6592 60.004 12.4809 60.2469C14.3026 60.4898 21.2856 59.6396 22.5 60.4898C23.7144 61.34 25.9611 60.3077 26.2647 61.4613C26.5682 62.6148 27.2361 62.8569 27.2361 62.8569C27.2361 62.8569 28.2685 61.2175 27.6612 60.2458C27.0539 59.2741 28.1468 38.3859 28.1468 38.3859Z" fill="#ECFB6D"/>
<path d="M23.6538 61.2173L22.6821 61.8246C22.6821 61.8246 23.7144 65.4071 24.1394 65.5286C24.5644 65.6501 25.5649 62.4653 25.5649 62.4653L23.6538 61.2173Z" fill="#9F616A"/>
<path d="M14.4708 30.8334C14.5477 30.8566 14.6302 30.8525 14.7045 30.8218C14.7788 30.7911 14.8401 30.7358 14.8783 30.6651C15.2054 30.1489 14.6027 29.4832 14.7333 28.8859C14.838 28.4075 15.3816 28.1227 15.4928 27.6462C15.6018 27.1826 15.268 26.6601 15.4928 26.2408C15.669 25.9122 16.1093 25.8265 16.4778 25.8834C16.8463 25.9403 17.1959 26.103 17.5681 26.1256C18.064 26.156 18.5368 25.9375 19.0217 25.8293C19.5067 25.7211 20.0983 25.7639 20.3835 26.1703C20.7499 26.6937 20.3783 27.4201 20.5059 28.0457C20.6073 28.542 21.761 28.8905 21.8657 28.5549C22.1064 27.7724 22.057 26.9294 21.7266 26.1804C21.5563 25.8744 21.4204 25.5506 21.3212 25.2148C21.2279 24.7488 21.3746 24.2483 21.2207 23.7987C21.0131 23.1927 20.3266 22.8828 19.689 22.8209C19.0514 22.759 18.4037 22.8704 17.77 22.7773C17.2031 22.6944 16.6525 22.4482 16.0798 22.484C15.3925 22.5276 14.7946 22.9696 14.3181 23.4668C13.8416 23.964 13.4376 24.5353 12.8966 24.9616C12.7309 25.0756 12.5781 25.2072 12.4408 25.3541C12.3168 25.533 12.2323 25.7363 12.1931 25.9504C12.1538 26.1645 12.1607 26.3845 12.2131 26.5958C12.2899 27.0234 12.4567 27.4312 12.5272 27.8606C12.5926 28.2633 12.573 28.675 12.6015 29.0817C12.6082 29.4924 12.7325 29.8926 12.9598 30.2348C13.058 30.3681 13.1853 30.4773 13.332 30.5539C13.4788 30.6306 13.641 30.6728 13.8065 30.6773C13.9212 30.6799 14.0181 30.577 14.1336 30.6038C14.2793 30.6372 14.3423 30.7745 14.4708 30.8334Z" fill="#090814"/>
<path opacity="0.1" d="M25.7487 39.4485L27.7222 38.3859C27.7222 38.3859 32.5195 49.8015 31.3655 52.959C30.2116 56.1166 25.7792 62.6138 25.7792 62.6138C25.7792 62.6138 22.2573 61.8852 22.6217 61.1564C22.986 60.4277 25.3542 55.7522 25.5363 55.1451C25.7184 54.538 26.9319 50.5911 26.3867 50.1658C25.8416 49.7406 24.7776 39.8733 24.7776 39.8733L25.7487 39.4485Z" fill="black"/>
<path d="M25.7182 37.7179L28.147 38.3858C28.147 38.3858 32.9444 49.8014 31.7904 52.959C30.6364 56.1165 26.204 62.6137 26.204 62.6137C26.204 62.6137 22.6821 61.8852 23.0465 61.1564C23.4108 60.4276 25.779 55.7521 25.9611 55.1451C26.1432 54.538 27.3567 50.591 26.8115 50.1658C26.2664 49.7406 23.654 39.2358 23.654 39.2358L25.7182 37.7179Z" fill="#ECFB6D"/>
<path d="M43.3247 16.7079C43.3247 12.2854 49.8095 8.70044 57.8087 8.70044C65.8079 8.70044 72.2926 12.2856 72.2926 16.7079" stroke="#3F3D56" stroke-width="2" stroke-miterlimit="10"/>
<path d="M62.3625 11.7835H50.579C48.2484 7.85558 48.2484 3.92775 50.579 0H62.3625C59.1038 3.9279 59.1038 7.85572 62.3625 11.7835Z" fill="#E6E6E6"/>
<path d="M58.9027 1.40283H52.2627V2.24456H58.9027V1.40283Z" fill="#ECFB6D"/>
<path d="M72.2926 16.7078C72.2926 21.3444 65.8079 25.1032 57.8087 25.1032C49.8095 25.1032 43.3247 21.3444 43.3247 16.7078" stroke="#3F3D56" stroke-width="2" stroke-miterlimit="10"/>
<path d="M69.6583 25.2225C66.4207 26.9686 62.1964 28.0253 57.5752 28.0253C53.1446 28.0253 49.0786 27.054 45.8975 25.4349" stroke="#3F3D56" stroke-width="2" stroke-miterlimit="10"/>
<path d="M65.042 6.53271C71.2034 8.15227 75.5915 11.7143 75.9994 15.9094" stroke="#3F3D56" stroke-width="2" stroke-miterlimit="10"/>
<path d="M40.0088 13.183C41.047 11.2749 42.9435 9.5956 45.4283 8.30554" stroke="#3F3D56" stroke-width="2" stroke-miterlimit="10"/>
<path d="M52.7466 33.6081H64.5301C66.8607 29.6802 66.8607 25.7523 64.5301 21.8246H52.7466C56.0053 25.7525 56.0053 29.6803 52.7466 33.6081Z" fill="#E6E6E6"/>
<path d="M63.2855 24.0691H56.6455V24.9108H63.2855V24.0691Z" fill="#ECFB6D"/>
<path d="M47.7512 25.6101H35.9677C33.6371 21.6822 33.6371 17.7544 35.9677 13.8267H47.7512C44.4925 17.7544 44.4925 21.6822 47.7512 25.6101Z" fill="#E6E6E6"/>
<path d="M43.9169 15.2295H37.2769V16.0712H43.9169V15.2295Z" fill="#ECFB6D"/>
<path d="M67.0161 20.1824H78.7996C81.1302 16.2545 81.1302 12.3267 78.7996 8.39893H67.0161C70.2744 12.3267 70.2744 16.2545 67.0161 20.1824Z" fill="#E6E6E6"/>
<path d="M77.4144 9.56775H70.7744V10.4095H77.4144V9.56775Z" fill="#ECFB6D"/>
</svg>
