<svg width="343" height="175" viewBox="0 0 343 175" fill="none" xmlns="http://www.w3.org/2000/svg">
<g clip-path="url(#clip0_490_6250)">
<path d="M327.775 96.7497L326.701 105.29L324.034 126.501H270.463C270.881 121.747 271.453 114.904 272.064 107.517C272.124 106.779 272.187 106.037 272.247 105.29C273.779 86.7203 275.456 65.7069 275.456 65.7069L282.499 67.0165L296.163 69.5527L301.731 70.5856L316.642 73.3569C324.076 74.7357 329.19 85.4799 327.775 96.7497Z" fill="#F2F2F2"/>
<path d="M287.253 31.3442L293.841 42.8513L281.179 51.8082L275.778 37.6638L287.253 31.3442Z" fill="#FFB6B6"/>
<path d="M278.866 42.2304C287.88 42.2304 295.187 34.937 295.187 25.9401C295.187 16.9432 287.88 9.64976 278.866 9.64976C269.853 9.64976 262.546 16.9432 262.546 25.9401C262.546 34.937 269.853 42.2304 278.866 42.2304Z" fill="#FFB6B6"/>
<path d="M277.695 29.5819C276.399 27.6133 276.907 26.5836 275.822 25.8601C275.822 25.8601 275.386 25.569 272.261 25.403C271.562 20.3774 270.689 19.768 270.689 19.768C269.682 19.0655 268.188 19.2938 267.259 19.7234C265.294 20.632 265.522 22.5946 264.199 22.9702C262.371 23.489 259.045 20.5642 258.717 17.2159C258.45 14.4846 260.213 11.8318 260.912 11.9721C261.606 12.1113 263.265 9.99608 264.162 10.0287C264.774 10.051 267.275 8.96602 267.947 9.05084C268.682 9.1435 271.104 10.4053 271.205 10.117C271.907 8.11371 271.701 7.55787 272.296 6.98477C273.351 5.96923 275.076 6.67643 277.783 7.05609C283.352 7.83725 284.324 6.00429 287.178 7.24668C288.62 7.87428 289.826 9.56684 292.18 12.9263C295.472 17.6245 297.118 19.9736 297.129 22.7135C297.14 25.5077 295.784 25.3304 295.189 29.4669C294.526 34.0716 295.934 36.1772 294.396 37.6731C293.206 38.8294 290.79 39.1038 289.52 38.0891C287.346 36.3518 290.191 32.1596 287.785 29.0968C286.308 27.2168 283.338 26.3802 281.977 27.3096C280.439 28.3604 281.286 31.4446 280.205 31.7371C279.278 31.9876 277.92 29.925 277.695 29.5819Z" fill="#2F2E41"/>
<path d="M315.712 93.7421C315.257 101.511 313.449 103.964 312.816 113.139C312.677 115.154 312.594 117.492 312.594 120.28C312.594 120.991 312.598 121.679 312.598 122.35C312.598 123.78 312.571 125.131 312.404 126.501C312.278 127.595 312.06 128.697 311.7 129.858H276.55C276.546 129.851 276.546 129.843 276.542 129.835C276.336 128.942 276.205 128.089 276.106 127.271C276.075 127.011 276.047 126.754 276.023 126.501C275.992 126.205 275.964 125.913 275.936 125.624C275.829 124.475 275.723 123.389 275.469 122.35C275.129 120.916 274.512 119.565 273.245 118.262C272.727 117.729 272.209 117.314 271.702 116.951C271.603 116.884 271.508 116.816 271.409 116.749C270.009 115.789 268.683 115.098 267.535 113.139C267.516 113.112 267.5 113.08 267.484 113.052C267.286 112.709 266.772 111.808 266.4 110.608C266.008 109.359 265.771 107.791 266.198 106.188C267.215 102.388 270.982 102.009 274.061 98.1697C274.393 97.7551 274.721 97.2968 275.034 96.7873C276.427 94.528 276.803 92.5375 277.246 90.1715C277.317 89.7883 277.381 89.4091 277.432 89.0419C277.472 88.7654 277.507 88.4929 277.535 88.2242C277.78 85.9689 277.661 84.0257 277.373 82.2878C276.431 76.5962 273.653 73.0731 275.616 67.966C276.233 66.3626 277.108 65.1578 277.99 64.127C279.858 61.9427 281.777 60.5248 281.445 57.7048C281.108 54.8609 278.947 54.4698 278.706 51.9854C278.583 50.7295 278.995 49.4063 279.767 48.1068V48.103C282.236 43.9201 288.401 40.0691 292.318 40.1915C293.042 40.2114 293.684 40.3732 294.218 40.6853C296.153 41.8227 295.346 44.3071 298.31 47.7909C300.513 50.3779 303.006 51.4128 303.952 51.9025C307.699 53.8538 310.746 59.6085 312.816 66.9668C312.832 67.0222 312.847 67.0773 312.863 67.1367C314.142 71.746 315.044 76.9794 315.491 82.2878C315.681 84.5352 315.792 86.7946 315.815 89.03C315.835 90.8153 315.795 92.3637 315.712 93.7421Z" fill="#ECFB6D"/>
<path d="M289.39 120.359L288.674 122.35L288.223 123.598L287.178 126.501L285.967 129.858H278.184L279.49 126.501L280.095 124.937L281.1 122.35L282.786 118.005L289.39 120.359Z" fill="#FFB6B6"/>
<path d="M312.939 66.2874C312.919 66.5443 312.891 66.8285 312.863 67.1367C312.555 70.2728 311.826 75.8854 310.762 82.2879C310.2 85.6648 309.543 89.2632 308.803 92.8376C307.213 100.551 305.234 108.147 302.998 113.139C302.599 114.04 302.187 114.854 301.768 115.572C301.447 116.121 301.111 116.662 300.759 117.196C299.619 118.945 298.341 120.604 297.015 122.153C296.964 122.22 296.904 122.283 296.845 122.35C296.632 122.603 296.41 122.852 296.188 123.101C295.104 124.321 293.996 125.458 292.924 126.501C291.618 127.773 290.359 128.899 289.232 129.858H276.593L276.542 129.835L274.721 129.029C274.721 129.029 275.24 128.421 276.106 127.271C276.285 127.038 276.474 126.782 276.68 126.501C276.933 126.157 277.207 125.778 277.499 125.368C278.108 124.507 278.801 123.495 279.545 122.35C280.985 120.134 282.627 117.409 284.286 114.253C284.476 113.886 284.669 113.514 284.863 113.139C284.867 113.127 284.875 113.115 284.879 113.104C285.208 112.464 285.532 111.804 285.856 111.133C288.607 105.421 289.394 100.682 289.62 99.1454C289.936 96.973 290.375 93.9355 290.257 90.5941C290.177 88.3903 289.857 86.0598 289.094 83.7453V83.7414C288.935 83.2556 288.757 82.7698 288.555 82.2879C288.195 81.4229 287.768 80.5697 287.261 79.7284C285.026 76.0236 283.209 75.8695 281.765 71.8328C281.337 70.6361 280.368 67.9346 280.665 65.0828V65.0789C280.701 64.7273 280.76 64.3719 280.839 64.0163V64.0124C280.859 63.9137 280.887 63.8111 280.914 63.7123C281.14 62.8395 281.512 61.9743 282.078 61.1527C283.182 59.5572 284.689 58.6091 286.038 58.0444L286.043 58.0404C287.602 57.3928 288.947 57.2545 289.208 57.2308C294.989 56.7174 299.473 61.5676 301.922 64.2178C302.868 65.2407 303.735 66.098 304.526 66.7969C310.687 72.2872 312.377 68.7797 312.816 66.9668C312.883 66.6864 312.919 66.4455 312.939 66.2874Z" fill="#ECFB6D"/>
<path d="M312.958 66.0822C312.958 66.1019 312.954 66.169 312.938 66.2797C312.946 66.2203 312.95 66.1611 312.954 66.1057C312.954 66.0939 312.954 66.086 312.958 66.0822Z" fill="#ECFB6D"/>
<path d="M281.532 149.425H69.4146C67.4438 149.425 65.8374 151.025 65.8374 152.992C65.8374 154.963 67.4438 156.563 69.4146 156.563H281.532C283.502 156.563 285.105 154.963 285.105 152.992C285.105 151.025 283.502 149.425 281.532 149.425Z" fill="#E6E6E6"/>
<path d="M234.458 167.863H116.483C114.513 167.863 112.91 169.462 112.91 171.429C112.91 173.396 114.513 175 116.483 175H234.458C236.429 175 238.036 173.396 238.036 171.429C238.036 169.462 236.429 167.863 234.458 167.863Z" fill="#E6E6E6"/>
<path d="M93.0181 32.1014L106.386 26.4858L112.12 38.2186L98.0722 43.942L93.0181 32.1014Z" fill="#FFB6B6"/>
<path opacity="0.1" d="M93.0181 32.1014L106.386 26.4858L112.12 38.2186L98.0722 43.942L93.0181 32.1014Z" fill="black"/>
<path d="M94.9181 27.6304L108.106 42.7973C108.106 42.7973 98.9319 71.7002 89.7576 74.2757C80.5833 76.8512 63.6682 89.4426 63.6682 89.4426L42.4526 75.7066L52.7737 60.5397C52.7737 60.5397 77.7163 26.4858 84.3103 26.4858C90.9044 26.4858 94.9181 27.6304 94.9181 27.6304Z" fill="#ECFB6D"/>
<path d="M77.1002 126.501H46.4007L44.4598 123.911L36.5355 113.338L34.7121 110.905C34.7121 110.905 27.8313 98.3138 29.2648 86.8671C30.6983 75.4204 45.6065 72.8449 45.6065 72.8449H46.2201L64.4712 88.8531L63.3817 103.751L69.1615 113.338L77.1002 126.501Z" fill="#2F2E41"/>
<path d="M52.6877 126.501H44.4595V114.339L52.6877 126.501Z" fill="#2F2E41"/>
<path d="M230.159 108.038L229.135 113.338L226.595 126.501H175.566C175.964 123.551 176.509 119.304 177.091 114.72C177.148 114.262 177.209 113.801 177.266 113.338C178.725 101.814 180.322 88.7729 180.322 88.7729L187.031 89.5857L200.047 91.1596L205.351 91.8006L219.554 93.5205C226.635 94.3761 231.506 101.044 230.159 108.038Z" fill="#F2F2F2"/>
<path d="M302.375 126.501H274.697C275.119 126.006 275.357 125.72 275.357 125.72L283.654 124.352L300.749 121.536C300.749 121.536 301.529 123.548 302.375 126.501Z" fill="#2F2E41"/>
<path d="M184.974 37.8251L197.01 54.8161L176.014 55.442L173.761 39.4744L184.974 37.8251Z" fill="#A0616A"/>
<path opacity="0.1" d="M184.974 37.8251L197.01 54.8161L176.014 55.442L173.761 39.4744L184.974 37.8251Z" fill="black"/>
<path d="M125.615 73.0292C124.07 68.5821 120.52 65.7728 117.684 66.7544C114.849 67.7359 113.803 72.136 115.349 76.5845C115.942 78.3699 116.955 79.9876 118.302 81.3023L125.085 100.062L133.837 96.6977L126.221 78.561C126.465 76.6951 126.257 74.7983 125.615 73.0292Z" fill="#A0616A"/>
<path d="M207.091 64.3715L207.074 81.6875L205.46 88.0833L202.14 101.238L199.723 113.338L197.923 122.352L197.281 125.571C196.796 125.895 196.314 126.204 195.833 126.501H153.898C151.515 125.073 150.182 123.963 150.182 123.963C150.182 123.963 150.842 123.345 151.596 122.352C152.868 120.675 154.408 117.928 153.465 115.304C153.267 114.754 153.215 114.085 153.276 113.338C153.66 108.41 158.837 100.077 158.837 100.077L157.765 87.7084L157.295 82.2884L160.61 55.8607L171.416 49.5908L173.281 49.4106L191.696 48.4176L199.307 48.8555L199.654 48.9499L207.091 64.3715Z" fill="#CCCCCC"/>
<path d="M207.908 126.501H198.734L198.33 122.352L198.321 122.269L200.919 122.091L207.676 121.631L207.794 124.115L207.886 126.021L207.908 126.501Z" fill="#FFB6B6"/>
<path d="M210.167 68.5581L214.021 91.1281L210.876 113.338L210.386 116.795L209.52 122.898L209.253 124.776L209.262 124.979L209.328 126.501H198.433L198.032 122.352L197.997 121.98L197.177 113.481L197.163 113.338L195.423 95.3148L198.835 82.2884L199.087 81.3297V81.3269L200.571 59.023L199.422 48.887L199.41 48.7925C199.433 48.8068 199.453 48.8211 199.476 48.8354C199.536 48.8726 199.596 48.9098 199.654 48.9499C206.351 53.1909 210.342 60.6313 210.167 68.5581Z" fill="#CCCCCC"/>
<path d="M164.513 60.1856L160.323 55.8604C160.323 55.8604 151.355 59.8961 150.908 62.135C150.461 64.374 134.626 97.2583 134.626 97.2583L127.737 78.8925L118.77 84.8686C118.77 84.8686 125.965 113.382 132.694 114.721C139.424 116.06 161.977 80.9721 161.977 80.9721L164.513 60.1856Z" fill="#CCCCCC"/>
<path d="M334.623 113.139H8.37315C3.75532 113.139 0 116.891 0 121.501C0 126.11 3.75532 129.858 8.37315 129.858H334.623C339.241 129.858 343 126.11 343 121.501C343 116.891 339.241 113.139 334.623 113.139Z" fill="#E6E6E6"/>
<path d="M205.181 87.6603L204.547 117.205C204.485 120.065 202.145 122.352 199.279 122.352H144.829C142.031 122.352 139.721 120.169 139.568 117.38L137.95 87.8348C137.785 84.8218 140.188 82.2884 143.211 82.2884H199.913C202.867 82.2884 205.244 84.7123 205.181 87.6603Z" fill="#3F3D56"/>
<path d="M117.281 39.2333C124.475 39.2333 130.308 33.4115 130.308 26.23C130.308 19.0485 124.475 13.2268 117.281 13.2268C110.086 13.2268 104.253 19.0485 104.253 26.23C104.253 33.4115 110.086 39.2333 117.281 39.2333Z" fill="#FFB6B6"/>
<path d="M95.4916 60.2535L96.9251 75.7066L106.673 114.912L98.2514 117.858L84.0237 75.1342L82.0586 57.9642L95.4916 60.2535Z" fill="#FFB6B6"/>
<path d="M91.6142 87.6603L90.9799 117.205C90.9185 120.065 88.5781 122.352 85.7121 122.352H31.2623C28.4641 122.352 26.1539 120.169 26.0012 117.38L24.383 87.8348C24.218 84.8218 26.6211 82.2884 29.6441 82.2884H86.3464C89.3006 82.2884 91.6774 84.7123 91.6142 87.6603Z" fill="#3F3D56"/>
<path d="M108.225 122.552C113.907 122.552 118.513 120.518 118.513 118.009C118.513 115.501 113.907 113.467 108.225 113.467C102.543 113.467 97.9365 115.501 97.9365 118.009C97.9365 120.518 102.543 122.552 108.225 122.552Z" fill="#FFB6B6"/>
<path d="M75.2798 62.6161L81.1571 31.3506C81.1571 31.3506 97.4988 29.0613 98.0722 34.4984C98.6455 39.9356 97.6624 66.5079 97.6624 66.5079L75.2798 62.6161Z" fill="#ECFB6D"/>
<path d="M112.022 28.2746C112.022 28.2746 120.081 25.4037 123.48 23.8591C126.879 22.3145 133.632 33.0882 133.783 27.3982C133.933 21.7083 131.599 19.3221 131.599 19.3221C131.599 19.3221 131.017 6.87453 118.453 8.43078C118.453 8.43078 121.216 2.20309 112.145 1.2401C103.074 0.277099 88.9609 22.1425 90.2248 25.4101C91.4887 28.6778 93.0038 31.3793 89.418 34.8732C85.8322 38.367 79.1177 58.0855 84.2264 63.3915C89.3351 68.6976 89.6703 71.0001 86.1701 74.3012C82.6698 77.6022 74.3962 84.78 83.3419 86.026C92.2876 87.2721 82.5235 86.3414 89.1926 80.486C95.8617 74.6306 105.594 74.8698 101.96 65.4752C98.3261 56.0807 104.639 42.6184 103.849 40.5761C103.059 38.5338 105.619 25.5652 105.619 25.5652C105.619 25.5652 111.576 24.6915 112.022 28.2746Z" fill="#2F2E41"/>
<path d="M178.538 43.975C186.37 43.975 192.719 37.6376 192.719 29.82C192.719 22.0025 186.37 15.6651 178.538 15.6651C170.706 15.6651 164.357 22.0025 164.357 29.82C164.357 37.6376 170.706 43.975 178.538 43.975Z" fill="#A0616A"/>
<path d="M179.67 10.7897C179.26 11.0288 178.71 10.667 178.578 10.2113C178.447 9.75557 178.6 9.27172 178.752 8.82238L179.517 6.5603C180.06 4.95598 180.636 3.29561 181.811 2.07452C183.585 0.231475 186.404 -0.237386 188.942 0.102288C192.201 0.538497 195.416 2.29994 196.932 5.21272C198.447 8.1255 197.802 12.1899 195.064 14.0071C198.966 18.4717 200.326 23.4473 200.112 29.3683C199.897 35.2893 193.432 40.7386 189.217 44.9097C188.275 44.3401 187.419 41.6706 187.937 40.7008C188.455 39.731 187.713 38.6075 188.354 37.7142C188.995 36.8209 189.532 38.2433 188.884 37.3551C188.475 36.7946 190.071 35.5052 189.463 35.1698C186.522 33.5472 185.544 29.8885 183.697 27.0868C181.469 23.7073 177.657 21.4187 173.622 21.0391C171.399 20.8299 169.051 21.2087 167.229 22.4968C165.407 23.7848 164.228 26.0865 164.65 28.2747C163.556 27.1658 163.012 25.5407 163.217 23.9978C163.422 22.455 164.373 21.0283 165.72 20.2431C164.901 17.5409 165.602 14.4326 167.503 12.3416C169.403 10.2505 177.11 10.6067 179.884 11.157L179.67 10.7897Z" fill="#2F2E41"/>
<path d="M180.101 21.1211C183.775 21.517 186.427 24.6937 188.667 27.6273C189.959 29.3182 191.311 31.1855 191.279 33.3113C191.246 35.4605 189.806 37.3039 189.118 39.3407C187.994 42.6699 189.09 46.6309 191.767 48.9121C189.121 49.4131 186.262 47.4334 185.805 44.7849C185.274 41.7017 187.615 38.726 187.338 35.6097C187.094 32.8643 184.926 30.7514 183.083 28.6986C181.241 26.6458 179.51 23.9219 180.358 21.2987L180.101 21.1211Z" fill="#2F2E41"/>
<path d="M235.027 114.928C231.388 116.994 229.506 120.543 230.824 122.855C232.142 125.166 236.159 125.365 239.799 123.298C241.265 122.492 242.516 121.347 243.447 119.96L258.756 111.011L254.396 103.93L239.767 113.504C238.096 113.594 236.471 114.082 235.027 114.928Z" fill="#FFB6B6"/>
<path d="M286.859 49.3088C286.402 49.1279 282.388 47.6105 278.723 49.6138C274.514 51.9151 273.863 57.1683 273.635 59.0108C273.109 63.267 274.66 64.221 274.988 68.5299C275.601 76.5914 277.217 67.3948 274.636 71.0745C273.743 72.3482 264.618 92.0863 259.586 95.9525C249.799 103.472 243.584 108.767 243.584 108.767L250.679 116.46C250.679 116.46 261.89 113.478 271.8 107.056C281.965 100.468 287.047 97.1736 290.98 90.7295C291.318 90.1746 299.42 76.441 295.069 61.2549C294.077 57.791 292.258 51.4443 286.859 49.3088Z" fill="#ECFB6D"/>
<path d="M323.496 87.6603L322.862 117.205C322.801 120.065 320.46 122.352 317.594 122.352H263.145C260.346 122.352 258.036 120.169 257.883 117.38L256.265 87.8348C256.1 84.8218 258.503 82.2884 261.526 82.2884H318.229C321.183 82.2884 323.56 84.7123 323.496 87.6603Z" fill="#3F3D56"/>
</g>
<defs>
<clipPath id="clip0_490_6250">
<rect width="343" height="175" fill="white"/>
</clipPath>
</defs>
</svg>
