<svg width="253" height="205" viewBox="0 0 253 205" fill="none" xmlns="http://www.w3.org/2000/svg">
<g clip-path="url(#clip0_614_4611)">
<path opacity="0.1" d="M252.627 118.408C251.721 110.273 249.083 102.578 245.644 95.7026C237.883 80.1666 226.12 68.5753 213.406 60.2724C213.283 60.1907 213.15 60.1141 213.035 60.0349C214.439 58.3714 215.443 56.4079 215.969 54.2954C219.88 38.2693 193.501 18.0687 157.068 9.18115C127.829 2.05784 100.995 4.37611 89.511 13.8534C62.7233 12.1683 34.7765 28.6515 16.2048 54.0401C9.56658 63.1268 3.94964 73.8603 1.48584 85.9954C-1.51157 100.691 0.280751 116.508 4.4858 130.691C7.72576 141.613 12.4593 151.846 18.4107 160.611C18.8345 161.234 19.2643 161.851 19.7001 162.46C20.4507 163.51 21.2166 164.531 21.9979 165.524C26.9 171.766 32.4812 177.067 38.619 181.078C42.1061 183.364 45.8501 185.232 49.7737 186.643C60.2416 190.391 71.4755 190.547 81.8209 186.643C83.5548 185.99 85.2465 185.231 86.8864 184.369C87.7953 183.894 88.694 183.383 89.5825 182.837C91.2957 181.785 92.9782 180.61 94.648 179.39C96.9637 177.695 99.2437 175.907 101.57 174.238L101.769 174.092C104.501 172.131 107.266 170.336 110.148 169.045C112.068 168.16 114.101 167.544 116.189 167.214C119.279 166.775 122.428 167.02 125.414 167.931C125.98 168.095 126.547 168.281 127.109 168.485C128.935 169.16 130.704 169.981 132.399 170.939C139.762 175.024 146.809 181.537 154.04 186.643C155.061 187.374 156.11 188.076 157.152 188.737C166.376 194.591 176.523 197.446 186.562 200.213C197.944 203.354 209.989 206.402 221.001 201.513C227.384 198.682 232.912 193.312 237.341 186.643C239.282 183.704 240.985 180.614 242.432 177.404C243.152 175.816 243.826 174.199 244.452 172.553C248.093 162.978 250.209 152.459 251.67 141.915C252.752 134.153 253.488 126.205 252.627 118.408Z" fill="#ECFB6D"/>
<g opacity="0.1">
<path d="M79.5003 136.129C79.5794 136.356 79.6611 136.576 79.7556 136.791C81.439 135.471 83.0696 134.11 84.6474 132.705C85.5907 132.285 86.3708 131.568 86.8687 130.663C87.3231 130.234 87.7751 129.795 88.2219 129.358C88.0286 129.142 87.8213 128.938 87.6014 128.748C86.09 127.423 84.2211 126.866 82.513 127.431C80.8049 127.995 79.6381 129.555 79.2118 131.516C78.8947 133.052 78.9944 134.645 79.5003 136.129Z" fill="#3F3D56"/>
<path d="M76.6971 127.648C77.1749 129.137 78.0413 130.472 79.2068 131.516C80.7183 132.836 82.5847 133.395 84.2953 132.828C84.4127 132.787 84.5251 132.744 84.6425 132.698C85.5858 132.277 86.3658 131.56 86.8638 130.655C87.2062 130.059 87.4535 129.413 87.5965 128.74C87.8918 127.205 87.7887 125.619 87.2971 124.134C86.8054 122.649 85.9416 121.315 84.788 120.259C83.274 118.934 81.4077 118.377 79.6996 118.941C77.9915 119.506 76.8247 121.066 76.3984 123.026C76.0832 124.566 76.1864 126.162 76.6971 127.648Z" fill="#3F3D56"/>
<path d="M81.4814 124.362C84.4094 123.394 85.756 119.502 84.4891 115.669C83.2222 111.836 79.8215 109.513 76.8935 110.481C73.9654 111.449 72.6188 115.341 73.8858 119.174C75.1527 123.007 78.5534 125.33 81.4814 124.362Z" fill="#3F3D56"/>
<path d="M78.6787 115.881C81.6067 114.914 82.9533 111.022 81.6864 107.189C80.4194 103.356 77.0188 101.033 74.0907 102.001C71.1627 102.968 69.8161 106.86 71.083 110.693C72.35 114.526 75.7507 116.849 78.6787 115.881Z" fill="#3F3D56"/>
<path d="M75.875 107.401C78.803 106.433 80.1496 102.541 78.8827 98.7081C77.6157 94.875 74.215 92.5523 71.287 93.5201C68.359 94.4878 67.0124 98.3797 68.2793 102.213C69.5463 106.046 72.9469 108.369 75.875 107.401Z" fill="#3F3D56"/>
<path d="M74.2435 35.8489C74.6647 34.6872 75.0059 33.4981 75.2648 32.2898L60.579 34.6081L75.681 29.7392C76.0853 26.1171 75.7468 22.4506 74.6862 18.9638C73.6257 15.4769 71.8652 12.243 69.5125 9.45949L52.7689 26.6269L66.8777 6.76335C64.1338 4.32458 60.9173 2.47679 57.4283 1.33507C53.9394 0.193339 50.2527 -0.217883 46.5979 0.127005C42.9431 0.471893 39.3985 1.56551 36.1847 3.33975C32.9709 5.11399 30.1568 7.53086 27.9176 10.4399C25.6784 13.3489 24.0621 16.6877 23.1693 20.2485C22.2764 23.8093 22.1262 27.5158 22.728 31.1371C23.3298 34.7585 24.6706 38.2172 26.6671 41.2978C28.6636 44.3785 31.2729 47.0152 34.3326 49.0436C33.6774 50.852 33.2194 52.7258 32.9666 54.6325L54.1578 58.0486L32.7394 57.9516C32.7085 62.4006 33.7875 66.7872 35.8787 70.7142C37.97 74.6412 41.0074 77.9848 44.7163 80.4424C43.009 85.1615 42.664 90.2657 43.7209 95.1716C44.7777 100.078 47.1937 104.587 50.6926 108.185C54.1915 111.782 58.6321 114.323 63.5068 115.515C68.3814 116.708 73.4933 116.505 78.258 114.93C83.0227 113.354 87.248 110.47 90.4508 106.606C93.6535 102.743 95.7044 98.0561 96.3691 93.0818C97.0338 88.1076 96.2853 83.0467 94.2094 78.4778C92.1334 73.9089 88.8137 70.0163 84.6298 67.2451C86.6727 61.605 86.76 55.4419 84.8777 49.7462C82.9953 44.0506 79.2527 39.1532 74.2512 35.8413L74.2435 35.8489Z" fill="#ECFB6D"/>
<path opacity="0.1" d="M34.0775 66.5506C35.9523 72.2487 39.6956 77.1471 44.7012 80.4525C42.9974 85.1716 42.6556 90.2748 43.7147 95.179C44.7739 100.083 47.1913 104.59 50.6907 108.186C54.1901 111.781 58.6304 114.319 63.5042 115.511C68.3779 116.702 73.4885 116.498 78.2519 114.923C83.0153 113.347 87.2393 110.463 90.4414 106.601C93.6434 102.738 95.6942 98.0525 96.3595 93.0796C97.0247 88.1067 96.2776 83.0469 94.2035 78.4785C92.1293 73.9101 88.8118 70.0173 84.6301 67.2451C86.5985 61.7992 33.1431 63.6885 34.0775 66.5506Z" fill="black"/>
</g>
<path d="M99.0852 63.88C98.4495 62.583 98.212 61.12 97.9823 59.6852C96.6342 51.2138 95.3729 42.0684 99.0342 34.391C99.6112 33.1834 100.311 32.0089 101.332 31.1843C102.425 30.3034 103.78 29.8847 105.047 29.3128C108.723 27.6583 111.685 24.689 114.917 22.2252C118.15 19.7614 122.051 17.7061 126.011 18.3342C128.053 18.6585 129.943 19.6797 131.924 20.3206C137.52 22.1333 143.98 20.9512 149.007 24.0941C150.822 25.2303 152.303 26.8516 153.759 28.4549L160.251 35.6038C162.01 37.5391 163.803 39.5229 164.867 41.9484C165.932 44.3739 166.157 47.3636 164.801 49.6257C164.119 50.767 163.042 51.755 162.924 53.0955C162.797 54.5508 163.854 55.8018 164.239 57.206C165.26 60.9158 161.515 64.0996 158.099 65.5651C147.776 69.982 136.42 69.474 125.493 69.2927C117.356 69.1523 103.778 73.4237 99.0852 63.88Z" fill="#3F3D56"/>
<path d="M117.443 82.2397C116.726 83.9529 115.183 85.1631 113.659 86.2278C112.135 87.2924 110.509 88.306 108.673 88.3929C111.908 92.5519 116.332 95.6106 120.657 98.6055C122.672 99.997 124.714 101.386 127.012 102.172C129.121 102.892 131.365 103.071 133.571 103.372C136.38 103.758 139.175 104.353 141.997 104.235C147.024 104.026 151.831 101.491 155.166 97.7221C158.5 93.9536 160.41 89.0414 160.926 84.0295C159.139 84.0014 157.489 83.0082 156.047 81.9257C154.282 80.6057 152.628 79.0789 151.489 77.1922C150.256 75.1496 149.702 72.7803 149.14 70.4595C143.189 70.2808 137.238 70.1046 131.284 70.2195C129.116 70.2603 126.943 70.3446 124.829 70.8833C122.815 71.3939 118.607 72.7114 117.379 74.5267C116.672 75.5734 117.379 76.6509 117.634 77.7794C117.961 79.2628 118.043 80.8125 117.443 82.2397Z" fill="#BE6F72"/>
<path opacity="0.1" d="M117.443 82.2397C116.726 83.9529 115.183 85.1631 113.659 86.2278C112.135 87.2924 110.509 88.306 108.673 88.3929C111.908 92.5519 116.332 95.6106 120.657 98.6055C122.672 99.997 124.714 101.386 127.012 102.172C129.121 102.892 131.365 103.071 133.571 103.372C136.38 103.758 139.175 104.353 141.997 104.235C147.024 104.026 151.831 101.491 155.166 97.7221C158.5 93.9536 160.41 89.0414 160.926 84.0295C159.139 84.0014 157.489 83.0082 156.047 81.9257C154.282 80.6057 152.628 79.0789 151.489 77.1922C150.256 75.1496 149.702 72.7803 149.14 70.4595C143.189 70.2808 137.238 70.1046 131.284 70.2195C129.116 70.2603 126.943 70.3446 124.829 70.8833C122.815 71.3939 118.607 72.7114 117.379 74.5267C116.672 75.5734 117.379 76.6509 117.634 77.7794C117.961 79.2628 118.043 80.8125 117.443 82.2397Z" fill="black"/>
<path d="M124.176 89.2941C125.879 91.4107 127.633 93.5707 129.966 94.9596C130.678 95.3808 131.475 95.7255 132.302 95.6974C133.528 95.6464 134.541 94.7732 135.44 93.9358C139.927 89.7591 144.189 85.3461 148.206 80.7155C149.465 79.2628 150.759 77.7487 152.482 76.9036C154.04 90.9558 154.446 105.112 153.698 119.23C153.706 119.496 153.644 119.76 153.519 119.996C153.251 120.402 152.689 120.461 152.202 120.478C137.789 121.02 122.799 121.454 109.6 115.627C110.516 112.908 110.366 109.967 110.455 107.097C110.6 102.392 111.417 97.7323 112.546 93.1698C113.1 90.9307 113.731 88.712 114.4 86.5061C114.956 84.6576 115.38 81.3998 116.623 80.0032C119.483 82.5563 121.773 86.3069 124.176 89.2941Z" fill="#E3E8F4"/>
<path d="M130.719 96.1366H132.506L137.102 103.796L132.251 115.796L126.379 104.051L130.719 96.1366Z" fill="#3F3D56"/>
<path d="M130.558 108.239C128.897 105.813 127.751 103.072 127.193 100.186C127.015 99.2616 126.895 98.3195 126.568 97.4361C126.083 96.1264 125.169 95.0285 124.344 93.8975C121.286 89.7025 119.317 84.8145 118.612 79.6713C118.296 77.3377 118.084 74.6645 116.199 73.2526C115.015 72.3667 113.437 72.2314 111.956 72.2569C106.229 72.4 100.744 74.5954 96.4992 78.4432C95.7936 79.1431 95.0476 79.8013 94.2652 80.4142C93.4634 80.9625 92.608 81.4279 91.7121 81.8032C89.45 82.8244 87.0858 83.6721 84.622 83.9299C83.9887 83.9563 83.3611 84.0601 82.7531 84.2389C82.0177 84.4942 81.4126 85.0329 80.7922 85.5154C78.8104 87.0419 76.5336 88.1408 74.1055 88.7426C70.6789 96.6993 68.0284 104.968 66.1907 113.434C65.7286 115.541 65.315 117.662 64.6844 119.725C63.8137 122.585 62.532 125.312 61.6767 128.176C58.2759 139.576 61.8478 151.995 59.5576 163.665L182.38 163.834C180.45 160.839 181.144 157.035 180.978 153.475C180.822 150.197 179.99 146.993 179.413 143.761C178.448 138.356 178.2 132.846 178.101 127.357C178.06 125.038 178.057 122.643 178.953 120.506C180.636 116.495 185.002 114.379 189.135 113.018C191.112 112.37 193.19 111.777 194.752 110.391C196.353 108.959 197.186 106.855 197.696 104.774C194.911 99.2846 191.29 94.0506 186.718 89.9324C184.999 88.4005 183.164 86.9631 181.713 85.1708C180.83 84.0755 180.097 82.8551 179.122 81.8517C176.681 79.3164 172.994 78.3615 169.481 78.2211C168.396 78.1777 167.296 78.1981 166.244 77.9275C163.226 77.1615 161.303 74.2126 158.584 72.6858C156.693 71.63 154.484 71.2911 152.362 71.731C150.83 72.0501 149.263 72.959 148.918 74.4705C148.727 75.3207 148.962 76.199 149.051 77.0645C149.327 79.7274 148.221 82.3368 146.883 84.655C142.076 92.9298 134.214 99.3868 130.558 108.239Z" fill="#949494"/>
<path d="M157.394 57.2009C157.393 62.9237 155.488 68.4835 151.98 73.0047C148.471 77.5258 143.559 80.7515 138.016 82.1737C132.472 83.5959 126.614 83.1337 121.362 80.86C116.11 78.5863 111.764 74.6303 109.008 69.6149C106.252 64.5996 105.242 58.8099 106.138 53.1578C107.035 47.5056 109.785 42.3121 113.958 38.3953C118.13 34.4784 123.487 32.0607 129.184 31.523C134.882 30.9853 140.596 32.358 145.427 35.4251C149.095 37.7531 152.115 40.9698 154.207 44.7766C156.299 48.5835 157.395 52.8571 157.394 57.2009Z" fill="#BE6F72"/>
<path d="M244.457 172.547V160.604H18.416C18.8398 161.227 19.2696 161.843 19.7054 162.452C20.0347 163.232 20.4853 163.955 21.0407 164.594C21.3365 164.933 21.6611 165.244 22.0109 165.526C26.9129 171.769 32.4941 177.069 38.6319 181.08C42.1191 183.366 45.863 185.235 49.7867 186.646H237.352L244.457 172.547Z" fill="#3F3D56"/>
<path d="M136.436 146.944C132.971 146.669 129.369 145.806 126.106 147.001C124.993 147.445 123.938 148.021 122.963 148.716C119.438 151.082 116.192 153.838 113.286 156.932C112.446 157.823 111.624 158.763 111.108 159.876C110.381 161.446 110.317 163.236 109.832 164.898C109.554 165.851 109.13 166.816 109.298 167.793C109.467 168.771 110.595 169.647 111.44 169.126C111.398 169.399 111.416 169.678 111.494 169.942C111.572 170.207 111.708 170.451 111.891 170.657C112.074 170.864 112.3 171.027 112.554 171.136C112.808 171.245 113.082 171.296 113.358 171.286C114.65 171.242 115.897 170.802 116.932 170.028C116.965 170.337 117.116 170.622 117.354 170.823C117.592 171.025 117.898 171.126 118.209 171.108C120.422 170.962 122.531 169.831 124.426 168.595C126.649 167.155 128.858 165.516 131.462 165.021C129.86 165.751 128.449 166.843 127.339 168.21C126.912 168.733 126.514 169.346 126.984 170.155C127.265 170.61 127.697 170.95 128.204 171.118C131.12 172.139 134.288 170.449 136.234 168.105C137.018 167.158 137.71 166.062 138.787 165.488C140.521 164.556 142.658 165.21 144.608 164.939C146.773 164.643 148.594 163.231 150.583 162.32C153.23 161.109 156.182 160.788 159.008 160.068C159.347 160.018 159.66 159.856 159.897 159.608C160.073 159.313 160.149 158.969 160.114 158.628C160.101 155.131 159.838 151.639 159.325 148.18C159.282 147.623 159.112 147.083 158.827 146.602C158.27 145.811 157.213 145.581 156.261 145.423C154.729 145.167 153.011 144.596 151.469 144.601C149.988 144.601 148.561 145.438 147.149 145.849C143.673 146.858 140.044 147.229 136.436 146.944Z" fill="#BE6F72"/>
<path d="M152.587 142.341C148.759 142.743 145.159 144.353 142.308 146.937C145.491 146.132 148.918 145.338 151.987 146.503C153.481 147.07 154.774 148.068 155.701 149.371C156.627 150.674 157.146 152.223 157.192 153.821C157.237 155.419 156.807 156.995 155.956 158.348C155.105 159.702 153.871 160.772 152.41 161.423C153.031 162.12 153.942 162.463 154.849 162.725C161.398 164.635 168.409 163.491 175.105 162.189C176.331 161.952 177.659 161.638 178.407 160.629C179.073 159.718 179.053 158.49 178.994 157.359C178.823 154.093 178.539 150.721 177.059 147.812C175.052 143.865 171.567 142.395 167.369 142.852C162.432 143.378 157.53 141.841 152.587 142.341Z" fill="#E3E8F4"/>
<path d="M194.254 100.508C196.371 102.522 197.897 105.065 199.299 107.628C204.048 116.307 207.687 125.549 210.129 135.136C210.369 136.078 210.607 137.046 211.169 137.84C211.986 138.991 213.372 139.627 214.263 140.715C215.333 142.037 215.54 143.901 215.187 145.566C214.835 147.23 213.995 148.75 213.145 150.223C210.819 154.252 208.074 158.411 203.803 160.251C202.016 161.017 200.062 161.334 198.13 161.587C190.87 162.542 183.534 162.779 176.229 162.294C177.505 160.813 177.628 158.628 177.176 156.726C176.724 154.823 175.782 153.08 175.133 151.239C174.623 149.801 174.263 148.27 173.367 147.034C172.706 146.186 171.892 145.469 170.967 144.922C168.864 143.588 166.499 142.72 164.032 142.379C165.863 140.95 168.235 140.475 170.466 139.826C172.698 139.178 175.031 138.182 176.201 136.175C176.903 134.973 177.097 133.545 177.191 132.157C177.476 127.977 176.988 123.781 175.751 119.779C174.929 117.116 173.765 114.333 174.475 111.642C174.837 110.284 175.652 109.089 176.451 107.945C178.008 105.698 179.622 103.398 181.894 101.881C183.855 100.571 186.186 99.9561 188.52 99.7927C190.268 99.6778 192.926 99.254 194.254 100.508Z" fill="#868686"/>
<path d="M102.379 178.762C102.358 181.427 95.11 184.379 86.7228 184.379C78.3357 184.379 71.335 181.435 71.2226 178.762C70.832 169.491 78.3332 174.71 86.7228 174.71C95.1125 174.71 102.455 168.09 102.379 178.762Z" fill="#3F3D56"/>
<path opacity="0.2" d="M102.379 178.762C102.358 181.427 95.11 184.379 86.7228 184.379C78.3357 184.379 71.335 181.435 71.2226 178.762C70.832 169.491 78.3332 174.71 86.7228 174.71C95.1125 174.71 102.455 168.09 102.379 178.762Z" fill="black"/>
<path d="M101.912 174.71C101.912 177.378 95.11 180.327 86.7229 180.327C78.3358 180.327 71.5342 177.386 71.5342 174.71C71.5342 172.034 78.3332 170.661 86.7229 170.661C95.1126 170.661 101.912 172.044 101.912 174.71Z" fill="#3F3D56"/>
<path opacity="0.1" d="M101.912 174.71C101.912 177.378 95.11 180.327 86.7229 180.327C78.3358 180.327 71.5342 177.386 71.5342 174.71C71.5342 172.034 78.3332 170.661 86.7229 170.661C95.1126 170.661 101.912 172.044 101.912 174.71Z" fill="white"/>
<path d="M98.9506 173.658C98.9353 175.739 93.2826 178.032 86.7388 178.032C80.1951 178.032 74.739 175.734 74.6471 173.658C74.3432 166.428 80.1951 170.497 86.7388 170.497C93.2826 170.497 99.0119 165.335 98.9506 173.658Z" fill="#3F3D56"/>
<path opacity="0.2" d="M98.9506 173.658C98.9353 175.739 93.2826 178.032 86.7388 178.032C80.1951 178.032 74.739 175.734 74.6471 173.658C74.3432 166.428 80.1951 170.497 86.7388 170.497C93.2826 170.497 99.0119 165.335 98.9506 173.658Z" fill="black"/>
<path d="M98.5855 169.984C98.5855 172.31 93.2826 174.873 86.7389 174.873C80.1951 174.873 74.8896 172.32 74.8896 169.984C74.8896 167.648 80.1951 166.456 86.7389 166.456C93.2826 166.456 98.5855 167.656 98.5855 169.984Z" fill="#3F3D56"/>
<path opacity="0.1" d="M98.5855 169.984C98.5855 172.31 93.2826 174.873 86.7389 174.873C80.1951 174.873 74.8896 172.32 74.8896 169.984C74.8896 167.648 80.1951 166.456 86.7389 166.456C93.2826 166.456 98.5855 167.656 98.5855 169.984Z" fill="white"/>
<path d="M58.3446 185.405C58.3446 185.405 60.5862 182.934 60.9718 180.156C61.3573 177.378 50.0187 173.112 50.0187 173.112C50.0187 173.112 46.0869 175.41 45.9541 177.562C45.9541 177.562 53.4808 185.65 58.3446 185.405Z" fill="#3F3D56"/>
<path opacity="0.2" d="M58.3446 185.405C58.3446 185.405 60.5862 182.934 60.9718 180.156C61.3573 177.378 50.0187 173.112 50.0187 173.112C50.0187 173.112 46.0869 175.41 45.9541 177.562C45.9541 177.562 53.4808 185.65 58.3446 185.405Z" fill="black"/>
<path d="M58.2421 185.518C58.943 184.35 56.6905 181.71 53.2108 179.622C49.7312 177.533 46.3422 176.787 45.6412 177.955C44.9403 179.123 47.1929 181.763 50.6725 183.851C54.1521 185.939 57.5412 186.686 58.2421 185.518Z" fill="#3F3D56"/>
<path opacity="0.1" d="M58.2421 185.518C58.943 184.35 56.6905 181.71 53.2108 179.622C49.7312 177.533 46.3422 176.787 45.6412 177.955C44.9403 179.123 47.1929 181.763 50.6725 183.851C54.1521 185.939 57.5412 186.686 58.2421 185.518Z" fill="white"/>
<path d="M61.1302 179.306L67.5795 168.554L61.0204 162.983L55.9064 162.026L54.3107 164.903L49.8223 173.232L61.1302 179.306Z" fill="#3F3D56"/>
<path opacity="0.1" d="M61.1302 179.306L67.5795 168.554L61.0204 162.983L55.9064 162.026L54.3107 164.903L49.8223 173.232L61.1302 179.306Z" fill="white"/>
<path d="M67.6663 169.614C67.6663 169.614 72.022 164.985 70.9037 162.483C69.7855 159.981 63.88 154.966 60.1192 155.73C56.3584 156.493 55.7559 162.039 55.7559 162.039L67.6663 169.614Z" fill="#3F3D56"/>
<path opacity="0.2" d="M67.6663 169.614C67.6663 169.614 72.022 164.985 70.9037 162.483C69.7855 159.981 63.88 154.966 60.1192 155.73C56.3584 156.493 55.7559 162.039 55.7559 162.039L67.6663 169.614Z" fill="black"/>
<path d="M18.1225 149.273L51.4846 169.565C51.4846 169.565 54.6557 169.154 54.311 164.908L21.268 144.396C20.5954 143.978 19.7986 143.807 19.0136 143.911C18.1098 144.034 17.04 144.363 16.6928 145.224C16.604 145.443 16.5423 145.671 16.5089 145.905C16.4157 146.563 16.5191 147.234 16.8062 147.833C17.0933 148.432 17.5513 148.933 18.1225 149.273Z" fill="#3F3D56"/>
<path opacity="0.2" d="M18.1225 149.273L51.4846 169.565C51.4846 169.565 54.6557 169.154 54.311 164.908L21.268 144.396C20.5954 143.978 19.7986 143.807 19.0136 143.911C18.1098 144.034 17.04 144.363 16.6928 145.224C16.604 145.443 16.5423 145.671 16.5089 145.905C16.4157 146.563 16.5191 147.234 16.8062 147.833C17.0933 148.432 17.5513 148.933 18.1225 149.273Z" fill="black"/>
<path d="M61.1248 180.82C61.299 180.81 61.4656 180.744 61.6001 180.633C61.7347 180.522 61.8302 180.371 61.8729 180.202C62.0363 179.627 61.7376 179.076 61.4235 178.616C60.8627 177.796 60.1628 177.081 59.3555 176.502C57.9972 175.519 56.6798 174.411 55.1428 173.694C54.253 173.298 53.321 173.004 52.3649 172.818C51.6483 172.653 50.9148 172.573 50.1794 172.578C50.0489 172.582 49.9226 172.625 49.8173 172.702C49.7119 172.779 49.6325 172.886 49.5895 173.01C49.5466 173.133 49.5422 173.266 49.5768 173.392C49.6115 173.518 49.6837 173.63 49.7837 173.714C50.1236 173.94 50.503 174.099 50.902 174.184C52.8909 174.769 54.7317 175.782 56.4551 176.934C57.3833 177.531 58.2527 178.215 59.0517 178.976C59.5827 179.502 60.2619 180.84 61.1248 180.82Z" fill="#3F3D56"/>
<path opacity="0.2" d="M61.1248 180.82C61.299 180.81 61.4656 180.744 61.6001 180.633C61.7347 180.522 61.8302 180.371 61.8729 180.202C62.0363 179.627 61.7376 179.076 61.4235 178.616C60.8627 177.796 60.1628 177.081 59.3555 176.502C57.9972 175.519 56.6798 174.411 55.1428 173.694C54.253 173.298 53.321 173.004 52.3649 172.818C51.6483 172.653 50.9148 172.573 50.1794 172.578C50.0489 172.582 49.9226 172.625 49.8173 172.702C49.7119 172.779 49.6325 172.886 49.5895 173.01C49.5466 173.133 49.5422 173.266 49.5768 173.392C49.6115 173.518 49.6837 173.63 49.7837 173.714C50.1236 173.94 50.503 174.099 50.902 174.184C52.8909 174.769 54.7317 175.782 56.4551 176.934C57.3833 177.531 58.2527 178.215 59.0517 178.976C59.5827 179.502 60.2619 180.84 61.1248 180.82Z" fill="black"/>
<path d="M66.4514 170.436C66.4514 170.436 69.7246 170.515 67.0157 167.224C64.3068 163.933 59.4609 160.668 56.0116 161.406C56.0116 161.406 54.5818 162.59 55.8175 162.794C56.9894 162.988 62.4557 164.071 64.968 167.117C65.243 167.448 65.55 167.75 65.8846 168.021C66.4744 168.501 67.2684 169.41 66.4514 170.436Z" fill="#3F3D56"/>
<path opacity="0.2" d="M66.4514 170.436C66.4514 170.436 69.7246 170.515 67.0157 167.224C64.3068 163.933 59.4609 160.668 56.0116 161.406C56.0116 161.406 54.5818 162.59 55.8175 162.794C56.9894 162.988 62.4557 164.071 64.968 167.117C65.243 167.448 65.55 167.75 65.8846 168.021C66.4744 168.501 67.2684 169.41 66.4514 170.436Z" fill="black"/>
<path d="M71.787 163.184C72.488 162.016 70.2354 159.377 66.7557 157.288C63.2761 155.2 59.8871 154.454 59.1861 155.622C58.4852 156.79 60.7378 159.43 64.2174 161.518C67.6971 163.606 71.0861 164.352 71.787 163.184Z" fill="#3F3D56"/>
<path opacity="0.1" d="M71.787 163.184C72.488 162.016 70.2354 159.377 66.7557 157.288C63.2761 155.2 59.8871 154.454 59.1861 155.622C58.4852 156.79 60.7378 159.43 64.2174 161.518C67.6971 163.606 71.0861 164.352 71.787 163.184Z" fill="white"/>
<path d="M50.1799 162.34C50.1356 162.935 49.9464 163.51 49.6286 164.014C49.3108 164.519 48.8742 164.938 48.3569 165.235C46.6438 166.149 44.2387 165.335 43.4319 163.568C43.0132 162.649 43.0055 161.617 42.9213 160.604C42.8939 160.273 42.8495 159.944 42.7885 159.618C42.5332 158.303 41.4456 156.907 40.1307 157.167C39.0456 157.379 38.4737 158.597 38.3435 159.695C38.3098 159.997 38.2928 160.3 38.2924 160.604C38.2924 160.92 38.3052 161.237 38.323 161.554C38.3588 162.202 38.415 162.853 38.4124 163.502C38.4124 164.778 38.1367 166.134 37.215 167.01C36.0967 168.074 34.381 168.123 32.8338 168.105C29.0576 168.067 24.8551 167.85 22.0135 165.526C21.6637 165.244 21.3391 164.933 21.0433 164.594C20.488 163.955 20.0373 163.232 19.708 162.452C19.4549 161.857 19.2607 161.237 19.1284 160.604C18.7046 158.625 18.7991 156.468 19.1463 154.461C19.371 153.149 19.805 151.711 20.765 150.874C20.9936 150.674 21.252 150.511 21.5309 150.391C21.9905 150.197 22.5113 150.136 22.9122 149.832C23.313 149.528 23.5735 148.977 23.9973 148.645C24.8475 147.978 26.1394 148.264 27.1351 148.04H27.1785L27.2321 148.024C28.307 147.769 29.3002 147.182 30.3138 146.748C30.7504 146.561 31.187 146.383 31.6261 146.224C32.7195 145.788 33.8999 145.613 35.0729 145.714C38.9026 146.15 43.4983 148.474 46.1204 151.262C46.7664 151.903 47.2693 152.674 47.5961 153.524C47.8104 154.236 47.9288 154.974 47.9484 155.717C48.0174 156.766 48.0735 157.813 48.5944 158.709C48.911 159.251 49.3757 159.692 49.705 160.241C49.7809 160.365 49.8475 160.493 49.9042 160.627C50.1382 161.166 50.233 161.755 50.1799 162.34Z" fill="#BE6F72"/>
<path d="M41.7571 149.738C43.3171 150.544 44.8515 151.456 46.0771 152.712C47.3026 153.968 48.2064 155.615 48.2779 157.372C49.349 156.076 50.2681 154.661 51.0174 153.156C51.6097 151.969 52.0974 150.565 51.5714 149.344C51.3201 148.828 50.9666 148.367 50.5323 147.991C48.2345 145.816 45.1451 144.613 42.0201 144.121C38.6423 143.587 31.8943 142.423 31.376 147.34C35.1598 147.161 38.3767 147.996 41.7571 149.738Z" fill="#E3E8F4"/>
<path d="M83.6085 86.8635C81.109 87.9435 78.1831 87.1801 75.5406 87.8337C73.5899 88.3163 71.9125 89.5392 70.3296 90.7775C67.1739 93.2439 64.0641 96.0013 62.3765 99.6344C61.825 100.824 61.4318 102.088 60.7705 103.209C59.7008 105.037 57.9927 106.398 56.2132 107.549C51.666 110.48 46.386 112.313 42.3393 115.903C40.6082 117.435 39.1504 119.253 37.7947 121.124C36.2015 123.32 34.6773 125.771 34.6466 128.483C34.6466 129.545 34.856 130.622 34.6466 131.666C34.1973 134.002 31.8382 135.453 30.7735 137.582C29.7522 139.612 29.9948 142.119 28.8586 144.08C28.1131 145.356 26.7625 146.633 27.1889 148.042C30.319 145.691 34.0824 144.723 37.9121 145.489C39.8295 145.87 41.6193 146.725 43.335 147.662C45.3239 148.749 47.2848 149.985 48.7222 151.747C50.1596 153.509 51.02 155.852 50.5094 158.061C52.58 157.04 53.8055 154.859 54.6557 152.715C55.5059 150.57 56.1544 148.28 57.5663 146.464C58.294 145.527 59.1978 144.749 60.0582 143.934C64.8352 139.408 68.2794 133.688 71.6598 128.043C75.1457 122.226 78.6299 116.404 82.1124 110.58C83.0775 108.964 84.0477 107.337 84.7447 105.591C87.0859 99.7187 85.5694 92.8609 83.6085 86.8635Z" fill="#868686"/>
<path d="M229.452 164.855C237.491 164.855 244.008 163.602 244.008 162.057C244.008 160.511 237.491 159.258 229.452 159.258C221.413 159.258 214.896 160.511 214.896 162.057C214.896 163.602 221.413 164.855 229.452 164.855Z" fill="#ECFB6D"/>
<path d="M229.207 163.088C230.143 163.088 230.902 162.095 230.902 160.869C230.902 159.644 230.143 158.651 229.207 158.651C228.271 158.651 227.512 159.644 227.512 160.869C227.512 162.095 228.271 163.088 229.207 163.088Z" fill="#3F3D56"/>
<path d="M229.207 160.374C230.143 160.374 230.902 159.381 230.902 158.155C230.902 156.93 230.143 155.937 229.207 155.937C228.271 155.937 227.512 156.93 227.512 158.155C227.512 159.381 228.271 160.374 229.207 160.374Z" fill="#3F3D56"/>
<path d="M229.207 157.663C230.143 157.663 230.902 156.669 230.902 155.444C230.902 154.219 230.143 153.225 229.207 153.225C228.271 153.225 227.512 154.219 227.512 155.444C227.512 156.669 228.271 157.663 229.207 157.663Z" fill="#3F3D56"/>
<path d="M229.207 154.951C230.143 154.951 230.902 153.958 230.902 152.732C230.902 151.507 230.143 150.514 229.207 150.514C228.271 150.514 227.512 151.507 227.512 152.732C227.512 153.958 228.271 154.951 229.207 154.951Z" fill="#3F3D56"/>
<path d="M229.207 152.24C230.143 152.24 230.902 151.246 230.902 150.021C230.902 148.796 230.143 147.802 229.207 147.802C228.271 147.802 227.512 148.796 227.512 150.021C227.512 151.246 228.271 152.24 229.207 152.24Z" fill="#3F3D56"/>
<path d="M229.207 149.528C230.143 149.528 230.902 148.535 230.902 147.31C230.902 146.084 230.143 145.091 229.207 145.091C228.271 145.091 227.512 146.084 227.512 147.31C227.512 148.535 228.271 149.528 229.207 149.528Z" fill="#3F3D56"/>
<path d="M229.207 146.817C230.143 146.817 230.902 145.823 230.902 144.598C230.902 143.373 230.143 142.379 229.207 142.379C228.271 142.379 227.512 143.373 227.512 144.598C227.512 145.823 228.271 146.817 229.207 146.817Z" fill="#3F3D56"/>
<path d="M235.554 126.039C235.785 125.745 235.996 125.435 236.185 125.112L231.732 124.38L236.547 124.415C237.009 123.41 237.261 122.322 237.288 121.216C237.315 120.11 237.116 119.01 236.703 117.984L230.241 121.336L236.2 116.955C235.642 115.989 234.892 115.149 233.995 114.487C233.098 113.824 232.074 113.353 230.987 113.104C229.901 112.854 228.774 112.831 227.678 113.036C226.582 113.241 225.54 113.669 224.616 114.295C223.693 114.92 222.909 115.729 222.312 116.671C221.715 117.613 221.319 118.668 221.147 119.77C220.976 120.872 221.034 121.997 221.316 123.076C221.599 124.154 222.101 125.163 222.791 126.039C222.432 126.499 222.122 126.995 221.867 127.52L227.647 130.525L221.479 128.454C221.046 129.734 220.939 131.101 221.167 132.432C221.395 133.763 221.952 135.016 222.786 136.078C221.844 137.276 221.259 138.714 221.096 140.229C220.934 141.744 221.2 143.274 221.866 144.644C222.532 146.014 223.57 147.17 224.861 147.978C226.153 148.786 227.645 149.215 229.169 149.215C230.692 149.215 232.185 148.786 233.476 147.978C234.768 147.17 235.806 146.014 236.472 144.644C237.137 143.274 237.404 141.744 237.241 140.229C237.079 138.714 236.493 137.276 235.552 136.078C236.676 134.647 237.288 132.879 237.288 131.059C237.288 129.238 236.676 127.471 235.552 126.039H235.554Z" fill="#ECFB6D"/>
<path opacity="0.1" d="M221.055 131.059C221.052 132.88 221.663 134.648 222.791 136.078C221.849 137.276 221.264 138.714 221.101 140.229C220.938 141.744 221.205 143.274 221.871 144.644C222.537 146.014 223.575 147.17 224.866 147.978C226.158 148.786 227.65 149.215 229.174 149.215C230.697 149.215 232.19 148.786 233.481 147.978C234.773 147.17 235.811 146.014 236.476 144.644C237.142 143.274 237.409 141.744 237.246 140.229C237.084 138.714 236.498 137.276 235.557 136.078C236.642 134.697 221.055 130.147 221.055 131.059Z" fill="black"/>
<path d="M118.842 45.9415C120.629 46.6309 122.373 47.6215 124.29 47.7517C126.723 47.9151 129.021 46.6743 131.439 46.3321C135.869 45.7066 140.074 48.1194 144.235 49.7585C148.397 51.3976 153.759 52.0767 156.81 48.8062C159.401 46.0258 159.044 41.402 156.96 38.2361C154.877 35.0702 151.474 33.0225 148.108 31.2583C144.396 29.3128 140.526 27.5435 136.392 26.8567C127.619 25.4039 118.706 29.032 111.427 34.1408C109.012 35.8361 106.625 37.8148 105.471 40.5237C104.817 42.0556 104.613 44.0164 105.182 45.6122C106.117 48.2368 106.729 47.9253 108.667 47.2411C112.369 45.939 114.557 44.3024 118.842 45.9415Z" fill="#3F3D56"/>
</g>
<defs>
<clipPath id="clip0_614_4611">
<rect width="253" height="204.082" fill="white"/>
</clipPath>
</defs>
</svg>
