<svg width="52" height="51" viewBox="0 0 52 51" fill="none" xmlns="http://www.w3.org/2000/svg">
<g clip-path="url(#clip0_614_4610)">
<path d="M39.7779 46.4691C35.5326 49.0056 30.6623 50.3263 25.7128 50.2832C20.7633 50.2402 15.9303 48.8351 11.7554 46.2253C12.5439 44.8676 13.5287 43.6303 14.6783 42.5529C16.4523 40.883 18.588 39.6357 20.9212 38.9066C23.2544 38.1776 25.7231 37.9863 28.1376 38.3473C30.552 38.7084 32.8481 39.6123 34.8492 40.9896C36.8503 42.3668 38.5034 44.1808 39.6813 46.2921C39.7125 46.3491 39.7467 46.4091 39.7779 46.4691Z" fill="#D0DE59"/>
<path d="M26.075 36.7423C32.8611 36.528 38.1825 31.6822 37.9607 25.9189C37.7389 20.1556 32.0579 15.6572 25.2718 15.8715C18.4857 16.0859 13.1643 20.9317 13.3861 26.695C13.6078 32.4583 19.2889 36.9566 26.075 36.7423Z" fill="#2F2E41"/>
<path d="M35.077 33.0154C37.3984 28.9888 35.545 24.0906 30.9374 22.075C26.3297 20.0595 20.7126 21.6898 18.3912 25.7164C16.0698 29.743 17.9231 34.6412 22.5308 36.6568C27.1384 38.6723 32.7555 37.042 35.077 33.0154Z" fill="#FFB8B8"/>
<path d="M16.3945 24.9331C18.6065 26.2167 21.1979 26.8552 23.8208 26.7629C22.9077 27.3816 21.8577 27.8132 20.7432 28.028C24.2572 28.5973 27.8627 28.5018 31.3339 27.7476C32.1067 27.61 32.8475 27.3524 33.524 26.9863C33.8609 26.8012 34.1512 26.5537 34.3759 26.26C34.6006 25.9662 34.7547 25.6329 34.8282 25.2815C35.0142 24.069 33.9379 23.0067 32.8348 22.3028C31.1466 21.2422 29.2199 20.5355 27.1941 20.234C25.1684 19.9325 23.0943 20.0437 21.1218 20.5594C19.8342 20.9054 18.5524 21.4618 17.7449 22.436C16.9374 23.4103 16.7436 24.879 17.5852 25.8293L16.3945 24.9331Z" fill="#2F2E41"/>
<path d="M25.9604 50.3631C19.7123 50.3612 13.6744 48.1749 8.95422 44.2053C4.23402 40.2356 1.14803 34.7488 0.262309 28.7512C-0.623408 22.7537 0.750536 16.6475 4.13212 11.5528C7.5137 6.45812 12.6762 2.71649 18.6726 1.01428C24.669 -0.687941 31.0973 -0.236612 36.7783 2.28546C42.4594 4.80753 47.0122 9.23125 49.6017 14.7452C52.1911 20.2591 52.6437 26.4935 50.8763 32.3048C49.1088 38.116 45.2399 43.1146 39.9793 46.3835C35.7959 48.9847 30.93 50.366 25.9604 50.3631ZM25.9604 0.544145C20.9362 0.543684 16.0248 1.98797 11.8471 4.69438C7.66947 7.4008 4.4133 11.2478 2.49042 15.7487C0.567531 20.2497 0.0642959 25.2026 1.04435 29.9809C2.0244 34.7593 4.44372 39.1485 7.99634 42.5934C11.549 46.0384 16.0753 48.3844 21.003 49.3348C25.9306 50.2851 31.0383 49.7971 35.6799 47.9325C40.3215 46.0679 44.2887 42.9104 47.0797 38.8593C49.8707 34.8083 51.3601 30.0456 51.3596 25.1737C51.352 18.6438 48.6736 12.3835 43.912 7.76613C39.1503 3.14878 32.6944 0.551521 25.9604 0.544145Z" fill="#6E6E6E"/>
</g>
<defs>
<clipPath id="clip0_614_4610">
<rect width="52" height="51" fill="white"/>
</clipPath>
</defs>
</svg>
