<?xml version="1.0" encoding="utf-8"?>
<svg xmlns="http://www.w3.org/2000/svg" viewBox="0 0 50 50" width="500" height="500">
  <path d="M9 4C6.2504839 4 4 6.2504839 4 9L4 41C4 43.749516 6.2504839 46 9 46L41 46C43.749516 46 46 43.749516 46 41L46 9C46 6.2504839 43.749516 4 41 4L9 4 z M 9 6L41 6C42.668484 6 44 7.3315161 44 9L44 41C44 42.668484 42.668484 44 41 44L9 44C7.3315161 44 6 42.668484 6 41L6 9C6 7.3315161 7.3315161 6 9 6 z M 25 9C18.81 9 13.196 11.548594 9 15.683594L14.761719 23L35.238281 23L41 15.683594C36.804 11.548594 31.19 9 25 9 z M 24 11.044922L24 14L26 14L26 11.044922C28.217356 11.154878 30.38343 11.623606 32.435547 12.433594L31.582031 14.492188L33.431641 15.257812L34.259766 13.259766C35.674759 13.983437 37.026687 14.858668 38.277344 15.908203L34.267578 21L26.25 21L28 14L22.75 21L15.732422 21L11.722656 15.908203C12.973313 14.858668 14.325241 13.983437 15.740234 13.259766L16.568359 15.259766L18.417969 14.494141L17.564453 12.433594C19.61657 11.623606 21.782644 11.154878 24 11.044922 z" fill="#FFFFC6" />
</svg>