<svg width="126" height="93" viewBox="0 0 126 93" fill="none" xmlns="http://www.w3.org/2000/svg">
<path d="M29.3026 26.6247C29.9256 24.4609 31.1361 22.5122 32.7996 20.9947C34.4632 19.4773 36.5148 18.4506 38.7265 18.0287C40.9383 17.6067 43.2238 17.806 45.3291 18.6044C47.4345 19.4028 49.2774 20.7691 50.6532 22.5516C52.029 24.334 52.8839 26.4629 53.123 28.7019C53.3621 30.9408 52.9759 33.2022 52.0075 35.235C51.039 37.2677 49.5261 38.9923 47.6368 40.2173C45.7475 41.4422 43.5556 42.1195 41.3046 42.1741L39.1546 43.0784L42.2017 54.3916L26.4889 57.352L20.1028 40.915C20.1028 40.915 29.3722 41.0883 31.7387 37.8932C30.4327 36.3627 29.5267 34.5323 29.1015 32.5657C28.6764 30.5992 28.7455 28.558 29.3026 26.6247Z" fill="#B77D85"/>
<path d="M85.9255 83.2995L61.4698 92.9398L37.7188 89.4326L62.7421 82.0728L85.9255 83.2995Z" fill="#212121"/>
<path d="M62.8778 79.3246L39.4782 67.6453L37.374 72.9402L59.6504 85.756C60.2001 87.503 61.5688 89.1338 63.5312 90.1186C66.9648 91.8415 70.9041 90.9347 72.3301 88.0931C73.756 85.2515 72.1284 81.5512 68.6948 79.8283C66.7324 78.8437 64.6067 78.7211 62.8777 79.3242L62.8778 79.3246Z" fill="#B77D85"/>
<path d="M23.1694 40.6694C23.1694 40.6694 25.4526 52.5109 33.4253 52.2656C41.3981 52.0203 39.9269 46.3772 39.9269 46.3772L47.4574 50.609C47.4574 50.609 50.7209 55.2093 50.7209 60.974L53.0516 72.1364L56.3634 75.5708L46.5503 83.2985L41.5211 76.1841L36.4919 91.3944L0 92.9404L0.674594 61.5881C0.674594 61.5881 2.63725 46.5005 10.9778 43.434C19.3184 40.3674 23.1694 40.6694 23.1694 40.6694Z" fill="#F4FF9A"/>
<path d="M43.4667 21.7173C43.4667 21.7173 48.2489 26.044 53.145 25.3609C58.0411 24.6778 58.9518 22.9699 58.9518 22.2867C58.9518 22.2867 58.9519 22.5143 57.5855 22.9698L57.0161 18.0737C57.0161 18.0737 56.333 19.3578 53.828 19.7975C53.828 19.7975 55.9913 18.8937 53.828 17.1174C53.828 17.1174 52.6894 18.0738 51.6646 18.0738C51.6646 18.0738 45.9715 10.3313 34.6992 15.2274V13.1929L33.6752 15.7966L32.3531 15.6816L31.0565 15.5688C31.0565 15.5688 28.2096 18.8708 28.4372 21.1481C28.6649 23.4254 24.3456 34.8632 31.7998 38.3674C31.7998 38.3674 30.0313 28.2079 33.1055 30.5989C36.1798 32.9899 38.1154 29.2325 38.1154 29.2325L43.4669 21.7178L43.4667 21.7173Z" fill="#212121"/>
<path d="M44.1101 82.237L17.9632 81.6925L16.6985 90.6795L43.945 89.4308C45.1896 90.7747 47.1244 91.6631 49.3193 91.7135C53.1598 91.8015 56.3324 89.2965 56.4053 86.1179C56.4783 82.9393 53.424 80.2914 49.5838 80.2033C47.3888 80.1529 45.4152 80.9518 44.1105 82.237H44.1101Z" fill="#B77D85"/>
<path d="M18.0926 62.3242C18.0926 62.3242 18.9512 67.7214 16.3754 69.5614C16.3754 69.5614 17.234 76.1852 15.1488 78.2705C15.1488 78.2705 18.9808 78.4256 18.2301 80.4333C18.2301 80.4333 23.858 79.4971 23.122 81.8277C23.122 81.8277 17.9138 88.0785 19.1686 92.1289L2.14654 91.2729L0.246582 81.4715" fill="#ECFB6D"/>
<path d="M124.74 15.9624H101.362C100.666 15.9624 100.101 16.5267 100.101 17.2227V34.4881C100.101 35.1841 100.666 35.7484 101.362 35.7484H124.74C125.436 35.7484 126 35.1841 126 34.4881V17.2227C126 16.5267 125.436 15.9624 124.74 15.9624Z" fill="#F2F2F2"/>
<path d="M124.713 16.9456H101.388V34.7653H124.713V16.9456Z" fill="white"/>
<path d="M113.46 30.1632H113.47C115.049 30.0809 116.537 29.4002 117.632 28.2594C118.727 27.1187 119.347 25.6037 119.364 24.0225C119.382 22.4414 118.797 20.9129 117.728 19.7479C116.658 18.5829 115.186 17.869 113.609 17.7513C113.589 17.7498 113.57 17.7523 113.551 17.7587C113.533 17.7651 113.516 17.7752 113.501 17.7885C113.487 17.8015 113.476 17.8174 113.468 17.835C113.46 17.8527 113.456 17.8718 113.456 17.8912L113.32 30.0197C113.319 30.0384 113.323 30.057 113.33 30.0743C113.337 30.0917 113.347 30.1075 113.36 30.1209C113.373 30.1342 113.389 30.1448 113.406 30.1521C113.423 30.1594 113.442 30.1633 113.46 30.1634L113.46 30.1632Z" fill="#ECFB6D"/>
<path d="M108.583 19.7569C108.631 19.7574 108.678 19.7772 108.711 19.8117L112.886 24.0811C112.903 24.0982 112.916 24.1184 112.925 24.1406C112.934 24.1629 112.939 24.1866 112.938 24.2106L112.873 30.0141C112.873 30.039 112.868 30.0636 112.858 30.0864C112.847 30.1091 112.833 30.1295 112.814 30.1463C112.796 30.1632 112.774 30.1761 112.75 30.1842C112.727 30.1923 112.702 30.1955 112.677 30.1936C111.516 30.1067 110.402 29.6977 109.461 29.0128C108.519 28.3278 107.788 27.3939 107.348 26.316C106.908 25.2381 106.778 24.0589 106.971 22.9109C107.165 21.763 107.675 20.6917 108.443 19.8175C108.46 19.7987 108.48 19.7835 108.503 19.7728C108.526 19.7622 108.551 19.7563 108.576 19.7556L108.583 19.7569Z" fill="#E6E6E6"/>
<path d="M112.829 17.7015C112.875 17.7021 112.92 17.7203 112.954 17.7526C112.972 17.7698 112.986 17.7905 112.996 17.8135C113.005 17.8365 113.01 17.8612 113.01 17.8862L112.951 23.1226C112.951 23.1587 112.94 23.1939 112.919 23.2238C112.899 23.2537 112.87 23.2768 112.837 23.2903C112.803 23.3038 112.766 23.3071 112.731 23.2997C112.696 23.2922 112.663 23.2744 112.638 23.2486L108.995 19.5224C108.977 19.5047 108.964 19.4836 108.955 19.4605C108.946 19.4374 108.942 19.4127 108.943 19.388C108.944 19.3632 108.95 19.3389 108.96 19.3165C108.971 19.2941 108.986 19.2741 109.004 19.2577C110.064 18.325 111.407 17.777 112.817 17.7023L112.829 17.7015Z" fill="#090814"/>
<path d="M110.951 32.6784C110.949 32.8993 110.881 33.1145 110.756 33.2968C110.631 33.4791 110.455 33.6203 110.25 33.7026C110.045 33.7848 109.82 33.8044 109.604 33.7589C109.388 33.7134 109.19 33.6048 109.036 33.4468C108.881 33.2889 108.777 33.0887 108.736 32.8715C108.696 32.6544 108.72 32.4301 108.807 32.2269C108.894 32.0238 109.039 31.851 109.224 31.7303C109.409 31.6096 109.626 31.5465 109.847 31.549C110.143 31.5523 110.426 31.6732 110.633 31.885C110.84 32.0968 110.954 32.3822 110.951 32.6784Z" fill="#ECFB6D"/>
<path d="M114.142 32.7146C114.14 32.9355 114.072 33.1507 113.947 33.333C113.822 33.5153 113.646 33.6565 113.441 33.7387C113.236 33.821 113.011 33.8406 112.795 33.7951C112.579 33.7495 112.381 33.6409 112.227 33.483C112.072 33.325 111.968 33.1248 111.928 32.9077C111.887 32.6905 111.912 32.4662 111.998 32.2631C112.085 32.0599 112.23 31.8871 112.415 31.7664C112.6 31.6458 112.817 31.5827 113.038 31.5852C113.334 31.5885 113.617 31.7093 113.824 31.9211C114.031 32.1329 114.146 32.4183 114.142 32.7146Z" fill="#090814"/>
<path d="M117.333 32.7502C117.331 32.9711 117.263 33.1863 117.138 33.3686C117.013 33.5509 116.837 33.6921 116.632 33.7744C116.427 33.8566 116.202 33.8762 115.986 33.8307C115.77 33.7852 115.572 33.6766 115.418 33.5186C115.263 33.3607 115.159 33.1605 115.118 32.9433C115.078 32.7262 115.102 32.5018 115.189 32.2987C115.276 32.0956 115.421 31.9227 115.606 31.8021C115.791 31.6814 116.008 31.6183 116.229 31.6208C116.525 31.6241 116.808 31.745 117.015 31.9568C117.222 32.1686 117.337 32.454 117.333 32.7502Z" fill="#E6E6E6"/>
<path d="M88.0639 0H68.5982C67.9022 0 67.3379 0.564271 67.3379 1.26034V15.5366C67.3379 16.2327 67.9022 16.797 68.5982 16.797H88.0639C88.76 16.797 89.3243 16.2327 89.3243 15.5366V1.26034C89.3243 0.564271 88.76 0 88.0639 0Z" fill="#F2F2F2"/>
<path d="M88.2319 0.834717H68.4304V15.9625H88.2319V0.834717Z" fill="white"/>
<path d="M71.7902 5.8069C72.2443 5.8069 72.6124 5.43878 72.6124 4.98469C72.6124 4.53059 72.2443 4.16248 71.7902 4.16248C71.3361 4.16248 70.968 4.53059 70.968 4.98469C70.968 5.43878 71.3361 5.8069 71.7902 5.8069Z" fill="#090814"/>
<path d="M85.0003 4.34484C85.1482 4.34484 85.29 4.40358 85.3946 4.50814C85.4991 4.6127 85.5579 4.75451 85.5579 4.90238C85.5579 5.05025 85.4991 5.19207 85.3946 5.29663C85.29 5.40119 85.1482 5.45992 85.0003 5.45992H76.3533C76.2054 5.45992 76.0636 5.40119 75.9591 5.29663C75.8545 5.19207 75.7958 5.05025 75.7958 4.90238C75.7958 4.75451 75.8545 4.6127 75.9591 4.50814C76.0636 4.40358 76.2054 4.34484 76.3533 4.34484H85.0003ZM85.0003 4.20825H76.3533C76.1692 4.20825 75.9927 4.28138 75.8625 4.41156C75.7323 4.54173 75.6592 4.71829 75.6592 4.90238C75.6592 5.08648 75.7323 5.26303 75.8625 5.39321C75.9927 5.52338 76.1692 5.59651 76.3533 5.59651H85.0003C85.1844 5.59651 85.361 5.52338 85.4911 5.39321C85.6213 5.26303 85.6944 5.08648 85.6944 4.90238C85.6944 4.71829 85.6213 4.54173 85.4911 4.41156C85.361 4.28138 85.1844 4.20825 85.0003 4.20825Z" fill="#3F3D56"/>
<path d="M81.5882 5.59651H75.0789C74.8948 5.59651 74.7183 5.52338 74.5881 5.39321C74.4579 5.26303 74.3848 5.08648 74.3848 4.90238C74.3848 4.71829 74.4579 4.54173 74.5881 4.41156C74.7183 4.28138 74.8948 4.20825 75.0789 4.20825H81.5884C81.7725 4.20825 81.949 4.28138 82.0792 4.41156C82.2094 4.54173 82.2825 4.71829 82.2825 4.90238C82.2825 5.08648 82.2094 5.26303 82.0792 5.39321C81.949 5.52338 81.7725 5.59651 81.5884 5.59651H81.5882Z" fill="#ECFB6D"/>
<path d="M71.7902 9.22096C72.2443 9.22096 72.6124 8.85284 72.6124 8.39875C72.6124 7.94465 72.2443 7.57654 71.7902 7.57654C71.3361 7.57654 70.968 7.94465 70.968 8.39875C70.968 8.85284 71.3361 9.22096 71.7902 9.22096Z" fill="#090814"/>
<path d="M85.0003 7.75866C85.1482 7.75866 85.29 7.8174 85.3946 7.92196C85.4991 8.02652 85.5579 8.16833 85.5579 8.3162C85.5579 8.46407 85.4991 8.60588 85.3946 8.71044C85.29 8.815 85.1482 8.87374 85.0003 8.87374H76.3533C76.2054 8.87374 76.0636 8.815 75.9591 8.71044C75.8545 8.60588 75.7958 8.46407 75.7958 8.3162C75.7958 8.16833 75.8545 8.02652 75.9591 7.92196C76.0636 7.8174 76.2054 7.75866 76.3533 7.75866H85.0003ZM85.0003 7.62207H76.3533C76.1692 7.62207 75.9927 7.6952 75.8625 7.82538C75.7323 7.95555 75.6592 8.13211 75.6592 8.3162C75.6592 8.5003 75.7323 8.67685 75.8625 8.80702C75.9927 8.9372 76.1692 9.01033 76.3533 9.01033H85.0003C85.1844 9.01033 85.361 8.9372 85.4911 8.80702C85.6213 8.67685 85.6944 8.5003 85.6944 8.3162C85.6944 8.13211 85.6213 7.95555 85.4911 7.82538C85.361 7.6952 85.1844 7.62207 85.0003 7.62207Z" fill="#3F3D56"/>
<path d="M84.0463 9.01045H75.0789C74.8948 9.01045 74.7183 8.93732 74.5881 8.80715C74.4579 8.67697 74.3848 8.50042 74.3848 8.31632C74.3848 8.13223 74.4579 7.95567 74.5881 7.8255C74.7183 7.69533 74.8948 7.62219 75.0789 7.62219H84.0463C84.2304 7.62219 84.407 7.69533 84.5372 7.8255C84.6673 7.95567 84.7405 8.13223 84.7405 8.31632C84.7405 8.50042 84.6673 8.67697 84.5372 8.80715C84.407 8.93732 84.2304 9.01045 84.0463 9.01045Z" fill="#ECFB6D"/>
<path d="M71.7902 12.6348C72.2443 12.6348 72.6124 12.2667 72.6124 11.8126C72.6124 11.3585 72.2443 10.9904 71.7902 10.9904C71.3361 10.9904 70.968 11.3585 70.968 11.8126C70.968 12.2667 71.3361 12.6348 71.7902 12.6348Z" fill="#090814"/>
<path d="M85.0003 11.1728C85.1482 11.1728 85.29 11.2316 85.3946 11.3361C85.4991 11.4407 85.5579 11.5825 85.5579 11.7304C85.5579 11.8783 85.4991 12.0201 85.3946 12.1246C85.29 12.2292 85.1482 12.2879 85.0003 12.2879H76.3533C76.2054 12.2879 76.0636 12.2292 75.9591 12.1246C75.8545 12.0201 75.7958 11.8783 75.7958 11.7304C75.7958 11.5825 75.8545 11.4407 75.9591 11.3361C76.0636 11.2316 76.2054 11.1728 76.3533 11.1728H85.0003ZM85.0003 11.0363H76.3533C76.1692 11.0363 75.9927 11.1094 75.8625 11.2396C75.7323 11.3697 75.6592 11.5463 75.6592 11.7304C75.6592 11.9145 75.7323 12.091 75.8625 12.2212C75.9927 12.3514 76.1692 12.4245 76.3533 12.4245H85.0003C85.1844 12.4245 85.361 12.3514 85.4911 12.2212C85.6213 12.091 85.6944 11.9145 85.6944 11.7304C85.6944 11.5463 85.6213 11.3697 85.4911 11.2396C85.361 11.1094 85.1844 11.0363 85.0003 11.0363Z" fill="#3F3D56"/>
<path d="M78.7205 12.4245H75.0789C74.8948 12.4245 74.7183 12.3514 74.5881 12.2212C74.4579 12.091 74.3848 11.9145 74.3848 11.7304C74.3848 11.5463 74.4579 11.3697 74.5881 11.2396C74.7183 11.1094 74.8948 11.0363 75.0789 11.0363H78.7205C78.9046 11.0363 79.0811 11.1094 79.2113 11.2396C79.3415 11.3697 79.4146 11.5463 79.4146 11.7304C79.4146 11.9145 79.3415 12.091 79.2113 12.2212C79.0811 12.3514 78.9046 12.4245 78.7205 12.4245Z" fill="#ECFB6D"/>
<path d="M119.072 42.2548H81.13C80.4339 42.2548 79.8696 42.819 79.8696 43.5151V65.5532C79.8696 66.2492 80.4339 66.8135 81.13 66.8135H119.072C119.768 66.8135 120.332 66.2492 120.332 65.5532V43.5151C120.332 42.819 119.768 42.2548 119.072 42.2548Z" fill="#F2F2F2"/>
<path d="M119.528 42.9882H80.6738V66.0246H119.528V42.9882Z" fill="white"/>
<path d="M114.709 61.6124H86.3859C86.3624 61.6124 86.3398 61.603 86.3232 61.5864C86.3065 61.5698 86.2972 61.5472 86.2972 61.5237V47.9481C86.2967 47.9362 86.2986 47.9243 86.3028 47.9131C86.3071 47.9019 86.3135 47.8917 86.3218 47.883C86.3301 47.8744 86.34 47.8675 86.351 47.8628C86.362 47.8581 86.3739 47.8557 86.3858 47.8557C86.3978 47.8557 86.4096 47.8581 86.4206 47.8628C86.4316 47.8675 86.4416 47.8744 86.4498 47.883C86.4581 47.8917 86.4646 47.9019 86.4688 47.9131C86.473 47.9243 86.4749 47.9362 86.4744 47.9481V61.4351H114.709C114.721 61.4346 114.733 61.4366 114.744 61.4408C114.755 61.445 114.766 61.4515 114.774 61.4597C114.783 61.468 114.79 61.478 114.794 61.489C114.799 61.5 114.802 61.5118 114.802 61.5238C114.802 61.5357 114.799 61.5476 114.794 61.5586C114.79 61.5696 114.783 61.5795 114.774 61.5878C114.766 61.5961 114.755 61.6025 114.744 61.6067C114.733 61.611 114.721 61.6129 114.709 61.6124Z" fill="#090814"/>
<path d="M92.4366 60.6373H89.8605C89.7908 60.6372 89.7239 60.6095 89.6746 60.5602C89.6252 60.5108 89.5975 60.444 89.5974 60.3742V56.8229C89.5975 56.7532 89.6252 56.6863 89.6746 56.637C89.7239 56.5876 89.7908 56.5599 89.8605 56.5598H92.4366C92.5064 56.5599 92.5733 56.5876 92.6226 56.637C92.6719 56.6863 92.6996 56.7532 92.6997 56.8229V60.3737C92.6998 60.4436 92.6721 60.5106 92.6227 60.56C92.5734 60.6094 92.5065 60.6372 92.4366 60.6373Z" fill="#ECFB6D"/>
<path d="M97.1348 60.6374H94.5585C94.4888 60.6373 94.4219 60.6096 94.3726 60.5602C94.3232 60.5109 94.2955 60.4441 94.2954 60.3743V53.4547C94.2955 53.385 94.3232 53.3181 94.3726 53.2688C94.4219 53.2195 94.4888 53.1917 94.5585 53.1917H97.1346C97.2044 53.1917 97.2713 53.2195 97.3206 53.2688C97.3699 53.3181 97.3976 53.385 97.3977 53.4547V60.3743C97.3976 60.444 97.3699 60.5109 97.3206 60.5602C97.2713 60.6095 97.2045 60.6373 97.1348 60.6374Z" fill="#ECFB6D"/>
<path d="M101.833 60.6373H99.2567C99.187 60.6372 99.1201 60.6095 99.0708 60.5602C99.0215 60.5108 98.9937 60.444 98.9937 60.3742V56.8229C98.9937 56.7532 99.0215 56.6863 99.0708 56.637C99.1201 56.5876 99.187 56.5599 99.2567 56.5598H101.833C101.903 56.5599 101.969 56.5876 102.019 56.637C102.068 56.6863 102.096 56.7532 102.096 56.8229V60.3737C102.096 60.4436 102.068 60.5106 102.019 60.56C101.97 60.6094 101.903 60.6372 101.833 60.6373Z" fill="#ECFB6D"/>
<path d="M106.531 60.6374H103.955C103.887 60.6388 103.821 60.6132 103.771 60.5662C103.722 60.5191 103.693 60.4544 103.692 60.3863V52.1131C103.693 52.045 103.722 51.9803 103.771 51.9332C103.821 51.8862 103.887 51.8606 103.955 51.862H106.531C106.599 51.8606 106.665 51.8862 106.714 51.9332C106.764 51.9803 106.792 52.045 106.794 52.1131V60.3861C106.792 60.4543 106.764 60.519 106.714 60.5661C106.665 60.6132 106.599 60.6388 106.531 60.6374Z" fill="#ECFB6D"/>
<path d="M111.229 60.6374H108.652C108.583 60.6373 108.516 60.6095 108.467 60.5602C108.417 60.5109 108.389 60.444 108.389 60.3743V49.7318C108.389 49.6621 108.417 49.5952 108.467 49.5459C108.516 49.4966 108.583 49.4688 108.652 49.4688H111.229C111.299 49.4688 111.365 49.4966 111.415 49.5459C111.464 49.5952 111.492 49.6621 111.492 49.7318V60.3743C111.492 60.444 111.464 60.5109 111.415 60.5602C111.365 60.6095 111.299 60.6373 111.229 60.6374Z" fill="#ECFB6D"/>
<path d="M91.149 55.4961C91.4428 55.4961 91.6809 55.258 91.6809 54.9642C91.6809 54.6705 91.4428 54.4324 91.149 54.4324C90.8553 54.4324 90.6172 54.6705 90.6172 54.9642C90.6172 55.258 90.8553 55.4961 91.149 55.4961Z" fill="#090814"/>
<path d="M95.8468 52.0391C96.1405 52.0391 96.3787 51.8009 96.3787 51.5072C96.3787 51.2135 96.1405 50.9753 95.8468 50.9753C95.5531 50.9753 95.3149 51.2135 95.3149 51.5072C95.3149 51.8009 95.5531 52.0391 95.8468 52.0391Z" fill="#090814"/>
<path d="M100.545 55.4961C100.839 55.4961 101.077 55.258 101.077 54.9642C101.077 54.6705 100.839 54.4324 100.545 54.4324C100.251 54.4324 100.013 54.6705 100.013 54.9642C100.013 55.258 100.251 55.4961 100.545 55.4961Z" fill="#090814"/>
<path d="M105.243 50.355C105.536 50.355 105.774 50.1169 105.774 49.8231C105.774 49.5294 105.536 49.2913 105.243 49.2913C104.949 49.2913 104.711 49.5294 104.711 49.8231C104.711 50.1169 104.949 50.355 105.243 50.355Z" fill="#090814"/>
<path d="M109.94 48.4048C110.234 48.4048 110.472 48.1667 110.472 47.8729C110.472 47.5792 110.234 47.3411 109.94 47.3411C109.647 47.3411 109.408 47.5792 109.408 47.8729C109.408 48.1667 109.647 48.4048 109.94 48.4048Z" fill="#090814"/>
<path d="M100.556 55.0834L95.8471 51.5562L91.2021 55.0354L91.0959 54.8936L95.8471 51.3349L100.534 54.8454L105.191 49.7486L105.21 49.741L109.908 47.8481L109.974 48.0126L105.295 49.8979L100.556 55.0834Z" fill="#090814"/>
</svg>
