<svg width="82" height="72" viewBox="0 0 82 72" fill="none" xmlns="http://www.w3.org/2000/svg">
<path d="M36.98 45.56C35.78 45.56 34.64 44.96 33.86 43.9L31.46 40.7C31.46 40.72 31.36 40.66 31.32 40.66H30.58C23.74 40.66 19.5 38.8 19.5 29.58V21.58C19.5 13.16 24.64 10.96 28.96 10.58C29.44 10.52 30 10.5 30.58 10.5H43.38C50.62 10.5 54.46 14.34 54.46 21.58V29.58C54.46 30.16 54.44 30.72 54.36 31.26C54 35.52 51.8 40.66 43.38 40.66H42.58L40.1 43.9C39.32 44.96 38.18 45.56 36.98 45.56ZM30.58 13.5C30.12 13.5 29.68 13.52 29.26 13.56C24.62 13.96 22.5 16.5 22.5 21.58V29.58C22.5 36.44 24.62 37.66 30.58 37.66H31.38C32.28 37.66 33.3 38.16 33.86 38.88L36.26 42.1C36.7 42.7 37.26 42.7 37.7 42.1L40.1 38.9C40.68 38.12 41.6 37.66 42.58 37.66H43.38C48.46 37.66 51 35.52 51.38 30.96C51.44 30.48 51.46 30.04 51.46 29.58V21.58C51.46 16 48.96 13.5 43.38 13.5H30.58Z" fill="#3C3C3C"/>
<path d="M36.9805 28.38C35.8605 28.38 34.9805 27.48 34.9805 26.38C34.9805 25.28 35.8805 24.38 36.9805 24.38C38.0805 24.38 38.9805 25.28 38.9805 26.38C38.9805 27.48 38.1005 28.38 36.9805 28.38Z" fill="#3C3C3C"/>
<path d="M43.3799 28.38C42.2599 28.38 41.3799 27.48 41.3799 26.38C41.3799 25.28 42.2799 24.38 43.3799 24.38C44.4799 24.38 45.3799 25.28 45.3799 26.38C45.3799 27.48 44.4799 28.38 43.3799 28.38Z" fill="#3C3C3C"/>
<path d="M30.5996 28.38C29.4796 28.38 28.5996 27.48 28.5996 26.38C28.5996 25.28 29.4996 24.38 30.5996 24.38C31.6996 24.38 32.5996 25.28 32.5996 26.38C32.5996 27.48 31.6996 28.38 30.5996 28.38Z" fill="#3C3C3C"/>
<path d="M52.8803 32.58C52.4803 32.58 52.0803 32.42 51.8003 32.12C51.4803 31.8 51.3403 31.34 51.4003 30.9C51.4603 30.48 51.4802 30.04 51.4802 29.58V21.58C51.4802 16 48.9803 13.5 43.4003 13.5H30.6002C30.1402 13.5 29.7003 13.52 29.2803 13.56C28.8403 13.62 28.3803 13.46 28.0603 13.16C27.7403 12.84 27.5602 12.4 27.6002 11.96C27.9602 7.64002 30.1802 2.5 38.6002 2.5H51.4003C58.6403 2.5 62.4802 6.34002 62.4802 13.58V21.58C62.4802 30 57.3403 32.2 53.0203 32.58C52.9603 32.58 52.9203 32.58 52.8803 32.58ZM30.8403 10.5H43.3803C50.6203 10.5 54.4603 14.34 54.4603 21.58V29.32C57.8603 28.48 59.4603 25.98 59.4603 21.58V13.58C59.4603 8.00002 56.9603 5.5 51.3803 5.5H38.5803C34.1803 5.5 31.7003 7.1 30.8403 10.5Z" fill="#3C3C3C"/>
<path d="M17.1055 70.0117C16.2461 70.0117 15.5488 69.8477 15.0137 69.5195C14.4785 69.1953 14.0859 68.7578 13.8359 68.207C13.5859 67.6602 13.4609 67.0527 13.4609 66.3848C13.4609 66.0215 13.4961 65.6367 13.5664 65.2305C13.6367 64.8203 13.7539 64.3965 13.918 63.959L15.248 64.4395C15.127 64.791 15.0352 65.1328 14.9727 65.4648C14.9102 65.793 14.8789 66.0957 14.8789 66.373C14.8789 66.7559 14.9473 67.1055 15.084 67.4219C15.2246 67.7383 15.457 67.9902 15.7812 68.1777C16.1055 68.3652 16.5469 68.459 17.1055 68.459C17.7188 68.459 18.2168 68.3926 18.5996 68.2598C18.9863 68.127 19.2695 67.9766 19.4492 67.8086C19.6289 67.6406 19.7188 67.5039 19.7188 67.3984C19.7188 67.2539 19.6484 67.1504 19.5078 67.0879C19.3711 67.0293 19.1523 67 18.8516 67H17.9434C17.7949 67 17.6992 66.9609 17.6562 66.8828C17.6172 66.8047 17.5781 66.6992 17.5391 66.5664L17.3105 65.7227C17.2871 65.6367 17.2812 65.5664 17.293 65.5117C17.3047 65.457 17.373 65.4297 17.498 65.4297H20.9785V67H20.9668C20.998 67.0859 21.0176 67.1562 21.0254 67.2109C21.0332 67.2656 21.0371 67.3262 21.0371 67.3926C21.0371 67.7324 20.9512 68.0586 20.7793 68.3711C20.6074 68.6875 20.3535 68.9688 20.0176 69.2148C19.6816 69.4609 19.2695 69.6543 18.7812 69.7949C18.293 69.9395 17.7344 70.0117 17.1055 70.0117ZM20.75 65.4238H22.1035V67H20.75V65.4238ZM22.9121 67H21.9746V65.4238H22.9121C23.2285 65.4238 23.4434 65.3281 23.5566 65.1367C23.6738 64.9453 23.7324 64.7012 23.7324 64.4043C23.7324 64.1426 23.7012 63.8574 23.6387 63.5488C23.5801 63.2363 23.5195 62.9297 23.457 62.6289L24.8926 62.2598C24.9668 62.6152 25.0254 62.9688 25.0684 63.3203C25.1113 63.668 25.1328 64 25.1328 64.3164C25.1328 64.8281 25.0645 65.2871 24.9277 65.6934C24.791 66.0957 24.5605 66.4141 24.2363 66.6484C23.9121 66.8828 23.4707 67 22.9121 67ZM23.0586 67.7324L24.0723 68.7461L23.0586 69.7598L22.0449 68.7461L23.0586 67.7324ZM30.0488 67C29.8613 67 29.6875 66.9785 29.5273 66.9355C29.3672 66.8926 29.2344 66.8379 29.1289 66.7715C29.0352 67.3535 28.8418 67.877 28.5488 68.3418C28.2559 68.8066 27.8633 69.1953 27.3711 69.5078C26.8828 69.8242 26.2949 70.0508 25.6074 70.1875L25.0684 68.7461C25.6465 68.6172 26.1367 68.4453 26.5391 68.2305C26.9453 68.0195 27.2539 67.7402 27.4648 67.3926C27.6758 67.0449 27.7812 66.6113 27.7812 66.0918C27.7812 65.7402 27.7285 65.3496 27.623 64.9199C27.5215 64.4902 27.4062 64.0859 27.2773 63.707L28.7305 63.2266L29.0703 64.5332C29.1406 64.8027 29.2441 65.0195 29.3809 65.1836C29.5215 65.3438 29.7227 65.4238 29.9844 65.4238H30.2129V67H30.0488ZM33.8105 63.8184C33.6426 63.8184 33.4902 63.875 33.3535 63.9883C33.2207 64.1016 33.1016 64.2402 32.9961 64.4043C32.8945 64.5645 32.8086 64.7207 32.7383 64.873C32.8516 64.9824 32.9609 65.0781 33.0664 65.1602C33.1758 65.2383 33.2773 65.3047 33.3711 65.3594C33.5156 65.4414 33.6484 65.5 33.7695 65.5352C33.8945 65.5703 34.0039 65.5879 34.0977 65.5879C34.3203 65.5879 34.4805 65.5137 34.5781 65.3652C34.6797 65.2168 34.7305 65.0371 34.7305 64.8262C34.7305 64.5488 34.6484 64.3125 34.4844 64.1172C34.3203 63.918 34.0957 63.8184 33.8105 63.8184ZM34.0918 67.1348C33.8223 67.1348 33.5664 67.0957 33.3242 67.0176C33.082 66.9395 32.8457 66.8301 32.6152 66.6895C32.3887 66.5488 32.1602 66.3867 31.9297 66.2031C31.7852 66.3555 31.6387 66.4922 31.4902 66.6133C31.3418 66.7305 31.1699 66.8242 30.9746 66.8945C30.7793 66.9648 30.5332 67 30.2363 67H29.9785V65.4238H30.207C30.4141 65.4238 30.5957 65.3496 30.752 65.2012C30.9082 65.0527 31.0586 64.8613 31.2031 64.627C31.3477 64.3887 31.4961 64.1387 31.6484 63.877C31.8047 63.6113 31.9785 63.3594 32.1699 63.1211C32.3613 62.8828 32.5859 62.6895 32.8438 62.541C33.1016 62.3926 33.4082 62.3184 33.7637 62.3184C34.2441 62.3184 34.6602 62.4336 35.0117 62.6641C35.3672 62.8906 35.6406 63.1914 35.832 63.5664C36.0234 63.9414 36.1191 64.3516 36.1191 64.7969C36.1191 65.25 36.043 65.6523 35.8906 66.0039C35.7383 66.3555 35.5117 66.6328 35.2109 66.8359C34.9141 67.0352 34.541 67.1348 34.0918 67.1348ZM40.4492 58.8145H41.9199V64.2168C41.9199 64.6582 41.9863 64.9707 42.1191 65.1543C42.2559 65.334 42.5176 65.4238 42.9043 65.4238H43.0508V67H42.9043C42.0566 67 41.4355 66.7793 41.041 66.3379C40.6465 65.8965 40.4492 65.2266 40.4492 64.3281V58.8145ZM42.8164 65.4238H43.0977V67H42.8164V65.4238ZM44.0234 67.7324L45.0371 68.7461L44.0234 69.7598L43.0098 68.7461L44.0234 67.7324ZM43.877 67H42.9395V65.4238H43.877C44.1934 65.4238 44.4082 65.3281 44.5215 65.1367C44.6387 64.9453 44.6973 64.7012 44.6973 64.4043C44.6973 64.1426 44.666 63.8574 44.6035 63.5488C44.5449 63.2363 44.4844 62.9297 44.4219 62.6289L45.8574 62.2598C45.9316 62.6152 45.9902 62.9688 46.0332 63.3203C46.0762 63.668 46.0977 64 46.0977 64.3164C46.0977 64.8281 46.0293 65.2871 45.8926 65.6934C45.7559 66.0957 45.5254 66.4141 45.2012 66.6484C44.877 66.8828 44.4355 67 43.877 67ZM56.1055 60.707L57.0723 61.668L56.1055 62.6406L55.1387 61.668L56.1055 60.707ZM54.125 60.707L55.1035 61.668L54.125 62.6406L53.1699 61.668L54.125 60.707ZM58.4082 63.0801L59.7793 62.916L59.8965 64.5332C59.916 64.8418 60 65.0684 60.1484 65.2129C60.2969 65.3535 60.5371 65.4238 60.8691 65.4238H61.0039V67H60.8691C60.4238 67 60.0527 66.918 59.7559 66.7539C59.4629 66.5898 59.2207 66.3555 59.0293 66.0508C58.6777 66.3867 58.2461 66.6289 57.7344 66.7773C57.2266 66.9258 56.5566 67 55.7246 67H54.7461C54.0586 67 53.4316 66.957 52.8652 66.8711C52.2988 66.7852 51.8105 66.6367 51.4004 66.4258C50.9902 66.2148 50.6738 65.9238 50.4512 65.5527C50.2285 65.1777 50.1172 64.7031 50.1172 64.1289C50.1172 63.793 50.1543 63.4668 50.2285 63.1504C50.3066 62.8301 50.4023 62.5312 50.5156 62.2539L51.8281 62.752C51.7617 62.9316 51.6973 63.1387 51.6348 63.373C51.5723 63.6035 51.541 63.8262 51.541 64.041C51.541 64.3418 51.6211 64.584 51.7812 64.7676C51.9453 64.9512 52.1719 65.0898 52.4609 65.1836C52.7539 65.2773 53.0938 65.3418 53.4805 65.377C53.8711 65.4082 54.293 65.4238 54.7461 65.4238H55.7246C56.3027 65.4238 56.7949 65.3984 57.2012 65.3477C57.6113 65.2969 57.9238 65.1934 58.1387 65.0371C58.3574 64.8809 58.4668 64.6445 58.4668 64.3281C58.4668 64.1367 58.4609 63.9277 58.4492 63.7012C58.4375 63.4707 58.4238 63.2637 58.4082 63.0801ZM64.7949 69.1035L65.709 70.0176L64.7949 70.9316L63.8809 70.0176L64.7949 69.1035ZM65.8145 67.6094L66.7285 68.5234L65.8145 69.4375L64.9004 68.5234L65.8145 67.6094ZM63.7754 67.6094L64.6895 68.5234L63.7754 69.4375L62.8613 68.5234L63.7754 67.6094ZM60.7754 65.4238H61.7715C62.166 65.4238 62.5332 65.3945 62.873 65.3359C63.2168 65.2773 63.5566 65.1914 63.8926 65.0781C64.2324 64.9609 64.5879 64.8184 64.959 64.6504C65.3301 64.4824 65.7402 64.291 66.1895 64.0762C65.8926 63.9668 65.6172 63.8633 65.3633 63.7656C65.1133 63.6641 64.8867 63.5762 64.6836 63.502C64.4844 63.4238 64.3145 63.3633 64.1738 63.3203C64.0332 63.2734 63.9277 63.25 63.8574 63.25C63.6387 63.25 63.4434 63.3164 63.2715 63.4492C63.0996 63.582 62.9551 63.7246 62.8379 63.877L62.5566 64.2285L61.3262 63.6309L61.5547 63.2559C61.8242 62.8145 62.1484 62.4492 62.5273 62.1602C62.9102 61.8672 63.3555 61.7207 63.8633 61.7207C64.0781 61.7207 64.3281 61.7715 64.6133 61.873C64.8984 61.9707 65.207 62.0957 65.5391 62.248C65.8711 62.3965 66.2129 62.5469 66.5645 62.6992C66.9199 62.8516 67.2715 62.9805 67.6191 63.0859C67.9707 63.1875 68.3047 63.2422 68.6211 63.25V64.6914C68.3516 64.7305 68.0918 64.7949 67.8418 64.8848C67.5957 64.9707 67.332 65.084 67.0508 65.2246C66.7695 65.3652 66.4434 65.5352 66.0723 65.7344C65.5723 66 65.1016 66.2285 64.6602 66.4199C64.2188 66.6074 63.7656 66.752 63.3008 66.8535C62.8398 66.9512 62.3242 67 61.7539 67H60.7754V65.4238Z" fill="#3C3C3C"/>
</svg>
