<svg width="82" height="72" viewBox="0 0 82 72" fill="none" xmlns="http://www.w3.org/2000/svg">
<path d="M29.5 4C27.0325 4 25 6.0325 25 8.5V22.0508C23.8602 22.2829 23 23.2929 23 24.5V35.5C23 36.7071 23.8602 37.7171 25 37.9492V39.5C25 41.981 27.019 44 29.5 44H52.0508L50.0254 41.9746C49.7384 41.6876 49.5196 41.355 49.3496 41H29.5C28.673 41 28 40.327 28 39.5V38H49.3496C49.5196 37.645 49.7394 37.3124 50.0254 37.0254C50.6864 36.3644 51.565 36 52.5 36C53.028 36 53.537 36.1159 54 36.3359V35H26V25H56V27.3516C56.456 27.1336 56.961 27 57.5 27C58.039 27 58.544 27.1336 59 27.3516V24.5C59 23.2929 58.1398 22.2829 57 22.0508V18.5C56.9999 18.1022 56.8419 17.7207 56.5605 17.4395L56.5449 17.4238L43.5605 4.43945C43.2793 4.15815 42.8978 4.00008 42.5 4H29.5ZM29.5 7H41V15.5C41 17.9675 43.0325 20 45.5 20H54V22H28V8.5C28 7.6535 28.6535 7 29.5 7ZM44 9.12109L51.8789 17H45.5C44.6535 17 44 16.3465 44 15.5V9.12109ZM33 26C32.448 26 32 26.448 32 27V33C32 33.552 32.448 34 33 34C33.552 34 34 33.552 34 33V32H35C36.654 32 38 30.654 38 29C38 27.346 36.654 26 35 26H33ZM40 26C39.448 26 39 26.448 39 27V33C39 33.552 39.448 34 40 34H41C43.206 34 45 32.206 45 30C45 27.794 43.206 26 41 26H40ZM47 26C46.448 26 46 26.448 46 27V33C46 33.552 46.448 34 47 34C47.552 34 48 33.552 48 33V31H49.5C50.052 31 50.5 30.552 50.5 30C50.5 29.448 50.052 29 49.5 29H48V28H50C50.552 28 51 27.552 51 27C51 26.448 50.552 26 50 26H47ZM34 28H35C35.551 28 36 28.449 36 29C36 29.551 35.551 30 35 30H34V28ZM41 28C42.103 28 43 28.897 43 30C43 31.103 42.103 32 41 32V28ZM57.5 29C56.671 29 56 29.671 56 30.5V40.8789L53.5605 38.4395C52.9745 37.8535 52.0255 37.8535 51.4395 38.4395C50.8535 39.0245 50.8535 39.9755 51.4395 40.5605L56.4395 45.5605C56.7315 45.8535 57.116 46 57.5 46C57.884 46 58.2675 45.8535 58.5605 45.5605L63.5605 40.5605C64.1455 39.9745 64.1455 39.0255 63.5605 38.4395C62.9745 37.8535 62.0255 37.8535 61.4395 38.4395L59 40.8789V30.5C59 29.671 58.329 29 57.5 29Z" fill="#3C3C3C"/>
<path d="M18.1836 67C17.8125 67 17.4883 66.9512 17.2109 66.8535C16.9336 66.7559 16.7031 66.6055 16.5195 66.4023C16.3359 66.1992 16.1953 65.9395 16.0977 65.623C15.8672 65.8145 15.6309 65.957 15.3887 66.0508C15.1465 66.1406 14.8828 66.1855 14.5977 66.1855C13.9648 66.1855 13.4375 66.0137 13.0156 65.6699C12.5938 65.3262 12.3828 64.8242 12.3828 64.1641C12.3828 63.8008 12.4629 63.4746 12.623 63.1855C12.7871 62.8965 13.0078 62.6387 13.2852 62.4121C13.5664 62.1855 13.8887 61.9883 14.252 61.8203C14.6191 61.6484 15.0059 61.5 15.4121 61.375L15.3711 61.0938L16.6953 60.8242L17.2461 64.5566C17.2812 64.8105 17.377 65.0195 17.5332 65.1836C17.6895 65.3438 17.9141 65.4238 18.207 65.4238H18.3828V67H18.1836ZM15.7988 63.8887C15.7988 63.834 15.7949 63.7734 15.7871 63.707C15.7793 63.6406 15.7676 63.5723 15.752 63.502L15.6406 62.8223C15.4023 62.9043 15.1738 62.9941 14.9551 63.0918C14.7363 63.1855 14.541 63.2871 14.3691 63.3965C14.2012 63.502 14.0684 63.6152 13.9707 63.7363C13.873 63.8574 13.8242 63.9824 13.8242 64.1113C13.8242 64.2949 13.8926 64.4395 14.0293 64.5449C14.1699 64.6465 14.3535 64.6973 14.5801 64.6973C14.7715 64.6973 14.9609 64.668 15.1484 64.6094C15.3359 64.5508 15.4902 64.4609 15.6113 64.3398C15.7363 64.2188 15.7988 64.0684 15.7988 63.8887ZM21.9863 63.8184C21.8184 63.8184 21.666 63.875 21.5293 63.9883C21.3965 64.1016 21.2773 64.2402 21.1719 64.4043C21.0703 64.5645 20.9844 64.7207 20.9141 64.873C21.0273 64.9824 21.1367 65.0781 21.2422 65.1602C21.3516 65.2383 21.4531 65.3047 21.5469 65.3594C21.6914 65.4414 21.8242 65.5 21.9453 65.5352C22.0703 65.5703 22.1797 65.5879 22.2734 65.5879C22.4961 65.5879 22.6562 65.5137 22.7539 65.3652C22.8555 65.2168 22.9062 65.0371 22.9062 64.8262C22.9062 64.5488 22.8242 64.3125 22.6602 64.1172C22.4961 63.918 22.2715 63.8184 21.9863 63.8184ZM22.2676 67.1348C21.998 67.1348 21.7422 67.0957 21.5 67.0176C21.2578 66.9395 21.0215 66.8301 20.791 66.6895C20.5645 66.5488 20.3359 66.3867 20.1055 66.2031C19.9609 66.3555 19.8145 66.4922 19.666 66.6133C19.5176 66.7305 19.3457 66.8242 19.1504 66.8945C18.9551 66.9648 18.709 67 18.4121 67H18.1543V65.4238H18.3828C18.5898 65.4238 18.7715 65.3496 18.9277 65.2012C19.084 65.0527 19.2344 64.8613 19.3789 64.627C19.5234 64.3887 19.6719 64.1387 19.8242 63.877C19.9805 63.6113 20.1543 63.3594 20.3457 63.1211C20.5371 62.8828 20.7617 62.6895 21.0195 62.541C21.2773 62.3926 21.584 62.3184 21.9395 62.3184C22.4199 62.3184 22.8359 62.4336 23.1875 62.6641C23.543 62.8906 23.8164 63.1914 24.0078 63.5664C24.1992 63.9414 24.2949 64.3516 24.2949 64.7969C24.2949 65.25 24.2188 65.6523 24.0664 66.0039C23.9141 66.3555 23.6875 66.6328 23.3867 66.8359C23.0898 67.0352 22.7168 67.1348 22.2676 67.1348ZM25.6016 58.8145H27.0723V64.2168C27.0723 64.6582 27.1387 64.9707 27.2715 65.1543C27.4082 65.334 27.6699 65.4238 28.0566 65.4238H28.2031V67H28.0566C27.209 67 26.5879 66.7793 26.1934 66.3379C25.7988 65.8965 25.6016 65.2266 25.6016 64.3281V58.8145ZM28.9121 67H27.9746V65.4238H28.9121C29.2285 65.4238 29.4434 65.3281 29.5566 65.1367C29.6738 64.9453 29.7324 64.7012 29.7324 64.4043C29.7324 64.1426 29.7012 63.8574 29.6387 63.5488C29.5801 63.2363 29.5195 62.9297 29.457 62.6289L30.8926 62.2598C30.9668 62.6152 31.0254 62.9688 31.0684 63.3203C31.1113 63.668 31.1328 64 31.1328 64.3164C31.1328 64.8281 31.0645 65.2871 30.9277 65.6934C30.791 66.0957 30.5605 66.4141 30.2363 66.6484C29.9121 66.8828 29.4707 67 28.9121 67ZM29.6035 59.5L30.6172 60.5137L29.6035 61.5273L28.5898 60.5137L29.6035 59.5ZM35.5215 67C35.334 67 35.1602 66.9785 35 66.9355C34.8398 66.8926 34.707 66.8379 34.6016 66.7715C34.5078 67.3535 34.3145 67.877 34.0215 68.3418C33.7285 68.8066 33.3359 69.1953 32.8438 69.5078C32.3555 69.8242 31.7676 70.0508 31.0801 70.1875L30.541 68.7461C31.1191 68.6172 31.6094 68.4453 32.0117 68.2305C32.418 68.0195 32.7266 67.7402 32.9375 67.3926C33.1484 67.0449 33.2539 66.6113 33.2539 66.0918C33.2539 65.7402 33.2012 65.3496 33.0957 64.9199C32.9941 64.4902 32.8789 64.0859 32.75 63.707L34.2031 63.2266L34.543 64.5332C34.6133 64.8027 34.7168 65.0195 34.8535 65.1836C34.9941 65.3438 35.1953 65.4238 35.457 65.4238H35.6855V67H35.5215ZM35.4453 65.4238H35.7266V67H35.4453V65.4238ZM36.6523 67.7324L37.666 68.7461L36.6523 69.7598L35.6387 68.7461L36.6523 67.7324ZM36.5059 67H35.5684V65.4238H36.5059C36.8223 65.4238 37.0371 65.3281 37.1504 65.1367C37.2676 64.9453 37.3262 64.7012 37.3262 64.4043C37.3262 64.1426 37.2949 63.8574 37.2324 63.5488C37.1738 63.2363 37.1133 62.9297 37.0508 62.6289L38.4863 62.2598C38.5605 62.6152 38.6191 62.9688 38.6621 63.3203C38.7051 63.668 38.7266 64 38.7266 64.3164C38.7266 64.8281 38.6582 65.2871 38.5215 65.6934C38.3848 66.0957 38.1543 66.4141 37.8301 66.6484C37.5059 66.8828 37.0645 67 36.5059 67ZM44.2754 65.4473C44.6348 65.4473 44.9707 65.4199 45.2832 65.3652C45.5957 65.3105 45.8477 65.2168 46.0391 65.084C46.2305 64.9473 46.3262 64.7578 46.3262 64.5156C46.3262 64.2695 46.2148 64.0098 45.9922 63.7363C45.7695 63.4629 45.4668 63.1895 45.084 62.916C44.7012 62.6387 44.2695 62.3828 43.7891 62.1484L44.4629 60.7422C44.8965 60.957 45.3086 61.1914 45.6992 61.4453C46.0898 61.6992 46.4375 61.9785 46.7422 62.2832C47.0469 62.5879 47.2871 62.9219 47.4629 63.2852C47.6387 63.6445 47.7266 64.0371 47.7266 64.4629C47.7266 65.0605 47.5898 65.5449 47.3164 65.916C47.0469 66.2871 46.6602 66.5586 46.1562 66.7305C45.6562 66.9023 45.0586 66.9883 44.3633 66.9883C44.0625 66.9883 43.7793 66.9785 43.5137 66.959C43.252 66.9355 42.9961 66.8965 42.7461 66.8418V65.2715C43 65.3223 43.2656 65.3652 43.543 65.4004C43.8242 65.4316 44.0684 65.4473 44.2754 65.4473ZM50.9141 62.2598C51.2734 62.2598 51.5938 62.3418 51.875 62.5059C52.1562 62.6699 52.3965 62.8965 52.5957 63.1855C52.7949 63.4746 52.9531 63.8105 53.0703 64.1934C53.1875 64.5762 53.2578 64.9863 53.2812 65.4238H53.7734V67H53.1758C53.0391 67.5664 52.8086 68.0586 52.4844 68.4766C52.1602 68.8984 51.7324 69.25 51.2012 69.5312C50.6699 69.8164 50.0195 70.0332 49.25 70.1816L48.7168 68.7402C49.2285 68.6387 49.6934 68.5059 50.1113 68.3418C50.5332 68.1816 50.8867 67.9883 51.1719 67.7617C51.457 67.5352 51.6484 67.2812 51.7461 67H51.125C50.3438 67 49.75 66.8379 49.3438 66.5137C48.9375 66.1895 48.7344 65.6719 48.7344 64.9609C48.7344 64.6719 48.7793 64.3711 48.8691 64.0586C48.959 63.7422 49.0938 63.4492 49.2734 63.1797C49.457 62.9062 49.6836 62.6855 49.9531 62.5176C50.2266 62.3457 50.5469 62.2598 50.9141 62.2598ZM51.1074 65.4238H51.9102C51.8945 65.2207 51.8633 65.0234 51.8164 64.832C51.7695 64.6406 51.7051 64.4668 51.623 64.3105C51.5449 64.1543 51.4453 64.0332 51.3242 63.9473C51.207 63.8574 51.0664 63.8125 50.9023 63.8125C50.707 63.8125 50.5508 63.875 50.4336 64C50.3203 64.1211 50.2402 64.2656 50.1934 64.4336C50.1465 64.6016 50.123 64.7578 50.123 64.9023C50.123 65.1211 50.2109 65.2637 50.3867 65.3301C50.5625 65.3926 50.8027 65.4238 51.1074 65.4238ZM54.9922 64.2402V58.8145H56.4629V64.2461C56.4629 64.5 56.4883 64.7148 56.5391 64.8906C56.5938 65.0664 56.6895 65.1992 56.8262 65.2891C56.9629 65.3789 57.1562 65.4238 57.4062 65.4238H57.5938V67H57.418C57.1367 67 56.8926 66.9707 56.6855 66.9121C56.4824 66.8535 56.3027 66.7676 56.1465 66.6543C55.9941 66.5371 55.8555 66.3926 55.7305 66.2207C55.5938 66.3848 55.4453 66.5254 55.2852 66.6426C55.1289 66.7559 54.9414 66.8438 54.7227 66.9062C54.5078 66.9688 54.2441 67 53.9316 67H53.5449V65.4238H53.8965C54.1699 65.4238 54.3867 65.3809 54.5469 65.2949C54.707 65.2051 54.8203 65.0723 54.8867 64.8965C54.957 64.7207 54.9922 64.502 54.9922 64.2402ZM58.3027 67H57.3652V65.4238H58.3027C58.6191 65.4238 58.834 65.3281 58.9473 65.1367C59.0645 64.9453 59.123 64.7012 59.123 64.4043C59.123 64.1426 59.0918 63.8574 59.0293 63.5488C58.9707 63.2363 58.9102 62.9297 58.8477 62.6289L60.2832 62.2598C60.3574 62.6152 60.416 62.9688 60.459 63.3203C60.502 63.668 60.5234 64 60.5234 64.3164C60.5234 64.8281 60.4551 65.2871 60.3184 65.6934C60.1816 66.0957 59.9512 66.4141 59.627 66.6484C59.3027 66.8828 58.8613 67 58.3027 67ZM58.9941 59.5L60.0078 60.5137L58.9941 61.5273L57.9805 60.5137L58.9941 59.5ZM63.3066 58.8145V66.9941H61.8418V58.8145H63.3066ZM66.1543 65.4473C66.5137 65.4473 66.8496 65.4199 67.1621 65.3652C67.4746 65.3105 67.7266 65.2168 67.918 65.084C68.1094 64.9473 68.2051 64.7578 68.2051 64.5156C68.2051 64.2695 68.0938 64.0098 67.8711 63.7363C67.6484 63.4629 67.3457 63.1895 66.9629 62.916C66.5801 62.6387 66.1484 62.3828 65.668 62.1484L66.3418 60.7422C66.7754 60.957 67.1875 61.1914 67.5781 61.4453C67.9688 61.6992 68.3164 61.9785 68.6211 62.2832C68.9258 62.5879 69.166 62.9219 69.3418 63.2852C69.5176 63.6445 69.6055 64.0371 69.6055 64.4629C69.6055 65.0605 69.4688 65.5449 69.1953 65.916C68.9258 66.2871 68.5391 66.5586 68.0352 66.7305C67.5352 66.9023 66.9375 66.9883 66.2422 66.9883C65.9414 66.9883 65.6582 66.9785 65.3926 66.959C65.1309 66.9355 64.875 66.8965 64.625 66.8418V65.2715C64.8789 65.3223 65.1445 65.3652 65.4219 65.4004C65.7031 65.4316 65.9473 65.4473 66.1543 65.4473Z" fill="#3C3C3C"/>
</svg>
