<svg width="137" height="132" viewBox="0 0 137 132" fill="none" xmlns="http://www.w3.org/2000/svg">
<g clip-path="url(#clip0_180_1830)">
<g clip-path="url(#clip1_180_1830)">
<path d="M67.3946 131.332H0.175939C0.129147 131.332 0.0842723 131.314 0.0511857 131.282C0.0180992 131.251 -0.000488281 131.208 -0.000488281 131.163C-0.000488281 131.118 0.0180992 131.076 0.0511857 131.044C0.0842723 131.012 0.129147 130.995 0.175939 130.995H67.3946C67.4414 130.995 67.4863 131.012 67.5194 131.044C67.5525 131.076 67.5711 131.118 67.5711 131.163C67.5711 131.208 67.5525 131.251 67.5194 131.282C67.4863 131.314 67.4414 131.332 67.3946 131.332Z" fill="#3F3D56"/>
<path d="M31.3149 46.6564C31.4087 46.8653 34.3043 46.8428 34.436 47.0289C35.4581 48.4644 31.7733 54.5754 32.7956 56.0135L32.938 56.1756C32.6045 56.0289 30.7296 54.666 29.7096 54.0819C29.2966 53.6487 28.8205 53.2745 28.2959 52.9708L31.3149 46.6564Z" fill="#090814"/>
<path d="M23.5164 91.1306C24.1437 95.3325 23.3782 99.6171 22.1872 103.705C21.9645 104.466 21.725 105.234 21.3085 105.917C20.8921 106.601 20.3125 107.188 19.8225 107.831C18.803 109.172 18.2044 110.752 17.6452 112.317C16.1035 116.646 14.8088 121.052 13.7666 125.515C13.7038 125.698 13.7038 125.895 13.7666 126.078C13.9145 126.403 14.3631 126.445 14.732 126.443L19.5012 126.419C19.6713 126.108 19.3568 125.77 19.1613 125.471C18.4816 124.462 19.1342 123.15 19.7342 122.094C21.1924 119.528 22.3212 116.803 23.0961 113.979C23.4224 112.79 23.6876 111.574 24.218 110.452C24.8587 109.092 25.8632 107.922 26.6791 106.65C27.6276 105.171 28.3193 103.566 29.006 101.955C29.9647 99.7182 30.9317 97.4543 31.3091 95.0652C31.6644 92.8224 31.4893 90.5371 31.2573 88.2796C31.2679 88.2125 31.2617 88.1439 31.2391 88.0795C31.2166 88.0151 31.1783 87.9567 31.1275 87.9092C31.0768 87.8617 31.0149 87.8263 30.947 87.8061C30.8792 87.7858 30.8072 87.7812 30.7371 87.7927L24.3379 87.4779C23.0189 87.413 22.7061 87.1371 22.9068 88.3738C23.0472 89.2967 23.3771 90.1961 23.5164 91.1306Z" fill="#090814"/>
<path d="M24.7741 80.9157C23.4738 82.701 22.1107 84.7555 22.5424 86.8929C22.8707 88.5159 24.1655 89.7737 25.3877 90.9503C30.2725 95.6342 35.0756 100.837 36.738 107.256C37.1663 108.915 37.3737 110.617 37.7424 112.287C38.412 115.322 39.6121 118.224 40.801 121.108L43.9895 128.793C44.9783 128.816 45.9506 128.548 46.7745 128.026C47.5985 127.503 48.2343 126.751 48.5956 125.872C48.1774 125.841 47.6319 125.455 47.3872 125.13C46.0274 123.333 45.7487 121.021 45.4 118.831C45.0142 116.41 44.4992 114.008 43.9831 111.607L41.6992 100.987C41.4357 99.762 41.1723 98.535 40.829 97.3275C39.4998 92.6501 36.9809 88.239 36.5918 83.4027C36.5341 82.6919 36.4983 81.9113 35.9936 81.3838C35.4632 80.827 34.5939 80.7346 33.8061 80.6908C30.6226 80.4952 27.876 80.1982 24.7741 80.9157Z" fill="#090814"/>
<path d="M16.1863 125.406C15.8397 125.327 15.4853 125.284 15.1291 125.276C14.7878 125.287 14.4539 125.375 14.1542 125.531C13.8544 125.688 13.597 125.909 13.4023 126.177C13.2038 126.48 13.0478 126.808 12.9384 127.15L12.4777 128.413C12.3417 128.783 12.2092 129.209 12.4113 129.549C12.5618 129.759 12.7784 129.919 13.03 130.005C14.1449 130.479 15.4094 130.505 16.6162 130.618C17.7958 130.729 18.9651 130.927 20.1294 131.134C20.5305 131.207 20.93 131.28 21.3362 131.319C22.2439 131.407 23.1582 131.319 24.0664 131.241L25.003 131.155C25.3165 131.142 25.6265 131.088 25.9242 130.993C26.0729 130.945 26.2098 130.868 26.3266 130.768C26.4435 130.668 26.5378 130.546 26.604 130.41C26.8352 129.863 26.3389 129.216 25.732 129.102C25.4856 129.057 25.2221 129.078 24.9807 129.047C24.6975 129.001 24.4213 128.922 24.158 128.812C22.9683 128.362 21.7496 127.908 20.6958 127.2C20.4035 127.004 20.0976 126.73 20.1299 126.389C20.1603 126.243 20.2111 126.102 20.2811 125.969C20.4241 125.62 20.429 125.234 20.2948 124.883C20.237 124.734 20.1247 124.576 19.9664 124.558C19.5172 124.506 19.5721 125.131 19.5058 125.37C19.4157 125.694 19.2524 125.723 18.9329 125.694C18.0143 125.615 17.0966 125.571 16.1863 125.406Z" fill="#ECFB6D"/>
<path d="M43.0181 129.766C43.0265 130.401 43.2551 131.014 43.6681 131.511C43.7943 131.659 43.9518 131.78 44.1304 131.867C44.3992 131.972 44.6903 132.016 44.9802 131.995C45.7893 131.978 46.5887 131.823 47.341 131.539C47.606 131.424 47.8785 131.326 48.1568 131.245C48.507 131.177 48.8612 131.128 49.2174 131.099C50.6229 130.906 51.8569 130.114 53.2149 129.713C53.6207 129.617 54.0183 129.492 54.4046 129.34C54.9417 129.098 55.3768 128.691 55.8043 128.296C56.0559 128.083 56.2724 127.835 56.4468 127.561C56.6967 127.118 56.7119 126.587 56.722 126.086C56.7312 126.007 56.7171 125.928 56.6813 125.857C56.6425 125.805 56.5896 125.765 56.5283 125.741C56.1154 125.547 55.6258 125.644 55.1686 125.72C53.5165 126.001 51.8255 125.949 50.1478 125.897C49.9886 125.918 49.8266 125.888 49.6871 125.812C49.5475 125.736 49.4382 125.618 49.376 125.477L48.7386 124.503C48.5568 124.224 48.2677 123.904 47.938 124C47.6745 124.076 47.5675 124.385 47.5777 124.649C47.5879 124.914 47.6729 125.177 47.6202 125.435C47.5827 125.577 47.515 125.71 47.4214 125.826C47.3279 125.942 47.2104 126.039 47.0763 126.11C46.8085 126.249 46.5228 126.354 46.2264 126.421C45.2881 126.674 44.1971 126.962 43.4713 127.621C42.9365 128.088 42.9858 129.135 43.0181 129.766Z" fill="#ECFB6D"/>
<path d="M42.6884 65.3778C43.0544 65.1107 43.3685 64.7844 43.6164 64.4137C43.83 63.9954 43.9641 63.5443 44.0124 63.0813L44.2792 61.4714C44.4271 60.5837 44.6005 59.644 45.2208 58.9672C45.8411 58.2904 47.0768 58.0486 47.7074 58.7172C47.962 59.0282 48.1187 59.402 48.1594 59.7948C48.3533 60.9515 48.2734 62.135 47.9257 63.2583C47.5779 64.3817 46.9712 65.4164 46.1499 66.2866C45.3869 67.085 44.4503 67.7196 43.643 68.4743C42.9393 69.1234 42.3297 69.8684 41.6798 70.5744C40.1097 72.2798 38.3113 73.7804 36.331 75.0375C36.3548 73.8301 36.5162 72.535 36.331 71.3356C36.1928 70.469 35.8211 70.0016 36.6998 69.4351C38.7402 68.1108 40.7984 66.9131 42.6884 65.3778Z" fill="#9F616A"/>
<path d="M25.5491 53.5011C25.4827 54.3645 25.1072 55.2474 24.3594 55.7451C26.4772 56.4527 28.5661 57.2328 30.6261 58.0854C30.2287 57.7203 30.1077 57.1603 30.089 56.6346C30.0372 55.26 30.5343 53.908 31.2618 52.7241C31.3776 52.5738 31.4444 52.3943 31.454 52.208C31.4301 51.825 30.9542 51.6481 30.5634 51.5589C29.2296 51.2499 27.8684 51.0614 26.4978 50.9957C25.9115 50.9779 25.2163 50.801 25.3488 51.5135C25.4743 52.1783 25.6018 52.8275 25.5491 53.5011Z" fill="#9F616A"/>
<path d="M34.5641 62.0326C34.3907 61.6764 34.1794 61.3381 33.9336 61.0231C33.0328 59.7881 32.1081 58.5546 30.9523 57.5322C30.0768 56.7867 29.1293 56.122 28.1224 55.5473C27.5791 55.1917 26.9818 54.918 26.3514 54.7358C25.9773 54.6564 25.597 54.6067 25.2143 54.5873L23.9242 54.4866C23.8111 54.4723 23.6963 54.4756 23.5843 54.4964C23.2342 54.5807 23.0744 54.9962 23.1492 55.3323C23.224 55.6684 23.4891 55.941 23.7238 56.1957C23.7815 58.7097 22.6104 61.1896 22.4525 63.7002C22.176 68.0904 24.9816 72.1737 25.2059 76.567C25.229 76.7655 25.207 76.9665 25.1412 77.1562C25.1039 77.2471 24.265 80.4088 23.4553 81.1713C23.6657 81.4207 23.9363 81.6179 24.2439 81.7458C24.7861 81.9714 25.4336 81.9908 26.0099 82.1482C27.5133 82.567 29.0524 82.9897 30.6143 82.8997C30.8084 82.4964 30.9285 82.0644 30.9696 81.6224C31.1906 81.4904 31.4455 81.7709 31.4795 82.0184C31.5135 82.2659 31.4641 82.5523 31.6495 82.7309C31.8349 82.9094 32.0693 82.8818 32.2955 82.8543C33.249 82.7388 34.1651 82.4324 35.0998 82.2261C36.0345 82.0199 36.0143 81.921 36.9235 82.2164C37.107 81.994 37.0289 81.6646 36.8793 81.4211C36.7296 81.1775 36.5164 80.9634 36.4323 80.6924C36.3895 80.5364 36.3712 80.3751 36.3778 80.2139C36.3778 78.8263 36.9116 70.8479 36.8945 70.0428C36.894 69.7102 36.8713 69.3778 36.8266 69.0479C36.7689 68.7014 36.6566 68.3646 36.626 68.0157C36.5342 67.1296 36.9081 66.2502 36.852 65.3605C36.7583 64.0109 35.1148 63.2774 34.5641 62.0326Z" fill="#ECFB6D"/>
<path d="M23.3513 61.3965C22.148 64.4444 21.5599 67.6774 20.9719 70.8875L19.6122 78.428C19.2263 80.5589 18.8389 82.7028 18.8541 84.8646C18.8541 85.4716 18.8949 86.0899 18.7283 86.6758C18.5107 87.445 17.9702 88.0861 17.5607 88.7857C16.7295 90.2141 16.4526 91.8767 16.7788 93.4809C16.9182 94.1544 17.2989 94.9189 18.0145 94.9968C18.602 95.0585 19.1107 94.6122 19.454 94.1511C20.2427 93.0951 20.6336 91.819 20.9837 90.5629C22.1108 86.4577 22.8991 82.2745 23.3412 78.0516C23.3832 77.5171 23.4621 76.9858 23.5774 76.4612C23.7275 75.9203 23.9196 75.3908 24.1519 74.8772C24.6721 73.6459 25.1927 72.4146 25.7139 71.1833C26.9155 68.3382 28.1241 65.4802 29.7746 62.8478C28.1429 62.3999 26.445 61.8743 24.8134 61.431C24.3423 61.2975 23.8381 61.377 23.3513 61.3965Z" fill="#9F616A"/>
<path d="M26.1796 63.7124C25.0374 63.4771 23.8562 63.5501 22.6903 63.5225C22.5247 63.534 22.3597 63.493 22.2211 63.4057C21.9849 63.2125 22.0851 62.8506 22.2039 62.5764L22.7682 61.278C22.8608 61.0096 23.0153 60.7644 23.2203 60.5606C23.5074 60.3172 23.9115 60.2572 24.2928 60.2141C25.5318 60.0778 26.8065 60.0326 28.008 60.352C29.2095 60.6715 30.3408 61.3988 30.8764 62.4749C31.1011 62.9229 31.2048 63.4877 30.907 63.8951C30.4652 64.5005 29.4742 65.1771 28.7348 64.8461C27.8504 64.4444 27.1723 63.9137 26.1796 63.7124Z" fill="#ECFB6D"/>
<path d="M29.8801 53.4325C32.5262 53.4325 34.6712 51.3842 34.6712 48.8575C34.6712 46.3309 32.5262 44.2826 29.8801 44.2826C27.234 44.2826 25.0889 46.3309 25.0889 48.8575C25.0889 51.3842 27.234 53.4325 29.8801 53.4325Z" fill="#9F616A"/>
<path d="M26.9452 55.966C26.9452 55.966 27.4563 56.329 27.6943 56.4894C27.8745 56.047 29.136 57.3951 29.4695 57.5418L29.3271 57.3797C28.305 55.9418 30.95 53.2948 29.9279 51.8587C29.641 51.4564 30.9363 48.2767 31.9235 48.1333C32.8014 48.0066 32.7644 48.2488 33.6149 48.4257C33.7032 48.074 33.8403 47.7351 34.0225 47.418C33.974 47.7714 33.9852 48.1299 34.0557 48.4798C34.3581 48.491 34.5959 48.3071 34.918 48.26C36.972 47.9601 36.7633 45.8385 36.1918 45.1661C35.6204 44.4937 33.7144 44.2944 32.8366 44.0771C32.7566 44.0025 32.5752 44.0492 32.4952 43.9781C30.8128 42.508 28.5629 42.2646 26.5381 42.9162C24.3781 43.611 23.0325 44.9559 22.3417 47.0293L22.1435 48.6885C21.9657 49.222 22.1893 51.7042 22.3417 52.2449C22.934 54.3459 26.9452 55.966 26.9452 55.966Z" fill="#090814"/>
<path d="M49.2469 58.8925L49.2436 58.8903C49.2172 58.8723 49.1805 58.8781 49.1617 58.9033L48.6463 59.5927C48.6275 59.618 48.6336 59.653 48.66 59.671L48.6633 59.6732C48.6897 59.6912 48.7264 59.6854 48.7452 59.6601L49.2605 58.9707C49.2794 58.9455 49.2733 58.9105 49.2469 58.8925Z" fill="#3A3768"/>
<path d="M49.974 57.3754L47.3652 55.5974C47.1694 55.464 46.8975 55.5074 46.7577 55.6943L42.4508 61.4562C42.311 61.6431 42.3565 61.9028 42.5522 62.0362L45.161 63.8142C45.3568 63.9477 45.6287 63.9043 45.7685 63.7174L50.0754 57.9555C50.2152 57.7685 50.1697 57.5088 49.974 57.3754Z" fill="#3A3768"/>
<path d="M49.9872 57.1924L47.3784 55.4144C47.1826 55.281 46.9107 55.3244 46.7709 55.5113L42.4639 61.2732C42.3242 61.4601 42.3696 61.7198 42.5654 61.8533L45.1742 63.6313C45.3699 63.7647 45.6419 63.7213 45.7816 63.5344L50.0886 57.7725C50.2284 57.5856 50.1829 57.3259 49.9872 57.1924Z" fill="#3A3768"/>
<path d="M49.7382 57.284L49.3592 57.0243L49.3266 57.0676C49.2862 57.1207 49.2257 57.1567 49.158 57.168C49.0903 57.1793 49.0206 57.165 48.9637 57.1281L47.7526 56.3031C47.6951 56.2639 47.6563 56.2044 47.6447 56.1379C47.6332 56.0713 47.6498 56.0031 47.6909 55.9482L47.7235 55.905L47.3606 55.6626C47.3262 55.6388 47.2871 55.6218 47.2457 55.6125C47.2043 55.6033 47.1614 55.6019 47.1195 55.6085C47.0775 55.6151 47.0373 55.6295 47.0012 55.651C46.9651 55.6724 46.9338 55.7005 46.9091 55.7335L42.7253 61.3335C42.6756 61.4001 42.6554 61.4829 42.6693 61.5637C42.6833 61.6445 42.7301 61.7167 42.7996 61.7646L45.182 63.3867C45.2166 63.4104 45.2558 63.4273 45.2972 63.4364C45.3387 63.4456 45.3817 63.4468 45.4236 63.44C45.4656 63.4333 45.5057 63.4187 45.5418 63.397C45.5778 63.3754 45.609 63.3472 45.6335 63.314L49.818 57.715C49.8426 57.6818 49.8601 57.6442 49.8694 57.6045C49.8787 57.5647 49.8796 57.5236 49.8722 57.4836C49.8648 57.4435 49.8491 57.4052 49.8261 57.3709C49.8031 57.3366 49.7732 57.3071 49.7382 57.2839V57.284Z" fill="#ECFB6D"/>
<path d="M100.154 10.0454H137V21.5954H135.604V24.6162L132.441 21.5956H100.154V10.0454Z" fill="#E6E6E6"/>
<path d="M135.976 11.1704H101.177V20.4106H135.976V11.1704Z" fill="white"/>
<path d="M120.221 13.1375H104.485C104.204 13.1375 103.976 13.3551 103.976 13.6236C103.976 13.8921 104.204 14.1098 104.485 14.1098H120.221C120.503 14.1098 120.73 13.8921 120.73 13.6236C120.73 13.3551 120.503 13.1375 120.221 13.1375Z" fill="#ECFB6D"/>
<path d="M132.669 15.3041H104.485C104.204 15.3041 103.976 15.5217 103.976 15.7902C103.976 16.0588 104.204 16.2764 104.485 16.2764H132.669C132.95 16.2764 133.178 16.0588 133.178 15.7902C133.178 15.5217 132.95 15.3041 132.669 15.3041Z" fill="#E6E6E6"/>
<path d="M132.64 17.4706H104.485C104.204 17.4706 103.976 17.6882 103.976 17.9568C103.976 18.2253 104.204 18.4429 104.485 18.4429H132.64C132.922 18.4429 133.15 18.2253 133.15 17.9568C133.15 17.6882 132.922 17.4706 132.64 17.4706Z" fill="#E6E6E6"/>
<path d="M99.9839 32.9108H46.4336V49.697H48.4619V54.087L53.0596 49.697H99.9839V32.9108Z" fill="white"/>
<path d="M48.292 54.4789V49.8589H46.2637V32.7484H100.154V49.8589H53.1302L48.292 54.4789ZM46.6036 49.5347H48.6321V53.6953L52.9893 49.5347H99.8138V33.073H46.6036V49.5347Z" fill="#3F3D56"/>
<path d="M75.695 36.8058H53.4432C52.8636 36.8058 52.3938 37.2544 52.3938 37.8077C52.3938 38.3611 52.8636 38.8097 53.4432 38.8097H75.695C76.2746 38.8097 76.7444 38.3611 76.7444 37.8077C76.7444 37.2544 76.2746 36.8058 75.695 36.8058Z" fill="#ECFB6D"/>
<path d="M93.7855 40.5452H53.4432C52.8636 40.5452 52.3938 40.9938 52.3938 41.5471C52.3938 42.1005 52.8636 42.5491 53.4432 42.5491H93.7855C94.3651 42.5491 94.8349 42.1005 94.8349 41.5471C94.8349 40.9938 94.3651 40.5452 93.7855 40.5452Z" fill="#E6E6E6"/>
<path d="M93.7855 44.2847H53.4432C52.8636 44.2847 52.3938 44.7333 52.3938 45.2866C52.3938 45.84 52.8636 46.2886 53.4432 46.2886H93.7855C94.3651 46.2886 94.8349 45.84 94.8349 45.2866C94.8349 44.7333 94.3651 44.2847 93.7855 44.2847Z" fill="#E6E6E6"/>
<path d="M134.232 30.1348C135.734 30.1348 136.951 28.9722 136.951 27.5381C136.951 26.1039 135.734 24.9413 134.232 24.9413C132.73 24.9413 131.512 26.1039 131.512 27.5381C131.512 28.9722 132.73 30.1348 134.232 30.1348Z" fill="#ECFB6D"/>
<path d="M49.032 20.0898C50.5339 20.0898 51.7515 18.9272 51.7515 17.493C51.7515 16.0589 50.5339 14.8962 49.032 14.8962C47.5301 14.8962 46.3125 16.0589 46.3125 17.493C46.3125 18.9272 47.5301 20.0898 49.032 20.0898Z" fill="#E6E6E6"/>
<path d="M83.1101 0H46.2637V11.55H47.6594V14.571L50.823 11.55H83.1101V0Z" fill="#E6E6E6"/>
<path d="M82.0861 1.125H47.2869V10.3652H82.0861V1.125Z" fill="white"/>
<path d="M66.3311 3.09204H50.5947C50.3134 3.09204 50.0854 3.30971 50.0854 3.57821C50.0854 3.84672 50.3134 4.06439 50.5947 4.06439H66.3311C66.6124 4.06439 66.8404 3.84672 66.8404 3.57821C66.8404 3.30971 66.6124 3.09204 66.3311 3.09204Z" fill="#ECFB6D"/>
<path d="M78.7787 5.25867H50.5947C50.3134 5.25867 50.0854 5.47633 50.0854 5.74484C50.0854 6.01335 50.3134 6.23101 50.5947 6.23101H78.7787C79.0599 6.23101 79.2879 6.01335 79.2879 5.74484C79.2879 5.47633 79.0599 5.25867 78.7787 5.25867Z" fill="#E6E6E6"/>
<path d="M78.7502 7.42529H50.5947C50.3134 7.42529 50.0854 7.64296 50.0854 7.91147C50.0854 8.17997 50.3134 8.39764 50.5947 8.39764H78.7502C79.0314 8.39764 79.2594 8.17997 79.2594 7.91147C79.2594 7.64296 79.0314 7.42529 78.7502 7.42529Z" fill="#E6E6E6"/>
</g>
</g>
<defs>
<clipPath id="clip0_180_1830">
<rect width="137" height="132" fill="white"/>
</clipPath>
<clipPath id="clip1_180_1830">
<rect width="137" height="132" fill="white"/>
</clipPath>
</defs>
</svg>
